<svg width="167" height="130" viewBox="0 0 167 130" fill="none" xmlns="http://www.w3.org/2000/svg">
<path fill-rule="evenodd" clip-rule="evenodd" d="M76.4471 0.0610105C73.5752 0.267492 71.4616 0.522778 68.6346 0.984546C59.1665 2.5463 51.8421 4.89643 43.8494 8.91719C42.7043 9.48032 41.4392 10.1223 41.0224 10.3175C39.7422 10.9407 35.53 13.6813 33.4615 15.243C33.0748 15.5396 32.2413 16.1816 31.5994 16.6734C30.9762 17.1614 30.2141 17.7283 29.9325 17.9385C29.2492 18.4116 26.0169 21.1221 24.5002 22.4774C23.8432 23.0555 23.1149 23.6825 22.8633 23.874C22.6231 24.0542 21.6132 24.9927 20.6296 25.9463C19.646 26.8961 18.4259 28.0599 17.904 28.5066C16.8791 29.4114 14.6454 32.137 13.6055 33.7588C11.4918 37.0325 9.74988 40.873 7.82772 46.5156C6.87416 49.2975 5.86427 51.9179 4.61412 54.8499C4.4189 55.3117 3.94212 56.1752 3.57045 56.7871C3.18377 57.3953 2.70698 58.2437 2.5005 58.6604C1.85853 59.9256 0.638415 63.7512 0.371867 65.3467C-0.0899011 68.1135 -0.134952 73.7261 0.311799 76.4329C1.57697 84.1891 3.02234 87.3764 7.33592 91.8551C9.46456 94.0589 11.4918 95.5455 14.2287 96.9008C15.4638 97.5127 16.759 98.1059 17.1307 98.2411C20.0777 99.296 21.8197 99.8329 22.8483 100.013C25.7203 100.516 26.3172 100.561 30.3042 100.49C36.3635 100.385 40.6508 99.8929 44.7429 98.8192C46.7363 98.3162 50.4755 97.096 51.6656 96.5592C52.1724 96.3339 52.8257 96.2326 54.271 96.1575C55.341 96.1124 56.6362 95.9923 57.173 95.9172C57.7061 95.8459 59.8798 95.6356 62.0085 95.4705C65.2108 95.2039 67.0241 95.1589 72.5766 95.1589C76.2707 95.1739 80.3177 95.249 81.5829 95.3391C82.8481 95.4292 84.9467 95.5455 86.2419 95.6206C87.5221 95.6807 88.607 95.7708 88.6521 95.8158C88.8022 95.9623 89.4705 99.6977 89.7108 101.74C90.0224 104.462 90.0674 109.031 89.7858 110.371C89.0688 113.75 87.9238 116.46 86.0054 119.302C84.6651 121.281 84.1283 121.968 82.5665 123.665C81.3614 124.975 81.2112 125.08 79.1727 126.135C77.9976 126.747 76.6424 127.52 76.1355 127.877C75.0919 128.605 74.2134 129.559 74.3936 129.735C74.4537 129.795 75.0356 129.81 75.6738 129.735C76.6274 129.649 76.8188 129.679 76.8188 129.84C76.8188 130.167 77.9376 129.975 79.2478 129.424C80.8095 128.77 82.758 127.46 84.7102 125.718C87.9838 122.816 89.8872 120.346 91.5578 116.877C93.4012 113.036 93.968 109.703 93.6414 104.717C93.4011 101.053 92.9244 98.5827 92.0759 96.4841C91.9445 96.1575 92.3612 96.1425 94.0131 96.4391C94.6663 96.5592 95.8714 96.7657 96.6898 96.9008C98.657 97.2124 100.696 97.6441 103.241 98.2861C104.386 98.5677 106.263 99.0144 107.408 99.281C108.553 99.5513 110.43 100.013 111.575 100.31C114.061 100.948 115.998 101.293 117.278 101.293C119.925 101.293 122.962 100.561 124.974 99.4462C127.444 98.0458 129.258 95.7708 130.08 93.0302C130.673 91.0067 130.778 90.1582 130.763 86.9296C130.733 81.9703 130.256 80.3035 127.651 76.1513C127.118 75.3028 126.686 74.5895 126.686 74.5745C126.686 74.5595 127.936 74.4994 129.483 74.4544C132.696 74.3643 135.035 73.9476 139.037 72.7575C140.096 72.4309 140.363 72.4008 140.749 72.551C144.188 73.8725 153.656 72.8326 158.852 70.5538C161.514 69.3787 163.271 67.6968 164.641 64.9863C165.711 62.8314 166.248 59.0471 165.981 55.4769C165.891 54.4332 165.771 53.3332 165.696 53.0366C165.625 52.7363 165.61 51.4561 165.64 50.206C165.726 47.6156 165.565 46.5006 164.701 43.8951C163.763 41.0832 160.845 35.084 159.164 32.5236C157.928 30.6503 156.468 28.7432 155.113 27.2565C154.651 26.7497 153.893 25.8712 153.401 25.3043C151.467 23.0142 148.862 20.5252 145.709 17.9235C144.89 17.2515 141.451 14.7512 140.378 14.0529C137.521 12.1758 136.657 11.669 134.664 10.6892C130.523 8.63562 123.318 5.97013 119.467 5.07663C117.695 4.65992 112.127 3.82648 110.089 3.6613C108.94 3.57119 106.931 3.45481 105.621 3.40976C103.331 3.31966 103.196 3.28963 102.051 2.79783C99.5205 1.69785 94.7564 0.684209 89.9923 0.222441C87.9988 0.0309768 78.5007 -0.074141 76.4471 0.0610105V0.0610105ZM86.4934 4.01795C88.5657 4.1531 90.3039 4.27323 90.349 4.30327C90.409 4.34832 91.1524 4.43466 92.0008 4.53978C95.6649 4.92646 98.3004 5.65853 101.217 7.11517C103.864 8.4404 105.921 9.85574 110.415 13.441C112.232 14.8864 117.128 18.085 117.529 18.085C118.126 18.085 117.514 16.2829 116.309 14.5147C115.029 12.6076 113.182 10.7342 109.402 7.50185C108.955 7.11517 108.628 6.77353 108.673 6.7435C108.823 6.59333 113.036 7.20527 117.158 7.9486C120.27 8.51549 120.747 8.63562 124.302 9.78065C130.823 11.8793 134.378 13.5311 138.741 16.4331C145.633 21.047 148.757 23.919 153.983 30.4851C156.141 33.2069 157.181 34.8775 159.104 38.6993C161.202 42.9003 161.799 44.5221 162.317 47.4842C162.678 49.5077 162.632 50.7428 162.201 51.4861C161.604 52.4848 160.429 53.2732 158.165 54.1817C154.756 55.5369 150.383 56.1151 148.044 55.5219C146.899 55.2216 144.901 54.2267 142.863 52.9465C137.907 49.8193 133.875 48.7794 128.991 49.4026C127.936 49.5377 125.447 49.8793 123.484 50.1609C115.757 51.2647 113.407 51.4111 111.77 50.9531C111.083 50.7578 110.892 50.7578 110.757 50.908C110.637 51.0394 110.802 51.2797 111.429 51.8428C112.379 52.7063 113.422 53.2581 115.044 53.6899C117.113 54.2568 123.022 54.0315 125.939 53.2882C127.073 52.9916 130.211 52.5148 131.762 52.3947C134.559 52.1882 137.772 53.2131 142.24 55.7735C145.694 57.7407 146.914 58.1837 149.605 58.4239C151.483 58.6004 152.643 58.529 155.188 58.0372C157.598 57.5755 159.37 56.9786 161.262 56.0287C162.066 55.627 162.764 55.2967 162.794 55.2967C162.914 55.2967 162.854 57.4403 162.704 59.0922C162.377 62.516 161.382 64.7798 159.475 66.3566C157.181 68.2487 151.989 69.7954 147.195 69.9906C145.022 70.077 144.815 70.062 144.113 69.7654C143.711 69.5889 143.088 69.4388 142.731 69.4388C142.371 69.4388 141.763 69.2886 141.346 69.0821C139.901 68.4101 135.422 64.3481 133.263 61.7727C132.636 61.0293 132.073 60.4324 131.983 60.4324C131.747 60.4324 131.878 61.6375 132.22 62.6662C132.952 64.7798 134.408 67.145 136.225 69.1272C137.254 70.2272 137.34 70.4787 136.777 70.4787C136.612 70.4787 135.572 70.6739 134.453 70.9254C131.773 71.5073 130.226 71.6575 127.429 71.5974C123.735 71.5073 120.582 70.9254 117.991 69.8555C115.833 68.977 110.802 67.0699 110.014 66.8634C109.567 66.7282 108.823 66.5668 108.377 66.4767C107.93 66.3866 107.202 66.2102 106.77 66.09C105.978 65.8798 103.241 65.4631 100.309 65.1064C98.7884 64.93 98.7171 64.8999 98.657 64.5395C98.597 64.2279 98.7584 63.9464 99.4154 63.143C100.992 61.2659 102.287 58.9908 102.644 57.5004C102.764 56.9786 102.869 56.4755 102.869 56.3704C102.869 55.9687 102.347 56.2352 101.409 57.1287C100.861 57.6506 99.8471 58.529 99.1488 59.1072C98.4468 59.6741 97.4219 60.5676 96.84 61.0894C96.2731 61.6075 95.4097 62.3696 94.9329 62.7713C94.0844 63.4696 94.0431 63.4846 93.0745 63.4846C92.5227 63.4846 90.9759 63.6648 89.6207 63.8563C83.7866 64.7348 78.4857 65.0464 69.5281 65.0464C64.9405 65.0464 64.1972 65.0013 62.5904 64.7197C57.9915 63.9013 55.1608 62.2194 49.7284 57.0086C46.7664 54.1667 45.4111 53.3633 42.434 52.665C41.0224 52.3346 38.402 52.4698 36.9003 52.9616C35.1734 53.5134 33.2512 54.6585 33.5478 54.955C33.6079 55.0001 34.1748 54.955 34.8017 54.8349C36.4385 54.5383 38.5221 54.5984 40.0238 54.9851C42.8658 55.7284 44.6528 56.8021 47.0667 59.2123C47.6749 59.8092 48.7899 60.8341 49.567 61.4761L50.9636 62.6512L49.567 62.9027C46.5299 63.4395 44.6528 64.4081 42.5391 66.5067C41.1989 67.832 40.6508 68.6053 38.5372 72.1193C37.1669 74.4093 36.8402 74.9011 35.9317 76.0762C35.4249 76.7482 34.7116 77.5516 34.3399 77.8782C32.598 79.4099 27.4322 81.197 23.235 81.7338C22.2214 81.8539 21.3579 81.9853 21.3279 82.0154C20.9712 82.372 22.7282 83.0741 24.8718 83.4307C26.2421 83.6522 28.7725 83.5208 30.4543 83.1341C31.7045 82.8338 34.6515 81.8239 35.4399 81.4222C36.0819 81.0918 38.0303 79.2035 38.7737 78.2199C39.6672 77.0148 41.0825 74.8711 41.8258 73.6059C43.9545 69.9906 45.7715 67.862 47.4234 67.0586C50.2653 65.6733 53.2724 65.7033 59.2566 67.205C60.5969 67.5316 62.4102 67.862 64.3173 68.1135C66.9528 68.4702 78.3543 68.2637 83.2648 67.7869C85.0368 67.6067 86.4634 67.7719 89.6957 68.4852C92.8343 69.1985 94.6963 69.9456 97.8086 71.7439C101.037 73.6059 102.051 74.4694 104.401 77.4014C107.187 80.8553 109.24 82.984 109.803 82.984C110.119 82.984 110.059 81.8389 109.702 80.6601C109.075 78.6366 106.353 73.8575 105.058 72.536C104.089 71.5374 102.227 70.092 100.902 69.3337C100.264 68.962 99.742 68.6354 99.772 68.6204C99.8321 68.5603 102.227 68.7818 104.21 69.007C105.576 69.1722 107.573 69.5739 109.863 70.1671C110.997 70.4524 113.809 71.4623 116.786 72.6223C118.393 73.2643 120.923 73.9326 122.485 74.1428L123.262 74.2479L123.499 75.0813C123.634 75.5394 124.081 76.7182 124.482 77.698C124.899 78.6816 125.627 80.6151 126.104 82.0154C126.877 84.3092 126.983 84.7409 127.129 86.5392C127.711 93.3005 124.824 97.1523 118.674 97.8544C116.636 98.0909 114.999 97.8544 111.575 96.8407C110.742 96.6042 109.135 96.1575 108.005 95.8722C106.856 95.5906 104.476 94.9824 102.719 94.5206C98.8185 93.522 96.9902 93.1954 90.364 92.3019C89.4292 92.1667 87.2555 91.9903 85.5286 91.9002C80.8996 91.6599 68.9462 91.5586 66.476 91.75C62.5603 92.0466 59.0764 92.5234 56.426 93.0903C55.7277 93.2405 55.1458 93.3568 55.1308 93.3418C55.1195 93.3268 55.4611 92.6135 55.9079 91.7651C57.1881 89.2497 57.7212 87.9245 58.3631 85.6494C58.6897 84.4706 59.0764 83.1341 59.2116 82.6874C59.4481 81.8802 59.9399 80.9154 60.1201 80.8854C60.1802 80.8854 65.1207 80.8553 71.0899 80.8253C81.9846 80.7953 83.6365 80.7202 86.0054 80.2134C87.8787 79.8117 87.6122 79.6052 84.6201 79.1284C78.084 78.0847 66.506 77.4916 61.0136 77.9233C58.7648 78.0847 58.0215 78.4001 57.0229 79.5151C56.3959 80.2284 55.6376 81.7038 55.386 82.6874C54.5977 85.7959 53.9707 87.6279 52.8707 90.0081C52.7055 90.3948 52.5591 90.7402 52.5591 90.7815C52.5591 90.9767 51.5004 92.4633 51.1288 92.8237C50.1301 93.7435 48.3018 94.4606 44.1459 95.5606C42.8395 95.9022 39.517 96.5592 36.5549 97.051C33.2512 97.5841 26.3022 97.4977 23.5766 96.8858C21.8347 96.4841 15.9856 94.2353 14.3638 93.3268C11.2816 91.6036 8.39461 88.9231 6.48747 86.0361C5.47759 84.4856 5.35746 84.2341 4.71924 82.4171C3.36397 78.5315 2.75203 74.2329 2.88719 69.7804C3.00732 66.2364 3.36397 64.3781 4.4189 61.7426C4.80559 60.7741 5.29739 59.4488 5.52264 58.7956C5.74414 58.1424 6.43116 56.6069 7.03934 55.3868L8.15434 53.168L8.25946 53.9001C8.58607 56.1451 10.5082 59.7792 12.4266 61.8177C13.887 63.3645 16.4924 64.9563 18.9927 65.8197C20.4344 66.3115 22.3715 66.4317 23.0848 66.06C23.6067 65.7897 23.8732 65.2716 23.5015 65.2716C23.3814 65.2716 22.8033 64.9562 22.1913 64.5846C21.5831 64.1979 20.2429 63.3945 19.2142 62.7713C17.1006 61.5061 15.0771 60.0457 14.2887 59.2123C12.6519 57.5004 11.3266 54.88 10.7297 52.1732C10.2379 49.9244 10.2116 48.5842 10.6434 46.9323C11.2816 44.417 13.9471 38.5229 15.7041 35.7222C18.7074 30.9469 21.8197 28.2514 26.4336 26.4193C28.6223 25.5596 28.9339 25.4545 30.5294 25.1692C31.2277 25.0378 32.1362 24.8576 32.5379 24.7825C33.3263 24.621 35.3648 24.3357 38.3419 23.9641C39.3255 23.8327 41.274 23.5173 42.6593 23.2508C45.6063 22.6989 45.8428 22.5074 44.1459 22.0457C41.5705 21.3736 33.8331 21.674 29.5759 22.6238C29.009 22.759 28.4871 22.834 28.4158 22.819C28.3557 22.789 28.7875 22.4023 29.3656 21.9556C29.9475 21.5088 30.6308 20.9719 30.8861 20.7505C31.1376 20.5402 31.8096 20.0522 32.3727 19.6355C32.9546 19.23 33.8481 18.5918 34.3812 18.1901C38.0604 15.5246 40.8122 13.8727 44.3712 12.1608C48.6285 10.1223 51.9322 8.81207 54.8642 7.97864C55.7727 7.71209 56.9328 7.3667 57.4696 7.20527C60.4467 6.29675 68.4094 4.8664 73.7666 4.30327C75.0055 4.16811 77.2806 4.00293 78.8273 3.94662C80.3928 3.90157 81.8945 3.8415 82.2099 3.82648C82.5064 3.81146 84.4399 3.90157 86.4934 4.01795V4.01795Z" fill="#B8C7D5"/>
<path fill-rule="evenodd" clip-rule="evenodd" d="M79.9311 5.04699C79.9011 5.07703 79.1127 5.13709 78.1741 5.19716C77.2356 5.23846 76.0305 5.35859 75.4936 5.43368C74.9605 5.50876 73.2486 5.74527 71.6831 5.95551C66.9077 6.60874 62.5303 7.6374 62.5303 8.09916C62.5303 8.39575 63.0972 8.38073 64.659 8.0391C70.5531 6.74389 78.099 6.00056 85.8252 5.97053C89.7859 5.95551 92.3913 6.17701 95.6349 6.78894C96.5435 6.95038 96.6185 6.95038 96.6185 6.78894C96.6185 6.49236 93.9981 5.85039 91.3476 5.49374C89.234 5.21218 80.1526 4.85177 79.9311 5.04699V5.04699Z" fill="#B8C7D5"/>
<path fill-rule="evenodd" clip-rule="evenodd" d="M98.9984 7.94841C98.9984 8.17366 99.325 8.35011 100.917 9.07842C102.569 9.82551 103.417 9.94189 102.272 9.28866C100.294 8.12861 98.9984 7.60677 98.9984 7.94841V7.94841Z" fill="#B8C7D5"/>
<path fill-rule="evenodd" clip-rule="evenodd" d="M122.962 10.9103C122.309 11.0905 122.309 11.0905 122.53 11.297C122.65 11.4021 123.142 11.6387 123.634 11.8189C125.406 12.4871 128.308 13.8424 131.893 15.6744C133.902 16.6993 136.777 18.1597 138.294 18.9331C140.171 19.9017 141.065 20.2884 141.106 20.1532C141.286 19.6051 137.938 17.4464 132.637 14.6908C127.666 12.1154 123.916 10.6438 122.962 10.9103V10.9103Z" fill="#B8C7D5"/>
<path fill-rule="evenodd" clip-rule="evenodd" d="M36.7801 17.5069C36.4986 17.7434 35.8116 18.2202 35.2484 18.5468C34.6966 18.8735 33.9682 19.3953 33.6379 19.7219C33.1198 20.2137 33.0597 20.3338 33.2061 20.6004C33.3563 20.8857 33.5065 20.912 34.888 20.912C36.9566 20.912 39.3105 20.7506 39.3105 20.6004C39.3105 20.4089 38.3869 20.2888 36.3484 20.1837L34.4713 20.0936L35.5 19.4554C36.0668 19.0987 36.8102 18.5318 37.1668 18.2052C38.2368 17.2066 37.8801 16.5684 36.7801 17.5069V17.5069Z" fill="#B8C7D5"/>
<path fill-rule="evenodd" clip-rule="evenodd" d="M77.9375 17.7887C75.8389 18.0253 73.0983 18.427 67.0691 19.3655C63.1985 19.9774 60.06 20.8259 59.2265 21.5092C59.0013 21.6894 58.93 21.8358 59.0313 21.9409C59.2566 22.1511 66.5059 22.1774 70.0462 21.9709C75.3321 21.6593 77.4457 21.5242 79.2778 21.344C81.3613 21.1525 84.4999 21.2576 86.422 21.5993C90.2626 22.2675 95.1881 24.2798 100.264 27.2418C101.394 27.8951 105.324 29.8285 105.741 29.9186C105.963 29.9787 106.173 30.0838 106.218 30.1438C106.263 30.2189 105.801 30.5455 105.174 30.8872C103.477 31.8257 100.665 34.6076 98.5519 37.4345C97.3017 39.1164 96.1266 40.5618 95.1881 41.6205C94.6212 42.2437 93.7277 43.2873 93.1946 43.9255C92.6728 44.5675 91.7943 45.6074 91.2574 46.2194C90.7206 46.8275 89.4854 48.348 88.5056 49.5681C87.522 50.8032 86.1367 52.395 85.4234 53.1233C84.6951 53.8554 84.1132 54.5237 84.1132 54.5988C84.1132 54.6889 84.3947 54.7039 84.8265 54.6588C86.4671 54.4336 89.7858 52.2336 92.7328 49.4179C95.8714 46.4108 99.2051 42.7204 101.232 40.0249C105.324 34.5776 106.293 33.624 109 32.4489L110.31 31.8858L111.68 32.3025C112.439 32.524 113.629 32.9407 114.331 33.2223C115.998 33.9093 116.741 34.1008 119.035 34.4011C121.565 34.7427 124.734 34.7427 128.469 34.4011C131.833 34.0858 134.333 34.1308 136.807 34.5325C139.454 34.9642 140.438 35.411 142.953 37.3482C146.242 39.8635 146.838 40.2802 148.254 41.1136C149.771 42.0071 151.437 42.7805 151.884 42.7955C152.496 42.7955 151.989 41.857 149.936 39.1051C149.012 37.8662 145.348 34.1759 144.083 33.1923C143.219 32.509 141.583 31.6906 140.302 31.2889C137.475 30.3804 132.651 30.0537 128.946 30.5005C123.052 31.2288 123.172 31.2288 119.467 31.1087C116.058 31.0223 115.848 30.9923 114.838 30.6056C114.256 30.3804 113.644 30.0537 113.482 29.8886C113.302 29.7121 112.78 29.4869 112.292 29.3817C111.77 29.2804 109.998 28.507 107.855 27.4483C104.698 25.9016 103.226 25.0982 100.039 23.2211C97.2717 21.5993 94.028 20.0788 90.9158 18.9638C86.8838 17.5222 83.1596 17.1768 77.9375 17.7887V17.7887Z" fill="#B8C7D5"/>
<path fill-rule="evenodd" clip-rule="evenodd" d="M76.9838 23.0553C75.0917 23.1604 74.0668 23.2806 74.0367 23.3857C74.0067 23.472 74.0818 23.5922 74.2132 23.6522C74.3333 23.6973 76.537 23.7423 79.0974 23.7574C84.0379 23.7874 86.3468 23.9188 87.7021 24.2642C88.1638 24.3806 90.2774 25.0225 92.3911 25.6908C97.8534 27.4027 97.2115 27.2262 97.2115 27.016C97.2115 26.5693 90.2474 23.8174 88.0287 23.3707C85.4232 22.8639 82.2247 22.7738 76.9838 23.0553V23.0553Z" fill="#B8C7D5"/>
<path fill-rule="evenodd" clip-rule="evenodd" d="M79.1278 24.9174C78.9026 25.2891 79.3493 25.3942 81.3766 25.4693C83.1148 25.5294 85.5738 25.7959 89.6659 26.3628C90.871 26.5242 90.4393 26.1976 88.9976 25.856C86.4523 25.244 84.2035 24.9325 81.7182 24.8273C79.8261 24.7522 79.2179 24.7823 79.1278 24.9174Z" fill="#B8C7D5"/>
<path fill-rule="evenodd" clip-rule="evenodd" d="M29.7672 26.5692C26.3584 27.5528 23.385 29.2647 20.9861 31.6299C19.766 32.85 16.5374 37.2274 16.5374 37.6892C16.5374 38.241 17.1155 37.6291 19.3192 34.7421C20.7946 32.8199 22.7581 30.9466 24.4249 29.8278C25.7802 28.9381 28.6822 27.4327 30.1839 26.8508C30.6907 26.6593 31.0624 26.4491 31.0324 26.3927C30.931 26.2426 30.946 26.2426 29.7672 26.5692Z" fill="#B8C7D5"/>
<path fill-rule="evenodd" clip-rule="evenodd" d="M77.1905 28.9651C76.4172 29.4118 75.197 29.9036 71.0149 31.4842C69.6596 31.9872 67.6211 32.7756 66.476 33.2224C63.9006 34.221 63.2587 34.4462 60.8184 35.1295C57.7813 35.993 56.6362 36.0981 48.3882 36.1844C40.8123 36.2745 40.9024 36.2595 36.097 36.9916C33.8782 37.3332 29.9326 38.7899 27.7739 40.0851C24.6204 41.9772 21.5231 45.5775 21.8197 46.9778C21.9398 47.5146 22.6081 47.9013 23.175 47.7662C23.3852 47.7061 24.1736 47.0829 24.932 46.3809C25.6753 45.6676 26.6889 44.7741 27.1807 44.4024C29.0391 43.0021 32.2977 41.5755 35.0833 40.9485C38.7587 40.1451 40.7672 39.9799 47.1982 39.9649C52.3489 39.9649 52.5141 39.9799 53.8544 40.3403C56.4861 41.0386 58.5396 42.2738 60.9986 44.6239C63.3037 46.8276 63.7505 47.1843 66.0293 48.7047C70.1063 51.4115 72.22 52.3501 74.2585 52.3801C75.197 52.3951 75.5237 52.3501 75.6288 52.1736C75.7339 52.0084 75.7039 51.9033 75.5237 51.8019C75.3923 51.7118 74.8104 51.2651 74.2285 50.7883C73.6503 50.3265 72.0735 49.1214 70.7333 48.1078C67.7712 45.9041 65.7439 44.2973 64.4525 43.1372C62.6355 41.5154 61.1 40.2352 60.4618 39.8185L59.8348 39.3868L60.4768 39.2216C62.3501 38.7448 64.9556 37.6298 69.8698 35.1896C72.6367 33.8043 75.2571 32.1224 76.6574 30.8122C78.3543 29.2054 78.6809 28.1016 77.1905 28.9651V28.9651Z" fill="#B8C7D5"/>
<path fill-rule="evenodd" clip-rule="evenodd" d="M99.9222 33.0759C99.4003 33.3274 98.4017 34.3561 96.7349 36.3646C96.1417 37.0779 95.6199 37.6898 95.5748 37.7349C95.3533 37.9413 93.5663 40.0399 92.7028 41.1287C91.7042 42.3638 91.5578 42.6454 91.8694 42.6454C92.211 42.6454 96.0816 38.5533 98 36.1431C99.1188 34.7428 100.144 33.4776 100.279 33.3575C100.65 32.9708 100.455 32.8206 99.9222 33.0759Z" fill="#B8C7D5"/>
<path fill-rule="evenodd" clip-rule="evenodd" d="M69.1224 36.7506C68.0975 37.3626 66.7122 38.0458 65.9238 38.3274C62.53 39.5325 62.2034 39.9793 63.66 41.2895C64.4522 41.9765 66.2955 43.0915 66.6822 43.0915C67.0088 43.0915 66.8173 42.855 65.9539 42.213C65.4771 41.8564 64.7638 41.2444 64.3921 40.8577C63.5587 40.0243 63.4686 40.1294 65.8037 39.296C67.6808 38.6277 67.9023 38.5226 69.4828 37.4789C70.6278 36.7206 71.3111 36.0824 71.3111 35.782C71.3111 35.5005 70.8644 35.6957 69.1262 36.7506H69.1224V36.7506Z" fill="#B8C7D5"/>
<path fill-rule="evenodd" clip-rule="evenodd" d="M115.626 35.7369C115.431 35.9321 115.833 36.3639 116.445 36.6154C117.665 37.0922 120.462 37.599 122.369 37.6891C123.945 37.7492 125.015 37.6741 129.363 37.1522C132.193 36.8106 134.87 36.499 135.317 36.454C135.974 36.3789 136.075 36.3338 135.854 36.2137C135.392 35.9622 130.331 36.1837 127.726 36.5591C124.302 37.0621 121.25 37.0471 118.87 36.499C117.886 36.2587 116.831 35.9772 116.52 35.857C115.893 35.6205 115.758 35.6055 115.626 35.7369V35.7369Z" fill="#B8C7D5"/>
<path fill-rule="evenodd" clip-rule="evenodd" d="M156.006 36.9012C156.006 37.0025 156.603 38.3278 157.331 39.8332C158.983 43.227 160.072 46.3505 160.087 47.6457C160.087 48.8095 159.52 50.0146 158.461 51.0545C157.673 51.8429 157.512 51.918 154.936 52.9316C154.043 53.2733 153.329 53.6149 153.329 53.675C153.329 53.9152 154.741 53.8251 155.916 53.5098C158.12 52.9466 159.49 51.888 160.519 49.9545C161.514 48.0925 161.423 46.9024 160.027 43.3584C159.43 41.8717 157.898 38.8496 157.02 37.408C156.588 36.721 156.006 36.4244 156.006 36.9012V36.9012Z" fill="#B8C7D5"/>
<path fill-rule="evenodd" clip-rule="evenodd" d="M119.316 38.4777C119.211 38.6579 119.301 38.6879 120.506 38.9845C122.012 39.3411 123.9 39.4012 126.239 39.1609C127.429 39.0446 129.156 38.8944 130.08 38.8343C130.984 38.7893 131.747 38.6842 131.747 38.6128C131.747 38.3726 129.99 38.2825 127.576 38.4026C124.392 38.5678 122.143 38.5828 120.627 38.4476C119.868 38.3726 119.361 38.3876 119.316 38.4777V38.4777Z" fill="#B8C7D5"/>
<path fill-rule="evenodd" clip-rule="evenodd" d="M14.7201 39.9944C13.9467 41.1883 12.6365 46.2189 13.0983 46.2189C13.1884 46.2189 13.2597 46.1438 13.2597 46.0687C13.2597 45.9786 13.7365 44.5971 14.3034 43.0015C14.8853 41.3947 15.3433 39.9794 15.3433 39.878C15.3433 39.5477 14.9566 39.6378 14.7201 39.9944V39.9944Z" fill="#B8C7D5"/>
<path fill-rule="evenodd" clip-rule="evenodd" d="M39.7274 41.0082C36.6903 41.2897 34.1599 42.0931 30.691 43.8651C27.759 45.3706 27.0307 45.8173 27.4474 45.8886C27.5976 45.9187 28.9491 45.3706 30.4395 44.6685C33.8483 43.0917 34.8282 42.7201 36.6152 42.3484C38.0756 42.0518 41.2291 41.56 42.7796 41.3798C43.6431 41.2747 43.9697 41.0082 43.1963 41.0082C42.9711 41.0082 42.3779 40.9781 41.9011 40.9481C41.4243 40.9181 40.4407 40.9331 39.7274 41.0082V41.0082Z" fill="#B8C7D5"/>
<path fill-rule="evenodd" clip-rule="evenodd" d="M67.5158 44.4322C67.3694 44.6837 67.6209 44.9841 68.9762 46.039C70.3165 47.0977 71.5366 47.8711 71.4465 47.5858C71.3714 47.3943 70.2564 46.2342 69.1114 45.1305C68.2629 44.3271 67.7261 44.0906 67.5158 44.4322Z" fill="#B8C7D5"/>
<path fill-rule="evenodd" clip-rule="evenodd" d="M36.9412 55.6533C36.7197 55.9236 37.0463 56.2052 38.4917 56.8922C40.0084 57.6055 46.0827 61.2809 46.0827 61.4761C46.0827 61.5061 45.4708 61.8327 44.7274 62.2044C43.4623 62.8163 41.9756 63.9614 42.1821 64.1678C42.2271 64.2129 42.6288 64.0965 43.0606 63.8863C43.4923 63.676 44.551 63.203 45.4107 62.8163C47.0062 62.1143 47.5844 61.6675 47.3779 61.3259C47.3178 61.2208 46.4093 60.5075 45.3394 59.7341C41.8405 57.1888 37.448 55.0451 36.9412 55.6533Z" fill="#B8C7D5"/>
<path fill-rule="evenodd" clip-rule="evenodd" d="M7.03981 56.6673C6.75824 57.0389 6.37156 57.9174 6.17634 58.6457C5.95484 59.4792 5.90979 60.658 6.08624 60.658C6.16132 60.658 6.40159 60.2112 6.60807 59.6444C6.83333 59.0925 7.15994 58.3942 7.35141 58.0976L7.68178 57.5457L8.79678 59.3628C10.0619 61.4013 10.5087 61.9945 10.8203 61.9945C11.1769 61.9945 11.0606 61.4614 10.5087 60.643C10.2121 60.2112 9.73533 59.4229 9.43499 58.886C8.31999 56.8475 8.05344 56.4871 7.60669 56.4871C7.38144 56.4871 7.12991 56.5772 7.03981 56.6673V56.6673Z" fill="#B8C7D5"/>
<path fill-rule="evenodd" clip-rule="evenodd" d="M161.247 59.4936C161.172 59.5987 160.92 60.2106 160.71 60.8639C160.233 62.2492 159.726 63.0225 158.641 64.0362C156.929 65.5829 155.293 66.4614 151.944 67.5914C150.739 67.9931 149.755 68.3648 149.755 68.4248C149.755 68.9917 155.248 67.475 157.271 66.3563C158.807 65.5228 160.443 63.841 161.097 62.4406C161.769 61.0291 162.02 60.0154 161.814 59.6137C161.633 59.2721 161.468 59.242 161.247 59.4936V59.4936Z" fill="#B8C7D5"/>
<path fill-rule="evenodd" clip-rule="evenodd" d="M56.2792 61.476C56.2792 61.6824 57.1426 62.3394 58.0512 62.8162C58.8696 63.2329 62.2183 64.1827 63.4384 64.3629C66.119 64.7196 69.9708 64.7346 69.9708 64.378C69.9708 64.2578 69.7343 64.2128 65.9688 63.781C62.2784 63.3493 59.3464 62.606 57.4693 61.6074C56.7109 61.2057 56.2792 61.1456 56.2792 61.476Z" fill="#B8C7D5"/>
<path fill-rule="evenodd" clip-rule="evenodd" d="M71.4766 63.6198C71.1049 63.8563 71.4165 64.198 72.0847 64.2881C73.47 64.4532 75.4673 64.4983 76.7325 64.3631C78.8311 64.1529 78.7259 64.0065 76.2857 63.7062C74.3335 63.4546 71.8032 63.4096 71.4766 63.6198Z" fill="#B8C7D5"/>
<path fill-rule="evenodd" clip-rule="evenodd" d="M40.1743 65.97C39.7726 66.4318 38.804 67.9785 37.8204 69.6604C36.9156 71.256 34.802 74.0528 33.2966 75.6596C32.8949 76.0914 32.6133 76.4781 32.6584 76.5381C32.8048 76.6733 33.9235 75.8849 34.8884 74.9614C36.0972 73.8163 37.1672 72.3559 38.4924 70.0321C39.1306 68.9321 39.949 67.6069 40.3094 67.085C40.9476 66.1953 41.0528 65.7185 40.606 65.7185C40.4859 65.7185 40.2944 65.8349 40.1743 65.97V65.97Z" fill="#B8C7D5"/>
<path fill-rule="evenodd" clip-rule="evenodd" d="M51.4855 67.3703C50.1602 67.5768 48.4033 68.2638 47.3183 68.9921C46.0381 69.8405 45.5613 70.2422 45.5613 70.4637C45.5613 70.8241 45.8729 70.734 46.5449 70.1972C47.9715 69.0672 49.3568 68.5453 51.7107 68.2488C52.6756 68.1286 53.1974 68.1587 54.6878 68.3952C56.6363 68.7255 58.0666 68.7818 58.0666 68.5453C58.0666 68.4702 57.6199 68.2788 57.068 68.1136C54.5377 67.3703 52.8708 67.13 51.4855 67.3703V67.3703Z" fill="#B8C7D5"/>
<path fill-rule="evenodd" clip-rule="evenodd" d="M143.802 68.2185C143.802 68.6352 146.884 69.1421 148.029 68.9318C148.43 68.8567 148.566 68.7516 148.566 68.5451C148.566 68.2786 148.46 68.2486 147.642 68.2486C147.12 68.2486 146.05 68.2035 145.262 68.1434C144.233 68.0834 143.802 68.0984 143.802 68.2185V68.2185Z" fill="#B8C7D5"/>
<path fill-rule="evenodd" clip-rule="evenodd" d="M59.7333 68.5154C59.478 68.5905 59.5081 69.0973 59.7934 69.1987C60.105 69.3188 61.4753 69.2887 61.9333 69.1423C62.2036 69.0673 62.2486 69.0072 62.0834 68.9471C61.6067 68.7669 59.8947 68.4553 59.7333 68.5154V68.5154Z" fill="#B8C7D5"/>
<path fill-rule="evenodd" clip-rule="evenodd" d="M81.7331 68.5605C81.1212 68.6356 79.4994 68.7407 78.1291 68.812C76.5673 68.8871 75.5687 68.9922 75.4523 69.1124C75.0919 69.469 76.0905 69.5591 80.7045 69.6305C85.8402 69.7206 87.3269 69.8707 90.4692 70.6441C91.5579 70.9106 92.4927 71.0908 92.5377 71.0308C92.7029 70.8656 92.4176 70.6141 91.5128 70.1523C88.6671 68.7257 85.2283 68.1588 81.7331 68.5605V68.5605Z" fill="#B8C7D5"/>
<path fill-rule="evenodd" clip-rule="evenodd" d="M104.401 69.5442C103.984 69.6907 104.255 70.2575 105.295 71.4176C105.891 72.0896 106.8 73.1746 107.318 73.8278C107.84 74.4848 108.317 75.0367 108.392 75.0667C108.854 75.2431 107.93 73.4561 106.755 71.8944C106.263 71.2562 105.876 70.7043 105.891 70.6743C105.922 70.6592 107.142 71.0009 108.598 71.4476C111.5 72.3562 112.172 72.4763 112.172 72.1196C112.172 71.9544 111.189 71.5678 108.748 70.7644C104.998 69.5292 104.671 69.4391 104.401 69.5442V69.5442Z" fill="#B8C7D5"/>
<path fill-rule="evenodd" clip-rule="evenodd" d="M94.591 71.8337C94.5459 71.9239 94.621 72.1191 94.7712 72.2805C95.1429 72.6371 99.9069 74.991 100.023 74.8559C100.219 74.6644 98.2551 73.2191 96.4381 72.2204C95.4394 71.6723 94.7862 71.5372 94.591 71.8337Z" fill="#B8C7D5"/>
<path fill-rule="evenodd" clip-rule="evenodd" d="M113.734 72.7878C113.453 73.1294 113.779 73.411 114.864 73.7413C116.535 74.2594 118.675 74.6048 118.333 74.2894C118.273 74.2331 114.046 72.5625 113.96 72.5625C113.945 72.5625 113.839 72.6676 113.734 72.7878Z" fill="#B8C7D5"/>
<path fill-rule="evenodd" clip-rule="evenodd" d="M5.03079 80.2582C4.65912 80.6299 5.37242 83.0138 6.37104 84.7257C7.21949 86.1824 8.52971 87.7779 9.76485 88.8629C11.6382 90.5147 14.6303 92.4369 15.1521 92.3317C15.3173 92.3017 14.8105 91.9 13.7518 91.213C12.8433 90.6198 11.4918 89.5912 10.7597 88.9229C8.64609 87.0158 6.65261 83.9936 5.95433 81.6435C5.55263 80.2732 5.32737 79.9466 5.03079 80.2582V80.2582Z" fill="#B8C7D5"/>
<path fill-rule="evenodd" clip-rule="evenodd" d="M36.9154 81.3168C36.2584 81.7636 33.0749 83.1338 31.4943 83.6519C31.1978 83.757 31.1978 83.757 31.4943 83.8622C32.0312 84.0686 34.6967 83.3553 36.3035 82.567C37.6888 81.8949 38.7888 80.7199 38.0154 80.7649C37.8652 80.7649 37.3734 81.0202 36.9154 81.3168Z" fill="#B8C7D5"/>
<path fill-rule="evenodd" clip-rule="evenodd" d="M69.1224 81.6434C67.5607 81.6884 66.2204 81.7635 66.1754 81.8236C66.1191 81.8799 66.1041 82.03 66.1491 82.1502C66.2805 82.4768 67.3993 82.5819 69.5129 82.4768C70.5378 82.4167 72.0282 82.3416 72.8016 82.2966C74.5435 82.2102 77.2954 81.9399 77.4756 81.8386C78.0237 81.4932 75.8387 81.4519 69.1224 81.6434Z" fill="#B8C7D5"/>
<path fill-rule="evenodd" clip-rule="evenodd" d="M78.8314 81.6435C78.6812 81.88 78.9177 82.0902 79.3645 82.1203C80.1116 82.1653 80.8399 82.0902 80.8399 81.9551C80.8399 81.6435 79.0078 81.3619 78.8314 81.6435Z" fill="#B8C7D5"/>
<path fill-rule="evenodd" clip-rule="evenodd" d="M59.0913 84.2791C58.8397 84.9474 58.5131 86.2876 58.5131 86.6593C58.5131 87.2112 58.9298 87.061 59.1063 86.4378C59.3015 85.7508 59.478 83.8774 59.3466 83.8774C59.3015 83.8774 59.1814 84.0539 59.0913 84.2791Z" fill="#B8C7D5"/>
<path fill-rule="evenodd" clip-rule="evenodd" d="M125.135 84.2641C125.09 84.3992 125.045 85.274 125.045 86.2275C125.03 88.7729 124.809 90.8415 124.452 91.8251C124.051 92.8687 122.71 94.3554 121.667 94.9223C120.953 95.309 119.508 95.8458 118.75 96.0072C118.096 96.1424 118.438 96.3789 119.301 96.3789C121.565 96.3789 124.347 94.3554 125.196 92.1066C125.361 91.6599 125.567 90.7814 125.657 90.1582C125.853 88.8029 125.894 85.1726 125.732 84.5006C125.612 83.9938 125.286 83.8624 125.135 84.2641V84.2641Z" fill="#B8C7D5"/>
<path fill-rule="evenodd" clip-rule="evenodd" d="M51.9626 87.7628C51.9626 88.0895 51.039 90.2181 50.5472 91.0215C50.1605 91.6597 49.7889 92.0201 48.8203 92.6433C48.152 93.0901 47.2285 93.6119 46.7667 93.7883C45.7719 94.19 45.6517 94.5354 46.5152 94.4904C47.2735 94.4303 48.6739 93.7733 49.8489 92.8948C50.6974 92.2716 50.8626 92.0464 51.3656 90.9764C52.1428 89.2946 52.5144 87.5977 52.1127 87.5977C52.0376 87.5977 51.9626 87.6727 51.9626 87.7628Z" fill="#B8C7D5"/>
<path fill-rule="evenodd" clip-rule="evenodd" d="M58.1983 88.1494C58.1232 88.3558 57.9167 89.0429 57.7516 89.651C57.5901 90.263 57.3048 91.0213 57.1284 91.3329C56.6366 92.1964 56.8581 92.3165 58.3785 91.9449C59.0618 91.7647 60.7437 91.408 62.129 91.1415C63.4993 90.8712 64.6143 90.6046 64.6143 90.5445C64.6143 90.2029 61.044 90.6647 58.7952 91.2879L57.8116 91.5732L58.2133 90.8111C58.6451 89.9777 59.0468 88.3408 58.9154 87.9692C58.7652 87.6125 58.3635 87.7026 58.1983 88.1494V88.1494Z" fill="#B8C7D5"/>
<path fill-rule="evenodd" clip-rule="evenodd" d="M73.4097 89.6663C73.038 89.7113 72.7264 89.8315 72.6964 89.9178C72.6514 90.0379 73.1882 90.128 74.2882 90.2031C75.9851 90.3082 76.4469 90.2031 76.2704 89.7414C76.1953 89.5161 74.765 89.4898 73.4097 89.6663Z" fill="#B8C7D5"/>
<path fill-rule="evenodd" clip-rule="evenodd" d="M79.7656 89.6362C78.1287 89.7864 79.3038 89.9328 83.2645 90.113C85.5733 90.2181 88.5053 90.4246 89.7705 90.5748C91.0357 90.74 92.909 90.9314 93.9377 91.0215C94.9626 91.0966 96.0964 91.213 96.468 91.2731C97.0649 91.3481 97.1213 91.3331 96.9448 91.1417C96.7045 90.8413 96.3929 90.7813 92.5974 90.3383C90.8405 90.128 88.9371 89.9065 88.3552 89.8314C87.1351 89.6963 80.7942 89.5461 79.7656 89.6362V89.6362Z" fill="#B8C7D5"/>
<path fill-rule="evenodd" clip-rule="evenodd" d="M16.6838 93.2407C16.6838 93.8188 22.1762 95.7259 24.3198 95.8874C25.1383 95.9474 25.4686 95.9324 25.4686 95.801C25.4686 95.7109 25.3485 95.6358 25.1983 95.6358C24.6202 95.6358 20.1376 94.2355 18.7261 93.6273C17.0442 92.8803 16.6838 92.8089 16.6838 93.2407V93.2407Z" fill="#B8C7D5"/>
<path fill-rule="evenodd" clip-rule="evenodd" d="M111.947 95.917C111.947 96.0972 112.649 96.3187 114.166 96.604C115.626 96.8706 116.354 96.8856 116.505 96.6641C116.696 96.3487 116.264 96.1723 114.823 95.9921C113.081 95.7556 111.947 95.7406 111.947 95.917V95.917Z" fill="#B8C7D5"/>
<path fill-rule="evenodd" clip-rule="evenodd" d="M62.8718 96.1724C62.4401 96.2738 62.2036 96.5891 62.3237 96.9007C62.4251 97.1372 62.5752 97.1523 64.0056 97.0659C66.3107 96.9157 68.1277 96.5741 67.8724 96.3188C67.7861 96.2175 63.2435 96.0973 62.8718 96.1724Z" fill="#B8C7D5"/>
<path fill-rule="evenodd" clip-rule="evenodd" d="M55.758 96.6792C54.9396 96.8256 53.7045 97.0809 53.0062 97.2424C51.1291 97.7041 47.052 99.1645 46.3049 99.6676C45.9332 99.9079 45.9933 100.249 46.41 100.249C46.5302 100.249 48.2271 99.7126 50.1755 99.0594C53.4942 97.9444 55.8331 97.3775 59.2269 96.8257C59.805 96.7205 60.2968 96.5891 60.2968 96.514C60.2968 96.2888 57.3198 96.3939 55.758 96.6792V96.6792Z" fill="#B8C7D5"/>
<path fill-rule="evenodd" clip-rule="evenodd" d="M87.0449 97.6746C86.8835 97.8248 86.9248 98.8647 87.1801 100.697C87.7169 104.733 87.2702 112.083 86.2565 115.537C86.1965 115.744 86.2265 115.879 86.3166 115.879C86.7634 115.879 87.7019 112.008 88.0886 108.569C88.3101 106.546 88.3251 105.893 88.1749 103.584C88.0736 102.127 87.8784 100.16 87.7319 99.2364C87.4917 97.7197 87.3415 97.378 87.0449 97.6746V97.6746Z" fill="#B8C7D5"/>
<path fill-rule="evenodd" clip-rule="evenodd" d="M22.9799 102.78C23.1301 104.582 23.9335 106.219 26.5089 109.924C27.8191 111.817 31.4494 115.045 33.6531 116.28C38.1957 118.826 41.6308 119.986 46.6802 120.658C48.3171 120.864 52.1989 120.748 53.6743 120.432C58.0668 119.483 61.3104 118.263 64.1223 116.536C64.6441 116.205 66.341 115.075 67.9178 114.005C69.4983 112.932 70.9399 112.008 71.1352 111.948C71.3116 111.907 71.5969 111.832 71.7584 111.771C72.085 111.681 72.4304 112.248 72.9222 113.795C73.6355 115.969 73.917 117.711 74.2887 121.908C74.574 125.197 74.9307 128.159 75.0621 128.309C75.3474 128.62 76.2859 127.014 76.789 125.377C76.9692 124.84 77.2358 123.455 77.416 122.325C77.6675 120.553 77.6975 120.046 77.5661 118.781C77.3409 116.581 77.1757 115.717 76.7327 114.272C76.5074 113.558 76.3272 112.68 76.316 112.308C76.2559 110.878 75.1822 109.583 73.5454 108.96C72.4304 108.528 71.642 108.498 70.2717 108.824C69.0065 109.121 67.9929 109.718 62.8271 113.273C57.4398 116.982 51.8123 118.157 45.4564 116.937C41.5295 116.175 40.1292 115.717 36.4238 113.96C34.8582 113.213 32.0163 111.516 32.0163 111.325C32.0163 111.31 33.3415 111.325 34.9634 111.37C37.9555 111.445 39.8326 111.31 43.0312 110.728C45.9932 110.21 49.327 109.121 50.7423 108.243C51.4556 107.781 51.5607 107.469 50.9638 107.589C50.7273 107.619 49.9539 107.766 49.2106 107.901C45.31 108.584 37.3623 109.181 32.8798 109.091C29.4409 109.031 29.4109 109.031 29.1143 108.689C28.9491 108.483 28.386 107.796 27.8491 107.158C27.3123 106.516 26.3737 105.431 25.7656 104.732C25.1536 104.03 24.3202 103.062 23.9335 102.589C23.5318 102.127 23.1451 101.74 23.055 101.74C22.9537 101.74 22.9236 102.082 22.9799 102.78V102.78Z" fill="#B8C7D5"/>
<path fill-rule="evenodd" clip-rule="evenodd" d="M45.2195 110.833C43.9243 111.516 40.0236 112.098 36.123 112.203C35.2483 112.218 34.7715 112.293 34.7415 112.41C34.6664 112.62 35.8715 113.243 38.4318 114.362C39.9936 115.045 41.484 115.492 41.2137 115.21C41.1724 115.165 40.1888 114.688 39.0588 114.182C37.925 113.675 36.81 113.142 36.5547 113.022L36.108 112.785L36.78 112.695C37.1517 112.65 38.6271 112.545 40.0687 112.455C43.5826 112.248 46.3945 111.505 46.2744 110.818C46.2031 110.491 45.8577 110.491 45.2195 110.833Z" fill="#B8C7D5"/>
<path fill-rule="evenodd" clip-rule="evenodd" d="M63.4989 111.309C63.3337 111.414 62.4402 111.891 61.4904 112.379C60.1651 113.081 59.7634 113.348 59.7334 113.603C59.6884 113.945 59.8197 114.02 60.2965 113.945C60.5969 113.9 62.7706 112.469 63.4839 111.831C64.062 111.324 64.062 110.968 63.4989 111.309V111.309Z" fill="#B8C7D5"/>
<path fill-rule="evenodd" clip-rule="evenodd" d="M56.0694 115.075C53.3025 115.893 50.4606 116.325 47.8702 116.325C46.1883 116.325 45.978 116.355 46.1582 116.535C46.9616 117.323 52.6155 116.937 55.983 115.848C57.5598 115.356 59.2717 114.346 58.4833 114.406C58.3782 114.406 57.2895 114.703 56.0694 115.075Z" fill="#B8C7D5"/>
<path fill-rule="evenodd" clip-rule="evenodd" d="M85.0818 117.947C84.9016 118.247 84.2634 120.06 84.2634 120.286C84.2634 120.672 84.53 120.376 85.1719 119.302C85.5136 118.72 85.7501 118.157 85.69 118.037C85.6037 117.785 85.2132 117.74 85.0818 117.947V117.947Z" fill="#B8C7D5"/>
</svg>
