<svg width="129" height="140" viewBox="0 0 129 140" fill="none" xmlns="http://www.w3.org/2000/svg">
<path d="M95.1656 30.3975C76.6702 30.3975 61.9424 41.3577 61.9424 55.058C61.9424 68.7583 77.0127 79.7186 95.1656 79.7186C113.319 79.7186 128.389 68.7583 128.389 55.058C128.731 41.3577 113.661 30.3975 95.1656 30.3975ZM106.126 74.5809C113.319 71.8409 118.456 66.0183 118.456 59.1681C118.456 49.5779 108.866 42.3852 96.1931 42.0427C95.1656 42.0427 94.4806 42.7277 94.4806 43.7553C94.4806 44.7828 95.1656 45.4678 96.1931 45.4678C106.811 45.8103 115.031 51.9754 115.031 59.1681C115.031 66.7033 105.783 73.2109 95.1656 73.2109C84.5479 73.2109 75.3002 66.7033 75.3002 59.1681C75.3002 55.743 77.3552 52.3179 80.7803 49.5779C81.4653 48.8929 81.8078 47.8654 81.1228 47.1803C80.4378 46.4953 79.4103 46.1528 78.7253 46.8378C74.2727 49.9204 71.8751 54.7155 71.8751 59.1681C71.8751 66.0183 77.0127 71.8409 84.2054 74.5809C73.2451 71.4984 65.025 63.9632 65.025 54.7155C65.025 43.0702 78.3828 33.48 94.8231 33.48C111.263 33.48 124.621 43.0702 124.621 54.7155C125.306 63.9632 117.429 71.4984 106.126 74.5809Z" fill="#B8C7D5"/>
<path d="M85.5757 43.4126C85.2332 43.4126 84.8906 43.7551 84.5481 44.4401C84.2056 44.7826 84.2056 45.4676 84.5481 45.8102C84.8906 46.4952 85.5757 46.8377 86.2607 46.8377C86.2607 46.8377 86.6032 46.8377 86.9457 46.8377C87.9732 46.4952 88.3157 45.4676 87.9732 44.7826C87.6307 43.7551 86.6032 43.4126 85.5757 43.4126Z" fill="#B8C7D5"/>
<path d="M72.9025 89.3085C66.0524 87.9384 58.5172 94.1036 56.8047 103.351C55.7771 107.804 56.1197 112.256 57.8322 115.682C59.5447 119.449 62.2848 121.847 65.7099 122.874C66.3949 122.874 67.0799 123.217 67.7649 123.217C73.93 123.217 80.0952 117.394 81.8077 108.831C82.8352 104.379 82.4927 99.9262 80.7802 96.5011C79.0677 92.391 76.3276 89.9935 72.9025 89.3085ZM78.7252 108.146C77.0126 115.682 71.875 120.819 66.3949 119.792C63.9973 119.449 61.9423 117.394 60.9148 114.654C59.5447 111.571 59.2022 108.146 60.2297 104.379C61.5998 97.5287 66.3949 92.7336 70.8475 92.7336C71.19 92.7336 71.875 92.7336 72.2175 92.7336C74.6151 93.0761 76.6701 95.1311 77.6976 97.8712C79.0677 100.611 79.4102 104.379 78.7252 108.146Z" fill="#B8C7D5"/>
<path d="M69.1351 97.1865C68.7926 97.1865 68.1075 97.1865 68.1075 97.1865C64.6825 97.1865 61.5999 100.269 60.5724 104.379C60.5724 105.064 60.2299 105.749 60.2299 106.777C60.2299 109.859 61.9424 113.627 65.3675 114.312C65.71 114.312 65.71 114.312 66.0525 114.312C66.395 114.312 66.395 114.312 66.7375 114.312C70.1626 114.312 73.2452 111.229 74.2727 107.119C74.2727 106.434 74.6152 105.407 74.6152 104.722C74.2727 101.639 72.5601 97.8715 69.1351 97.1865ZM70.5051 106.434C69.8201 109.517 67.765 110.887 66.7375 110.887H66.395C65.3675 110.887 63.9974 109.174 63.9974 106.434C63.9974 105.749 63.9974 105.407 64.34 104.722C65.025 101.982 66.7375 100.269 68.1075 100.269H68.45C69.4776 100.612 70.8476 101.982 70.8476 104.722C70.8476 105.407 70.5051 105.749 70.5051 106.434Z" fill="#B8C7D5"/>
<path d="M21.8693 30.055C15.0191 29.0274 9.19649 30.74 5.0864 34.8501C0.976303 38.9602 -0.736234 44.7828 0.291289 51.6329C1.31881 58.1406 4.74389 64.6482 10.224 69.7858C16.7317 76.2935 24.9518 79.7186 32.487 79.7186C37.2821 79.7186 42.0772 78.006 45.1598 74.9235C53.38 66.7033 50.9824 50.9479 40.0222 39.9877C34.8846 34.8501 28.3769 31.0825 21.8693 30.055ZM42.7622 72.5259C35.9121 79.3761 22.2118 76.9785 12.6216 67.3883C7.82646 62.5932 4.74389 56.7706 3.71637 50.9479C2.68884 45.4678 4.05887 40.3302 7.48395 37.2476C10.224 34.5076 13.6491 33.1375 17.7592 33.1375C18.7867 33.1375 19.8142 33.1375 21.1843 33.48C27.0069 34.5076 32.8295 37.5901 37.6246 42.3852C47.2148 52.318 49.6124 65.6758 42.7622 72.5259Z" fill="#B8C7D5"/>
<path d="M22.2114 42.385C21.1839 42.0425 20.4989 42.7275 20.1564 43.755C19.8139 44.7825 20.4989 45.4676 21.5264 45.8101C24.2665 46.4951 27.3491 48.2076 29.7466 50.6052C33.1717 54.0303 34.8842 58.1403 34.8842 61.9079C34.8842 64.3055 34.1992 66.3605 32.8292 67.7306C31.4592 69.1006 29.4041 69.7856 27.0066 69.7856C23.239 69.7856 19.1289 67.7306 15.7038 64.648C12.2787 61.2229 10.5662 57.1128 10.5662 53.3452C10.5662 53.0027 10.5662 52.3177 10.5662 51.9752C10.5662 51.6327 10.5662 50.9477 10.2237 50.6052C9.88117 50.2627 9.53866 49.9202 9.19616 49.9202C8.16863 49.9202 7.48362 50.6052 7.14111 51.2902C7.14111 51.9752 7.14111 52.6602 7.14111 53.3452C7.14111 58.1403 9.53867 63.278 13.3063 67.0455C17.0738 70.8131 22.2114 73.2107 27.0066 73.2107C30.0891 73.2107 33.1717 72.1832 35.2267 70.1281C37.2818 68.0731 38.3093 65.333 38.3093 61.9079C38.3093 57.1128 35.9118 52.3177 32.1442 48.2076C29.0616 45.4676 25.6365 43.4125 22.2114 42.385Z" fill="#B8C7D5"/>
<path d="M11.9365 47.1801C12.279 47.1801 12.6216 47.1801 12.9641 46.8376C13.6491 46.1526 13.6491 45.125 13.3066 44.44C12.6216 43.755 11.594 43.4125 10.909 44.0975C10.5665 44.44 10.224 44.7825 10.224 45.125C10.224 45.4675 10.224 46.1526 10.5665 46.4951C10.909 47.1801 11.2515 47.1801 11.9365 47.1801Z" fill="#B8C7D5"/>
<path d="M63.9974 31.0826C63.9974 29.0275 63.3123 26.9725 61.5998 25.6024C59.5448 23.8899 55.7772 22.5199 52.3521 21.4924H52.0096C50.9821 21.4924 42.0769 12.2446 42.0769 11.5596C41.0494 8.13455 39.6793 4.02446 37.9668 2.31193C34.8842 -0.770642 29.7466 -0.770642 26.664 2.31193C25.294 3.68196 24.2665 5.737 24.2665 7.79205C24.2665 9.84709 24.9515 11.9021 26.664 13.2722C28.7191 14.9847 32.4867 16.3547 36.2542 17.3823C37.2818 17.3823 46.187 26.63 46.187 27.315C47.2145 30.7401 48.5845 34.8501 50.2971 36.5627C51.6671 37.9327 53.7221 38.9602 55.7772 38.9602C57.8322 38.9602 59.8873 38.2752 61.2573 36.5627C62.9698 35.1927 63.9974 33.1376 63.9974 31.0826ZM59.2023 34.1651C58.1747 34.8501 57.1472 35.5352 56.1197 35.5352C54.7497 35.5352 53.7221 35.1927 53.0371 34.1651C52.3521 33.4801 50.6396 29.37 49.612 25.945C47.8995 22.8624 40.3643 14.9847 36.9393 13.6147C33.5142 12.5872 29.4041 10.8746 28.7191 10.1896C27.6916 9.16208 27.349 8.13456 27.349 7.10703C27.349 6.07951 27.6916 4.70948 28.7191 4.02446C29.4041 2.99694 30.7741 2.65443 31.8016 2.65443C32.8292 2.65443 34.1992 2.99694 34.8842 4.02446C35.5692 4.70948 37.2818 8.81957 38.3093 12.2446C39.6793 15.3272 47.557 23.2049 50.6396 24.5749C54.0646 25.6024 58.1747 27.315 58.8597 28C59.8873 29.0275 60.2298 30.055 60.2298 31.0826C60.2298 32.1101 59.8873 33.1376 59.2023 34.1651Z" fill="#B8C7D5"/>
<path d="M34.5419 90.3364C34.1994 90.3364 33.5144 90.3364 33.1719 90.3364C29.4043 90.3364 25.9792 93.0765 25.2942 96.8441C24.9517 97.8716 25.6367 98.5566 26.6642 98.8991C27.6918 98.8991 28.3768 98.5566 28.7193 97.5291C29.0618 95.1315 31.4593 93.419 33.8569 94.104C35.9119 94.4465 37.6245 96.5016 37.6245 98.5566C37.6245 98.8991 37.6245 99.2416 37.6245 99.2416C37.6245 100.269 34.8844 104.037 32.8294 106.777C31.8019 108.147 31.4593 110.544 30.7743 113.284V113.969C30.0893 117.395 29.7468 120.477 29.7468 122.532C29.7468 123.217 29.7468 123.56 30.0893 124.245C31.1168 126.985 31.8019 130.752 31.8019 132.465C31.8019 132.807 31.8019 132.807 31.8019 132.807C31.4593 134.862 29.4043 136.575 27.3493 136.575C27.0067 136.575 26.6642 136.575 26.6642 136.575C24.6092 136.232 22.8967 134.177 22.8967 132.122C22.8967 131.78 22.8967 131.78 22.8967 131.437C22.8967 130.41 25.6367 126.642 27.6918 123.902C28.7193 122.19 29.4043 118.422 30.4318 114.997C30.4318 114.654 30.4318 113.969 30.0893 113.627C29.7468 113.284 29.4043 112.942 29.0618 112.942C28.0343 112.942 27.3493 113.284 27.0067 114.312C26.3217 117.737 25.2942 121.505 24.9517 121.847C22.8967 124.587 20.1566 128.012 19.8141 130.752C19.8141 131.095 19.8141 131.78 19.8141 132.122C19.8141 135.89 22.5541 139.315 26.3217 140C26.6642 140 27.3493 140 27.6918 140C31.4593 140 34.8844 137.26 35.5694 133.492C35.5694 133.15 35.5694 132.807 35.5694 132.465C35.5694 130.067 34.5419 126.642 33.5144 123.217C33.5144 123.217 33.5144 122.875 33.5144 122.532C33.5144 121.162 33.8569 117.737 34.5419 114.654C34.8844 111.914 35.9119 109.174 35.9119 108.832C37.967 105.749 40.7071 102.667 41.0496 99.9266C41.0496 99.5841 41.0496 98.8991 41.0496 98.5566C41.0496 94.4465 38.3095 91.0214 34.5419 90.3364Z" fill="#B8C7D5"/>
<path d="M28.0344 105.406H28.3769C28.7194 105.406 29.0619 105.064 29.4044 104.721C29.7469 104.379 29.7469 103.694 29.4044 103.351C29.0619 102.324 28.0344 101.981 27.3493 102.324C27.0068 102.324 26.6643 102.666 26.3218 103.009C25.9793 103.351 25.9793 104.036 26.3218 104.379C26.6643 105.064 27.3493 105.406 28.0344 105.406Z" fill="#B8C7D5"/>
</svg>
