<svg width="158" height="100" viewBox="0 0 158 100" fill="none" xmlns="http://www.w3.org/2000/svg">
<path d="M132.214 31.6398C137.118 25.1052 139.68 17.0601 146.097 12.0133L147.839 13.1713C143.499 19.8848 139.159 26.5983 134.582 33.6767C136.756 35.0191 138.722 36.2332 140.719 37.4665C147.371 24.207 153.17 16.4344 157.038 16.2112C154.71 25.2457 145.914 30.0177 143.263 38.5852C147.892 45.6321 147.841 46.2449 140.055 55.4993C136.873 59.2819 133.218 62.6757 130.146 66.5393C128.048 69.5132 126.132 72.6113 124.409 75.8166L121.617 72.6166C119.72 77.4937 118.064 81.7526 116.149 86.6757C115.428 85.479 114.613 84.1276 113.34 82.0155C110.033 86.0225 106.616 90.1633 102.837 94.7422V89.1563C100.198 90.1905 97.6882 91.5283 95.3583 93.1427C93.5881 94.6856 92.6917 97.2309 91.0028 100C90.3655 98.0175 89.9831 96.8281 89.5266 95.4081C84.0134 96.6771 78.5495 97.9349 73.1913 99.1683C70.5529 98.4105 67.5516 96.8754 64.5549 96.8843C61.7704 96.8926 58.9906 98.5472 56.1757 99.4879C56.8439 95.2338 53.056 94.9231 49.7524 94.0266C29.7693 88.6048 14.0267 76.9659 1.40185 60.8433C-1.21723 57.4988 0.220758 54.4739 2.55198 51.4982C7.31568 45.4173 11.3908 38.7067 16.6961 33.161C25.6051 23.8482 36.87 17.8201 48.9166 13.4862C50.198 13.1861 51.3809 12.5622 52.3522 11.6741C53.3235 10.786 54.0506 9.66352 54.4639 8.41403C54.7393 7.70131 55.1661 7.05685 55.7149 6.52517C56.2636 5.99349 56.9212 5.58724 57.6423 5.3345V10.7314C63.3644 11.8443 66.7235 10.5998 70.6812 5.42069C71.4828 7.12712 72.104 8.44932 73.0224 10.4039C76.8337 10.4039 81.4438 10.6307 86.0056 10.2611C87.5665 9.76641 88.8734 8.68342 89.6494 7.24161C90.9394 4.90431 92.0755 2.4853 93.0504 0C96.9338 4.45768 92.4725 7.24925 92.6196 10.4497C92.7474 10.7087 92.9365 10.9326 93.1705 11.1018C101.778 13.872 101.758 13.8588 105.603 5.6153C106.254 4.4173 106.983 3.26349 107.785 2.16135L109.641 2.87285C109.126 4.85381 108.488 6.80062 107.73 8.70186C106.592 10.8642 105.347 12.9681 103.998 15.0057C106.522 16.255 108.823 17.3941 111.459 18.6993C114.666 13.7453 117.784 8.92813 121.33 3.44907C123.98 7.85014 120.864 9.8336 119.535 12.251C118.101 14.8595 116.657 17.4623 115.035 20.3969C117.25 22.0162 119.253 23.4815 121.464 25.0984C126.519 20.0842 128.201 12.6856 133.366 8.04797L134.809 8.91226C134.239 10.614 133.578 12.2839 132.828 13.9148C131.59 16.3032 130.153 18.59 128.769 20.9008C124.95 27.2782 124.943 27.2742 132.214 31.6398ZM71.0619 84.1794C74.6607 83.392 78.2864 82.7096 81.8521 81.7936C87.8901 80.2428 90.124 74.8299 93.1836 70.2954C95.4169 67.2189 97.0132 63.7272 97.8788 60.0254C98.7445 56.3236 98.862 52.4861 98.2245 48.7383C96.1473 36.7603 89.0665 30.303 76.8921 30.9485C69.0746 31.3629 61.3347 33.3097 53.5776 34.6696C53.1756 34.7771 52.8005 34.9673 52.4763 35.2281C52.1521 35.489 51.8859 35.8146 51.6949 36.1842C49.5293 41.0155 46.8295 45.7388 45.5647 50.8118C43.5026 59.0831 44.7145 67.4728 50.2523 74.0321C55.4025 80.1325 62.0957 84.5854 71.0619 84.1794ZM85.6723 84.5258C111.489 82.6782 127.267 64.7756 142.748 44.5425C125.719 39.6985 109.486 35.0807 92.024 30.1135C109.163 49.3181 102.413 70.8492 85.6723 84.5257L85.6723 84.5258ZM3.53391 57.1502C20.9848 67.5025 36.7191 79.7064 56.6677 83.9451C46.8181 80.2457 43.3507 72.2472 41.7884 62.7653C40.9511 58.1094 41.1 53.3296 42.2253 48.7349C43.3506 44.1401 45.4274 39.8325 48.3214 36.0904C32.0601 41.1109 17.2627 47.0026 3.53391 57.1502ZM6.35336 50.3527C8.63082 49.3158 9.76875 48.8155 10.8916 48.2837C19.0671 44.411 27.2646 40.5831 35.3952 36.6182C37.4738 35.8406 39.3415 34.5874 40.849 32.9588C44.3423 28.0595 47.3567 22.8186 50.5588 17.7116C32.1924 22.5402 16.3735 34.2208 6.35336 50.3527V50.3527ZM87.3451 13.6896C81.1062 13.6896 76.506 13.6049 71.9144 13.7683C71.4231 13.8618 70.9586 14.0624 70.5537 14.3559C70.1489 14.6495 69.8138 15.0286 69.5722 15.4665C67.4181 19.7428 65.4487 24.1123 63.1895 28.9324C68.078 28.0843 72.1572 27.4381 76.207 26.6424C77.7279 26.3434 79.8077 26.1496 80.5472 25.1247C82.8488 21.9349 84.6306 18.3698 87.3451 13.6896ZM65.4375 14.9274L64.8178 13.5162C61.2921 14.6959 56.5722 14.8557 54.502 17.2791C50.7896 21.6247 48.6703 27.3315 45.7569 32.706C49.6694 31.8428 53.3016 31.1998 56.8248 30.1799C58.2123 29.782 59.3976 28.8732 60.1419 27.6364C62.1039 23.4932 63.702 19.1778 65.4374 14.9274L65.4375 14.9274ZM96.8335 27.7616C103.481 29.3844 109.322 30.537 114.974 32.2937C118.305 33.3291 119.65 32.3267 120.368 29.1639C118.093 27.6173 115.972 25.1511 113.633 24.9231C111.905 24.7548 109.893 27.5046 108.007 28.9542L107.289 28.2021C108.048 26.3615 108.807 24.5208 109.711 22.3276C106.933 21.1045 104.44 20.0065 101.729 18.8131C99.9891 21.9935 98.5193 24.6802 96.8336 27.7615L96.8335 27.7616ZM57.5856 89.7773C57.6028 89.3112 57.6201 88.8451 57.6374 88.3791C41.6023 85.773 28.5328 76.8705 14.0529 68.4504C25.3786 81.6261 39.931 86.7765 54.7538 91.3676C55.4653 91.588 56.6313 90.3409 57.5856 89.7773ZM90.6103 14.1982C88.4726 18.528 86.604 22.3131 84.6904 26.1894C94.1974 27.6157 96.3291 26.1492 97.8588 17.1816C95.6307 16.2646 93.3491 15.3256 90.6103 14.1982ZM76.0871 91.4507L76.5965 92.9848C83.8472 94.2434 89.7522 92.2885 91.6982 87.4523C86.2251 88.8541 81.1562 90.1524 76.0871 91.4507ZM72.6825 91.0551L61.2299 89.8469L60.6615 90.7772C61.3289 91.527 62.1409 92.1342 63.0488 92.5623C66.2758 93.2353 69.6531 94.6665 72.6825 91.0551V91.0551ZM129.436 36.6543L130.233 35.4983C128.39 34.1907 126.603 32.7887 124.663 31.6436C123.909 31.611 123.159 31.7801 122.492 32.1333C122.662 32.8624 123.011 33.5373 123.508 34.0967C125.414 35.0844 127.45 35.8221 129.436 36.6543V36.6543Z" fill="#B8C7D5"/>
<path d="M55.7957 50.8593C55.1667 40.1767 64.2966 33.3962 72.7049 33.1192C80.7345 32.8549 90.7689 44.3313 90.5574 52.8416C90.3559 60.9398 80.2896 71.6488 72.6494 71.3166C63.7812 70.9311 55.4699 63.7326 55.7957 50.8593ZM78.38 52.3893C75.4315 50.7059 73.4422 48.7254 72.3314 49.1338C71.421 49.5866 70.6156 50.225 69.9671 51.0081C69.3186 51.7911 68.8414 52.7014 68.5662 53.6802C68.3422 54.516 71.1811 57.3045 72.0331 57.0664C73.9476 56.5314 75.4882 54.6584 78.38 52.3893ZM79.1431 51.3438C79.5896 51.2685 80.0361 51.1932 80.4827 51.1179C80.0202 49.1349 80.0997 46.7462 78.9823 45.2529C76.6393 42.1214 73.6533 43.3664 70.7461 45.2731C75.4363 44.8515 78.1901 46.9009 79.1431 51.3438Z" fill="#B8C7D5"/>
</svg>
