<svg width="107" height="150" viewBox="0 0 107 150" fill="none" xmlns="http://www.w3.org/2000/svg">
<path fill-rule="evenodd" clip-rule="evenodd" d="M23.7927 0.191365C22.3282 0.530267 20.4602 1.52276 19.5 2.48298C18.9069 3.07203 18.4187 3.84666 17.8135 5.10947C16.9905 6.81205 16.9542 6.92905 17.1398 7.58668C17.2406 7.974 17.4101 8.78494 17.5109 9.39012C17.6118 9.9953 17.983 11.6293 18.338 13.0454C19.9357 19.3111 20.1737 20.707 20.3069 24.9715C20.4077 28.6268 20.2746 30.4101 19.5807 34.485C18.3542 41.7956 15.4735 47.7949 9.82917 54.7827C7.74331 57.3447 6.68223 58.8254 5.36697 60.9475C1.15491 67.7175 -0.20877 73.1601 0.0252337 82.2378C0.14627 86.4821 0.27941 87.7127 0.904764 90.4925C1.47767 93.0181 1.98199 94.5351 3.46266 97.9887C6.94851 106.175 10.7571 111.512 19.3305 120.288C21.2348 122.224 26.9921 127.647 28.0371 128.474C28.3235 128.708 29.082 129.317 29.7235 129.821C30.95 130.814 34.4721 133.291 36.441 134.57C40.8911 137.451 45.0144 139.371 51.4334 141.525C58.4736 143.902 64.59 145.637 70.2989 146.899C74.1034 147.743 75.6729 148.114 76.6492 148.364C77.2221 148.517 78.0452 148.671 82.7616 149.546C88.9263 150.672 93.3563 149.711 96.5395 146.581C98.2098 144.947 99.17 143.329 100.986 139.084C101.627 137.604 103.293 131.927 103.818 129.482C105.585 121.147 106.428 112.033 106.428 101.019C106.428 96.7218 106.089 89.4637 105.754 86.6355C104.375 74.9272 100.921 67.4512 93.5943 60.3262C91.573 58.3533 91.101 57.9821 88.067 55.9124C84.1615 53.2173 78.6867 50.8934 73.1634 49.5459C72.1507 49.3079 71.2591 49.0577 71.1905 48.9891C71.0412 48.8721 74.3092 44.1033 76.1772 41.731C76.5645 41.2227 77.557 39.859 78.3679 38.697C79.1749 37.5351 79.8648 36.5587 79.9011 36.5426C80.0019 36.4417 81.8538 37.874 83.2861 39.1368C84.0244 39.7904 84.8353 40.4642 85.0532 40.6175C85.5736 40.9564 86.9898 41.3921 87.5788 41.3921C88.1517 41.3921 90.3102 40.7022 91.2704 40.214C92.2468 39.7097 93.8122 38.1241 94.2842 37.1316C94.6877 36.3045 94.7724 35.0417 94.4859 34.2994C94.0663 33.206 92.6986 32.1288 91.7223 32.1288C91.4358 32.1288 91.2502 31.9593 91.0485 31.5398C90.8992 31.2009 90.7621 30.9144 90.7621 30.8821C90.7621 30.8498 91.3874 30.6481 92.1459 30.4424C95.9343 29.4176 101.458 26.9242 102.89 25.5767C103.717 24.8021 103.967 24.213 103.499 24.213C103.293 24.213 103.293 24.096 103.499 23.4223C103.632 22.9986 103.733 22.4096 103.733 22.1231C103.733 21.2799 103.261 19.6822 102.656 18.3993C101.51 16.0108 100.078 14.9497 97.9556 14.9497C97.298 14.9497 96.5557 15.0667 96.1885 15.216C95.8496 15.3532 94.4335 15.7728 93.0375 16.1278C88.188 17.3906 85.1379 18.5526 82.0031 20.3721C81.3495 20.7433 80.7403 21.1952 80.6394 21.3646C80.4901 21.6672 80.4215 21.6511 79.5138 21.0459C76.2942 18.8552 70.9565 16.7168 67.0995 16.0431C58.1549 14.4938 51.1308 16.2448 43.098 22.0223C41.698 23.0309 40.1972 24.3139 36.8122 27.4286C36.0375 28.1185 34.573 29.9219 33.7137 31.2008C33.3949 31.689 32.9915 32.0763 32.9915 31.9271C32.9915 31.8908 32.9067 31.1847 32.822 30.3617C32.4508 27.0251 32.3177 22.3249 32.3177 12.9607C32.3177 5.06106 32.2652 3.03975 32.0797 2.58385C31.7771 1.84553 30.599 0.885306 29.4693 0.445541C28.2751 -0.0264999 25.3097 -0.143502 23.7927 0.191365V0.191365ZM28.8964 2.8703C29.3684 3.10834 29.7719 3.44321 29.8244 3.61266C30.1592 4.94406 28.1379 6.66277 25.5437 7.28409C23.829 7.68754 19.8026 7.5544 19.3305 7.08236C19.1126 6.8645 19.5645 5.95269 20.4763 4.7746C21.2348 3.78211 23.0342 2.73716 24.4181 2.49912C25.9835 2.21267 27.9039 2.38212 28.8964 2.8703V2.8703ZM28.9973 10.6852C28.7633 15.7244 28.8803 27.832 29.199 29.8533C29.2514 30.1236 29.3685 31.5398 29.4532 32.972C29.7396 37.18 30.1108 38.4106 31.188 38.9149C32.3338 39.4555 33.2416 38.814 33.4958 37.2809C33.5805 36.7605 33.6128 36.24 33.5644 36.119C33.4111 35.7316 37.0664 30.9144 38.6156 29.466C45.1193 23.4021 50.8766 19.9687 56.5048 18.839C59.2644 18.2822 61.322 18.2338 64.4044 18.6373C67.5513 19.0407 68.4631 19.2586 70.9726 20.1866C74.6965 21.5664 76.6654 22.7969 84.6175 28.6591C85.9125 29.6032 87.6313 30.8297 88.422 31.3703L89.8543 32.3628L88.7609 32.9034C87.4779 33.5086 86.433 34.485 85.5414 35.885L84.92 36.8613L83.4192 35.4976C78.1138 30.6643 70.0608 27.5819 62.0442 27.2954C57.7313 27.1421 54.7538 27.7836 51.0783 29.6193C48.4357 30.9507 47.4432 31.7738 45.6236 34.1501C42.9447 37.6037 42.4242 38.3783 41.6819 39.9598C40.1326 43.2278 39.5758 45.9915 39.4588 51.079C39.3741 54.7827 39.1885 56.1141 38.6842 57.143C38.0952 58.2686 36.2594 59.9026 33.0722 62.1095C27.9039 65.6639 26.1005 67.8022 20.7265 76.7468C19.0602 79.5266 16.6677 84.2591 15.9939 86.1271C15.4049 87.6965 14.7473 90.5248 14.9006 90.7789C15.07 91.0291 15.2718 90.7628 16.2118 88.9594C17.3415 86.8372 19.4314 83.6539 22.7155 79.0868C23.2198 78.3808 23.946 77.352 24.3172 76.8315C26.0843 74.3059 27.448 72.5549 27.6013 72.6356C27.7022 72.688 27.7667 72.9906 27.7667 73.2771C27.7667 74.3059 29.2151 78.8205 30.3973 81.447C31.0549 82.9116 32.3823 86.4136 33.1407 88.6568C35.6341 96.1328 36.796 98.9287 37.3205 98.61C37.724 98.3558 37.1349 93.3893 36.2393 89.734C35.7027 87.4948 34.8756 84.4286 34.2704 82.4395C34.0001 81.5963 34.0526 81.5156 34.5891 81.8828C35.5171 82.5243 39.1361 84.4447 40.4029 84.9652C41.8513 85.5582 44.2761 85.9455 44.2761 85.5744C44.2761 85.2032 42.2871 83.6862 39.0191 81.564C32.6203 77.4206 32.4186 77.2672 32.0312 76.5128C31.1558 74.8263 30.0745 71.7601 29.8566 70.4126C29.7558 69.759 29.8082 69.6218 30.3811 68.9158C31.0186 68.1411 32.3177 67.08 34.7586 65.3089C37.9943 62.985 38.8698 62.2951 39.8623 61.2663C41.3793 59.717 42.2185 58.1516 42.5896 56.215C42.6744 55.7954 42.7752 54.2421 42.8438 52.7614C43.0617 46.7661 43.804 43.2964 45.4703 40.3996L45.9948 39.508L46.6686 40.5327C47.0357 41.1057 47.7296 41.9973 48.1977 42.5056C49.1417 43.5465 52.6639 46.5482 54.3463 47.7425C56.6541 49.3765 59.5508 50.5223 63.4603 51.313L65.6995 51.7689L65.0943 52.4911C64.3681 53.3666 63.3433 55.0692 62.718 56.4692C60.9145 60.4916 60.5111 63.5256 61.0356 68.7624C61.6932 75.3993 63.2223 80.7047 65.5664 84.5456L66.4903 86.0262L65.7519 87.6804C62.2984 95.4106 56.0973 106.409 53.5394 109.322C52.4622 110.536 52.6276 110.77 53.9751 109.931C56.3192 108.43 59.216 105.215 62.484 100.462C64.1502 98.0371 65.0782 96.5887 65.6672 95.4429C66.2401 94.3132 68.0234 89.6815 68.0234 89.2781C68.0234 88.7415 68.3098 89.2942 68.8343 90.8273C70.4683 95.697 70.9202 99.9736 70.5692 107.417C70.3311 112.101 69.7744 119.513 69.5565 120.893C69.2216 122.95 70.0971 121.805 70.9726 119.041C72.2879 114.849 73.2965 109.072 73.8008 102.786C74.0712 99.4007 73.8372 96.6411 73.0625 94.2809C72.8931 93.7766 72.7922 93.3368 72.8245 93.2884C72.8769 93.2521 73.4135 93.6919 74.0389 94.2648C76.4475 96.4555 79.1587 98.8117 81.414 100.68C82.697 101.745 84.0768 102.907 84.4641 103.258C85.4929 104.186 85.6947 103.915 84.9523 102.568C83.9235 100.716 81.2809 97.4319 77.4561 93.2723C76.2256 91.9247 74.8297 90.3392 74.3415 89.734C73.8533 89.1288 73.349 88.5357 73.1795 88.4026C72.8406 88.1323 71.1219 85.9092 70.0124 84.3438C67.8378 81.2292 65.9859 75.9399 65.2274 70.6345C65.1266 69.8598 65.1427 69.8074 65.4292 69.9405C68.2251 71.0702 72.1669 72.2321 75.8383 72.9745C79.2757 73.6483 82.6123 74.0356 82.8786 73.7653C83.0157 73.6321 82.9996 73.5474 82.8301 73.495C80.1875 72.6558 74.1236 70.5659 71.594 69.6218C67.6885 68.1573 66.5427 67.6691 65.4655 66.959L64.6545 66.4547V64.1146C64.6545 61.2501 64.8926 60.1406 66.3733 56.2473C67.4021 53.5038 68.1243 52.1724 68.5802 52.1724C68.7819 52.1724 70.0608 52.4427 71.3922 52.7776C82.9835 55.626 89.8704 59.955 96.0191 68.2581C97.8023 70.6667 99.5896 74.2212 100.449 77.0655C100.699 77.8765 101.006 78.869 101.139 79.2886C101.611 80.741 102.369 85.1507 102.704 88.4712C103.394 95.1927 103.314 110.451 102.555 116.096C102.47 116.733 102.353 117.879 102.301 118.621C102.252 119.36 102.131 120.421 102.047 120.977C101.966 121.534 101.813 122.628 101.696 123.422C101.022 128.474 99.3032 135.179 97.6167 139.254C95.5793 144.225 93.324 146.262 89.1805 146.851C87.1068 147.137 83.4515 146.581 74.5916 144.644C65.3444 142.623 61.8425 141.663 52.2766 138.495C47.4916 136.914 42.1378 134.538 39.5597 132.835C33.3586 128.776 30.5304 126.622 27.093 123.338C26.3022 122.579 24.991 121.333 24.1478 120.542C21.368 117.931 16.5669 112.707 13.5692 109.035C10.858 105.719 7.79172 100.26 5.72201 95.0555C3.95084 90.6095 3.43039 88.0153 3.17621 82.609C2.87362 75.9036 3.37794 71.9618 5.04824 68.0039C6.73064 64.0461 8.93753 60.4755 11.7012 57.3084C13.8879 54.7828 16.4498 51.0589 18.3178 47.6577C20.8959 43.01 22.195 38.8342 23.1714 31.9593C23.5587 29.1634 23.5587 23.0349 23.1553 20.6263C22.7841 18.4194 21.8884 15.0143 20.8475 11.8996C20.3916 10.4996 20.0366 9.32153 20.0688 9.28926C20.1051 9.25295 20.6095 9.30539 21.2146 9.40626C23.2884 9.7613 26.7581 9.35784 28.1904 8.58321C28.5615 8.37745 28.9287 8.22817 28.9973 8.21203C29.0659 8.21203 29.0659 9.32153 28.9973 10.6852V10.6852ZM98.0888 17.0719C98.932 17.2575 99.4888 17.7779 100.195 18.9923C101.256 20.8079 101.643 22.8816 100.953 23.1358C100.582 23.2851 99.7591 22.7485 99.1176 21.9698C98.2421 20.9087 97.1649 18.6534 97.0479 17.6246C96.943 16.8338 96.9631 16.7653 97.2657 16.85C97.4352 16.9024 97.8225 17.0033 98.0888 17.0719V17.0719ZM95.0427 18.8552C95.3292 20.9612 97.2294 24.0436 98.7464 24.8343C99.1337 25.0361 99.1862 25.1208 99.0006 25.2217C98.698 25.3911 94.1309 26.9081 93.9292 26.9081C93.5943 26.9081 90.6612 28.1346 90.1085 28.5259C89.3984 28.994 89.1967 29.0303 88.8941 28.643C88.4906 28.1709 83.9921 24.1969 83.1489 23.5877C82.3581 23.0148 82.1402 22.696 82.5437 22.696C82.6446 22.696 83.7581 22.3087 85.0209 21.8367C88.2526 20.6425 88.9949 20.3399 91.9442 19.0932C93.3724 18.484 94.6393 17.9958 94.7401 17.9958C94.841 17.9797 94.9903 18.367 95.0427 18.8552V18.8552ZM65.7358 30.7813L67.047 30.9991L65.9012 31.572C64.6747 32.1974 61.9796 33.9484 60.0229 35.4291C57.6667 37.2002 56.6056 38.1766 54.8183 40.2302C53.8097 41.376 52.8656 42.4532 52.7123 42.6226C52.446 42.893 52.3452 42.8405 50.6587 41.61C48.4841 39.9962 47.189 38.9149 47.072 38.58C46.9187 38.1927 49.4121 34.9086 50.4731 34.0654C51.5181 33.2383 55.0886 31.4227 56.2345 31.1C58.7278 30.4262 62.718 30.2931 65.7358 30.7813ZM71.2268 32.0763C73.466 32.7703 76.4636 34.1662 78.3478 35.3806L79.6469 36.2198L78.6342 36.708C76.3265 37.8215 71.477 43.1955 69.4718 46.867C69.2216 47.3229 68.8827 47.8958 68.7133 48.1137L68.3946 48.5332L66.9139 48.2992C62.1612 47.6093 59.7203 46.8993 56.6056 45.3177C55.4275 44.7287 54.4149 44.1719 54.3302 44.1033C54.1284 43.9016 58.405 39.8428 61.7093 37.0953C63.3756 35.6994 65.4978 33.8314 66.4257 32.9196C68.3784 31.0153 68.0072 31.0839 71.2268 32.0763V32.0763ZM91.6053 34.6383C92.3315 36.002 90.5603 37.9224 88.2526 38.2774L87.5304 38.3944L88.0872 37.3334C88.6762 36.2561 89.6001 35.195 90.5119 34.6383C91.1494 34.2348 91.3874 34.2348 91.6053 34.6383Z" fill="#B8C7D5"/>
<path fill-rule="evenodd" clip-rule="evenodd" d="M24.0793 2.98725C23.2038 3.17284 22.4977 3.59647 22.5986 3.88292C22.6833 4.10078 22.5986 4.11692 24.6522 3.74574C26.5202 3.41088 26.6896 3.35843 26.4879 3.1567C26.2378 2.90656 24.9225 2.82183 24.0793 2.98725V2.98725Z" fill="#B8C7D5"/>
<path fill-rule="evenodd" clip-rule="evenodd" d="M27.4641 3.35824C27.5327 3.83028 28.2226 3.99973 28.3921 3.58014C28.5091 3.25738 28.1903 2.98706 27.7183 2.98706C27.5004 2.98706 27.4157 3.08792 27.4641 3.35824V3.35824Z" fill="#B8C7D5"/>
<path fill-rule="evenodd" clip-rule="evenodd" d="M21.7231 12.4201C21.7231 12.5573 21.8886 13.2795 22.1105 14.0218C22.3767 14.9135 22.5986 15.3855 22.7842 15.4178C23.2361 15.5227 23.2724 14.9982 22.9012 14.0541C22.5139 13.0939 21.7231 12.0005 21.7231 12.4201V12.4201Z" fill="#B8C7D5"/>
<path fill-rule="evenodd" clip-rule="evenodd" d="M23.1554 17.423C23.2038 17.778 23.458 19.0086 23.6758 20.1705C23.9784 21.6673 24.1115 23.0996 24.1801 25.1895C24.2649 27.7998 24.3819 28.4897 24.6845 28.1872C24.7369 28.1347 24.8539 27.3964 24.9225 26.537C25.0919 24.7497 24.8539 21.1469 24.4666 19.5815C23.9784 17.5925 22.8487 15.7567 23.1554 17.423V17.423Z" fill="#B8C7D5"/>
<path fill-rule="evenodd" clip-rule="evenodd" d="M58.1709 19.4121C56.3836 19.6825 54.7335 20.4046 55.1047 20.7758C55.1571 20.8283 55.9802 20.7435 56.9404 20.5902C57.8845 20.441 59.7041 20.2715 60.9507 20.219C63.089 20.1343 63.3916 20.1706 66.1876 20.7435C69.4394 21.4012 69.5403 21.4173 69.5403 21.1954C69.5403 20.9937 66.4579 19.7833 65.0256 19.4121C63.7789 19.0934 60.2931 19.0934 58.1709 19.4121V19.4121Z" fill="#B8C7D5"/>
<path fill-rule="evenodd" clip-rule="evenodd" d="M71.0738 21.417C70.9729 21.534 70.9205 21.768 70.9891 21.9052C71.1061 22.24 72.6069 22.8129 74.2248 23.1518C75.419 23.402 75.8386 23.3697 75.5037 23.0348C75.3343 22.8654 71.5942 21.179 71.3925 21.179C71.328 21.179 71.1747 21.2798 71.0738 21.417Z" fill="#B8C7D5"/>
<path fill-rule="evenodd" clip-rule="evenodd" d="M44.1069 52.7454C44.1069 54.7506 43.7882 57.3448 43.4008 58.3696C42.8441 59.8704 42.017 60.9799 40.266 62.5655C36.4937 65.9666 35.0937 67.4836 35.5012 67.7539C35.6868 67.8548 36.0378 67.5683 39.6286 64.3004C44.5789 59.8018 45.2688 58.2687 44.6798 53.1005C44.4619 51.1114 44.1069 50.8936 44.1069 52.7454Z" fill="#B8C7D5"/>
<path fill-rule="evenodd" clip-rule="evenodd" d="M68.411 53.4191C67.8381 53.8911 66.7609 56.098 66.9142 56.4692C67.0635 56.8888 67.5194 56.7556 67.822 56.1989C67.9753 55.9124 68.3101 55.3395 68.5643 54.9361C69.1009 54.0767 69.2542 54.0404 71.2594 54.4802C72.5383 54.7505 72.8772 54.7343 72.6755 54.3793C72.5383 54.1776 69.573 53.0156 69.1695 53.0156C69.0202 53.0156 68.6652 53.2012 68.411 53.4191V53.4191Z" fill="#B8C7D5"/>
<path fill-rule="evenodd" clip-rule="evenodd" d="M10.4707 61.9765C8.75198 64.1471 8.27994 65.4946 9.20788 65.6116C9.42575 65.6479 9.7122 65.5793 9.86551 65.4462C10.4868 64.9419 11.7658 61.3673 11.4471 61.0485C11.3785 60.98 10.9427 61.3874 10.4707 61.9765Z" fill="#B8C7D5"/>
<path fill-rule="evenodd" clip-rule="evenodd" d="M7.06964 68.5771C6.21028 69.8076 5.1492 72.3494 4.33825 75.0808C3.61607 77.4894 3.76535 81.3464 4.69329 84.2432C5.25006 85.9781 5.7221 86.5833 6.17397 86.1274C6.3757 85.9256 6.3757 85.5746 6.12556 83.7389C5.80279 81.2093 5.75438 77.8243 6.04083 76.2589C6.14169 75.6537 6.46042 74.3223 6.74688 73.3096C7.38837 70.9696 7.90882 68.1414 7.72323 67.9558C7.65868 67.8711 7.35609 68.1575 7.06964 68.5771V68.5771Z" fill="#B8C7D5"/>
<path fill-rule="evenodd" clip-rule="evenodd" d="M67.6039 77.7592C67.503 77.9408 68.1243 79.6756 68.6972 80.8053C69.4073 82.2053 71.1744 84.7632 71.8321 85.3724C72.7237 86.1632 74.0874 87.0871 74.2044 86.9701C74.2568 86.9217 74.0551 86.5989 73.7686 86.2479C70.7548 82.6572 69.0361 80.2001 68.5802 78.8203C68.209 77.7068 67.8742 77.3356 67.6039 77.7592V77.7592Z" fill="#B8C7D5"/>
<path fill-rule="evenodd" clip-rule="evenodd" d="M74.4908 88.0677C74.3577 88.3017 74.8458 88.9755 75.5519 89.5161C76.3104 90.089 76.3628 89.7663 75.6729 88.7576C75.1 87.8983 74.7288 87.6965 74.4908 88.0677Z" fill="#B8C7D5"/>
<path fill-rule="evenodd" clip-rule="evenodd" d="M99.9933 112.541C99.7915 112.726 99.7068 113.449 99.6221 115.623C99.4889 118.823 99.2186 121.28 98.5126 125.677C98.2423 127.36 97.9558 129.482 97.855 130.41C97.7541 131.338 97.6371 132.447 97.5847 132.887C97.4677 133.88 97.738 133.964 98.1253 133.057C98.7829 131.471 99.8238 127.178 100.364 123.842C100.651 122.022 101.038 117.592 101.038 115.99C101.038 114.324 100.804 112.827 100.465 112.505C100.28 112.319 100.195 112.319 99.9933 112.541V112.541Z" fill="#B8C7D5"/>
<path fill-rule="evenodd" clip-rule="evenodd" d="M96.3378 135.598C96.019 136.002 95.6478 137.031 95.2283 138.798C94.4859 141.864 94.7038 141.997 96.0029 139.286C97.2818 136.575 97.4997 136.002 97.3141 135.667C97.1124 135.328 96.6081 135.296 96.3378 135.598V135.598Z" fill="#B8C7D5"/>
<path fill-rule="evenodd" clip-rule="evenodd" d="M91.8231 20.0011C91.3874 20.1705 91.3027 20.6426 91.6738 20.7757C91.9079 20.8766 93.1223 20.1867 93.1223 19.9527C93.1223 19.7832 92.279 19.8155 91.8231 20.0011Z" fill="#B8C7D5"/>
<path fill-rule="evenodd" clip-rule="evenodd" d="M88.9102 21.3646C88.4058 21.5502 87.2076 21.9698 86.2837 22.2925C84.331 22.9663 83.9235 23.2003 84.0768 23.6038C84.2946 24.1968 85.9811 23.7248 88.6399 22.3087C90.8992 21.1306 91.0485 20.5738 88.9102 21.3646V21.3646Z" fill="#B8C7D5"/>
</svg>
