<svg width="142" height="150" viewBox="0 0 142 150" fill="none" xmlns="http://www.w3.org/2000/svg">
<path fill-rule="evenodd" clip-rule="evenodd" d="M68.5308 0.116892C66.947 0.428845 64.7753 1.99661 64.1554 3.28442C63.9755 3.66037 63.7795 4.48024 63.7315 5.10015C63.6795 5.72006 63.5995 6.29197 63.5515 6.35597C63.5155 6.41996 63.5835 6.73191 63.6955 7.02387C63.8275 7.33582 63.9755 8.41166 64.0395 9.44351C64.1714 11.4352 64.6914 16.2505 64.9553 17.7703C65.2953 19.794 65.8992 27.2049 66.0152 30.7483C66.2591 38.9631 63.8435 47.5659 59.0282 55.5527C57.9804 57.3164 55.2048 61.5118 54.6529 62.1797L54.3249 62.5876L54.4049 61.9357C54.9128 58.3283 54.9928 51.0613 54.5689 47.8938C54.2249 45.3142 53.493 41.9987 52.6931 39.519C50.2095 31.7962 45.4262 27.2889 38.9912 26.617C37.4074 26.457 35.0078 26.569 33.588 26.8969C31.5483 27.3528 28.7727 28.6127 26.517 30.0964C23.9894 31.7802 19.6461 35.8596 17.0664 38.9951C15.4667 40.9228 12.5111 45.5262 10.6634 48.9536C10.2075 49.8055 9.75152 50.6534 9.63554 50.8334C7.93579 53.7409 3.64443 65.7232 2.92454 69.6106C2.82855 70.1465 2.63258 71.0624 2.5006 71.6503C1.47275 76.0736 0.932833 80.6289 0.296927 89.8556C0.000971435 94.003 -0.0470214 95.7507 0.0369661 99.4901C0.264932 110.529 0.996823 116.748 2.69657 122.023C4.5083 127.638 5.80011 130.366 8.27974 133.861C9.17961 135.133 11.6272 137.421 13.227 138.48C17.4904 141.32 27.7449 144.18 34.5198 144.423C38.4393 144.571 41.1829 144.128 44.5784 142.824C46.5701 142.056 50.5855 139.232 52.2012 137.469C52.4132 137.241 53.0011 136.601 53.509 136.065C58.7842 130.462 62.0158 123.735 63.4995 115.164C63.9435 112.664 64.1035 106.561 63.8275 103.522C63.5675 100.762 63.0756 97.6624 62.5717 95.4228C62.0798 93.3351 60.58 88.0918 59.9921 86.4281C58.2123 81.3648 57.5244 79.8811 56.5286 79.0132C56.0886 78.6052 55.9887 78.4413 56.1206 78.2133C56.3006 77.8894 58.2123 76.0096 61.3639 73.0861C64.8553 69.8385 66.6191 67.9108 68.0549 65.8031C68.3668 65.3472 68.6788 64.9553 68.7268 64.9553C68.7748 64.9553 68.9707 65.2352 69.1507 65.5752C69.7706 66.671 72.5622 70.1665 74.5699 72.3862C75.9577 73.9019 82.3087 80.7129 82.6527 81.0409C82.8487 81.2169 83.3886 81.8408 83.8765 82.3927L84.7604 83.4245L84.0885 86.5561C83.3886 89.8236 83.2886 90.4595 82.7527 94.7548C81.9168 101.318 81.9688 110.624 82.8487 115.816C83.6965 120.779 85.7562 128.03 87.308 131.541C89.4477 136.357 93.855 142.708 96.7106 145.075C100.534 148.243 104.385 149.715 109.529 149.975C116.404 150.303 124.239 147.427 129.694 142.596C132.617 140 134.153 138.284 135.701 135.901C137.613 132.945 139.36 128.994 140.128 125.858C140.192 125.63 140.34 125.042 140.468 124.55C141.712 120.031 142.104 116.176 141.956 109.941C141.776 102.086 141.156 95.9787 139.816 88.6318C139.704 87.9599 139.472 86.5921 139.328 85.6122C139.18 84.6164 138.868 82.9326 138.64 81.8568C138.412 80.7769 138.068 79.0452 137.856 78.0173C136.993 73.774 135.717 68.4028 135.065 66.3431C133.105 60.172 132.437 58.3602 130.234 53.525C127.622 47.7938 125.922 44.8742 122.639 40.5309C119.751 36.6755 116.992 34.0479 113.384 31.6642C111.388 30.3404 109.937 29.7045 106.833 28.7726C105.497 28.3647 105.121 28.3167 102.67 28.3167C100.026 28.3167 99.9621 28.3167 98.5223 28.8566C92.8432 30.9443 88.8238 35.6316 86.2442 43.1265C85.7082 44.7263 85.2323 46.9939 85.0363 49.0696C84.8724 50.9134 84.9404 52.2532 85.4283 56.7925C85.5603 58.0003 85.7242 59.4361 85.7722 59.976L85.8682 60.9559L85.4963 60.4839C85.1043 59.992 83.4046 57.7083 82.8167 56.8565C82.6367 56.5965 82.1488 55.8286 81.7408 55.1607C77.6094 48.3497 76.1897 40.4789 76.6936 27.4848C76.7936 25.1492 76.9695 19.566 77.1175 15.0747C77.2495 10.5833 77.4455 6.59993 77.5255 6.20799C77.7374 5.32812 77.7374 4.20029 77.5255 3.66037C77.2815 2.97647 76.0577 1.76865 75.1738 1.32871C73.0181 0.232874 70.3905 -0.239056 68.5308 0.116892V0.116892ZM70.7825 2.82849C72.6462 3.26842 74.9138 4.51224 74.9138 5.10015C74.9138 5.21214 74.6219 5.65207 74.2619 6.06401C73.3621 7.07586 72.2022 7.51579 70.3905 7.4998C68.8227 7.4998 67.9749 7.30382 66.7031 6.63192C65.3473 5.90003 65.2633 5.26013 66.4071 4.00431C67.095 3.23643 68.3828 2.58453 69.1987 2.58453C69.5106 2.58453 70.2265 2.70051 70.7825 2.82849V2.82849ZM74.4259 10.9433C74.3259 11.5792 74.146 13.5069 74.018 15.2226C73.886 16.9384 73.706 19.286 73.606 20.4619C73.1021 27.1089 72.9541 36.1555 73.2981 39.811C74.146 49.1496 76.6776 55.3047 82.9167 63.1595C83.4366 63.8314 84.2365 64.8273 84.6604 65.3792C85.0843 65.9351 86.0002 67.015 86.6681 67.8148C87.34 68.5987 88.2879 69.7226 88.7598 70.3265C89.2517 70.9144 90.0156 71.8782 90.5075 72.4662C91.4394 73.626 94.6069 78.0013 95.9107 79.977C96.3707 80.6489 97.1705 81.8248 97.6905 82.5887C98.2144 83.3565 100.074 86.1001 101.822 88.7117C106.281 95.3588 109.333 99.3902 110.429 100.062C110.916 100.37 111.652 100.502 111.652 100.29C111.652 100.242 111.52 99.9941 111.356 99.7661C111.192 99.5221 110.785 98.7063 110.429 97.9384C109.397 95.6507 106.853 90.6235 105.905 88.9597C105.413 88.1078 104.385 86.3121 103.602 84.9563C102.834 83.6205 102.214 82.4927 102.246 82.4767C102.278 82.4447 102.738 82.5247 103.258 82.6726C105.217 83.1766 113.872 83.0966 119.815 82.5087C123.063 82.1807 130.282 81.3008 130.574 81.1849C131.018 81.0409 130.51 80.8089 129.366 80.6489C127.39 80.353 123.651 80.157 118.507 80.061C115.768 80.009 111.584 79.8971 109.201 79.7971C103.93 79.6011 102.654 79.3571 100.874 78.1493L100.126 77.6574L100.142 76.0736C100.174 74.2939 100.338 73.806 101.35 72.4662C103.586 69.5106 113.776 62.3437 118.151 60.6799C118.575 60.5159 118.835 60.304 118.835 60.14C118.835 59.88 118.639 59.864 116.924 59.928C115.244 59.992 114.772 60.092 113.204 60.6119C110.837 61.4118 108.469 62.6036 105.513 64.5153C100.778 67.5669 98.7863 69.3306 97.4945 71.6503C97.1705 72.2382 96.7426 72.9581 96.5466 73.25L96.1907 73.774L95.7307 73.0861C95.4708 72.6941 95.0628 72.1222 94.8189 71.8143C94.5549 71.5023 93.771 70.5064 93.0711 69.6106C92.3513 68.7107 91.1754 67.2909 90.4435 66.475L89.1197 64.9553L88.9718 62.9636C88.8078 60.8919 88.4158 57.0204 88.1399 54.7528C88.0399 54.0329 87.9759 52.3691 87.9759 51.0453C87.9759 49.0856 88.0599 48.2537 88.3998 46.638C89.0717 43.3705 90.5235 40.055 92.5152 37.1674C94.003 35.0117 96.8906 32.792 99.2902 31.9562C100.646 31.4842 103.294 31.3683 104.877 31.6962C112.24 33.248 118.935 39.631 125.106 50.9973C126.166 52.941 128.486 58.1483 129.678 61.1998C130.738 63.9754 132.241 69.0067 133.041 72.4662C133.317 73.674 133.661 75.1298 133.793 75.7017C134.545 78.9332 135.441 83.5845 136.145 87.8959C136.585 90.5915 137.025 93.2031 137.125 93.695C138.74 102.594 139.244 115.196 138.216 121.123C137.729 123.915 136.977 127.098 136.389 128.862C135.557 131.345 133.841 134.513 132.209 136.601C130.61 138.628 127.406 141.452 125.058 142.904C118.363 147.051 110.493 148.295 104.337 146.171C101.53 145.207 98.6863 143.348 97.0865 141.404C92.0433 135.329 89.7556 131.117 87.9119 124.47C86.3281 118.787 85.6562 115.492 85.3643 111.816C84.8404 105.269 85.0523 100.402 86.2602 91.8153C86.5561 89.6596 86.8481 87.5039 86.9161 87.032C86.9801 86.5761 87.06 86.1841 87.112 86.1841C87.324 86.1841 89.1197 88.3878 92.0433 92.2232C93.5951 94.2829 95.9947 97.8584 97.6105 100.55C99.1942 103.198 104.369 113.532 106.997 119.327C110.345 126.674 112.516 130.414 114.38 132.065C115.032 132.633 115.572 132.897 115.572 132.633C115.572 132.601 115.324 132.097 115.016 131.541C114.396 130.43 113.188 127.542 112.452 125.45C111.976 124.078 111.52 122.903 110.673 120.715C109.593 117.939 108.649 115.392 107.781 112.88C107.293 111.44 106.817 110.153 106.737 109.989C106.541 109.613 106.573 109.613 107.961 110.121C108.941 110.493 109.465 110.56 111.408 110.64C115.928 110.788 129.382 109.157 130.542 108.305C130.706 108.193 130.79 108.045 130.738 107.997C130.69 107.933 129.662 107.737 128.454 107.557C126.574 107.261 125.514 107.213 120.843 107.229C117.316 107.229 115.048 107.293 114.396 107.425C113.824 107.541 112.368 107.621 111.16 107.637C108.973 107.653 108.941 107.637 106.901 106.953L104.841 106.249L103.522 103.654C102.33 101.318 101.43 99.7181 99.9301 97.1545C98.9983 95.6187 95.7627 90.8674 94.7509 89.5956C94.215 88.9077 93.0072 87.3759 92.0593 86.1841C91.1114 84.9923 89.7076 83.3085 88.9238 82.4447C88.0599 81.4968 87.452 80.6809 87.388 80.385C87.256 79.7331 87.012 79.4571 86.6721 79.5691C86.4561 79.6331 85.7082 78.9492 83.7965 76.9255C82.3767 75.4217 80.709 73.706 80.1051 73.1221C75.5657 68.6947 70.5065 62.8156 70.5065 61.9517C70.5065 61.8037 70.6545 61.3958 70.8145 61.0718C71.5663 59.6001 71.5663 58.4082 70.7985 58.1803C70.2625 58.0003 69.8706 58.2603 69.0347 59.4201C68.5948 60.04 68.1389 60.5479 68.0389 60.5479C67.9589 60.5479 67.7789 60.7919 67.6469 61.0878C66.899 62.9156 63.3556 66.639 58.3403 70.9144C53.721 74.8498 49.0857 79.8971 46.698 83.5685C46.2101 84.3364 45.5422 85.3642 45.2143 85.8562C44.6423 86.752 42.6186 90.6715 42.0307 92.0592C41.5388 93.2191 40.7229 95.5227 39.875 98.1503L39.0912 100.566L37.6714 101.922C34.8278 104.633 32.0042 106.461 28.4607 107.865C20.9659 110.852 15.1867 113.628 12.983 115.244C11.3673 116.44 11.2353 116.96 12.7071 116.388C13.179 116.208 15.5947 115.476 18.0783 114.756C22.4216 113.516 27.8248 111.832 29.6846 111.116C31.9882 110.249 34.5358 108.781 36.1996 107.377L37.3914 106.381L37.2954 106.933C37.2314 107.245 36.9355 108.341 36.6275 109.369C33.376 120.323 32.0882 125.794 31.9402 129.27C31.8762 130.889 32.1522 130.969 32.7881 129.55C33.72 127.506 36.3476 120.863 37.5874 117.451C39.2711 112.764 40.9869 108.077 41.5748 106.509C41.8348 105.793 42.4067 104.029 42.8306 102.594C44.5943 96.5986 45.9661 93.0071 47.6779 89.7916C48.5938 88.0918 51.1734 84.1244 52.1692 82.8846C52.5132 82.4767 53.1171 81.7088 53.509 81.2009C54.2929 80.205 54.3729 80.221 54.5849 81.3648C54.6529 81.7248 55.1248 83.0166 55.6487 84.2244C58.2923 90.4115 59.8601 96.7146 60.464 103.734C60.8559 108.257 60.74 111.456 60.0401 115.084C58.5523 122.839 55.7767 128.618 51.0414 133.793C46.5541 138.724 42.5187 140.784 36.6435 141.108C31.9882 141.372 23.5975 139.556 17.9463 137.061C12.7391 134.773 9.60355 130.658 6.84396 122.479C5.2122 117.679 4.46031 113.288 4.03637 106.101C3.8244 102.61 3.92039 92.5352 4.20035 87.9799C4.91624 76.4336 6.568 67.9588 9.73553 59.4881C11.2193 55.5527 12.2631 53.133 13.507 50.8334C16.5745 45.1182 19.6141 40.7909 22.7136 37.6553C26.2571 34.0799 29.0487 32.0721 32.2642 30.8163C34.1599 30.0804 35.2557 29.8525 36.9515 29.8525C42.8786 29.8525 47.01 33.396 49.4096 40.5469C51.2894 46.1461 51.8773 50.9653 51.5493 58.4922C51.4693 60.6639 51.3213 62.9636 51.2374 63.6155C51.1414 64.2714 51.0774 65.2192 51.0774 65.7072C51.0774 66.523 51.0254 66.639 50.2935 67.4389C48.2338 69.6906 47.5819 70.3425 47.3379 70.3425C47.19 70.3425 46.5021 70.8504 45.8182 71.4703C44.3824 72.7301 42.7146 73.626 41.6068 73.742C40.8869 73.806 40.8069 73.774 40.331 73.202C40.071 72.8581 39.4831 71.8942 39.0432 71.0464C38.5672 70.0985 37.8833 69.0867 37.2954 68.4508C34.1119 64.9553 25.4892 61.4798 23.3695 62.8156C22.6336 63.2755 22.6976 63.4715 23.5615 63.4555C24.4613 63.4395 26.0931 64.1874 29.0967 66.0031C33.688 68.7787 35.2397 70.1145 36.7075 72.5821C38.2113 75.1138 38.9592 75.8297 40.5949 76.2376L41.6228 76.5016L40.6749 77.3334C39.3831 78.4413 37.7034 79.4211 34.9598 80.6289C30.3405 82.6886 29.1966 82.9966 26.3731 82.8686C25.2772 82.8206 23.1735 82.6566 21.6857 82.5087C19.6141 82.2967 18.2423 82.2487 15.7266 82.3287C11.9872 82.4447 11.2353 82.5407 11.2353 82.8526C11.2353 83.0966 11.6432 83.2086 14.2749 83.7965C15.2507 84.0284 16.7225 84.3524 17.5224 84.5484C18.3382 84.7443 19.906 85.0723 21.0338 85.2843C22.1577 85.4962 24.2814 85.9042 25.7691 86.2001C28.2488 86.672 28.5607 86.704 29.7206 86.5401C30.7324 86.3961 32.5761 85.8082 34.6158 84.9563C34.8278 84.8763 34.7158 85.3002 34.1119 86.788C33.164 89.0717 31.9882 92.7951 31.4843 95.0828C30.9924 97.3185 30.9284 100.878 31.3843 102.182C31.7763 103.358 32.1522 103.977 32.4442 103.977C32.6241 103.977 32.6401 103.802 32.5601 103.098C32.3482 101.238 33.0161 98.4463 34.9118 93.2831C36.7235 88.3358 38.3233 85.1523 40.187 82.8006C40.6269 82.2487 41.7508 81.1209 42.6986 80.289C43.6305 79.4731 45.0663 78.0493 45.8822 77.1535C46.718 76.2376 47.5019 75.3897 47.6459 75.2417C49.1177 73.758 54.6529 67.4069 55.9407 65.7392C56.9525 64.4194 59.1762 61.1518 60.596 58.8842C65.1353 51.6333 67.5509 45.3622 68.8227 37.6873C69.4627 33.8199 69.0507 24.1533 67.9909 18.1782C67.4869 15.3186 66.5871 10.1434 66.5231 9.63948C66.4711 9.34352 66.5231 9.27953 66.7351 9.37552C67.6989 9.76746 68.9867 9.97943 70.5065 9.99543C71.9263 9.99543 72.4142 9.93143 73.3621 9.60348C74.7179 9.11556 74.7179 9.11556 74.4259 10.9433V10.9433ZM96.7946 74.0339C96.7946 74.3939 96.7586 74.4419 96.5466 74.2619C96.3507 74.0979 96.3347 74.0019 96.4826 73.838C96.7426 73.51 96.7946 73.546 96.7946 74.0339Z" fill="#B8C7D5"/>
<path fill-rule="evenodd" clip-rule="evenodd" d="M67.647 3.6443C66.9311 3.90826 66.5552 4.2842 66.7031 4.64015C66.8311 4.9841 67.2071 4.92011 68.0909 4.38019C68.5149 4.10423 68.9548 3.89226 69.0348 3.89226C69.1348 3.89226 69.1988 3.77628 69.1988 3.6443C69.1988 3.33634 68.5309 3.33634 67.647 3.6443Z" fill="#B8C7D5"/>
<path fill-rule="evenodd" clip-rule="evenodd" d="M70.4225 3.5644C70.2785 3.80837 70.4905 4.05233 70.8304 4.05233C71.2224 4.05233 71.4183 3.72838 71.1424 3.5484C70.8304 3.35243 70.5545 3.36843 70.4225 3.5644Z" fill="#B8C7D5"/>
<path fill-rule="evenodd" clip-rule="evenodd" d="M32.7404 31.7959C31.2886 32.2038 29.5249 33.3277 29.5249 33.8836C29.5249 34.3395 30.0448 34.2755 31.1247 33.7196C31.7286 33.4117 32.6244 33.0357 33.1164 32.8717C34.3882 32.4638 35.564 31.9559 35.564 31.8119C35.564 31.404 34.2402 31.404 32.7404 31.7959V31.7959Z" fill="#B8C7D5"/>
<path fill-rule="evenodd" clip-rule="evenodd" d="M104.841 33.0518C104.681 33.4917 105.609 34.1276 108.629 35.6474C111.408 37.0352 112.304 37.3791 112.304 37.0672C112.304 36.8232 110.344 35.4354 108.485 34.3596C105.821 32.7918 105.053 32.5279 104.841 33.0518Z" fill="#B8C7D5"/>
<path fill-rule="evenodd" clip-rule="evenodd" d="M27.157 35.2235C26.7131 35.4835 25.6372 36.3833 24.7734 37.2152C21.4099 40.5147 17.8144 46.1939 14.3549 53.7047C13.1791 56.2844 12.8511 57.3162 13.1631 57.5122C13.455 57.6922 14.111 56.6443 15.9867 52.9369C19.0742 46.8498 19.6621 45.8219 21.6698 42.8304C23.1536 40.6107 24.6894 38.751 25.8012 37.8191C26.6331 37.1352 28.3808 35.1435 28.3808 34.8795C28.3808 34.6356 27.9729 34.7516 27.157 35.2235V35.2235Z" fill="#B8C7D5"/>
<path fill-rule="evenodd" clip-rule="evenodd" d="M114.82 39.5509C114.688 39.8748 114.868 40.1708 117.283 43.6503C119.343 46.5858 121.171 49.7054 123.082 53.5248C124.338 56.0244 126.018 58.932 126.182 58.832C126.674 58.5401 124.486 53.1689 121.939 48.4336C120.567 45.854 119.879 44.8581 117.251 41.5746C115.552 39.4349 115.032 38.995 114.82 39.5509Z" fill="#B8C7D5"/>
<path fill-rule="evenodd" clip-rule="evenodd" d="M69.0509 41.1511C68.9549 41.443 68.5949 42.8668 68.235 44.3026C67.6151 46.7983 66.6192 49.8538 65.6874 52.0415C64.7595 54.2771 64.6275 54.6691 64.8395 54.6691C65.3634 54.6691 67.4031 50.9296 68.139 48.63C68.6109 47.1422 69.8507 41.607 69.8507 41.0031C69.8507 40.3992 69.2628 40.5152 69.0509 41.1511Z" fill="#B8C7D5"/>
<path fill-rule="evenodd" clip-rule="evenodd" d="M62.6836 57.9524C62.2117 58.9482 61.8678 59.7961 61.9317 59.8601C62.0637 60.0081 62.3077 59.6841 63.3555 57.9684C64.1394 56.6765 64.2514 56.1406 63.7635 56.1406C63.6315 56.1406 63.1596 56.9405 62.6836 57.9524V57.9524Z" fill="#B8C7D5"/>
<path fill-rule="evenodd" clip-rule="evenodd" d="M89.5596 57.2323C89.5116 57.3003 89.5596 57.8042 89.6436 58.3441C89.7236 58.8841 89.7556 60.3039 89.7236 61.4957C89.6236 63.9113 89.7396 64.5152 90.5714 65.6271C91.0954 66.343 92.4992 67.5028 92.6471 67.3548C92.6951 67.3068 92.3832 66.6549 91.9272 65.903C90.5554 63.5994 90.6034 63.7793 90.6034 61.1517C90.6034 59.292 90.5395 58.6361 90.3115 58.0162C90.0315 57.2643 89.7236 56.9564 89.5596 57.2323Z" fill="#B8C7D5"/>
<path fill-rule="evenodd" clip-rule="evenodd" d="M49.2134 59.1119C49.1494 59.5039 49.1334 60.8077 49.1494 62.0155L49.1974 64.2232L48.4775 65.611C48.0855 66.3748 47.5976 67.2267 47.3857 67.5187C46.8777 68.1706 46.8777 68.4505 47.3697 68.2866C48.8854 67.8146 50.5852 65.315 50.5852 63.5353C50.5852 62.2635 50.2732 59.8278 50.0293 59.0959C49.7213 58.2281 49.3294 58.2281 49.2134 59.1119Z" fill="#B8C7D5"/>
<path fill-rule="evenodd" clip-rule="evenodd" d="M76.3336 67.8466C76.1216 68.0585 76.2376 68.2385 77.8373 70.1302C79.7811 72.4499 83.1086 75.7334 83.2085 75.4374C83.3045 75.1295 82.5886 74.1496 80.317 71.486C77.6414 68.3345 76.6935 67.4706 76.3336 67.8466V67.8466Z" fill="#B8C7D5"/>
<path fill-rule="evenodd" clip-rule="evenodd" d="M83.9443 76.1577C83.7963 76.5336 84.0563 76.8936 84.8082 77.3175C85.692 77.8215 85.888 77.5455 85.2641 76.6816C84.7442 75.9297 84.1243 75.6818 83.9443 76.1577V76.1577Z" fill="#B8C7D5"/>
<path fill-rule="evenodd" clip-rule="evenodd" d="M47.2697 92.9433C46.5538 93.6752 45.6379 96.1428 44.806 99.5863C44.1701 102.266 43.7262 104.486 43.7262 105.057C43.7262 106.477 44.758 103.686 45.8659 99.1783C46.2258 97.7586 46.7817 95.8148 47.0897 94.867C47.7136 92.9753 47.7616 92.4673 47.2697 92.9433Z" fill="#B8C7D5"/>
<path fill-rule="evenodd" clip-rule="evenodd" d="M33.1958 110.12C32.7559 110.428 31.728 111.1 30.9121 111.604C29.4404 112.504 28.7045 113.072 28.7045 113.304C28.7045 113.84 30.3722 113.172 32.7559 111.668C33.4918 111.212 34.0957 110.936 34.0957 111.032C34.0797 111.148 33.8837 112.144 33.6197 113.236C33.0318 115.832 33.3118 115.868 34.3876 113.336C35.7914 110.036 35.2875 108.681 33.1958 110.12Z" fill="#B8C7D5"/>
<path fill-rule="evenodd" clip-rule="evenodd" d="M109.561 111.54C109.105 111.752 108.973 112.256 109.105 113.236C109.269 114.428 110.297 116.488 110.573 116.208C110.625 116.176 110.525 115.36 110.377 114.396C110.249 113.432 110.165 112.584 110.233 112.536C110.297 112.468 111.456 112.404 112.828 112.372C114.2 112.356 115.604 112.256 115.964 112.176C116.568 112.012 117.008 111.736 116.86 111.604C116.68 111.44 109.905 111.376 109.561 111.54Z" fill="#B8C7D5"/>
<path fill-rule="evenodd" clip-rule="evenodd" d="M48.938 132.161C48.6261 132.537 45.1146 134.841 44.2667 135.229C43.5148 135.557 43.2869 135.901 43.5988 136.261C44.2827 137.093 47.7782 134.857 49.182 132.685C49.5419 132.129 49.33 131.69 48.938 132.161V132.161Z" fill="#B8C7D5"/>
<path fill-rule="evenodd" clip-rule="evenodd" d="M18.094 134.269C17.994 134.397 17.962 134.577 18.01 134.693C18.3219 135.181 23.6131 137.157 26.7127 137.941C31.596 139.164 36.2833 139.476 39.2708 138.756C40.6906 138.432 41.1305 138.236 40.8386 138.056C40.7546 138.009 39.6148 137.925 38.259 137.877C35.5314 137.745 31.024 137.369 29.2763 137.109C27.1886 136.797 25.8808 136.457 22.5013 135.345C18.3699 133.973 18.3379 133.957 18.094 134.269V134.269Z" fill="#B8C7D5"/>
<path fill-rule="evenodd" clip-rule="evenodd" d="M125.531 139.917C122.739 141.648 117.888 143.704 114.688 144.54C113.22 144.912 110.689 145.208 107.813 145.34C106.901 145.372 106.869 145.388 107.293 145.568C108.777 146.236 112.532 146.284 114.804 145.696C119.455 144.488 124.043 142.332 126.33 140.276C126.77 139.885 127.014 139.557 126.934 139.445C126.77 139.165 126.706 139.181 125.531 139.917V139.917Z" fill="#B8C7D5"/>
<path fill-rule="evenodd" clip-rule="evenodd" d="M98.6224 140.668C99.6822 142.172 101.546 143.9 102.686 144.455C103.914 145.059 104.713 145.091 104.713 144.555C104.713 144.343 104.434 144.064 103.93 143.736C102.278 142.724 101.234 141.992 99.9302 140.96C98.2945 139.672 97.8385 139.572 98.6224 140.668Z" fill="#B8C7D5"/>
</svg>
