<svg width="75" height="40" viewBox="0 0 75 40" fill="none" xmlns="http://www.w3.org/2000/svg">
<path fill-rule="evenodd" clip-rule="evenodd" d="M66.7616 33.8216C66.761 37.8996 60.5502 37.9046 60.5509 33.821C60.5515 29.7268 66.7616 29.7324 66.7616 33.8216ZM69.7578 33.7015C69.7584 25.6438 57.4827 25.6251 57.4815 33.7002C57.4821 41.786 69.7566 41.7679 69.7578 33.7015ZM17.8039 33.8823C17.8039 37.9596 11.5938 37.9646 11.5944 33.8811C11.595 29.7869 17.8045 29.7919 17.8039 33.8823ZM20.8088 33.7534C20.8088 25.6695 8.54312 25.6808 8.54187 33.7528C8.54124 41.823 20.8082 41.8361 20.8088 33.7534Z" fill="#8FA7BD"/>
<path fill-rule="evenodd" clip-rule="evenodd" d="M6.94641 33.5752C8.30405 23.03 21.7672 23.9034 22.2984 33.5771C33.4818 33.5777 44.6645 33.5783 55.8466 33.5802C56.944 23.4092 70.369 23.3866 71.3031 33.7016C72.4805 33.7954 73.8094 33.7685 75 33.6296C74.1254 12.1557 63.455 17.3598 57.4539 13.7818C36.9228 -6.48466 1.95253 -6.18998 0.100004 26.7463C-0.266622 33.2661 0.0399427 33.7241 6.94641 33.5752ZM29.7911 14.7459C22.9866 14.7453 17.9239 14.7684 7.8198 14.744C7.55078 14.7428 11.1463 1.43785 29.7141 2.36568C29.7129 6.53371 29.7911 10.5785 29.7911 14.7459ZM55.2554 14.6746C47.5606 14.6977 39.4598 14.7215 31.765 14.7453C31.765 10.5785 31.8445 6.61191 31.8445 2.44513C41.2328 3.6276 50.523 8.77914 55.2554 14.6746Z" fill="#8FA7BD"/>
</svg>
