<svg width="60" height="61" viewBox="0 0 60 61" fill="none" xmlns="http://www.w3.org/2000/svg">
<path fill-rule="evenodd" clip-rule="evenodd" d="M11.615 15.0085H11.25C10.66 15.0085 10.1513 15.4198 10.0275 15.996L2.73375 50.0323C1.19375 50.2248 0 51.541 0 53.1335V56.8835C0 58.6085 1.4 60.0085 3.125 60.0085H56.875C58.6 60.0085 60 58.6085 60 56.8835V53.1335C60 51.4085 58.6 50.0085 56.875 50.0085H56.25V30.0085C56.25 29.3185 55.69 28.7585 55 28.7585H42.5C41.81 28.7585 41.25 29.3185 41.25 30.0085V37.5085H35C34.31 37.5085 33.75 38.0685 33.75 38.7585V50.0085H27.26L20.2 17.061C22.2412 16.3073 26.7137 14.5948 28.2212 13.5298C30.4225 11.9735 30.585 10.7273 31.1562 9.23602C31.1775 9.21602 31.2525 9.14977 31.3025 9.11602C31.4387 9.02602 31.5963 8.94727 31.7613 8.87352C32.3513 8.60852 33.0225 8.39477 33.53 8.14477C34.4212 7.70727 34.9138 7.07227 34.9913 6.40352C35.0275 6.09477 34.9762 5.65977 34.775 5.15602C34.5012 4.46852 33.915 3.53102 33.2488 2.66227C32.5875 1.80352 31.8513 1.01102 31.3 0.576024C30.8838 0.247274 30.5012 0.0822742 30.2362 0.0310242C29.72 -0.0689758 29.1438 0.0747742 28.4763 0.461024C27.8275 0.837274 26.9075 1.54102 25.1925 1.27352C24.0012 1.08852 23.1837 1.34602 22.575 1.79102C21.9987 2.21227 21.5963 2.84727 21.31 3.62477C20.9513 4.59727 20.8225 5.87352 20.2025 6.82727C19.9613 7.19727 19.77 7.48352 19.5987 7.69852C19.55 7.75977 19.48 7.83227 19.4387 7.87352C19.3762 7.86727 19.2462 7.85102 19.1437 7.83227C18.7887 7.76602 18.3437 7.65477 17.75 7.53352C17.1812 7.41727 16.6025 7.51227 16.0337 7.81977C15.4637 8.12852 14.88 8.69102 14.345 9.42602C13.1412 11.0785 12.1062 13.6698 11.615 15.0085V15.0085ZM53.75 50.0085H43.75V38.7585V38.7573V31.2585H53.75V50.0085ZM9.31375 31.2585L5.29625 50.0085H24.7038L20.6862 31.2585H9.31375V31.2585ZM47.5 46.2585H50C50.69 46.2585 51.25 45.6985 51.25 45.0085C51.25 44.3185 50.69 43.7585 50 43.7585H47.5C46.81 43.7585 46.25 44.3185 46.25 45.0085C46.25 45.6985 46.81 46.2585 47.5 46.2585ZM47.5 41.2585H50C50.69 41.2585 51.25 40.6985 51.25 40.0085C51.25 39.3185 50.69 38.7585 50 38.7585H47.5C46.81 38.7585 46.25 39.3185 46.25 40.0085C46.25 40.6985 46.81 41.2585 47.5 41.2585ZM47.5 36.2585H50C50.69 36.2585 51.25 35.6985 51.25 35.0085C51.25 34.3185 50.69 33.7585 50 33.7585H47.5C46.81 33.7585 46.25 34.3185 46.25 35.0085C46.25 35.6985 46.81 36.2585 47.5 36.2585ZM12.5 17.5085H12.26L11.1888 22.5085H18.8112L17.74 17.5085H12.5Z" fill="#8FA7BD"/>
</svg>
