<svg width="75" height="45" viewBox="0 0 75 45" fill="none" xmlns="http://www.w3.org/2000/svg">
<path d="M72.9495 40.5365H67.1924V37.8551H67.429C68.5331 37.8551 69.4795 36.9876 69.4795 35.8047C69.4795 34.6217 68.612 33.7542 67.429 33.7542H67.1924V29.1801H67.429C68.5331 29.1801 69.4795 28.3126 69.4795 27.1296C69.4795 25.9466 68.612 25.0791 67.429 25.0791H67.1924V20.505H67.429C68.5331 20.505 69.4795 19.6375 69.4795 18.4545C69.4795 17.3504 68.612 16.404 67.429 16.404H67.1924C66.9558 12.6185 63.959 9.6217 60.1735 9.3851C59.7003 4.18005 55.3628 0.000244141 50 0.000244141C44.4006 0.000244141 39.7476 4.57438 39.7476 10.2526V40.5365H34.2271V37.8551H34.4637C35.5678 37.8551 36.5142 36.9876 36.5142 35.8047C36.5142 34.6217 35.6467 33.7542 34.4637 33.7542H34.2271V29.1801H34.4637C35.5678 29.1801 36.5142 28.3126 36.5142 27.1296C36.5142 25.9466 35.6467 25.0791 34.4637 25.0791H34.2271V20.505H34.4637C35.5678 20.505 36.5142 19.6375 36.5142 18.4545C36.5142 17.3504 35.6467 16.404 34.4637 16.404H34.2271C33.9905 12.6185 30.9937 9.6217 27.2082 9.3851C26.735 4.18005 22.3975 0.000244141 17.0347 0.000244141C11.4353 0.000244141 6.78233 4.57438 6.78233 10.2526V40.5365H2.05047C0.946372 40.5365 0 41.404 0 42.587C0 43.77 0.867508 44.6375 2.05047 44.6375H72.9495C74.0536 44.6375 75 43.77 75 42.587C75 41.404 74.1325 40.5365 72.9495 40.5365ZM16.2461 16.5618H16.0095C14.9054 16.5618 13.959 17.4293 13.959 18.6122C13.959 19.7163 14.8265 20.6627 16.0095 20.6627H16.2461V25.2368H16.0095C14.9054 25.2368 13.959 26.1043 13.959 27.2873C13.959 28.4703 14.8265 29.3378 16.0095 29.3378H16.2461V33.9119H16.0095C14.9054 33.9119 13.959 34.7794 13.959 35.9624C13.959 37.1454 14.8265 38.0129 16.0095 38.0129H16.2461V40.5365H10.8833V10.4103C10.8833 7.01917 13.6435 4.25892 17.0347 4.25892C20.1104 4.25892 22.7129 6.54599 23.1073 9.6217C19.4006 9.85829 16.4827 12.8551 16.2461 16.5618ZM25.2366 31.9403C23.4227 31.9403 22.0032 30.4419 22.0032 28.7069C22.0032 26.893 24.6057 23.1864 24.8423 22.792C24.9211 22.6343 25.0789 22.5555 25.2366 22.5555C25.3943 22.5555 25.5521 22.6343 25.6309 22.792C25.9464 23.1864 28.47 26.893 28.47 28.7069C28.5489 30.4419 27.0505 31.9403 25.2366 31.9403ZM49.2114 16.5618H48.9748C47.8707 16.5618 46.9243 17.4293 46.9243 18.6122C46.9243 19.7163 47.7918 20.6627 48.9748 20.6627H49.2114V25.2368H48.9748C47.8707 25.2368 46.9243 26.1043 46.9243 27.2873C46.9243 28.4703 47.7918 29.3378 48.9748 29.3378H49.2114V33.9119H48.9748C47.8707 33.9119 46.9243 34.7794 46.9243 35.9624C46.9243 37.1454 47.7918 38.0129 48.9748 38.0129H49.2114V40.5365H43.8486V10.4103C43.8486 7.01917 46.6088 4.25892 50 4.25892C53.0757 4.25892 55.6782 6.54599 56.0726 9.6217C52.3659 9.85829 49.448 12.8551 49.2114 16.5618ZM58.2019 31.9403C56.388 31.9403 54.9685 30.4419 54.9685 28.7069C54.9685 26.893 57.571 23.1864 57.8076 22.792C57.8864 22.6343 58.0442 22.5555 58.2019 22.5555C58.3596 22.5555 58.5173 22.6343 58.5962 22.792C58.9117 23.1864 61.4353 26.893 61.4353 28.7069C61.5142 30.4419 60.0158 31.9403 58.2019 31.9403Z" fill="#8FA7BD"/>
</svg>
