<svg width="81" height="56" viewBox="0 0 81 56" fill="none" xmlns="http://www.w3.org/2000/svg">
<path fill-rule="evenodd" clip-rule="evenodd" d="M54.1228 29.6329L33.2823 37.7762L30.4984 52.1931C30.3269 53.0868 30.6529 54.0035 31.3539 54.5885C32.054 55.1712 33.0165 55.3265 33.8641 54.9953L43.1783 51.3559C43.7744 51.123 44.2595 50.6677 44.5324 50.0886L54.1228 29.6329V29.6329ZM76.0531 10.3274L62.7315 15.5328C61.4462 16.035 59.9953 15.3995 59.4931 14.1141C58.9909 12.8288 59.6264 11.378 60.9118 10.8757L72.0795 6.51199C68.1667 3.9101 63.1498 3.29102 58.6115 5.06435L22.9568 18.9962L20.5129 16.3894C16.4294 12.0317 10.1015 10.599 4.53863 12.7727C2.92262 13.4041 1.69548 13.8836 1.69548 13.8836C1.0039 14.1539 0.468773 14.7146 0.233799 15.4184C-0.00117498 16.1221 0.0878299 16.8926 0.476924 17.5243C0.476924 17.5243 5.10348 25.0302 9.15898 31.6105C13.2576 38.2598 21.527 41.0275 28.8013 38.1851C46.1653 31.4002 78.7231 18.6784 78.7231 18.6784C79.4705 18.3864 80.0327 17.7507 80.233 16.9719C80.4342 16.1954 80.2472 15.3666 79.7355 14.7506L76.0531 10.3274ZM25.9375 25.4087C24.4239 26.0001 23.6763 27.7067 24.2677 29.2203C24.8582 30.7315 26.5658 31.4815 28.0793 30.8901C29.5929 30.2987 30.3396 28.5897 29.7491 27.0785C29.1577 25.5649 27.4511 24.8173 25.9375 25.4087ZM34.8395 21.9303C33.326 22.5217 32.5783 24.2283 33.1698 25.7419C33.7603 27.2531 35.4678 28.0031 36.9814 27.4117C38.4949 26.8202 39.2417 25.1113 38.6511 23.6C38.0597 22.0865 36.3531 21.3388 34.8395 21.9303ZM43.7416 18.4518C42.228 19.0433 41.4804 20.7499 42.0718 22.2634C42.6623 23.7747 44.3698 24.5246 45.8834 23.9332C47.3969 23.3418 48.1437 21.6328 47.5532 20.1216C46.9618 18.6081 45.2551 17.8604 43.7416 18.4518ZM52.6436 14.9734C51.13 15.5648 50.3824 17.2715 50.9738 18.785C51.5643 20.2963 53.2719 21.0462 54.7854 20.4548C56.299 19.8634 57.0457 18.1544 56.4552 16.6432C55.8638 15.1296 54.1572 14.382 52.6436 14.9734ZM26.6909 16.1951L47.0424 8.24288L27.7975 0.391062C27.2042 0.150473 26.539 0.144684 25.9429 0.37761L16.6287 4.01708C15.7811 4.34827 15.1789 5.11504 15.0593 6.01798C14.9406 6.92325 15.3225 7.81814 16.0545 8.35882L26.6909 16.1951V16.1951Z" fill="#8FA7BD"/>
</svg>
