<svg xmlns="http://www.w3.org/2000/svg" xmlns:xlink="http://www.w3.org/1999/xlink" version="1.1" x="0px" y="0px" viewBox="0 0 100 100" enable-background="new 0 0 100 100" xml:space="preserve"><g><g><g><path d="M48.034,42.276c-0.176,0.144-0.325,0.292-0.318,0.626c0.01,0.481-0.019,0.964-0.02,1.447c0,0.536,0.056,1.08,0.003,1.604     c-0.043,0.433-0.055,0.741,0.289,0.928c0.052,0.029,0.091,0.361,0.051,0.403c-0.474,0.491-0.367,0.864,0.104,1.188     c-0.082,0.4,0.302,0.95-0.245,1.224c-0.116,0.059-0.233,0.484-0.193,0.686c0.139,0.718,0.433,1.402,0.104,2.159     c0.461,0.485,0.104,0.926-0.013,1.417c-0.199,0.838-0.311,1.695,0.113,2.508c0.071,0.138,0.099,0.446,0.034,0.562     c-0.187,0.338-0.194,0.702-0.199,1.087l-0.048,3.111c-0.002,0.158,0.002,0.417,0.067,0.461c0.55,0.38,0.271,0.87,0.14,1.367     c-0.049,0.188-0.077,0.472-0.006,0.616c0.237,0.49,0.106,0.913-0.008,1.393c-0.067,0.282-0.012,0.644,0.048,0.948     c0.111,0.571,0.646,1.064,0.121,1.742c-0.063,0.083,0,0.438,0.077,0.609c0.303,0.673-0.098,1.555,0.365,2.176     c0.027,0.036-0.021,0.201-0.056,0.292c-0.364,0.978-0.083,1.935,0.122,2.846c0.143,0.641,0.318,1.242,0.118,1.879     c-0.172,0.544,0.259,0.796,0.263,1.132c0.005,0.396-0.368,0.764-0.26,1.271c0.032,0.149,0.108,0.283,0.173,0.415     c0.113,0.218,0.228,0.439,0.343,0.661c0.591,1.079,1.32,1.895,2.303,2.235c0.322,0.112,0.567-0.071,0.641-0.507     c0.4-2.412,0.418-4.868,0.441-7.323c0.004-0.354-0.092-0.631-0.332-0.811c-0.152-0.114-0.291-0.269-0.048-0.448     c0.302-0.221,0.339-0.595,0.33-0.983l-0.084-1.797c-0.092-2.181-0.185-4.363-0.278-6.541c-0.109-3.159,0.134-6.323-0.07-9.486     c-0.051-0.787-0.119-1.484-0.639-2.095c0.546-0.355,0.625-0.873,0.598-1.531c-0.075-1.741-0.104-3.487-0.13-5.233l0.018-2.949     c-0.001-0.266-0.013-0.596-0.125-0.779c-0.13-0.212-0.376-0.295-0.585-0.444c0.704-0.759,0.89-1.089,0.679-1.72     c-0.246-0.738-0.39-1.388-0.028-2.112c0.06-0.119,0.062-0.327,0.039-0.479c-0.253-1.621,0.111-3.24-0.028-4.879     c-0.157-1.836-0.076-3.708-0.121-5.562c-0.011-0.423-0.095-0.847-0.171-1.262c-0.121-0.655-0.131-0.653,0.503-0.959l0.052-0.068     c0.032-0.709,0.026-0.717-0.5-0.969L51.53,22.43c0.018-0.023,0.034-0.054,0.054-0.065c0.027-0.016,0.06-0.016,0.091-0.024     l0.728-0.322l-0.007,0.011c-0.099-0.786-0.223-1.572,0.282-2.227c0.074-0.097,0.115-0.322,0.092-0.462     c-0.114-0.663,0.025-1.405-0.402-1.982c-0.132-0.179-0.089-0.597-0.126-0.906l-0.025-0.034c-0.2-0.42,0.269-0.76,0.134-1.049     c-0.303-0.649-0.183-1.223-0.007-1.844c0.037-0.13,0.019-0.372-0.046-0.458c-0.315-0.412-0.315-0.808-0.088-1.294     c0.095-0.203-0.036-0.477-0.211-0.472c-0.591,0.018-1.2-0.047-1.671,0.634c-0.246,0.355-0.568,0.607-0.83,0.943     c-0.47,0.604-0.88,1.258-0.976,2.185c-0.04,0.371-0.1,0.794-0.262,1.075c-0.514,0.89-0.569,2.019-0.925,2.984     c-0.117,0.315-0.121,0.6,0.023,0.919c0.161,0.355,0.241,1.438,0.189,1.879c-0.011,0.105,0.001,0.217,0.001,0.326l0.25,0.009     l-0.009-0.014l-0.236-0.002c-0.185,0.118-0.469,0.354-0.246,0.561c0.453,0.421,0.278,1.211,0.646,1.662     c0.072,0.088,0.006,0.599-0.106,0.711c-0.555,0.552-0.484,1.249-0.223,1.894c0.232,0.576,0.4,1.05,0.022,1.613     c-0.063,0.094-0.035,0.31-0.036,0.469c-0.002,1.292-0.064,2.585,0.124,3.869c0.029,0.197-0.015,0.433-0.068,0.629     c-0.27,0.971-0.085,1.941,0.014,2.902c0.03,0.298,0.322,0.576,0.31,0.847c-0.014,0.308-0.258,0.585-0.355,0.902     c-0.059,0.19-0.057,0.438-0.031,0.648c0.137,1.114,0.076,2.274,0.425,3.338L48.034,42.276z M50.974,73.548     c-0.013-0.031,0.066-0.129,0.101-0.196c0.03,0.031,0.077,0.058,0.084,0.096l0.111,0.757l0.105,0.043l-0.1-0.052     C51.172,73.981,51.064,73.771,50.974,73.548z M50.999,14.24c0.081,0.05,0.147,0.142,0.218,0.219     c-0.062,0.047-0.124,0.131-0.187,0.131c-0.054-0.001-0.107-0.096-0.162-0.149C50.914,14.369,50.982,14.23,50.999,14.24z      M50.238,73.806l0.093-0.043c-0.015,0.059-0.031,0.119-0.051,0.199C50.261,73.891,50.25,73.849,50.238,73.806z M51.456,49.489     l-0.042-0.095l0.067-0.02L51.456,49.489z M51.912,76.512l0.076,0.053l-0.068,0.063L51.912,76.512z"></path></g></g><g><g><path d="M55.962,85.517c0.283-0.035,0.552-0.093,0.765-0.315c0.304-0.318,0.658-0.632,0.979-0.951     c0.357-0.356,0.627-0.706,1.053-1.058c0.354-0.292,0.591-0.512,0.119-0.527c-0.071-0.003,0.065-0.193,0.161-0.233     c1.144-0.473,1.245-0.726,0.531-0.679c0.413-0.298-0.052-0.375,1.244-0.898c0.276-0.111,0.804-0.475,0.853-0.58     c0.164-0.34-0.045-0.483,0.815-1.081c-0.017-0.021-0.021-0.049-0.012-0.083c-1.516,0.461-1.044,0.104-1.266-0.013     c-0.331-0.199-1.042-0.311-2.481,0.113c-0.242,0.071-0.552,0.099-0.556,0.034c-0.014-0.187-0.351-0.194-0.698-0.199l-2.838-0.048     c-0.146-0.002-0.392,0.002-0.477,0.067c-0.716,0.55-0.916,0.271-1.321,0.14c-0.146-0.049-0.396-0.077-0.549-0.007     c-0.508,0.237-0.818,0.106-1.249-0.008c-0.109-0.034-0.306-0.037-0.383-0.023c-0.084,0.013-0.169,0.042-0.247,0.072     c-0.292,0.112-0.543,0.646-0.889,0.121c-0.042-0.063-0.224,0-0.311,0.077c-0.343,0.303-0.793-0.098-1.111,0.365     c-0.018,0.027-0.102-0.021-0.148-0.056c-0.499-0.364-0.987-0.083-1.452,0.122c-0.327,0.143-0.633,0.318-0.958,0.118     c-0.278-0.172-0.407,0.259-0.578,0.263c-0.202,0.005-0.39-0.368-0.648-0.26c-0.076,0.032-0.145,0.108-0.212,0.173     c-0.109,0.111-0.223,0.227-0.337,0.343c-0.55,0.591-0.967,1.32-1.14,2.303c-0.057,0.322,0.036,0.567,0.259,0.64     c1.231,0.401,2.484,0.418,3.737,0.442c0.181,0.004,0.322-0.092,0.414-0.332c0.059-0.152,0.138-0.291,0.229-0.048     c0.112,0.302,0.304,0.339,0.501,0.33c0.306-0.014,0.611-0.058,0.917-0.084l1.669-0.146c0.115-0.012,0.332-0.024,0.363-0.036     l0.082-0.034c0.058-0.022,0.122-0.043,0.19-0.062c0.206-0.054,0.382-0.021,0.521,0.001c0.151,0.021,0.264,0.031,0.679-0.071     c0.101-0.024,0.209-0.053,0.45-0.132c0.233-0.074,0.534-0.169,1.049-0.332c-1.304,0.532-1.499,0.614-1.504,0.659     c-0.007,0.113-0.148,0.296-0.301,0.485c-0.089,0.11-0.243,0.21-0.34,0.314c-0.027,0.029-0.049,0.067,0.032,0.146     c0.093,0.091,0.298,0.234,0.448,0.379c-0.761-0.234-0.766-0.491-0.912-0.048c-0.072,0.42-0.305,0.857-0.561,0.601     c-0.05-0.034-0.072-0.016-0.076,0.021C50.4,85.875,50.125,85.804,50,85.96c-0.024-0.019-0.048-0.029-0.074-0.029     c-0.111,0-0.241-0.103-0.359-0.215l-0.547-0.522c-0.161-0.145-0.373-0.238-0.576-0.334c-0.322-0.15-0.328-0.143,0.01-0.702     l0.012-0.061c-0.234-0.278-0.24-0.278-0.703,0.003L47.7,84.235c0.004-0.021,0.004-0.043,0.015-0.062     c0.014-0.025,0.037-0.048,0.056-0.073l0.398-0.631l0,0.009c-0.354-0.213-0.725-0.41-0.604-1.003     c0.018-0.087-0.035-0.197-0.102-0.231c-0.32-0.158-0.489-0.525-1-0.431c-0.158,0.029-0.278-0.153-0.416-0.237l-0.03,0.005     c-0.293-0.01-0.084-0.463-0.284-0.473c-0.449-0.02-0.571-0.312-0.67-0.661c-0.021-0.073-0.12-0.147-0.198-0.132     c-0.371,0.074-0.514-0.069-0.529-0.405c-0.006-0.14-0.197-0.147-0.32-0.021c-0.411,0.424-0.865,0.832-0.953,1.41     c-0.046,0.302-0.183,0.621-0.247,0.927c-0.115,0.55-0.168,1.076,0.098,1.479c0.106,0.162,0.216,0.357,0.203,0.573     c-0.042,0.685,0.327,1.131,0.423,1.731c0.031,0.197,0.131,0.302,0.348,0.316c0.242,0.015,0.689,0.349,0.812,0.544     c0.03,0.046,0.079,0.077,0.119,0.117l0.18-0.173l-0.011,0.001l-0.167,0.166c-0.088,0.173-0.204,0.459,0.028,0.376     c0.472-0.169,0.633,0.24,1.057,0.142c0.083-0.019,0.22,0.212,0.181,0.332c-0.097,0.296-0.069,0.494,0.034,0.625     c0.025,0.032,0.056,0.061,0.091,0.085c0.04,0.029,0.122,0.094,0.186,0.133c0.137,0.088,0.285,0.16,0.433,0.215     c0.535,0.206,0.875,0.309,1.09,1.058c0.037,0.126,0.194,0.244,0.3,0.351c0.591,0.594,1.188,1.233,1.783,1.768     c0.271-0.299,0.541-0.617,0.796-0.956c0.124-0.165,0.285-0.264,0.429-0.332c0.725-0.343,1.358-1.239,1.919-1.939     c0.166-0.208,0.202-0.658,0.296-0.734c0.121-0.102,0.394-0.029,0.577-0.074c0.109-0.028,0.197-0.118,0.255-0.212l0.059-0.092     l0.121-0.149l0.256-0.302c0.169-0.197,0.337-0.392,0.509-0.59c0.326-0.391,0.621-0.787,0.756-1.169L55.962,85.517z      M46.559,82.275c0.016-0.013,0.066,0.066,0.1,0.101c-0.016,0.03-0.029,0.077-0.049,0.084c-0.133,0.039-0.259,0.075-0.386,0.111     l-0.022,0.105l0.026-0.1C46.337,82.474,46.445,82.366,46.559,82.275z M44.369,81.655c0.076-0.039,0.155-0.053,0.233-0.075     c-0.027,0.061-0.041,0.135-0.084,0.179c-0.039,0.038-0.111,0.042-0.168,0.061C44.356,81.762,44.354,81.663,44.369,81.655z      M46.427,81.54l0.022,0.093c-0.03-0.015-0.061-0.031-0.102-0.051C46.384,81.562,46.405,81.551,46.427,81.54z M53.399,83.24     l0.068-0.009l-0.14,0.045L53.399,83.24z M45.046,83.213l-0.027,0.076l-0.032-0.068L45.046,83.213z"></path></g></g></g></svg>