<svg xmlns="http://www.w3.org/2000/svg" xmlns:xlink="http://www.w3.org/1999/xlink" version="1.1" x="0px" y="0px" viewBox="0 0 100 100" enable-background="new 0 0 100 100" xml:space="preserve"><g><g><g><path d="M43.995,81.531c0.041,0.29,0.105,0.565,0.493,0.943l1.646,1.673c0.488,0.479,0.982,0.962,1.473,1.443     c0.564,0.554,1.118,1.106,1.663,1.688c0.269,0.279,0.512,0.534,0.73,0.762c0.538-0.541,0.944-1.041,1.146-1.586     c0.047-0.121,0.679-0.807,0.776-0.849c0.578-0.243,1.103-0.637,1.489-1.062l0.14-0.161l0.062-0.1     c0.038-0.068,0.07-0.139,0.097-0.214c0.052-0.15,0.081-0.314,0.091-0.49c0.517-0.401,0.876-1.303,1.576-1.23     c0.149,0.015,0.72-0.391,0.923-0.649c0.725-0.921,1.302-1.915,2.401-2.549c0.23-0.882,0.988-1.135,1.635-1.616     c1.102-0.819,2.164-1.724,2.796-2.955c0.108-0.209,0.441-0.581,0.62-0.669c0.521-0.256,0.941-0.667,1.387-1.106l3.602-3.533     c0.184-0.18,0.477-0.479,0.482-0.577c0.047-0.825,0.807-1.189,1.469-1.667c0.251-0.181,0.595-0.486,0.711-0.702     c0.394-0.729,0.971-1.122,1.603-1.592c0.371-0.276,0.746-0.729,1.054-1.122c0.575-0.733,0.763-1.677,1.911-2.083     c0.139-0.05,0.503-0.503,0.644-0.753c0.558-0.985,1.853-1.714,2.237-2.753c0.022-0.061,0.245-0.215,0.373-0.295     c1.379-0.864,2.277-2.16,3.178-3.349c0.634-0.836,1.198-1.649,2.071-2.238c0.744-0.502,0.73-1.096,1.112-1.484     c0.449-0.458,1.137-0.616,1.641-1.273c0.148-0.193,0.247-0.4,0.354-0.598c0.172-0.334,0.345-0.669,0.516-1.001     c0.819-1.655,1.239-3.106,0.935-4.191c-0.1-0.355-0.482-0.32-1.035,0.129c-3.049,2.482-5.878,5.286-8.71,8.084     c-0.408,0.403-0.658,0.79-0.695,1.165c-0.023,0.238-0.104,0.514-0.479,0.548c-0.467,0.04-0.922,0.443-1.36,0.894l-2.002,2.121     l-7.304,7.697c-3.545,3.699-7.345,7.155-10.827,10.927c-0.866,0.938-1.618,1.787-1.951,2.855     c-0.793,0.021-1.443,0.559-2.178,1.332l-1.93,2.016L50,81.977l-0.682-0.641l-3.368-3.394c-0.306-0.304-0.692-0.674-0.982-0.805     c-0.335-0.151-0.604-0.072-0.923-0.096c-0.373-1.369-0.62-1.878-1.492-2.453c-1.02-0.671-1.867-1.315-2.441-2.402     c-0.095-0.178-0.331-0.418-0.521-0.576c-2.038-1.68-3.636-3.793-5.615-5.575c-2.217-1.995-4.306-4.198-6.464-6.293     c-0.493-0.478-1.038-0.904-1.567-1.326c-0.837-0.666-0.841-0.656-0.744-1.455l-0.041-0.114c-0.791-0.835-0.804-0.841-1.464-0.757     l0.016,0.211c-0.014-0.039-0.038-0.085-0.037-0.113c0.001-0.038,0.024-0.061,0.037-0.091l0.146-0.884l0.008,0.018     c-0.972-0.832-1.96-1.645-2.354-2.753c-0.06-0.164-0.288-0.45-0.465-0.594c-0.841-0.679-1.594-1.629-2.559-1.989     c-0.298-0.112-0.747-0.622-1.128-0.949l-0.057-0.021c-0.623-0.341-0.681-1.061-1.107-1.297c-0.959-0.53-1.532-1.273-2.12-2.11     c-0.123-0.175-0.412-0.439-0.559-0.493c-0.695-0.25-1.149-0.704-1.546-1.422c-0.166-0.3-0.572-0.521-0.69-0.391     c-0.396,0.438-0.902,0.795-0.454,1.908c0.232,0.581,0.294,1.098,0.494,1.668c0.359,1.024,0.82,2.064,1.814,3.195     c0.397,0.453,0.841,0.981,1.048,1.417c0.657,1.383,1.913,2.718,2.768,4.076c0.279,0.444,0.603,0.773,1.07,1.038     c0.521,0.294,1.819,1.479,2.289,2.021c0.113,0.129,0.249,0.248,0.375,0.373l0.187-0.166l-0.021-0.009l-0.17,0.163     c0.004,0.266,0.073,0.737,0.469,0.817c0.803,0.162,1.585,1.192,2.362,1.449c0.152,0.05,0.691,0.682,0.74,0.89     c0.24,1.025,1.09,1.775,2.014,2.329c0.824,0.495,1.486,0.92,1.866,1.833c0.062,0.152,0.33,0.38,0.512,0.563     c1.479,1.483,2.92,3.01,4.524,4.349c0.246,0.205,0.485,0.507,0.673,0.77c0.923,1.305,2.166,2.286,3.338,3.317     c0.363,0.32,0.888,0.432,1.189,0.752c0.343,0.362,0.488,0.854,0.783,1.285c0.177,0.259,0.462,0.542,0.722,0.764     c1.374,1.181,2.661,2.554,4.128,3.527L43.995,81.531z M80.554,52.825c-0.026,0.045-0.194,0.101-0.296,0.153     c0.015-0.057,0.012-0.121,0.05-0.169l0.79-0.947l-0.025-0.124l0.011,0.13C80.91,52.188,80.746,52.504,80.554,52.825z      M13.943,47.287c0.115,0,0.267,0.058,0.406,0.097c0.009,0.098,0.062,0.237,0.018,0.282c-0.039,0.038-0.187-0.034-0.286-0.057     C14.031,47.495,13.92,47.286,13.943,47.287z M81.37,53.048l-0.115-0.016c0.078-0.057,0.157-0.114,0.264-0.191     C81.451,52.935,81.411,52.992,81.37,53.048z M52.626,80.071l-0.079,0.138l-0.07-0.024L52.626,80.071z M83.29,48.763l0.007-0.114     l0.121-0.024L83.29,48.763z"></path></g></g><g><g><path d="M51.833,54.025c0.176-0.144,0.325-0.292,0.317-0.626c-0.01-0.481,0.02-0.965,0.021-1.447     c0.001-0.536-0.056-1.08-0.004-1.604c0.044-0.433,0.056-0.741-0.288-0.928c-0.053-0.029-0.092-0.361-0.052-0.403     c0.475-0.491,0.367-0.864-0.104-1.188c0.081-0.4-0.302-0.95,0.244-1.224c0.117-0.059,0.233-0.484,0.193-0.686     c-0.139-0.718-0.433-1.402-0.104-2.159c-0.461-0.485-0.104-0.926,0.013-1.417c0.2-0.838,0.312-1.695-0.113-2.508     c-0.07-0.138-0.099-0.446-0.034-0.562c0.188-0.338,0.194-0.702,0.199-1.087l0.049-3.111c0.002-0.158-0.003-0.417-0.067-0.461     c-0.55-0.38-0.271-0.87-0.14-1.368c0.049-0.188,0.076-0.471,0.006-0.616c-0.237-0.49-0.105-0.913,0.009-1.393     c0.066-0.282,0.011-0.644-0.049-0.948c-0.111-0.571-0.646-1.064-0.121-1.741c0.062-0.083,0-0.439-0.077-0.609     c-0.303-0.673,0.098-1.555-0.365-2.176c-0.027-0.036,0.021-0.201,0.056-0.292c0.364-0.978,0.083-1.935-0.122-2.846     c-0.143-0.641-0.318-1.242-0.117-1.879c0.171-0.544-0.259-0.796-0.263-1.132c-0.006-0.396,0.368-0.764,0.259-1.271     c-0.031-0.149-0.107-0.283-0.172-0.415c-0.113-0.218-0.229-0.439-0.344-0.661c-0.591-1.079-1.32-1.895-2.303-2.235     c-0.321-0.112-0.567,0.071-0.641,0.507c-0.4,2.412-0.418,4.868-0.441,7.323c-0.004,0.354,0.093,0.631,0.331,0.811     c0.152,0.114,0.291,0.27,0.049,0.448c-0.302,0.221-0.339,0.595-0.33,0.983l0.084,1.797c0.093,2.181,0.186,4.362,0.278,6.541     c0.108,3.159-0.134,6.323,0.07,9.486c0.051,0.787,0.119,1.484,0.639,2.095c-0.545,0.355-0.625,0.873-0.598,1.531     c0.075,1.741,0.104,3.487,0.13,5.233l-0.018,2.949c0.001,0.266,0.013,0.596,0.125,0.779c0.131,0.212,0.376,0.295,0.585,0.444     c-0.703,0.76-0.889,1.09-0.679,1.72c0.246,0.738,0.391,1.388,0.028,2.112c-0.06,0.119-0.062,0.327-0.038,0.479     c0.253,1.621-0.112,3.24,0.028,4.879c0.157,1.836,0.075,3.708,0.12,5.562c0.011,0.423,0.095,0.847,0.171,1.262     c0.121,0.655,0.131,0.653-0.503,0.959l-0.052,0.068c-0.031,0.709-0.026,0.717,0.499,0.969l0.14-0.099     c-0.019,0.023-0.034,0.054-0.055,0.065c-0.027,0.016-0.06,0.016-0.091,0.024l-0.728,0.322l0.007-0.011     c0.1,0.786,0.223,1.572-0.282,2.227c-0.074,0.097-0.115,0.322-0.092,0.462c0.114,0.663-0.025,1.405,0.402,1.982     c0.132,0.179,0.089,0.598,0.127,0.906l0.024,0.034c0.2,0.42-0.269,0.76-0.134,1.049c0.303,0.649,0.183,1.223,0.007,1.844     c-0.037,0.13-0.02,0.372,0.047,0.458c0.314,0.412,0.314,0.808,0.088,1.294c-0.095,0.203,0.035,0.477,0.211,0.472     c0.591-0.018,1.2,0.047,1.671-0.634c0.245-0.355,0.568-0.607,0.829-0.943c0.471-0.604,0.88-1.258,0.977-2.185     c0.039-0.371,0.1-0.794,0.262-1.075c0.514-0.89,0.568-2.019,0.925-2.984c0.117-0.315,0.121-0.6-0.022-0.919     c-0.161-0.355-0.24-1.438-0.189-1.879c0.012-0.105-0.001-0.217-0.001-0.326l-0.249-0.009l0.009,0.014l0.235,0.002     c0.185-0.118,0.469-0.354,0.246-0.561c-0.453-0.421-0.278-1.211-0.646-1.662c-0.072-0.088-0.006-0.599,0.106-0.711     c0.555-0.552,0.484-1.249,0.223-1.894c-0.232-0.575-0.4-1.049-0.022-1.613c0.063-0.094,0.034-0.31,0.036-0.469     c0.002-1.292,0.063-2.585-0.124-3.869c-0.029-0.196,0.015-0.433,0.068-0.629c0.27-0.971,0.085-1.941-0.015-2.902     c-0.029-0.298-0.322-0.576-0.309-0.847c0.014-0.308,0.258-0.585,0.354-0.902c0.059-0.19,0.057-0.438,0.03-0.648     c-0.137-1.114-0.076-2.273-0.425-3.338L51.833,54.025z M48.894,22.753c0.013,0.031-0.065,0.129-0.102,0.196     c-0.029-0.031-0.077-0.058-0.084-0.096l-0.11-0.757l-0.106-0.043l0.1,0.052C48.694,22.32,48.803,22.53,48.894,22.753z      M48.868,82.061c-0.081-0.05-0.146-0.142-0.218-0.219c0.062-0.047,0.124-0.131,0.187-0.131c0.054,0.001,0.107,0.096,0.161,0.149     C48.953,81.932,48.885,82.071,48.868,82.061z M49.629,22.495l-0.093,0.043c0.015-0.059,0.03-0.119,0.051-0.199     C49.605,22.41,49.617,22.453,49.629,22.495z M48.411,46.812l0.042,0.095l-0.067,0.02L48.411,46.812z M47.956,19.789l-0.076-0.053     l0.068-0.063L47.956,19.789z"></path></g></g></g></svg>