<svg width="617" height="392" viewBox="0 0 617 392" fill="none" xmlns="http://www.w3.org/2000/svg">
<rect width="617" height="392" fill="white"/>
<rect y="79" width="50" height="50" rx="7" fill="#8FA7BD"/>
<rect x="63" y="79" width="50" height="50" rx="7" fill="#8FA7BD"/>
<rect x="126" y="79" width="50" height="50" rx="7" fill="#8FA7BD"/>
<rect x="189" y="79" width="50" height="50" rx="7" fill="#8FA7BD"/>
<rect x="252" y="79" width="50" height="50" rx="7" fill="#8FA7BD"/>
<rect x="315" y="79" width="50" height="50" rx="7" fill="#8FA7BD"/>
<rect x="378" y="79" width="50" height="50" rx="7" fill="#E5E5E5"/>
<rect x="441" y="79" width="50" height="50" rx="7" fill="#E5E5E5"/>
<path d="M388 79H421C424.866 79 428 82.134 428 86V122C428 125.866 424.866 129 421 129H388V79Z" fill="#E5E5E5"/>
<rect x="504" y="79" width="50" height="50" rx="7" fill="#E5E5E5"/>
<rect x="567" y="79" width="50" height="50" rx="7" fill="#E5E5E5"/>
<rect y="201" width="50" height="50" rx="7" fill="#E5E5E5"/>
<rect x="63" y="201" width="50" height="50" rx="7" fill="#E5E5E5"/>
<rect y="262" width="50" height="50" rx="7" fill="#E5E5E5"/>
<rect x="63" y="262" width="50" height="50" rx="7" fill="#E5E5E5"/>
<rect y="362" width="30" height="30" rx="3" fill="#E5E5E5"/>
<rect x="126" y="201" width="50" height="50" rx="7" fill="#E5E5E5"/>
<rect x="189" y="201" width="50" height="50" rx="7" fill="#E5E5E5"/>
<rect x="252" y="201" width="50" height="50" rx="7" fill="#E5E5E5"/>
<rect x="315" y="201" width="50" height="50" rx="7" fill="#E5E5E5"/>
<rect x="378" y="201" width="50" height="50" rx="7" fill="#E5E5E5"/>
<rect x="441" y="201" width="50" height="50" rx="7" fill="#E5E5E5"/>
<rect x="504" y="201" width="50" height="50" rx="7" fill="#E5E5E5"/>
<rect x="567" y="201" width="50" height="50" rx="7" fill="#E5E5E5"/>
<rect y="140" width="50" height="50" rx="7" fill="#E5E5E5"/>
<rect x="63" y="140" width="50" height="50" rx="7" fill="#E5E5E5"/>
<rect x="126" y="140" width="50" height="50" rx="7" fill="#E5E5E5"/>
<rect x="189" y="140" width="50" height="50" rx="7" fill="#E5E5E5"/>
<rect x="252" y="140" width="50" height="50" rx="7" fill="#E5E5E5"/>
<rect x="315" y="140" width="50" height="50" rx="7" fill="#E5E5E5"/>
<rect x="378" y="140" width="50" height="50" rx="7" fill="#E5E5E5"/>
<rect x="441" y="140" width="50" height="50" rx="7" fill="#E5E5E5"/>
<rect x="504" y="140" width="50" height="50" rx="7" fill="#E5E5E5"/>
<rect x="567" y="140" width="50" height="50" rx="7" fill="#E5E5E5"/>
<path d="M39.6479 378.286V377.065H46.3618V378.286H39.6479ZM39.6479 381.338V380.117H46.3618V381.338H39.6479ZM57.0186 368.789V385H58.8008V367.129H57.2261L54.2109 368.35L54.748 369.766L57.0186 368.789ZM65.6123 384.634C66.4098 385.081 67.3172 385.305 68.3345 385.305C69.3517 385.305 70.2591 385.081 71.0566 384.634C71.8542 384.186 72.5052 383.556 73.0098 382.742C73.5143 381.928 73.8968 380.968 74.1572 379.861C74.4176 378.746 74.5479 377.513 74.5479 376.162C74.5479 374.803 74.4176 373.558 74.1572 372.427C73.8968 371.296 73.5103 370.311 72.9976 369.473C72.493 368.626 71.842 367.971 71.0444 367.507C70.255 367.035 69.3517 366.799 68.3345 366.799C67.3172 366.799 66.4098 367.035 65.6123 367.507C64.8229 367.971 64.1719 368.626 63.6592 369.473C63.1546 370.311 62.7721 371.296 62.5117 372.427C62.2513 373.558 62.1211 374.803 62.1211 376.162C62.1211 377.513 62.2513 378.746 62.5117 379.861C62.7721 380.968 63.1546 381.928 63.6592 382.742C64.1637 383.556 64.8148 384.186 65.6123 384.634ZM65.9541 369.265C66.6133 368.573 67.4067 368.228 68.3345 368.228C69.2622 368.228 70.0557 368.573 70.7148 369.265C71.374 369.949 71.8623 370.881 72.1797 372.061C72.4971 373.241 72.6558 374.608 72.6558 376.162C72.6558 377.676 72.5011 379.002 72.1919 380.142C71.8908 381.273 71.4106 382.176 70.7515 382.852C70.0923 383.527 69.2866 383.865 68.3345 383.865C67.3823 383.865 66.5767 383.527 65.9175 382.852C65.2583 382.176 64.7741 381.273 64.4648 380.142C64.1637 379.002 64.0132 377.676 64.0132 376.162C64.0132 374.608 64.1719 373.241 64.4893 372.061C64.8066 370.881 65.2949 369.949 65.9541 369.265ZM80.8223 384.634C81.6198 385.081 82.5272 385.305 83.5444 385.305C84.5617 385.305 85.4691 385.081 86.2666 384.634C87.0641 384.186 87.7152 383.556 88.2197 382.742C88.7243 381.928 89.1068 380.968 89.3672 379.861C89.6276 378.746 89.7578 377.513 89.7578 376.162C89.7578 374.803 89.6276 373.558 89.3672 372.427C89.1068 371.296 88.7202 370.311 88.2075 369.473C87.703 368.626 87.0519 367.971 86.2544 367.507C85.465 367.035 84.5617 366.799 83.5444 366.799C82.5272 366.799 81.6198 367.035 80.8223 367.507C80.0329 367.971 79.3818 368.626 78.8691 369.473C78.3646 370.311 77.9821 371.296 77.7217 372.427C77.4613 373.558 77.3311 374.803 77.3311 376.162C77.3311 377.513 77.4613 378.746 77.7217 379.861C77.9821 380.968 78.3646 381.928 78.8691 382.742C79.3737 383.556 80.0247 384.186 80.8223 384.634ZM81.1641 369.265C81.8232 368.573 82.6167 368.228 83.5444 368.228C84.4722 368.228 85.2656 368.573 85.9248 369.265C86.584 369.949 87.0723 370.881 87.3896 372.061C87.707 373.241 87.8657 374.608 87.8657 376.162C87.8657 377.676 87.7111 379.002 87.4019 380.142C87.1007 381.273 86.6206 382.176 85.9614 382.852C85.3022 383.527 84.4966 383.865 83.5444 383.865C82.5923 383.865 81.7866 383.527 81.1274 382.852C80.4683 382.176 79.984 381.273 79.6748 380.142C79.3737 379.002 79.2231 377.676 79.2231 376.162C79.2231 374.608 79.3818 373.241 79.6992 372.061C80.0166 370.881 80.5049 369.949 81.1641 369.265ZM92.3701 382.327H94.8115V383.364C94.7708 384.609 94.6935 385.472 94.5796 385.952C94.3599 386.88 93.8797 387.596 93.1392 388.101L92.541 387.344C92.7607 387.173 92.9723 386.868 93.1758 386.428C93.3874 385.997 93.5013 385.456 93.5176 384.805L92.3701 384.646V382.327ZM101.477 384.634C102.274 385.081 103.181 385.305 104.199 385.305C105.216 385.305 106.123 385.081 106.921 384.634C107.718 384.186 108.369 383.556 108.874 382.742C109.379 381.928 109.761 380.968 110.021 379.861C110.282 378.746 110.412 377.513 110.412 376.162C110.412 374.803 110.282 373.558 110.021 372.427C109.761 371.296 109.375 370.311 108.862 369.473C108.357 368.626 107.706 367.971 106.909 367.507C106.119 367.035 105.216 366.799 104.199 366.799C103.181 366.799 102.274 367.035 101.477 367.507C100.687 367.971 100.036 368.626 99.5234 369.473C99.0189 370.311 98.6364 371.296 98.376 372.427C98.1156 373.558 97.9854 374.803 97.9854 376.162C97.9854 377.513 98.1156 378.746 98.376 379.861C98.6364 380.968 99.0189 381.928 99.5234 382.742C100.028 383.556 100.679 384.186 101.477 384.634ZM101.818 369.265C102.478 368.573 103.271 368.228 104.199 368.228C105.126 368.228 105.92 368.573 106.579 369.265C107.238 369.949 107.727 370.881 108.044 372.061C108.361 373.241 108.52 374.608 108.52 376.162C108.52 377.676 108.365 379.002 108.056 380.142C107.755 381.273 107.275 382.176 106.616 382.852C105.957 383.527 105.151 383.865 104.199 383.865C103.247 383.865 102.441 383.527 101.782 382.852C101.123 382.176 100.638 381.273 100.329 380.142C100.028 379.002 99.8774 377.676 99.8774 376.162C99.8774 374.608 100.036 373.241 100.354 372.061C100.671 370.881 101.159 369.949 101.818 369.265ZM116.687 384.634C117.484 385.081 118.391 385.305 119.409 385.305C120.426 385.305 121.333 385.081 122.131 384.634C122.928 384.186 123.579 383.556 124.084 382.742C124.589 381.928 124.971 380.968 125.231 379.861C125.492 378.746 125.622 377.513 125.622 376.162C125.622 374.803 125.492 373.558 125.231 372.427C124.971 371.296 124.584 370.311 124.072 369.473C123.567 368.626 122.916 367.971 122.119 367.507C121.329 367.035 120.426 366.799 119.409 366.799C118.391 366.799 117.484 367.035 116.687 367.507C115.897 367.971 115.246 368.626 114.733 369.473C114.229 370.311 113.846 371.296 113.586 372.427C113.326 373.558 113.195 374.803 113.195 376.162C113.195 377.513 113.326 378.746 113.586 379.861C113.846 380.968 114.229 381.928 114.733 382.742C115.238 383.556 115.889 384.186 116.687 384.634ZM117.028 369.265C117.688 368.573 118.481 368.228 119.409 368.228C120.336 368.228 121.13 368.573 121.789 369.265C122.448 369.949 122.937 370.881 123.254 372.061C123.571 373.241 123.73 374.608 123.73 376.162C123.73 377.676 123.575 379.002 123.266 380.142C122.965 381.273 122.485 382.176 121.826 382.852C121.167 383.527 120.361 383.865 119.409 383.865C118.457 383.865 117.651 383.527 116.992 382.852C116.333 382.176 115.848 381.273 115.539 380.142C115.238 379.002 115.087 377.676 115.087 376.162C115.087 374.608 115.246 373.241 115.563 372.061C115.881 370.881 116.369 369.949 117.028 369.265ZM131.896 384.634C132.694 385.081 133.601 385.305 134.619 385.305C135.636 385.305 136.543 385.081 137.341 384.634C138.138 384.186 138.789 383.556 139.294 382.742C139.799 381.928 140.181 380.968 140.441 379.861C140.702 378.746 140.832 377.513 140.832 376.162C140.832 374.803 140.702 373.558 140.441 372.427C140.181 371.296 139.794 370.311 139.282 369.473C138.777 368.626 138.126 367.971 137.329 367.507C136.539 367.035 135.636 366.799 134.619 366.799C133.601 366.799 132.694 367.035 131.896 367.507C131.107 367.971 130.456 368.626 129.943 369.473C129.439 370.311 129.056 371.296 128.796 372.427C128.535 373.558 128.405 374.803 128.405 376.162C128.405 377.513 128.535 378.746 128.796 379.861C129.056 380.968 129.439 381.928 129.943 382.742C130.448 383.556 131.099 384.186 131.896 384.634ZM132.238 369.265C132.897 368.573 133.691 368.228 134.619 368.228C135.546 368.228 136.34 368.573 136.999 369.265C137.658 369.949 138.146 370.881 138.464 372.061C138.781 373.241 138.94 374.608 138.94 376.162C138.94 377.676 138.785 379.002 138.476 380.142C138.175 381.273 137.695 382.176 137.036 382.852C136.376 383.527 135.571 383.865 134.619 383.865C133.667 383.865 132.861 383.527 132.202 382.852C131.542 382.176 131.058 381.273 130.749 380.142C130.448 379.002 130.297 377.676 130.297 376.162C130.297 374.608 130.456 373.241 130.773 372.061C131.091 370.881 131.579 369.949 132.238 369.265ZM148.815 378.896C148.815 376.838 149.23 375.218 150.061 374.038C150.891 372.85 152.071 372.256 153.601 372.256C155.464 372.256 156.726 372.992 157.385 374.465V367.007H159.13V385H157.739L157.507 382.9C157.189 383.633 156.681 384.215 155.981 384.646C155.289 385.077 154.512 385.293 153.649 385.293C152.152 385.293 150.972 384.711 150.109 383.547C149.247 382.375 148.815 380.825 148.815 378.896ZM153.869 384.011C154.235 384.011 154.565 383.983 154.858 383.926C155.151 383.861 155.468 383.726 155.81 383.523C156.152 383.311 156.437 383.031 156.665 382.681C156.892 382.323 157.08 381.822 157.226 381.179C157.381 380.536 157.458 379.779 157.458 378.909C157.458 377.851 157.34 376.931 157.104 376.15C156.876 375.369 156.486 374.738 155.932 374.258C155.379 373.77 154.683 373.525 153.845 373.525C152.811 373.525 152.01 374.018 151.44 375.002C150.87 375.979 150.585 377.293 150.585 378.945C150.585 380.426 150.878 381.643 151.464 382.595C152.05 383.539 152.852 384.011 153.869 384.011ZM167.224 372.256C168.07 372.256 168.815 372.406 169.458 372.708C170.109 373 170.629 373.416 171.02 373.953C171.411 374.482 171.704 375.096 171.899 375.796C172.094 376.496 172.192 377.269 172.192 378.115C172.192 378.392 172.18 378.636 172.155 378.848H163.623C163.623 379.556 163.692 380.215 163.83 380.825C163.968 381.427 164.176 381.973 164.453 382.461C164.737 382.941 165.12 383.319 165.6 383.596C166.088 383.873 166.65 384.011 167.285 384.011C168.107 384.011 168.782 383.824 169.311 383.45C169.84 383.067 170.214 382.534 170.434 381.851L171.777 382.144C171.59 382.835 171.26 383.425 170.788 383.914C170.316 384.394 169.787 384.744 169.201 384.963C168.615 385.175 167.993 385.285 167.333 385.293H167.285C166.365 385.293 165.547 385.114 164.831 384.756C164.123 384.398 163.553 383.914 163.122 383.303C162.699 382.685 162.382 381.993 162.17 381.228C161.958 380.455 161.853 379.629 161.853 378.75C161.853 376.805 162.325 375.238 163.269 374.05C164.221 372.854 165.539 372.256 167.224 372.256ZM170.52 377.712C170.511 376.378 170.235 375.344 169.689 374.612C169.144 373.879 168.306 373.513 167.175 373.513C166.63 373.513 166.141 373.623 165.71 373.843C165.279 374.062 164.921 374.368 164.636 374.758C164.359 375.149 164.139 375.592 163.977 376.089C163.814 376.585 163.708 377.126 163.659 377.712H170.52ZM182.385 382.327C180.977 383.515 179.626 384.109 178.332 384.109C176.786 384.109 176.013 383.328 176.013 381.765C176.013 381.464 176.057 381.2 176.147 380.972C176.236 380.744 176.387 380.544 176.599 380.374C176.818 380.194 177.054 380.044 177.307 379.922C177.559 379.792 177.905 379.674 178.344 379.568C178.784 379.454 179.207 379.36 179.614 379.287C180.021 379.206 180.546 379.116 181.188 379.019L182.385 378.835V382.327ZM182.69 385H184.118V376.785C184.118 373.765 182.588 372.256 179.528 372.256C177.437 372.256 175.891 372.891 174.89 374.16C175.581 374.811 175.927 375.141 175.927 375.149C176.334 374.644 176.843 374.258 177.453 373.989C178.072 373.721 178.731 373.586 179.431 373.586C180.505 373.586 181.266 373.843 181.713 374.355C182.161 374.86 182.385 375.792 182.385 377.151V377.664L181.176 377.847C180.468 377.952 179.939 378.038 179.589 378.103C179.239 378.16 178.776 378.254 178.198 378.384C177.62 378.506 177.185 378.628 176.892 378.75C176.607 378.864 176.273 379.027 175.891 379.238C175.508 379.442 175.227 379.67 175.048 379.922C174.869 380.166 174.711 380.467 174.572 380.825C174.442 381.175 174.377 381.57 174.377 382.009C174.377 383.051 174.723 383.861 175.415 384.438C176.114 385.008 176.985 385.293 178.027 385.293C179.606 385.293 181.091 384.723 182.482 383.584L182.69 385ZM192.98 383.474L193.273 384.609C192.663 385 191.947 385.195 191.125 385.195C190.051 385.195 189.27 384.87 188.781 384.219C188.301 383.56 188.061 382.498 188.061 381.033V373.721H186.193V372.512H188.171V368.521L189.794 368.069V372.512H192.529V373.721H189.794V381.814C189.794 383.197 190.356 383.889 191.479 383.889C191.853 383.889 192.354 383.751 192.98 383.474ZM200.939 373.525C200.337 373.525 199.8 373.627 199.328 373.831C198.864 374.034 198.482 374.307 198.181 374.648C197.88 374.982 197.631 375.393 197.436 375.881C197.241 376.361 197.102 376.866 197.021 377.395C196.948 377.924 196.911 378.494 196.911 379.104V385H195.178V367.019H196.911V372.146V374.478C197.863 372.996 199.292 372.256 201.196 372.256C201.749 372.256 202.246 372.321 202.685 372.451C203.133 372.573 203.503 372.736 203.796 372.939C204.097 373.143 204.357 373.399 204.577 373.708C204.797 374.018 204.968 374.327 205.09 374.636C205.212 374.945 205.31 375.304 205.383 375.71C205.456 376.109 205.501 376.471 205.517 376.797C205.542 377.122 205.554 377.485 205.554 377.883V385H203.82V377.749C203.82 376.357 203.605 375.308 203.173 374.6C202.75 373.883 202.006 373.525 200.939 373.525ZM217.309 374.673C216.52 375.12 216.125 375.348 216.125 375.356C215.848 374.722 215.462 374.266 214.965 373.989C214.469 373.704 213.814 373.562 213 373.562C211.991 373.562 211.226 373.745 210.705 374.111C210.184 374.478 209.924 375.019 209.924 375.735C209.924 376.02 209.977 376.272 210.083 376.492C210.196 376.711 210.339 376.895 210.51 377.041C210.689 377.179 210.929 377.31 211.23 377.432C211.531 377.546 211.82 377.635 212.097 377.7C212.382 377.765 212.736 377.839 213.159 377.92C214.575 378.18 215.637 378.587 216.345 379.141C217.061 379.686 217.419 380.475 217.419 381.509C217.419 382.738 217.008 383.678 216.186 384.329C215.364 384.972 214.127 385.293 212.475 385.293C211.979 385.293 211.499 385.24 211.035 385.134C210.579 385.037 210.135 384.878 209.704 384.658C209.281 384.43 208.907 384.113 208.581 383.706C208.256 383.291 208.015 382.807 207.861 382.253L209.179 381.716C209.472 382.514 209.879 383.092 210.4 383.45C210.921 383.808 211.665 383.987 212.634 383.987C214.774 383.987 215.844 383.271 215.844 381.838C215.844 381.057 215.6 380.508 215.112 380.19C214.624 379.865 213.594 379.539 212.023 379.214C211.551 379.116 211.153 379.019 210.827 378.921C210.51 378.815 210.176 378.673 209.826 378.494C209.484 378.315 209.208 378.111 208.996 377.883C208.793 377.647 208.622 377.346 208.483 376.98C208.353 376.614 208.288 376.191 208.288 375.71C208.288 374.612 208.711 373.761 209.558 373.159C210.412 372.557 211.527 372.256 212.902 372.256C214.009 372.256 214.912 372.439 215.612 372.805C216.312 373.171 216.878 373.794 217.309 374.673Z" fill="black"/>
<path d="M557.384 365.627L557.836 366.909C554.784 367.772 553.258 370.942 553.258 376.418C553.258 381.92 554.784 385.077 557.836 385.891L557.384 387.197C555.521 386.75 554.06 385.635 553.002 383.853C551.944 382.07 551.415 379.592 551.415 376.418C551.415 373.245 551.944 370.763 553.002 368.972C554.068 367.182 555.529 366.067 557.384 365.627ZM560.607 371.707C561.649 369.42 563.231 368.276 565.355 368.276C566.389 368.276 567.268 368.614 567.992 369.29C568.725 369.957 569.091 370.872 569.091 372.036C569.091 372.752 568.92 373.444 568.578 374.111C568.236 374.771 567.789 375.373 567.235 375.918C566.682 376.455 566.072 376.988 565.404 377.517C564.737 378.038 564.066 378.571 563.39 379.116C562.723 379.661 562.108 380.219 561.547 380.789C560.985 381.35 560.521 381.997 560.155 382.729C559.789 383.454 559.594 384.211 559.569 385H570.788V383.523H561.767C562.027 383.002 562.401 382.477 562.89 381.948C563.386 381.411 563.911 380.919 564.464 380.471C565.026 380.015 565.616 379.548 566.234 379.067C566.861 378.587 567.455 378.095 568.017 377.59C568.578 377.086 569.087 376.561 569.542 376.016C569.998 375.462 570.36 374.848 570.629 374.172C570.906 373.497 571.044 372.793 571.044 372.061C571.044 371.165 570.881 370.372 570.556 369.68C570.238 368.988 569.803 368.439 569.25 368.032C568.696 367.617 568.078 367.308 567.394 367.104C566.71 366.893 565.982 366.787 565.209 366.787C563.809 366.787 562.597 367.133 561.571 367.825C560.546 368.508 559.7 369.591 559.032 371.072L560.607 371.707ZM577.123 384.634C577.921 385.081 578.828 385.305 579.845 385.305C580.862 385.305 581.77 385.081 582.567 384.634C583.365 384.186 584.016 383.556 584.521 382.742C585.025 381.928 585.408 380.968 585.668 379.861C585.928 378.746 586.059 377.513 586.059 376.162C586.059 374.803 585.928 373.558 585.668 372.427C585.408 371.296 585.021 370.311 584.508 369.473C584.004 368.626 583.353 367.971 582.555 367.507C581.766 367.035 580.862 366.799 579.845 366.799C578.828 366.799 577.921 367.035 577.123 367.507C576.334 367.971 575.683 368.626 575.17 369.473C574.665 370.311 574.283 371.296 574.022 372.427C573.762 373.558 573.632 374.803 573.632 376.162C573.632 377.513 573.762 378.746 574.022 379.861C574.283 380.968 574.665 381.928 575.17 382.742C575.674 383.556 576.326 384.186 577.123 384.634ZM577.465 369.265C578.124 368.573 578.917 368.228 579.845 368.228C580.773 368.228 581.566 368.573 582.226 369.265C582.885 369.949 583.373 370.881 583.69 372.061C584.008 373.241 584.167 374.608 584.167 376.162C584.167 377.676 584.012 379.002 583.703 380.142C583.402 381.273 582.921 382.176 582.262 382.852C581.603 383.527 580.797 383.865 579.845 383.865C578.893 383.865 578.087 383.527 577.428 382.852C576.769 382.176 576.285 381.273 575.976 380.142C575.674 379.002 575.524 377.676 575.524 376.162C575.524 374.608 575.683 373.241 576 372.061C576.317 370.881 576.806 369.949 577.465 369.265ZM590.966 368.789V385H592.748V367.129H591.173L588.158 368.35L588.695 369.766L590.966 368.789ZM605.81 377.151C605.395 377.46 604.971 377.721 604.54 377.932C604.117 378.144 603.681 378.306 603.234 378.42C602.786 378.534 602.339 378.591 601.891 378.591C601.11 378.591 600.373 378.469 599.682 378.225C598.998 377.981 598.388 377.631 597.851 377.175C597.322 376.72 596.903 376.13 596.593 375.405C596.284 374.673 596.129 373.855 596.129 372.952C596.129 372.431 596.178 371.926 596.276 371.438C596.374 370.942 596.516 370.461 596.703 369.998C596.898 369.534 597.155 369.111 597.472 368.728C597.79 368.337 598.152 368 598.559 367.715C598.974 367.422 599.458 367.194 600.011 367.031C600.573 366.868 601.183 366.787 601.842 366.787C603.861 366.787 605.354 367.532 606.322 369.021C607.291 370.502 607.775 372.691 607.775 375.588C607.775 377.135 607.62 378.522 607.311 379.751C607.002 380.972 606.566 381.981 606.005 382.778C605.451 383.576 604.788 384.186 604.015 384.609C603.242 385.024 602.388 385.232 601.452 385.232C600.223 385.232 598.888 384.849 597.448 384.084L597.948 382.729C599.242 383.438 600.39 383.792 601.391 383.792C602.668 383.792 603.69 383.23 604.455 382.107C605.228 380.984 605.679 379.332 605.81 377.151ZM605.883 375.564C605.891 375.369 605.895 374.998 605.895 374.453C605.895 373.908 605.867 373.395 605.81 372.915C605.761 372.427 605.675 371.943 605.553 371.462C605.431 370.982 605.26 370.555 605.041 370.181C604.829 369.798 604.573 369.46 604.271 369.167C603.979 368.866 603.612 368.634 603.173 368.472C602.742 368.309 602.261 368.228 601.732 368.228C601.22 368.228 600.736 368.333 600.28 368.545C599.832 368.757 599.433 369.058 599.083 369.448C598.742 369.839 598.469 370.335 598.266 370.938C598.07 371.532 597.973 372.187 597.973 372.903C597.973 373.652 598.074 374.307 598.278 374.868C598.481 375.422 598.766 375.861 599.132 376.187C599.499 376.512 599.914 376.752 600.377 376.907C600.841 377.061 601.354 377.139 601.916 377.139C602.542 377.139 603.205 376.996 603.905 376.711C604.605 376.427 605.264 376.044 605.883 375.564ZM610.265 387.197L609.813 385.916C612.865 385.053 614.391 381.883 614.391 376.406C614.391 370.905 612.865 367.747 609.813 366.934L610.265 365.627C612.129 366.075 613.59 367.19 614.647 368.972C615.705 370.754 616.234 373.232 616.234 376.406C616.234 379.58 615.701 382.062 614.635 383.853C613.577 385.643 612.121 386.758 610.265 387.197Z" fill="black"/>
<path d="M4.175 25.175C3.225 25.175 2.41667 24.9083 1.75 24.375C1.1 23.825 0.775 22.9917 0.775 21.875C0.775 20.9583 1.01667 20.2583 1.5 19.775C2 19.275 2.68333 18.9333 3.55 18.75C4.43333 18.55 5.45 18.45 6.6 18.45H7.875V17.875C7.875 17.325 7.775 16.7917 7.575 16.275C7.39167 15.7417 7.08333 15.3083 6.65 14.975C6.23333 14.625 5.65833 14.45 4.925 14.45C4.375 14.45 3.925 14.5083 3.575 14.625C3.225 14.7417 2.95 14.8667 2.75 15C2.55 15.1167 2.38333 15.175 2.25 15.175C2.05 15.175 1.88333 15.075 1.75 14.875C1.63333 14.675 1.575 14.4917 1.575 14.325C1.575 14.0917 1.75 13.8833 2.1 13.7C2.45 13.5 2.88333 13.3417 3.4 13.225C3.93333 13.0917 4.45833 13.025 4.975 13.025C6.09167 13.025 6.975 13.2583 7.625 13.725C8.29167 14.175 8.76667 14.7667 9.05 15.5C9.35 16.2333 9.5 17.0167 9.5 17.85V24.35C9.5 24.5333 9.425 24.6917 9.275 24.825C9.14167 24.9417 8.95 25 8.7 25C8.5 25 8.31667 24.9417 8.15 24.825C8 24.6917 7.925 24.5333 7.925 24.35V23.25C7.50833 23.75 6.99167 24.2 6.375 24.6C5.75833 24.9833 5.025 25.175 4.175 25.175ZM4.575 23.8C5.125 23.8 5.65 23.6583 6.15 23.375C6.65 23.0917 7.05833 22.75 7.375 22.35C7.70833 21.9333 7.875 21.5417 7.875 21.175V19.575H6.825C6.075 19.575 5.35833 19.625 4.675 19.725C4.00833 19.8083 3.45833 20 3.025 20.3C2.60833 20.6 2.4 21.075 2.4 21.725C2.4 22.4417 2.60833 22.9667 3.025 23.3C3.45833 23.6333 3.975 23.8 4.575 23.8ZM17.5369 25.175C16.7536 25.175 16.0536 24.9833 15.4369 24.6C14.8202 24.2167 14.3786 23.7667 14.1119 23.25V24.35C14.1119 24.5167 14.0369 24.6667 13.8869 24.8C13.7369 24.9333 13.5536 25 13.3369 25C13.1202 25 12.9286 24.9333 12.7619 24.8C12.6119 24.6667 12.5369 24.5167 12.5369 24.35V6.55C12.5369 6.35 12.6119 6.2 12.7619 6.1C12.9286 5.98333 13.1202 5.925 13.3369 5.925C13.5702 5.925 13.7619 5.98333 13.9119 6.1C14.0786 6.2 14.1619 6.35 14.1619 6.55V14.925C14.4452 14.4417 14.8619 14.0083 15.4119 13.625C15.9786 13.225 16.6702 13.025 17.4869 13.025C18.3036 13.025 19.0452 13.2417 19.7119 13.675C20.3952 14.0917 20.9369 14.6583 21.3369 15.375C21.7536 16.075 21.9619 16.8583 21.9619 17.725V20.425C21.9619 21.2417 21.7536 22.0167 21.3369 22.75C20.9369 23.4833 20.4036 24.075 19.7369 24.525C19.0702 24.9583 18.3369 25.175 17.5369 25.175ZM17.2369 23.675C17.8036 23.675 18.3202 23.525 18.7869 23.225C19.2536 22.9083 19.6286 22.5 19.9119 22C20.1952 21.5 20.3369 20.975 20.3369 20.425V17.725C20.3369 17.175 20.1952 16.6583 19.9119 16.175C19.6286 15.6917 19.2536 15.3 18.7869 15C18.3202 14.6833 17.7952 14.525 17.2119 14.525C16.7119 14.525 16.2286 14.6583 15.7619 14.925C15.2952 15.175 14.9119 15.5333 14.6119 16C14.3119 16.4667 14.1619 17.0417 14.1619 17.725V21.2C14.1619 21.45 14.2952 21.775 14.5619 22.175C14.8452 22.5583 15.2202 22.9083 15.6869 23.225C16.1536 23.525 16.6702 23.675 17.2369 23.675ZM28.9213 25.175C28.0713 25.175 27.288 24.9583 26.5713 24.525C25.8546 24.075 25.2713 23.4917 24.8213 22.775C24.388 22.0417 24.1713 21.2583 24.1713 20.425V17.725C24.1713 16.875 24.3796 16.1 24.7963 15.4C25.2296 14.6833 25.8046 14.1083 26.5213 13.675C27.2546 13.2417 28.0546 13.025 28.9213 13.025C29.7713 13.025 30.5546 13.2417 31.2713 13.675C32.0046 14.0917 32.588 14.65 33.0213 15.35C33.4546 16.05 33.6713 16.8417 33.6713 17.725V20.425C33.6713 21.2417 33.4546 22.0167 33.0213 22.75C32.588 23.4833 32.0046 24.075 31.2713 24.525C30.5546 24.9583 29.7713 25.175 28.9213 25.175ZM28.9213 23.675C29.5046 23.675 30.0296 23.525 30.4963 23.225C30.963 22.9083 31.338 22.5 31.6213 22C31.9046 21.5 32.0463 20.975 32.0463 20.425V17.725C32.0463 17.175 31.9046 16.6583 31.6213 16.175C31.3546 15.6917 30.9796 15.3 30.4963 15C30.0296 14.6833 29.5046 14.525 28.9213 14.525C28.338 14.525 27.813 14.6833 27.3463 15C26.8796 15.3 26.5046 15.6917 26.2213 16.175C25.938 16.6583 25.7963 17.175 25.7963 17.725V20.425C25.7963 20.975 25.938 21.5 26.2213 22C26.5046 22.5 26.8796 22.9083 27.3463 23.225C27.8296 23.525 28.3546 23.675 28.9213 23.675ZM41.015 25.175C40.1317 25.175 39.3234 24.9583 38.59 24.525C37.8734 24.0917 37.2984 23.5167 36.865 22.8C36.4484 22.0667 36.24 21.2917 36.24 20.475V13.825C36.24 13.6583 36.3234 13.5083 36.49 13.375C36.6567 13.2417 36.8484 13.175 37.065 13.175C37.2817 13.175 37.465 13.2417 37.615 13.375C37.7817 13.5083 37.865 13.6583 37.865 13.825V20.475C37.865 21.025 38.0067 21.5417 38.29 22.025C38.5734 22.5083 38.9484 22.9083 39.415 23.225C39.8817 23.525 40.4067 23.675 40.99 23.675C41.59 23.675 42.1234 23.525 42.59 23.225C43.0567 22.925 43.4234 22.5333 43.69 22.05C43.9734 21.55 44.115 21.025 44.115 20.475V13.8C44.115 13.6167 44.1984 13.4667 44.365 13.35C44.5317 13.2333 44.7234 13.175 44.94 13.175C45.19 13.175 45.3817 13.2333 45.515 13.35C45.665 13.4667 45.74 13.6167 45.74 13.8V20.475C45.74 21.325 45.5234 22.1083 45.09 22.825C44.6734 23.525 44.0984 24.0917 43.365 24.525C42.6484 24.9583 41.865 25.175 41.015 25.175ZM52.6674 25C51.384 25 50.4007 24.7083 49.7174 24.125C49.034 23.5417 48.6924 22.6083 48.6924 21.325V8.175C48.6924 7.975 48.7757 7.825 48.9424 7.725C49.1257 7.60833 49.309 7.55 49.4924 7.55C49.709 7.55 49.9007 7.60833 50.0674 7.725C50.234 7.825 50.3174 7.975 50.3174 8.175V13.175H53.5674C53.734 13.175 53.8674 13.2417 53.9674 13.375C54.0674 13.5083 54.1174 13.6667 54.1174 13.85C54.1174 14.0333 54.0674 14.1917 53.9674 14.325C53.8674 14.4583 53.734 14.525 53.5674 14.525H50.3174V21.325C50.3174 22.1417 50.4924 22.7167 50.8424 23.05C51.1924 23.3667 51.8007 23.525 52.6674 23.525H53.3674C53.6007 23.525 53.7757 23.6 53.8924 23.75C54.0257 23.8833 54.0924 24.05 54.0924 24.25C54.0924 24.45 54.0257 24.625 53.8924 24.775C53.7757 24.925 53.6007 25 53.3674 25H52.6674ZM63.3953 25C63.062 25 62.7536 24.925 62.4703 24.775C62.2036 24.625 62.0703 24.4083 62.0703 24.125V10.225L61.1953 11.325C61.0953 11.4083 60.9953 11.475 60.8953 11.525C60.812 11.5583 60.7286 11.575 60.6453 11.575C60.3786 11.575 60.162 11.4667 59.9953 11.25C59.8286 11.0167 59.7453 10.7667 59.7453 10.5C59.7453 10.3 59.7953 10.1083 59.8953 9.925C59.9953 9.74167 60.1203 9.59167 60.2703 9.475L62.8703 6.975C62.9536 6.89167 63.0453 6.825 63.1453 6.775C63.262 6.725 63.3953 6.7 63.5453 6.7C63.8286 6.7 64.0953 6.775 64.3453 6.925C64.5953 7.075 64.7203 7.29167 64.7203 7.575V24.125C64.7203 24.4083 64.5786 24.625 64.2953 24.775C64.0286 24.925 63.7286 25 63.3953 25ZM72.7104 25.15C71.777 25.15 70.9604 25.025 70.2604 24.775C69.577 24.5083 69.0104 24.1583 68.5604 23.725C68.1104 23.2917 67.7687 22.8083 67.5354 22.275C67.3187 21.7417 67.2104 21.2167 67.2104 20.7C67.2104 20.2667 67.3104 19.975 67.5104 19.825C67.727 19.6583 68.0437 19.575 68.4604 19.575C68.8104 19.575 69.127 19.6417 69.4104 19.775C69.6937 19.9083 69.8354 20.175 69.8354 20.575C69.8354 21.0417 69.9687 21.4417 70.2354 21.775C70.502 22.0917 70.852 22.3417 71.2854 22.525C71.7354 22.7083 72.227 22.8 72.7604 22.8C73.7104 22.8 74.452 22.5417 74.9854 22.025C75.5354 21.4917 75.8104 20.675 75.8104 19.575V16.425C75.3937 16.9417 74.877 17.3083 74.2604 17.525C73.6604 17.7417 73.0104 17.85 72.3104 17.85C71.377 17.85 70.5187 17.7 69.7354 17.4C68.9687 17.0833 68.352 16.5583 67.8854 15.825C67.4354 15.075 67.2104 14.05 67.2104 12.75V12.3C67.2104 10.95 67.4604 9.86667 67.9604 9.05C68.4604 8.23333 69.127 7.64167 69.9604 7.275C70.8104 6.90833 71.7604 6.725 72.8104 6.725C73.877 6.725 74.8354 6.90833 75.6854 7.275C76.5354 7.64167 77.2104 8.23333 77.7104 9.05C78.2104 9.86667 78.4604 10.95 78.4604 12.3V19.575C78.4604 20.925 78.202 22.0083 77.6854 22.825C77.1687 23.6417 76.477 24.2333 75.6104 24.6C74.7437 24.9667 73.777 25.15 72.7104 25.15ZM72.8354 15.725C73.7354 15.725 74.452 15.5 74.9854 15.05C75.5354 14.6 75.8104 13.85 75.8104 12.8V12.15C75.8104 11.0333 75.5437 10.2167 75.0104 9.7C74.477 9.18333 73.7437 8.925 72.8104 8.925C71.8937 8.925 71.1687 9.18333 70.6354 9.7C70.1187 10.2167 69.8604 11.0333 69.8604 12.15V12.575C69.8604 13.725 70.1187 14.5417 70.6354 15.025C71.1687 15.4917 71.902 15.725 72.8354 15.725ZM84.9375 25.875C84.6542 25.875 84.4208 25.775 84.2375 25.575C84.0542 25.3917 83.9625 25.1833 83.9625 24.95C83.9625 24.8167 83.9958 24.6917 84.0625 24.575L93.2625 6.2C93.3958 5.9 93.6375 5.75 93.9875 5.75C94.2375 5.75 94.4708 5.84167 94.6875 6.025C94.9208 6.19167 95.0375 6.41667 95.0375 6.7C95.0375 6.85 95.0125 6.98333 94.9625 7.1L85.7875 25.4C85.7208 25.55 85.6042 25.6667 85.4375 25.75C85.2875 25.8333 85.1208 25.875 84.9375 25.875ZM83.8875 16.575C82.9375 16.575 82.1375 16.3417 81.4875 15.875C80.8375 15.4083 80.5125 14.6167 80.5125 13.5V9.8C80.5125 8.68333 80.8375 7.89167 81.4875 7.425C82.1375 6.95833 82.9375 6.725 83.8875 6.725C84.5375 6.725 85.1125 6.825 85.6125 7.025C86.1292 7.225 86.5375 7.55 86.8375 8C87.1375 8.45 87.2875 9.05 87.2875 9.8V13.5C87.2875 14.25 87.1375 14.85 86.8375 15.3C86.5375 15.75 86.1292 16.075 85.6125 16.275C85.1125 16.475 84.5375 16.575 83.8875 16.575ZM83.9125 14.975C84.3958 14.975 84.7792 14.8583 85.0625 14.625C85.3458 14.375 85.4875 14 85.4875 13.5V9.8C85.4875 9.3 85.3458 8.93333 85.0625 8.7C84.7792 8.45 84.3958 8.325 83.9125 8.325C83.4125 8.325 83.0208 8.45 82.7375 8.7C82.4708 8.93333 82.3375 9.3 82.3375 9.8V13.5C82.3375 14 82.4708 14.375 82.7375 14.625C83.0208 14.8583 83.4125 14.975 83.9125 14.975ZM94.9625 25.075C93.9958 25.075 93.1875 24.8417 92.5375 24.375C91.8875 23.9083 91.5625 23.1167 91.5625 22V18.3C91.5625 17.1833 91.8875 16.3917 92.5375 15.925C93.1875 15.4583 93.9958 15.225 94.9625 15.225C95.5958 15.225 96.1625 15.325 96.6625 15.525C97.1792 15.725 97.5875 16.05 97.8875 16.5C98.1875 16.95 98.3375 17.55 98.3375 18.3V22C98.3375 22.75 98.1875 23.35 97.8875 23.8C97.5875 24.25 97.1792 24.575 96.6625 24.775C96.1625 24.975 95.5958 25.075 94.9625 25.075ZM94.9625 23.475C95.4458 23.475 95.8292 23.3583 96.1125 23.125C96.3958 22.875 96.5375 22.5 96.5375 22V18.3C96.5375 17.8 96.3958 17.4333 96.1125 17.2C95.8292 16.95 95.4458 16.825 94.9625 16.825C94.4792 16.825 94.0958 16.95 93.8125 17.2C93.5458 17.4333 93.4125 17.8 93.4125 18.3V22C93.4125 22.5 93.5458 22.875 93.8125 23.125C94.0958 23.3583 94.4792 23.475 94.9625 23.475ZM110.025 25.175C109.175 25.175 108.391 24.9583 107.675 24.525C106.958 24.075 106.375 23.4917 105.925 22.775C105.491 22.0417 105.275 21.2583 105.275 20.425V17.725C105.275 16.875 105.483 16.1 105.9 15.4C106.333 14.6833 106.908 14.1083 107.625 13.675C108.358 13.2417 109.158 13.025 110.025 13.025C110.875 13.025 111.658 13.2417 112.375 13.675C113.108 14.0917 113.691 14.65 114.125 15.35C114.558 16.05 114.775 16.8417 114.775 17.725V20.425C114.775 21.2417 114.558 22.0167 114.125 22.75C113.691 23.4833 113.108 24.075 112.375 24.525C111.658 24.9583 110.875 25.175 110.025 25.175ZM110.025 23.675C110.608 23.675 111.133 23.525 111.6 23.225C112.066 22.9083 112.441 22.5 112.725 22C113.008 21.5 113.15 20.975 113.15 20.425V17.725C113.15 17.175 113.008 16.6583 112.725 16.175C112.458 15.6917 112.083 15.3 111.6 15C111.133 14.6833 110.608 14.525 110.025 14.525C109.441 14.525 108.916 14.6833 108.45 15C107.983 15.3 107.608 15.6917 107.325 16.175C107.041 16.6583 106.9 17.175 106.9 17.725V20.425C106.9 20.975 107.041 21.5 107.325 22C107.608 22.5 107.983 22.9083 108.45 23.225C108.933 23.525 109.458 23.675 110.025 23.675ZM118.244 25C118.027 25 117.844 24.9417 117.694 24.825C117.544 24.7083 117.469 24.5583 117.469 24.375V10.525C117.469 9.675 117.669 8.90833 118.069 8.225C118.485 7.525 119.027 6.96667 119.694 6.55C120.377 6.13333 121.119 5.925 121.919 5.925H122.544C122.777 5.925 122.952 6 123.069 6.15C123.185 6.3 123.244 6.475 123.244 6.675C123.244 6.85833 123.185 7.025 123.069 7.175C122.952 7.325 122.777 7.4 122.544 7.4H122.119C121.552 7.4 121.035 7.54167 120.569 7.825C120.119 8.10833 119.76 8.475 119.494 8.925C119.244 9.375 119.11 9.875 119.094 10.425V13.175H122.669C122.852 13.175 122.994 13.2417 123.094 13.375C123.194 13.5083 123.244 13.6667 123.244 13.85C123.244 14.0167 123.194 14.175 123.094 14.325C122.994 14.4583 122.852 14.525 122.669 14.525H119.094V24.375C119.094 24.5583 119.01 24.7083 118.844 24.825C118.677 24.9417 118.477 25 118.244 25ZM134.266 30.8C133.282 30.8 132.407 30.6583 131.641 30.375C130.891 30.1083 130.291 29.725 129.841 29.225C129.407 28.7417 129.191 28.1583 129.191 27.475C129.191 26.7417 129.407 26.1583 129.841 25.725C130.274 25.2917 130.766 24.9667 131.316 24.75C130.916 24.6 130.582 24.4 130.316 24.15C130.066 23.8833 129.941 23.5083 129.941 23.025C129.941 22.5583 130.057 22.1917 130.291 21.925C130.524 21.6417 130.824 21.4083 131.191 21.225C130.741 20.8583 130.391 20.4083 130.141 19.875C129.907 19.325 129.791 18.725 129.791 18.075V17.125C129.791 16.325 129.966 15.6167 130.316 15C130.682 14.3833 131.191 13.9 131.841 13.55C132.491 13.2 133.249 13.025 134.116 13.025C134.699 13.025 135.241 13.1167 135.741 13.3C136.241 13.4833 136.674 13.7417 137.041 14.075C137.291 13.5583 137.574 13.1667 137.891 12.9C138.207 12.6333 138.507 12.5 138.791 12.5C139.057 12.5 139.249 12.575 139.366 12.725C139.499 12.8583 139.566 13 139.566 13.15C139.566 13.3 139.524 13.425 139.441 13.525C139.357 13.6083 139.257 13.6667 139.141 13.7C138.941 13.7333 138.707 13.825 138.441 13.975C138.191 14.125 137.957 14.3917 137.741 14.775C137.974 15.0917 138.149 15.45 138.266 15.85C138.382 16.25 138.441 16.675 138.441 17.125V18.075C138.441 18.8583 138.257 19.5667 137.891 20.2C137.524 20.8333 137.007 21.3333 136.341 21.7C135.691 22.05 134.941 22.225 134.091 22.225C133.374 22.225 132.732 22.0833 132.166 21.8C131.982 21.9 131.807 22.025 131.641 22.175C131.474 22.3083 131.391 22.5083 131.391 22.775C131.391 23.1417 131.582 23.4083 131.966 23.575C132.349 23.7417 132.832 23.8583 133.416 23.925C133.999 23.9917 134.616 24.0667 135.266 24.15C135.932 24.2167 136.557 24.35 137.141 24.55C137.741 24.75 138.224 25.0583 138.591 25.475C138.974 25.8917 139.166 26.4833 139.166 27.25C139.166 28.0333 138.949 28.6833 138.516 29.2C138.099 29.7333 137.524 30.1333 136.791 30.4C136.057 30.6667 135.216 30.8 134.266 30.8ZM134.241 29.575C135.291 29.575 136.107 29.3667 136.691 28.95C137.274 28.5333 137.566 27.9833 137.566 27.3C137.566 26.7667 137.407 26.3583 137.091 26.075C136.774 25.8083 136.366 25.6167 135.866 25.5C135.382 25.3833 134.874 25.3 134.341 25.25C133.824 25.2 133.374 25.15 132.991 25.1C132.407 25.2833 131.891 25.55 131.441 25.9C130.991 26.25 130.766 26.725 130.766 27.325C130.766 27.9917 131.074 28.5333 131.691 28.95C132.307 29.3667 133.157 29.575 134.241 29.575ZM134.141 21C134.974 21 135.632 20.725 136.116 20.175C136.599 19.6083 136.841 18.9083 136.841 18.075V17.125C136.841 16.3083 136.599 15.625 136.116 15.075C135.649 14.525 134.982 14.25 134.116 14.25C133.249 14.25 132.574 14.525 132.091 15.075C131.624 15.625 131.391 16.3083 131.391 17.125V18.05C131.391 18.8833 131.632 19.5833 132.116 20.15C132.599 20.7167 133.274 21 134.141 21ZM142.443 25C142.226 25 142.035 24.9333 141.868 24.8C141.718 24.6667 141.643 24.5167 141.643 24.35V6.55C141.643 6.35 141.718 6.2 141.868 6.1C142.035 5.98333 142.226 5.925 142.443 5.925C142.676 5.925 142.868 5.98333 143.018 6.1C143.185 6.2 143.268 6.35 143.268 6.55V24.35C143.268 24.5167 143.185 24.6667 143.018 24.8C142.868 24.9333 142.676 25 142.443 25ZM150.918 25.175C150.068 25.175 149.285 24.9583 148.568 24.525C147.852 24.075 147.268 23.4917 146.818 22.775C146.385 22.0417 146.168 21.2583 146.168 20.425V17.725C146.168 16.875 146.377 16.1 146.793 15.4C147.227 14.6833 147.802 14.1083 148.518 13.675C149.252 13.2417 150.052 13.025 150.918 13.025C151.768 13.025 152.552 13.2417 153.268 13.675C154.002 14.0917 154.585 14.65 155.018 15.35C155.452 16.05 155.668 16.8417 155.668 17.725V20.425C155.668 21.2417 155.452 22.0167 155.018 22.75C154.585 23.4833 154.002 24.075 153.268 24.525C152.552 24.9583 151.768 25.175 150.918 25.175ZM150.918 23.675C151.502 23.675 152.027 23.525 152.493 23.225C152.96 22.9083 153.335 22.5 153.618 22C153.902 21.5 154.043 20.975 154.043 20.425V17.725C154.043 17.175 153.902 16.6583 153.618 16.175C153.352 15.6917 152.977 15.3 152.493 15C152.027 14.6833 151.502 14.525 150.918 14.525C150.335 14.525 149.81 14.6833 149.343 15C148.877 15.3 148.502 15.6917 148.218 16.175C147.935 16.6583 147.793 17.175 147.793 17.725V20.425C147.793 20.975 147.935 21.5 148.218 22C148.502 22.5 148.877 22.9083 149.343 23.225C149.827 23.525 150.352 23.675 150.918 23.675ZM163.362 25.175C162.579 25.175 161.879 24.9833 161.262 24.6C160.645 24.2167 160.204 23.7667 159.937 23.25V24.35C159.937 24.5167 159.862 24.6667 159.712 24.8C159.562 24.9333 159.379 25 159.162 25C158.945 25 158.754 24.9333 158.587 24.8C158.437 24.6667 158.362 24.5167 158.362 24.35V6.55C158.362 6.35 158.437 6.2 158.587 6.1C158.754 5.98333 158.945 5.925 159.162 5.925C159.395 5.925 159.587 5.98333 159.737 6.1C159.904 6.2 159.987 6.35 159.987 6.55V14.925C160.27 14.4417 160.687 14.0083 161.237 13.625C161.804 13.225 162.495 13.025 163.312 13.025C164.129 13.025 164.87 13.2417 165.537 13.675C166.22 14.0917 166.762 14.6583 167.162 15.375C167.579 16.075 167.787 16.8583 167.787 17.725V20.425C167.787 21.2417 167.579 22.0167 167.162 22.75C166.762 23.4833 166.229 24.075 165.562 24.525C164.895 24.9583 164.162 25.175 163.362 25.175ZM163.062 23.675C163.629 23.675 164.145 23.525 164.612 23.225C165.079 22.9083 165.454 22.5 165.737 22C166.02 21.5 166.162 20.975 166.162 20.425V17.725C166.162 17.175 166.02 16.6583 165.737 16.175C165.454 15.6917 165.079 15.3 164.612 15C164.145 14.6833 163.62 14.525 163.037 14.525C162.537 14.525 162.054 14.6583 161.587 14.925C161.12 15.175 160.737 15.5333 160.437 16C160.137 16.4667 159.987 17.0417 159.987 17.725V21.2C159.987 21.45 160.12 21.775 160.387 22.175C160.67 22.5583 161.045 22.9083 161.512 23.225C161.979 23.525 162.495 23.675 163.062 23.675ZM173.071 25.175C172.121 25.175 171.313 24.9083 170.646 24.375C169.996 23.825 169.671 22.9917 169.671 21.875C169.671 20.9583 169.913 20.2583 170.396 19.775C170.896 19.275 171.58 18.9333 172.446 18.75C173.33 18.55 174.346 18.45 175.496 18.45H176.771V17.875C176.771 17.325 176.671 16.7917 176.471 16.275C176.288 15.7417 175.98 15.3083 175.546 14.975C175.13 14.625 174.555 14.45 173.821 14.45C173.271 14.45 172.821 14.5083 172.471 14.625C172.121 14.7417 171.846 14.8667 171.646 15C171.446 15.1167 171.28 15.175 171.146 15.175C170.946 15.175 170.78 15.075 170.646 14.875C170.53 14.675 170.471 14.4917 170.471 14.325C170.471 14.0917 170.646 13.8833 170.996 13.7C171.346 13.5 171.78 13.3417 172.296 13.225C172.83 13.0917 173.355 13.025 173.871 13.025C174.988 13.025 175.871 13.2583 176.521 13.725C177.188 14.175 177.663 14.7667 177.946 15.5C178.246 16.2333 178.396 17.0167 178.396 17.85V24.35C178.396 24.5333 178.321 24.6917 178.171 24.825C178.038 24.9417 177.846 25 177.596 25C177.396 25 177.213 24.9417 177.046 24.825C176.896 24.6917 176.821 24.5333 176.821 24.35V23.25C176.405 23.75 175.888 24.2 175.271 24.6C174.655 24.9833 173.921 25.175 173.071 25.175ZM173.471 23.8C174.021 23.8 174.546 23.6583 175.046 23.375C175.546 23.0917 175.955 22.75 176.271 22.35C176.605 21.9333 176.771 21.5417 176.771 21.175V19.575H175.721C174.971 19.575 174.255 19.625 173.571 19.725C172.905 19.8083 172.355 20 171.921 20.3C171.505 20.6 171.296 21.075 171.296 21.725C171.296 22.4417 171.505 22.9667 171.921 23.3C172.355 23.6333 172.871 23.8 173.471 23.8ZM182.433 25C182.217 25 182.025 24.9333 181.858 24.8C181.708 24.6667 181.633 24.5167 181.633 24.35V6.55C181.633 6.35 181.708 6.2 181.858 6.1C182.025 5.98333 182.217 5.925 182.433 5.925C182.667 5.925 182.858 5.98333 183.008 6.1C183.175 6.2 183.258 6.35 183.258 6.55V24.35C183.258 24.5167 183.175 24.6667 183.008 24.8C182.858 24.9333 182.667 25 182.433 25ZM197.063 25.15C196.063 25.15 195.138 24.9667 194.288 24.6C193.455 24.2333 192.788 23.6417 192.288 22.825C191.788 22.0083 191.538 20.925 191.538 19.575V12.3C191.538 10.95 191.788 9.86667 192.288 9.05C192.788 8.23333 193.463 7.64167 194.313 7.275C195.163 6.90833 196.088 6.725 197.088 6.725C198.238 6.725 199.23 6.925 200.063 7.325C200.913 7.70833 201.572 8.24167 202.038 8.925C202.522 9.59167 202.763 10.3667 202.763 11.25C202.763 11.8167 202.655 12.1917 202.438 12.375C202.222 12.5417 201.888 12.625 201.438 12.625C201.038 12.625 200.722 12.5583 200.488 12.425C200.255 12.275 200.13 12.05 200.113 11.75C200.097 11.5333 200.055 11.275 199.988 10.975C199.922 10.675 199.788 10.3833 199.588 10.1C199.405 9.8 199.122 9.55833 198.738 9.375C198.355 9.175 197.83 9.075 197.163 9.075C196.197 9.075 195.455 9.34167 194.938 9.875C194.422 10.3917 194.163 11.2 194.163 12.3V19.575C194.163 20.675 194.422 21.4917 194.938 22.025C195.472 22.5417 196.238 22.8 197.238 22.8C197.872 22.8 198.372 22.7083 198.738 22.525C199.122 22.325 199.405 22.0833 199.588 21.8C199.772 21.5 199.897 21.1917 199.963 20.875C200.03 20.5417 200.08 20.2417 200.113 19.975C200.13 19.6583 200.255 19.4333 200.488 19.3C200.738 19.1667 201.047 19.1 201.413 19.1C201.88 19.1 202.222 19.1917 202.438 19.375C202.655 19.5583 202.763 19.925 202.763 20.475C202.763 21.375 202.522 22.1833 202.038 22.9C201.572 23.6 200.913 24.15 200.063 24.55C199.213 24.95 198.213 25.15 197.063 25.15ZM210.664 25.15C209.597 25.15 208.639 24.9667 207.789 24.6C206.956 24.2333 206.289 23.6417 205.789 22.825C205.306 22.0083 205.064 20.925 205.064 19.575V12.3C205.064 10.95 205.306 9.86667 205.789 9.05C206.289 8.23333 206.956 7.64167 207.789 7.275C208.639 6.90833 209.597 6.725 210.664 6.725C211.714 6.725 212.664 6.90833 213.514 7.275C214.364 7.64167 215.039 8.23333 215.539 9.05C216.039 9.86667 216.289 10.95 216.289 12.3V19.575C216.289 20.925 216.039 22.0083 215.539 22.825C215.039 23.6417 214.364 24.2333 213.514 24.6C212.664 24.9667 211.714 25.15 210.664 25.15ZM210.664 22.8C211.581 22.8 212.306 22.5417 212.839 22.025C213.372 21.4917 213.639 20.675 213.639 19.575V12.3C213.639 11.2 213.372 10.3917 212.839 9.875C212.322 9.34167 211.597 9.075 210.664 9.075C209.731 9.075 208.997 9.34167 208.464 9.875C207.947 10.3917 207.689 11.2 207.689 12.3V19.575C207.689 20.675 207.947 21.4917 208.464 22.025C208.997 22.5417 209.731 22.8 210.664 22.8ZM220.724 25C220.391 25 220.082 24.925 219.799 24.775C219.532 24.625 219.399 24.4083 219.399 24.125V7.575C219.399 7.34167 219.491 7.14167 219.674 6.975C219.874 6.80833 220.124 6.725 220.424 6.725H225.299C226.316 6.725 227.241 6.90833 228.074 7.275C228.907 7.625 229.566 8.20833 230.049 9.025C230.532 9.825 230.774 10.8917 230.774 12.225V12.425C230.774 13.7583 230.524 14.8333 230.024 15.65C229.541 16.4667 228.866 17.0583 227.999 17.425C227.149 17.775 226.199 17.95 225.149 17.95H222.049V24.125C222.049 24.4083 221.907 24.625 221.624 24.775C221.357 24.925 221.057 25 220.724 25ZM222.049 15.85H225.149C226.082 15.85 226.807 15.5833 227.324 15.05C227.857 14.5167 228.124 13.7 228.124 12.6V12.3C228.124 11.2 227.857 10.3917 227.324 9.875C226.807 9.34167 226.082 9.075 225.149 9.075H222.049V15.85ZM234.221 25C233.871 25 233.588 24.9167 233.371 24.75C233.155 24.5833 233.046 24.3833 233.046 24.15V7.575C233.046 7.34167 233.155 7.14167 233.371 6.975C233.588 6.80833 233.871 6.725 234.221 6.725H238.646C239.696 6.725 240.646 6.90833 241.496 7.275C242.363 7.64167 243.038 8.23333 243.521 9.05C244.021 9.86667 244.271 10.95 244.271 12.3V19.425C244.271 20.775 244.021 21.8583 243.521 22.675C243.038 23.4917 242.363 24.0833 241.496 24.45C240.646 24.8167 239.696 25 238.646 25H234.221ZM235.696 22.65H238.646C239.58 22.65 240.305 22.3917 240.821 21.875C241.355 21.3417 241.621 20.525 241.621 19.425V12.3C241.621 11.2 241.355 10.3917 240.821 9.875C240.305 9.34167 239.58 9.075 238.646 9.075H235.696V22.65ZM256.257 25.175C255.491 25.175 254.766 24.9583 254.082 24.525C253.399 24.075 252.849 23.4833 252.432 22.75C252.032 22.0167 251.832 21.2417 251.832 20.425V17.725C251.832 16.8583 252.032 16.075 252.432 15.375C252.849 14.6583 253.399 14.0917 254.082 13.675C254.766 13.2417 255.516 13.025 256.332 13.025C257.149 13.025 257.832 13.225 258.382 13.625C258.949 14.0083 259.366 14.4417 259.632 14.925V6.55C259.632 6.35 259.716 6.2 259.882 6.1C260.049 5.98333 260.241 5.925 260.457 5.925C260.707 5.925 260.899 5.98333 261.032 6.1C261.182 6.2 261.257 6.35 261.257 6.55V24.35C261.257 24.5167 261.182 24.6667 261.032 24.8C260.899 24.9333 260.707 25 260.457 25C260.257 25 260.074 24.9333 259.907 24.8C259.757 24.6667 259.682 24.5167 259.682 24.35V23.25C259.432 23.7667 258.991 24.2167 258.357 24.6C257.741 24.9833 257.041 25.175 256.257 25.175ZM256.557 23.675C257.157 23.675 257.682 23.525 258.132 23.225C258.599 22.9083 258.966 22.5583 259.232 22.175C259.499 21.775 259.632 21.45 259.632 21.2V17.725C259.632 17.0417 259.482 16.4667 259.182 16C258.882 15.5333 258.499 15.175 258.032 14.925C257.566 14.6583 257.082 14.525 256.582 14.525C256.016 14.525 255.499 14.6833 255.032 15C254.566 15.3 254.191 15.6917 253.907 16.175C253.624 16.6583 253.482 17.175 253.482 17.725V20.425C253.482 20.975 253.624 21.5 253.907 22C254.191 22.5 254.566 22.9083 255.032 23.225C255.499 23.525 256.007 23.675 256.557 23.675ZM269.342 25.175C268.292 25.175 267.358 24.975 266.542 24.575C265.742 24.175 265.108 23.625 264.642 22.925C264.192 22.2083 263.967 21.375 263.967 20.425V17.65C263.967 16.8167 264.183 16.05 264.617 15.35C265.05 14.6333 265.625 14.0667 266.342 13.65C267.075 13.2333 267.875 13.025 268.742 13.025C269.575 13.025 270.342 13.225 271.042 13.625C271.758 14.0083 272.333 14.5417 272.767 15.225C273.2 15.9083 273.417 16.7 273.417 17.6C273.417 18.2333 273.308 18.6917 273.092 18.975C272.875 19.2583 272.6 19.4333 272.267 19.5C271.95 19.55 271.608 19.575 271.242 19.575H265.592V20.5C265.592 21.5 265.95 22.2917 266.667 22.875C267.383 23.4583 268.292 23.75 269.392 23.75C270.058 23.75 270.575 23.6667 270.942 23.5C271.308 23.3333 271.592 23.1667 271.792 23C272.008 22.8333 272.208 22.75 272.392 22.75C272.525 22.75 272.642 22.8 272.742 22.9C272.858 22.9833 272.942 23.0833 272.992 23.2C273.058 23.3167 273.092 23.425 273.092 23.525C273.092 23.7083 272.942 23.9333 272.642 24.2C272.342 24.4667 271.908 24.7 271.342 24.9C270.775 25.0833 270.108 25.175 269.342 25.175ZM265.592 18.375H270.592C271.092 18.375 271.425 18.325 271.592 18.225C271.758 18.1083 271.842 17.875 271.842 17.525C271.842 16.9917 271.708 16.4917 271.442 16.025C271.175 15.5417 270.808 15.15 270.342 14.85C269.875 14.5333 269.333 14.375 268.717 14.375C268.15 14.375 267.625 14.5167 267.142 14.8C266.675 15.0833 266.3 15.45 266.017 15.9C265.733 16.35 265.592 16.8583 265.592 17.425V18.375ZM278.467 25.175C277.517 25.175 276.709 24.9083 276.042 24.375C275.392 23.825 275.067 22.9917 275.067 21.875C275.067 20.9583 275.309 20.2583 275.792 19.775C276.292 19.275 276.975 18.9333 277.842 18.75C278.725 18.55 279.742 18.45 280.892 18.45H282.167V17.875C282.167 17.325 282.067 16.7917 281.867 16.275C281.684 15.7417 281.375 15.3083 280.942 14.975C280.525 14.625 279.95 14.45 279.217 14.45C278.667 14.45 278.217 14.5083 277.867 14.625C277.517 14.7417 277.242 14.8667 277.042 15C276.842 15.1167 276.675 15.175 276.542 15.175C276.342 15.175 276.175 15.075 276.042 14.875C275.925 14.675 275.867 14.4917 275.867 14.325C275.867 14.0917 276.042 13.8833 276.392 13.7C276.742 13.5 277.175 13.3417 277.692 13.225C278.225 13.0917 278.75 13.025 279.267 13.025C280.384 13.025 281.267 13.2583 281.917 13.725C282.584 14.175 283.059 14.7667 283.342 15.5C283.642 16.2333 283.792 17.0167 283.792 17.85V24.35C283.792 24.5333 283.717 24.6917 283.567 24.825C283.434 24.9417 283.242 25 282.992 25C282.792 25 282.609 24.9417 282.442 24.825C282.292 24.6917 282.217 24.5333 282.217 24.35V23.25C281.8 23.75 281.284 24.2 280.667 24.6C280.05 24.9833 279.317 25.175 278.467 25.175ZM278.867 23.8C279.417 23.8 279.942 23.6583 280.442 23.375C280.942 23.0917 281.35 22.75 281.667 22.35C282 21.9333 282.167 21.5417 282.167 21.175V19.575H281.117C280.367 19.575 279.65 19.625 278.967 19.725C278.3 19.8083 277.75 20 277.317 20.3C276.9 20.6 276.692 21.075 276.692 21.725C276.692 22.4417 276.9 22.9667 277.317 23.3C277.75 23.6333 278.267 23.8 278.867 23.8ZM290.729 25C289.446 25 288.462 24.7083 287.779 24.125C287.096 23.5417 286.754 22.6083 286.754 21.325V8.175C286.754 7.975 286.837 7.825 287.004 7.725C287.187 7.60833 287.371 7.55 287.554 7.55C287.771 7.55 287.962 7.60833 288.129 7.725C288.296 7.825 288.379 7.975 288.379 8.175V13.175H291.629C291.796 13.175 291.929 13.2417 292.029 13.375C292.129 13.5083 292.179 13.6667 292.179 13.85C292.179 14.0333 292.129 14.1917 292.029 14.325C291.929 14.4583 291.796 14.525 291.629 14.525H288.379V21.325C288.379 22.1417 288.554 22.7167 288.904 23.05C289.254 23.3667 289.862 23.525 290.729 23.525H291.429C291.662 23.525 291.837 23.6 291.954 23.75C292.087 23.8833 292.154 24.05 292.154 24.25C292.154 24.45 292.087 24.625 291.954 24.775C291.837 24.925 291.662 25 291.429 25H290.729ZM295.002 25C294.785 25 294.594 24.9333 294.427 24.8C294.277 24.6667 294.202 24.5167 294.202 24.35V6.55C294.202 6.35 294.277 6.2 294.427 6.1C294.594 5.98333 294.785 5.925 295.002 5.925C295.235 5.925 295.427 5.98333 295.577 6.1C295.744 6.2 295.827 6.35 295.827 6.55V14.925C296.11 14.4417 296.527 14.0083 297.077 13.625C297.627 13.225 298.31 13.025 299.127 13.025C299.927 13.025 300.66 13.2417 301.327 13.675C302.01 14.0917 302.552 14.6583 302.952 15.375C303.352 16.075 303.552 16.8583 303.552 17.725V24.35C303.552 24.5667 303.469 24.7333 303.302 24.85C303.135 24.95 302.944 25 302.727 25C302.544 25 302.36 24.95 302.177 24.85C302.01 24.7333 301.927 24.5667 301.927 24.35V17.725C301.927 17.175 301.785 16.6583 301.502 16.175C301.219 15.6917 300.844 15.3 300.377 15C299.91 14.6833 299.394 14.525 298.827 14.525C298.327 14.525 297.844 14.6583 297.377 14.925C296.927 15.175 296.552 15.5333 296.252 16C295.969 16.4667 295.827 17.0417 295.827 17.725V24.35C295.827 24.5167 295.744 24.6667 295.577 24.8C295.427 24.9333 295.235 25 295.002 25ZM309.78 25.175C308.997 25.175 308.305 25.075 307.705 24.875C307.122 24.675 306.663 24.4417 306.33 24.175C306.013 23.8917 305.855 23.625 305.855 23.375C305.855 23.2583 305.88 23.15 305.93 23.05C305.98 22.9333 306.047 22.8333 306.13 22.75C306.23 22.6667 306.33 22.625 306.43 22.625C306.613 22.625 306.813 22.725 307.03 22.925C307.263 23.1083 307.58 23.3 307.98 23.5C308.397 23.7 308.98 23.8 309.73 23.8C310.68 23.8 311.347 23.625 311.73 23.275C312.113 22.9083 312.305 22.4917 312.305 22.025C312.305 21.475 312.155 21.05 311.855 20.75C311.572 20.4333 311.188 20.1917 310.705 20.025C310.238 19.8583 309.738 19.7 309.205 19.55C308.688 19.4 308.188 19.2167 307.705 19C307.238 18.7833 306.855 18.475 306.555 18.075C306.272 17.6583 306.13 17.1083 306.13 16.425C306.13 15.8917 306.263 15.3667 306.53 14.85C306.797 14.3333 307.213 13.9 307.78 13.55C308.363 13.2 309.13 13.025 310.08 13.025C310.63 13.025 311.163 13.0833 311.68 13.2C312.197 13.3167 312.613 13.475 312.93 13.675C313.263 13.8583 313.43 14.0583 313.43 14.275C313.43 14.3417 313.397 14.45 313.33 14.6C313.28 14.7333 313.205 14.85 313.105 14.95C313.005 15.05 312.888 15.1 312.755 15.1C312.622 15.1 312.438 15.0417 312.205 14.925C311.988 14.8083 311.705 14.6917 311.355 14.575C311.005 14.4583 310.588 14.4 310.105 14.4C309.505 14.4 309.022 14.5083 308.655 14.725C308.288 14.9417 308.022 15.2 307.855 15.5C307.688 15.8 307.605 16.0917 307.605 16.375C307.605 16.8417 307.755 17.2 308.055 17.45C308.355 17.7 308.738 17.9083 309.205 18.075C309.688 18.225 310.188 18.375 310.705 18.525C311.238 18.6583 311.738 18.85 312.205 19.1C312.688 19.35 313.072 19.7 313.355 20.15C313.655 20.6 313.805 21.2 313.805 21.95C313.805 22.9333 313.455 23.7167 312.755 24.3C312.055 24.8833 311.063 25.175 309.78 25.175ZM5.05 55.2C4.88333 55.2 4.74167 55.1667 4.625 55.1C4.525 55.0333 4.43333 54.9 4.35 54.7L0.475 44.25C0.441667 44.1833 0.416667 44.1167 0.4 44.05C0.383333 43.9667 0.375 43.9083 0.375 43.875C0.375 43.725 0.425 43.6 0.525 43.5C0.625 43.3833 0.75 43.2917 0.9 43.225C1.05 43.1583 1.2 43.125 1.35 43.125C1.46667 43.125 1.58333 43.1583 1.7 43.225C1.81667 43.2917 1.89167 43.3833 1.925 43.5L5.125 52.4L7.675 44.275C7.725 44.125 7.80833 44.0167 7.925 43.95C8.04167 43.8833 8.18333 43.85 8.35 43.85C8.5 43.85 8.63333 43.8833 8.75 43.95C8.86667 44.0167 8.95 44.125 9 44.275L11.475 52.5L14.725 43.5C14.8083 43.25 15 43.125 15.3 43.125C15.4333 43.125 15.575 43.1583 15.725 43.225C15.8917 43.2917 16.025 43.375 16.125 43.475C16.225 43.575 16.275 43.7 16.275 43.85C16.275 43.9167 16.2583 43.9917 16.225 44.075C16.2083 44.1417 16.1917 44.2 16.175 44.25L12.275 54.8C12.225 54.95 12.1333 55.05 12 55.1C11.8833 55.1667 11.7583 55.2 11.625 55.2C11.4583 55.2 11.3167 55.1667 11.2 55.1C11.0833 55.0333 11 54.9417 10.95 54.825L8.35 46.7L5.775 54.7C5.725 54.8667 5.63333 54.9917 5.5 55.075C5.36667 55.1583 5.21667 55.2 5.05 55.2ZM23.126 55.175C22.076 55.175 21.1426 54.975 20.326 54.575C19.526 54.175 18.8926 53.625 18.426 52.925C17.976 52.2083 17.751 51.375 17.751 50.425V47.65C17.751 46.8167 17.9676 46.05 18.401 45.35C18.8343 44.6333 19.4093 44.0667 20.126 43.65C20.8593 43.2333 21.6593 43.025 22.526 43.025C23.3593 43.025 24.126 43.225 24.826 43.625C25.5426 44.0083 26.1176 44.5417 26.551 45.225C26.9843 45.9083 27.201 46.7 27.201 47.6C27.201 48.2333 27.0926 48.6917 26.876 48.975C26.6593 49.2583 26.3843 49.4333 26.051 49.5C25.7343 49.55 25.3926 49.575 25.026 49.575H19.376V50.5C19.376 51.5 19.7343 52.2917 20.451 52.875C21.1676 53.4583 22.076 53.75 23.176 53.75C23.8426 53.75 24.3593 53.6667 24.726 53.5C25.0926 53.3333 25.376 53.1667 25.576 53C25.7926 52.8333 25.9926 52.75 26.176 52.75C26.3093 52.75 26.426 52.8 26.526 52.9C26.6426 52.9833 26.726 53.0833 26.776 53.2C26.8426 53.3167 26.876 53.425 26.876 53.525C26.876 53.7083 26.726 53.9333 26.426 54.2C26.126 54.4667 25.6926 54.7 25.126 54.9C24.5593 55.0833 23.8926 55.175 23.126 55.175ZM19.376 48.375H24.376C24.876 48.375 25.2093 48.325 25.376 48.225C25.5426 48.1083 25.626 47.875 25.626 47.525C25.626 46.9917 25.4926 46.4917 25.226 46.025C24.9593 45.5417 24.5926 45.15 24.126 44.85C23.6593 44.5333 23.1176 44.375 22.501 44.375C21.9343 44.375 21.4093 44.5167 20.926 44.8C20.4593 45.0833 20.0843 45.45 19.801 45.9C19.5176 46.35 19.376 46.8583 19.376 47.425V48.375ZM30.4262 55C30.2095 55 30.0178 54.9333 29.8512 54.8C29.7012 54.6667 29.6262 54.5167 29.6262 54.35V43.8C29.6262 43.6 29.7012 43.45 29.8512 43.35C30.0178 43.2333 30.2095 43.175 30.4262 43.175C30.6428 43.175 30.8262 43.2333 30.9762 43.35C31.1262 43.45 31.2012 43.6 31.2012 43.8V45.025C31.3845 44.675 31.6345 44.35 31.9512 44.05C32.2678 43.75 32.6428 43.5083 33.0762 43.325C33.5095 43.125 34.0012 43.025 34.5512 43.025H35.4262C35.6095 43.025 35.7595 43.1 35.8762 43.25C36.0095 43.4 36.0762 43.575 36.0762 43.775C36.0762 43.9917 36.0095 44.175 35.8762 44.325C35.7595 44.4583 35.6095 44.525 35.4262 44.525H34.5512C34.0012 44.525 33.4678 44.675 32.9512 44.975C32.4512 45.275 32.0428 45.6917 31.7262 46.225C31.4095 46.7583 31.2512 47.4083 31.2512 48.175V54.35C31.2512 54.5167 31.1678 54.6667 31.0012 54.8C30.8512 54.9333 30.6595 55 30.4262 55ZM42.291 55.175C41.241 55.175 40.3077 54.975 39.491 54.575C38.691 54.175 38.0577 53.625 37.591 52.925C37.141 52.2083 36.916 51.375 36.916 50.425V47.65C36.916 46.8167 37.1327 46.05 37.566 45.35C37.9993 44.6333 38.5743 44.0667 39.291 43.65C40.0243 43.2333 40.8243 43.025 41.691 43.025C42.5243 43.025 43.291 43.225 43.991 43.625C44.7077 44.0083 45.2827 44.5417 45.716 45.225C46.1493 45.9083 46.366 46.7 46.366 47.6C46.366 48.2333 46.2577 48.6917 46.041 48.975C45.8243 49.2583 45.5493 49.4333 45.216 49.5C44.8993 49.55 44.5577 49.575 44.191 49.575H38.541V50.5C38.541 51.5 38.8993 52.2917 39.616 52.875C40.3327 53.4583 41.241 53.75 42.341 53.75C43.0077 53.75 43.5243 53.6667 43.891 53.5C44.2577 53.3333 44.541 53.1667 44.741 53C44.9577 52.8333 45.1577 52.75 45.341 52.75C45.4743 52.75 45.591 52.8 45.691 52.9C45.8077 52.9833 45.891 53.0833 45.941 53.2C46.0077 53.3167 46.041 53.425 46.041 53.525C46.041 53.7083 45.891 53.9333 45.591 54.2C45.291 54.4667 44.8577 54.7 44.291 54.9C43.7243 55.0833 43.0577 55.175 42.291 55.175ZM38.541 48.375H43.541C44.041 48.375 44.3743 48.325 44.541 48.225C44.7077 48.1083 44.791 47.875 44.791 47.525C44.791 46.9917 44.6577 46.4917 44.391 46.025C44.1243 45.5417 43.7577 45.15 43.291 44.85C42.8243 44.5333 42.2827 44.375 41.666 44.375C41.0993 44.375 40.5743 44.5167 40.091 44.8C39.6243 45.0833 39.2493 45.45 38.966 45.9C38.6827 46.35 38.541 46.8583 38.541 47.425V48.375ZM56.4211 55.175C55.4711 55.175 54.6628 54.9083 53.9961 54.375C53.3461 53.825 53.0211 52.9917 53.0211 51.875C53.0211 50.9583 53.2628 50.2583 53.7461 49.775C54.2461 49.275 54.9294 48.9333 55.7961 48.75C56.6794 48.55 57.6961 48.45 58.8461 48.45H60.1211V47.875C60.1211 47.325 60.0211 46.7917 59.8211 46.275C59.6378 45.7417 59.3294 45.3083 58.8961 44.975C58.4794 44.625 57.9044 44.45 57.1711 44.45C56.6211 44.45 56.1711 44.5083 55.8211 44.625C55.4711 44.7417 55.1961 44.8667 54.9961 45C54.7961 45.1167 54.6294 45.175 54.4961 45.175C54.2961 45.175 54.1294 45.075 53.9961 44.875C53.8794 44.675 53.8211 44.4917 53.8211 44.325C53.8211 44.0917 53.9961 43.8833 54.3461 43.7C54.6961 43.5 55.1294 43.3417 55.6461 43.225C56.1794 43.0917 56.7044 43.025 57.2211 43.025C58.3378 43.025 59.2211 43.2583 59.8711 43.725C60.5378 44.175 61.0128 44.7667 61.2961 45.5C61.5961 46.2333 61.7461 47.0167 61.7461 47.85V54.35C61.7461 54.5333 61.6711 54.6917 61.5211 54.825C61.3878 54.9417 61.1961 55 60.9461 55C60.7461 55 60.5628 54.9417 60.3961 54.825C60.2461 54.6917 60.1711 54.5333 60.1711 54.35V53.25C59.7544 53.75 59.2378 54.2 58.6211 54.6C58.0044 54.9833 57.2711 55.175 56.4211 55.175ZM56.8211 53.8C57.3711 53.8 57.8961 53.6583 58.3961 53.375C58.8961 53.0917 59.3044 52.75 59.6211 52.35C59.9544 51.9333 60.1211 51.5417 60.1211 51.175V49.575H59.0711C58.3211 49.575 57.6044 49.625 56.9211 49.725C56.2544 49.8083 55.7044 50 55.2711 50.3C54.8544 50.6 54.6461 51.075 54.6461 51.725C54.6461 52.4417 54.8544 52.9667 55.2711 53.3C55.7044 53.6333 56.2211 53.8 56.8211 53.8ZM68.683 55C67.3997 55 66.4163 54.7083 65.733 54.125C65.0497 53.5417 64.708 52.6083 64.708 51.325V38.175C64.708 37.975 64.7913 37.825 64.958 37.725C65.1413 37.6083 65.3247 37.55 65.508 37.55C65.7247 37.55 65.9163 37.6083 66.083 37.725C66.2497 37.825 66.333 37.975 66.333 38.175V43.175H69.583C69.7497 43.175 69.883 43.2417 69.983 43.375C70.083 43.5083 70.133 43.6667 70.133 43.85C70.133 44.0333 70.083 44.1917 69.983 44.325C69.883 44.4583 69.7497 44.525 69.583 44.525H66.333V51.325C66.333 52.1417 66.508 52.7167 66.858 53.05C67.208 53.3667 67.8163 53.525 68.683 53.525H69.383C69.6163 53.525 69.7913 53.6 69.908 53.75C70.0413 53.8833 70.108 54.05 70.108 54.25C70.108 54.45 70.0413 54.625 69.908 54.775C69.7913 54.925 69.6163 55 69.383 55H68.683ZM76.0561 55C74.7727 55 73.7894 54.7083 73.1061 54.125C72.4227 53.5417 72.0811 52.6083 72.0811 51.325V38.175C72.0811 37.975 72.1644 37.825 72.3311 37.725C72.5144 37.6083 72.6977 37.55 72.8811 37.55C73.0977 37.55 73.2894 37.6083 73.4561 37.725C73.6227 37.825 73.7061 37.975 73.7061 38.175V43.175H76.9561C77.1227 43.175 77.2561 43.2417 77.3561 43.375C77.4561 43.5083 77.5061 43.6667 77.5061 43.85C77.5061 44.0333 77.4561 44.1917 77.3561 44.325C77.2561 44.4583 77.1227 44.525 76.9561 44.525H73.7061V51.325C73.7061 52.1417 73.8811 52.7167 74.2311 53.05C74.5811 53.3667 75.1894 53.525 76.0561 53.525H76.7561C76.9894 53.525 77.1644 53.6 77.2811 53.75C77.4144 53.8833 77.4811 54.05 77.4811 54.25C77.4811 54.45 77.4144 54.625 77.2811 54.775C77.1644 54.925 76.9894 55 76.7561 55H76.0561ZM80.3041 55C80.0874 55 79.8958 54.9333 79.7291 54.8C79.5791 54.6667 79.5041 54.5167 79.5041 54.35V43.8C79.5041 43.6 79.5791 43.45 79.7291 43.35C79.8958 43.2333 80.0874 43.175 80.3041 43.175C80.5208 43.175 80.7041 43.2333 80.8541 43.35C81.0041 43.45 81.0791 43.6 81.0791 43.8V45.025C81.2624 44.675 81.5124 44.35 81.8291 44.05C82.1458 43.75 82.5208 43.5083 82.9541 43.325C83.3874 43.125 83.8791 43.025 84.4291 43.025H85.3041C85.4874 43.025 85.6374 43.1 85.7541 43.25C85.8874 43.4 85.9541 43.575 85.9541 43.775C85.9541 43.9917 85.8874 44.175 85.7541 44.325C85.6374 44.4583 85.4874 44.525 85.3041 44.525H84.4291C83.8791 44.525 83.3458 44.675 82.8291 44.975C82.3291 45.275 81.9208 45.6917 81.6041 46.225C81.2874 46.7583 81.1291 47.4083 81.1291 48.175V54.35C81.1291 54.5167 81.0458 54.6667 80.8791 54.8C80.7291 54.9333 80.5374 55 80.3041 55ZM88.5811 39.675C88.2811 39.675 88.0144 39.575 87.7811 39.375C87.5644 39.1583 87.4561 38.9083 87.4561 38.625C87.4561 38.3417 87.5644 38.1 87.7811 37.9C88.0144 37.7 88.2811 37.6 88.5811 37.6C88.8811 37.6 89.1394 37.7 89.3561 37.9C89.5727 38.1 89.6811 38.3417 89.6811 38.625C89.6811 38.9083 89.5727 39.1583 89.3561 39.375C89.1394 39.575 88.8811 39.675 88.5811 39.675ZM88.5561 55C88.3394 55 88.1477 54.9333 87.9811 54.8C87.8311 54.6667 87.7561 54.5167 87.7561 54.35V43.8C87.7561 43.6 87.8311 43.45 87.9811 43.35C88.1477 43.2333 88.3394 43.175 88.5561 43.175C88.7894 43.175 88.9811 43.2333 89.1311 43.35C89.2977 43.45 89.3811 43.6 89.3811 43.8V54.35C89.3811 54.5167 89.2977 54.6667 89.1311 54.8C88.9811 54.9333 88.7894 55 88.5561 55ZM97.5174 55.175C96.734 55.175 96.034 54.9833 95.4174 54.6C94.8007 54.2167 94.359 53.7667 94.0924 53.25V54.35C94.0924 54.5167 94.0174 54.6667 93.8674 54.8C93.7174 54.9333 93.534 55 93.3174 55C93.1007 55 92.909 54.9333 92.7424 54.8C92.5924 54.6667 92.5174 54.5167 92.5174 54.35V36.55C92.5174 36.35 92.5924 36.2 92.7424 36.1C92.909 35.9833 93.1007 35.925 93.3174 35.925C93.5507 35.925 93.7424 35.9833 93.8924 36.1C94.059 36.2 94.1424 36.35 94.1424 36.55V44.925C94.4257 44.4417 94.8424 44.0083 95.3924 43.625C95.959 43.225 96.6507 43.025 97.4674 43.025C98.284 43.025 99.0257 43.2417 99.6924 43.675C100.376 44.0917 100.917 44.6583 101.317 45.375C101.734 46.075 101.942 46.8583 101.942 47.725V50.425C101.942 51.2417 101.734 52.0167 101.317 52.75C100.917 53.4833 100.384 54.075 99.7174 54.525C99.0507 54.9583 98.3174 55.175 97.5174 55.175ZM97.2174 53.675C97.7841 53.675 98.3007 53.525 98.7674 53.225C99.2341 52.9083 99.609 52.5 99.8924 52C100.176 51.5 100.317 50.975 100.317 50.425V47.725C100.317 47.175 100.176 46.6583 99.8924 46.175C99.609 45.6917 99.2341 45.3 98.7674 45C98.3007 44.6833 97.7757 44.525 97.1924 44.525C96.6924 44.525 96.209 44.6583 95.7424 44.925C95.2757 45.175 94.8924 45.5333 94.5924 46C94.2924 46.4667 94.1424 47.0417 94.1424 47.725V51.2C94.1424 51.45 94.2757 51.775 94.5424 52.175C94.8257 52.5583 95.2007 52.9083 95.6674 53.225C96.134 53.525 96.6507 53.675 97.2174 53.675ZM109.277 55.175C108.393 55.175 107.585 54.9583 106.852 54.525C106.135 54.0917 105.56 53.5167 105.127 52.8C104.71 52.0667 104.502 51.2917 104.502 50.475V43.825C104.502 43.6583 104.585 43.5083 104.752 43.375C104.918 43.2417 105.11 43.175 105.327 43.175C105.543 43.175 105.727 43.2417 105.877 43.375C106.043 43.5083 106.127 43.6583 106.127 43.825V50.475C106.127 51.025 106.268 51.5417 106.552 52.025C106.835 52.5083 107.21 52.9083 107.677 53.225C108.143 53.525 108.668 53.675 109.252 53.675C109.852 53.675 110.385 53.525 110.852 53.225C111.318 52.925 111.685 52.5333 111.952 52.05C112.235 51.55 112.377 51.025 112.377 50.475V43.8C112.377 43.6167 112.46 43.4667 112.627 43.35C112.793 43.2333 112.985 43.175 113.202 43.175C113.452 43.175 113.643 43.2333 113.777 43.35C113.927 43.4667 114.002 43.6167 114.002 43.8V50.475C114.002 51.325 113.785 52.1083 113.352 52.825C112.935 53.525 112.36 54.0917 111.627 54.525C110.91 54.9583 110.127 55.175 109.277 55.175ZM120.929 55C119.646 55 118.662 54.7083 117.979 54.125C117.296 53.5417 116.954 52.6083 116.954 51.325V38.175C116.954 37.975 117.037 37.825 117.204 37.725C117.387 37.6083 117.571 37.55 117.754 37.55C117.971 37.55 118.162 37.6083 118.329 37.725C118.496 37.825 118.579 37.975 118.579 38.175V43.175H121.829C121.996 43.175 122.129 43.2417 122.229 43.375C122.329 43.5083 122.379 43.6667 122.379 43.85C122.379 44.0333 122.329 44.1917 122.229 44.325C122.129 44.4583 121.996 44.525 121.829 44.525H118.579V51.325C118.579 52.1417 118.754 52.7167 119.104 53.05C119.454 53.3667 120.062 53.525 120.929 53.525H121.629C121.862 53.525 122.037 53.6 122.154 53.75C122.287 53.8833 122.354 54.05 122.354 54.25C122.354 54.45 122.287 54.625 122.154 54.775C122.037 54.925 121.862 55 121.629 55H120.929ZM129.107 55.175C128.057 55.175 127.124 54.975 126.307 54.575C125.507 54.175 124.874 53.625 124.407 52.925C123.957 52.2083 123.732 51.375 123.732 50.425V47.65C123.732 46.8167 123.949 46.05 124.382 45.35C124.816 44.6333 125.391 44.0667 126.107 43.65C126.841 43.2333 127.641 43.025 128.507 43.025C129.341 43.025 130.107 43.225 130.807 43.625C131.524 44.0083 132.099 44.5417 132.532 45.225C132.966 45.9083 133.182 46.7 133.182 47.6C133.182 48.2333 133.074 48.6917 132.857 48.975C132.641 49.2583 132.366 49.4333 132.032 49.5C131.716 49.55 131.374 49.575 131.007 49.575H125.357V50.5C125.357 51.5 125.716 52.2917 126.432 52.875C127.149 53.4583 128.057 53.75 129.157 53.75C129.824 53.75 130.341 53.6667 130.707 53.5C131.074 53.3333 131.357 53.1667 131.557 53C131.774 52.8333 131.974 52.75 132.157 52.75C132.291 52.75 132.407 52.8 132.507 52.9C132.624 52.9833 132.707 53.0833 132.757 53.2C132.824 53.3167 132.857 53.425 132.857 53.525C132.857 53.7083 132.707 53.9333 132.407 54.2C132.107 54.4667 131.674 54.7 131.107 54.9C130.541 55.0833 129.874 55.175 129.107 55.175ZM125.357 48.375H130.357C130.857 48.375 131.191 48.325 131.357 48.225C131.524 48.1083 131.607 47.875 131.607 47.525C131.607 46.9917 131.474 46.4917 131.207 46.025C130.941 45.5417 130.574 45.15 130.107 44.85C129.641 44.5333 129.099 44.375 128.482 44.375C127.916 44.375 127.391 44.5167 126.907 44.8C126.441 45.0833 126.066 45.45 125.782 45.9C125.499 46.35 125.357 46.8583 125.357 47.425V48.375ZM139.583 55.175C138.816 55.175 138.091 54.9583 137.408 54.525C136.724 54.075 136.174 53.4833 135.758 52.75C135.358 52.0167 135.158 51.2417 135.158 50.425V47.725C135.158 46.8583 135.358 46.075 135.758 45.375C136.174 44.6583 136.724 44.0917 137.408 43.675C138.091 43.2417 138.841 43.025 139.658 43.025C140.474 43.025 141.158 43.225 141.708 43.625C142.274 44.0083 142.691 44.4417 142.958 44.925V36.55C142.958 36.35 143.041 36.2 143.208 36.1C143.374 35.9833 143.566 35.925 143.783 35.925C144.033 35.925 144.224 35.9833 144.358 36.1C144.508 36.2 144.583 36.35 144.583 36.55V54.35C144.583 54.5167 144.508 54.6667 144.358 54.8C144.224 54.9333 144.033 55 143.783 55C143.583 55 143.399 54.9333 143.233 54.8C143.083 54.6667 143.008 54.5167 143.008 54.35V53.25C142.758 53.7667 142.316 54.2167 141.683 54.6C141.066 54.9833 140.366 55.175 139.583 55.175ZM139.883 53.675C140.483 53.675 141.008 53.525 141.458 53.225C141.924 52.9083 142.291 52.5583 142.558 52.175C142.824 51.775 142.958 51.45 142.958 51.2V47.725C142.958 47.0417 142.808 46.4667 142.508 46C142.208 45.5333 141.824 45.175 141.358 44.925C140.891 44.6583 140.408 44.525 139.908 44.525C139.341 44.525 138.824 44.6833 138.358 45C137.891 45.3 137.516 45.6917 137.233 46.175C136.949 46.6583 136.808 47.175 136.808 47.725V50.425C136.808 50.975 136.949 51.5 137.233 52C137.516 52.5 137.891 52.9083 138.358 53.225C138.824 53.525 139.333 53.675 139.883 53.675ZM156.647 55C155.364 55 154.38 54.7083 153.697 54.125C153.014 53.5417 152.672 52.6083 152.672 51.325V38.175C152.672 37.975 152.755 37.825 152.922 37.725C153.105 37.6083 153.289 37.55 153.472 37.55C153.689 37.55 153.88 37.6083 154.047 37.725C154.214 37.825 154.297 37.975 154.297 38.175V43.175H157.547C157.714 43.175 157.847 43.2417 157.947 43.375C158.047 43.5083 158.097 43.6667 158.097 43.85C158.097 44.0333 158.047 44.1917 157.947 44.325C157.847 44.4583 157.714 44.525 157.547 44.525H154.297V51.325C154.297 52.1417 154.472 52.7167 154.822 53.05C155.172 53.3667 155.78 53.525 156.647 53.525H157.347C157.58 53.525 157.755 53.6 157.872 53.75C158.005 53.8833 158.072 54.05 158.072 54.25C158.072 54.45 158.005 54.625 157.872 54.775C157.755 54.925 157.58 55 157.347 55H156.647ZM164.175 55.175C163.325 55.175 162.542 54.9583 161.825 54.525C161.109 54.075 160.525 53.4917 160.075 52.775C159.642 52.0417 159.425 51.2583 159.425 50.425V47.725C159.425 46.875 159.634 46.1 160.05 45.4C160.484 44.6833 161.059 44.1083 161.775 43.675C162.509 43.2417 163.309 43.025 164.175 43.025C165.025 43.025 165.809 43.2417 166.525 43.675C167.259 44.0917 167.842 44.65 168.275 45.35C168.709 46.05 168.925 46.8417 168.925 47.725V50.425C168.925 51.2417 168.709 52.0167 168.275 52.75C167.842 53.4833 167.259 54.075 166.525 54.525C165.809 54.9583 165.025 55.175 164.175 55.175ZM164.175 53.675C164.759 53.675 165.284 53.525 165.75 53.225C166.217 52.9083 166.592 52.5 166.875 52C167.159 51.5 167.3 50.975 167.3 50.425V47.725C167.3 47.175 167.159 46.6583 166.875 46.175C166.609 45.6917 166.234 45.3 165.75 45C165.284 44.6833 164.759 44.525 164.175 44.525C163.592 44.525 163.067 44.6833 162.6 45C162.134 45.3 161.759 45.6917 161.475 46.175C161.192 46.6583 161.05 47.175 161.05 47.725V50.425C161.05 50.975 161.192 51.5 161.475 52C161.759 52.5 162.134 52.9083 162.6 53.225C163.084 53.525 163.609 53.675 164.175 53.675ZM179.224 55.175C178.274 55.175 177.465 54.9083 176.799 54.375C176.149 53.825 175.824 52.9917 175.824 51.875C175.824 50.9583 176.065 50.2583 176.549 49.775C177.049 49.275 177.732 48.9333 178.599 48.75C179.482 48.55 180.499 48.45 181.649 48.45H182.924V47.875C182.924 47.325 182.824 46.7917 182.624 46.275C182.44 45.7417 182.132 45.3083 181.699 44.975C181.282 44.625 180.707 44.45 179.974 44.45C179.424 44.45 178.974 44.5083 178.624 44.625C178.274 44.7417 177.999 44.8667 177.799 45C177.599 45.1167 177.432 45.175 177.299 45.175C177.099 45.175 176.932 45.075 176.799 44.875C176.682 44.675 176.624 44.4917 176.624 44.325C176.624 44.0917 176.799 43.8833 177.149 43.7C177.499 43.5 177.932 43.3417 178.449 43.225C178.982 43.0917 179.507 43.025 180.024 43.025C181.14 43.025 182.024 43.2583 182.674 43.725C183.34 44.175 183.815 44.7667 184.099 45.5C184.399 46.2333 184.549 47.0167 184.549 47.85V54.35C184.549 54.5333 184.474 54.6917 184.324 54.825C184.19 54.9417 183.999 55 183.749 55C183.549 55 183.365 54.9417 183.199 54.825C183.049 54.6917 182.974 54.5333 182.974 54.35V53.25C182.557 53.75 182.04 54.2 181.424 54.6C180.807 54.9833 180.074 55.175 179.224 55.175ZM179.624 53.8C180.174 53.8 180.699 53.6583 181.199 53.375C181.699 53.0917 182.107 52.75 182.424 52.35C182.757 51.9333 182.924 51.5417 182.924 51.175V49.575H181.874C181.124 49.575 180.407 49.625 179.724 49.725C179.057 49.8083 178.507 50 178.074 50.3C177.657 50.6 177.449 51.075 177.449 51.725C177.449 52.4417 177.657 52.9667 178.074 53.3C178.507 53.6333 179.024 53.8 179.624 53.8ZM188.386 39.675C188.086 39.675 187.819 39.575 187.586 39.375C187.369 39.1583 187.261 38.9083 187.261 38.625C187.261 38.3417 187.369 38.1 187.586 37.9C187.819 37.7 188.086 37.6 188.386 37.6C188.686 37.6 188.944 37.7 189.161 37.9C189.377 38.1 189.486 38.3417 189.486 38.625C189.486 38.9083 189.377 39.1583 189.161 39.375C188.944 39.575 188.686 39.675 188.386 39.675ZM188.361 55C188.144 55 187.952 54.9333 187.786 54.8C187.636 54.6667 187.561 54.5167 187.561 54.35V43.8C187.561 43.6 187.636 43.45 187.786 43.35C187.952 43.2333 188.144 43.175 188.361 43.175C188.594 43.175 188.786 43.2333 188.936 43.35C189.102 43.45 189.186 43.6 189.186 43.8V54.35C189.186 54.5167 189.102 54.6667 188.936 54.8C188.786 54.9333 188.594 55 188.361 55ZM193.097 55C192.88 55 192.689 54.9333 192.522 54.8C192.372 54.6667 192.297 54.5167 192.297 54.35V43.8C192.297 43.6 192.372 43.45 192.522 43.35C192.689 43.2333 192.88 43.175 193.097 43.175C193.314 43.175 193.497 43.2333 193.647 43.35C193.797 43.45 193.872 43.6 193.872 43.8V45.025C194.055 44.675 194.305 44.35 194.622 44.05C194.939 43.75 195.314 43.5083 195.747 43.325C196.18 43.125 196.672 43.025 197.222 43.025H198.097C198.28 43.025 198.43 43.1 198.547 43.25C198.68 43.4 198.747 43.575 198.747 43.775C198.747 43.9917 198.68 44.175 198.547 44.325C198.43 44.4583 198.28 44.525 198.097 44.525H197.222C196.672 44.525 196.139 44.675 195.622 44.975C195.122 45.275 194.714 45.6917 194.397 46.225C194.08 46.7583 193.922 47.4083 193.922 48.175V54.35C193.922 54.5167 193.839 54.6667 193.672 54.8C193.522 54.9333 193.33 55 193.097 55ZM206.379 60.8C206.162 60.8 205.971 60.7333 205.804 60.6C205.654 60.4667 205.579 60.3167 205.579 60.15V43.8C205.579 43.6 205.654 43.45 205.804 43.35C205.971 43.2333 206.162 43.175 206.379 43.175C206.596 43.175 206.779 43.2333 206.929 43.35C207.079 43.45 207.154 43.6 207.154 43.8V44.925C207.437 44.4417 207.862 44.0083 208.429 43.625C208.996 43.225 209.687 43.025 210.504 43.025C211.337 43.025 212.087 43.2417 212.754 43.675C213.437 44.0917 213.979 44.6583 214.379 45.375C214.796 46.075 215.004 46.8583 215.004 47.725V50.425C215.004 51.2417 214.796 52.0167 214.379 52.75C213.979 53.4833 213.446 54.075 212.779 54.525C212.112 54.9583 211.379 55.175 210.579 55.175C209.812 55.175 209.129 54.9833 208.529 54.6C207.929 54.2167 207.487 53.7667 207.204 53.25V60.15C207.204 60.3167 207.121 60.4667 206.954 60.6C206.804 60.7333 206.612 60.8 206.379 60.8ZM210.279 53.675C210.829 53.675 211.337 53.525 211.804 53.225C212.271 52.9083 212.646 52.5 212.929 52C213.229 51.5 213.379 50.975 213.379 50.425V47.725C213.379 47.175 213.229 46.6583 212.929 46.175C212.646 45.6917 212.271 45.3 211.804 45C211.337 44.6833 210.812 44.525 210.229 44.525C209.729 44.525 209.246 44.6583 208.779 44.925C208.329 45.175 207.954 45.5333 207.654 46C207.354 46.4667 207.204 47.0417 207.204 47.725V51.2C207.204 51.45 207.337 51.775 207.604 52.175C207.871 52.5583 208.237 52.9083 208.704 53.225C209.171 53.525 209.696 53.675 210.279 53.675ZM221.963 55.175C221.113 55.175 220.33 54.9583 219.613 54.525C218.897 54.075 218.313 53.4917 217.863 52.775C217.43 52.0417 217.213 51.2583 217.213 50.425V47.725C217.213 46.875 217.422 46.1 217.838 45.4C218.272 44.6833 218.847 44.1083 219.563 43.675C220.297 43.2417 221.097 43.025 221.963 43.025C222.813 43.025 223.597 43.2417 224.313 43.675C225.047 44.0917 225.63 44.65 226.063 45.35C226.497 46.05 226.713 46.8417 226.713 47.725V50.425C226.713 51.2417 226.497 52.0167 226.063 52.75C225.63 53.4833 225.047 54.075 224.313 54.525C223.597 54.9583 222.813 55.175 221.963 55.175ZM221.963 53.675C222.547 53.675 223.072 53.525 223.538 53.225C224.005 52.9083 224.38 52.5 224.663 52C224.947 51.5 225.088 50.975 225.088 50.425V47.725C225.088 47.175 224.947 46.6583 224.663 46.175C224.397 45.6917 224.022 45.3 223.538 45C223.072 44.6833 222.547 44.525 221.963 44.525C221.38 44.525 220.855 44.6833 220.388 45C219.922 45.3 219.547 45.6917 219.263 46.175C218.98 46.6583 218.838 47.175 218.838 47.725V50.425C218.838 50.975 218.98 51.5 219.263 52C219.547 52.5 219.922 52.9083 220.388 53.225C220.872 53.525 221.397 53.675 221.963 53.675ZM230.407 55C230.19 55 229.999 54.9333 229.832 54.8C229.682 54.6667 229.607 54.5167 229.607 54.35V36.55C229.607 36.35 229.682 36.2 229.832 36.1C229.999 35.9833 230.19 35.925 230.407 35.925C230.64 35.925 230.832 35.9833 230.982 36.1C231.149 36.2 231.232 36.35 231.232 36.55V54.35C231.232 54.5167 231.149 54.6667 230.982 54.8C230.832 54.9333 230.64 55 230.407 55ZM235.607 55C235.391 55 235.199 54.9333 235.032 54.8C234.882 54.6667 234.807 54.5167 234.807 54.35V36.55C234.807 36.35 234.882 36.2 235.032 36.1C235.199 35.9833 235.391 35.925 235.607 35.925C235.841 35.925 236.032 35.9833 236.182 36.1C236.349 36.2 236.432 36.35 236.432 36.55V54.35C236.432 54.5167 236.349 54.6667 236.182 54.8C236.032 54.9333 235.841 55 235.607 55ZM244.457 55.175C243.574 55.175 242.766 54.9583 242.032 54.525C241.316 54.0917 240.741 53.5167 240.307 52.8C239.891 52.0667 239.682 51.2917 239.682 50.475V43.825C239.682 43.6583 239.766 43.5083 239.932 43.375C240.099 43.2417 240.291 43.175 240.507 43.175C240.724 43.175 240.907 43.2417 241.057 43.375C241.224 43.5083 241.307 43.6583 241.307 43.825V50.475C241.307 51.025 241.449 51.5417 241.732 52.025C242.016 52.5083 242.391 52.9083 242.857 53.225C243.324 53.525 243.849 53.675 244.432 53.675C245.032 53.675 245.566 53.525 246.032 53.225C246.499 52.925 246.866 52.5333 247.132 52.05C247.416 51.55 247.557 51.025 247.557 50.475V43.8C247.557 43.6167 247.641 43.4667 247.807 43.35C247.974 43.2333 248.166 43.175 248.382 43.175C248.632 43.175 248.824 43.2333 248.957 43.35C249.107 43.4667 249.182 43.6167 249.182 43.8V50.475C249.182 51.325 248.966 52.1083 248.532 52.825C248.116 53.525 247.541 54.0917 246.807 54.525C246.091 54.9583 245.307 55.175 244.457 55.175ZM256.11 55C254.826 55 253.843 54.7083 253.16 54.125C252.476 53.5417 252.135 52.6083 252.135 51.325V38.175C252.135 37.975 252.218 37.825 252.385 37.725C252.568 37.6083 252.751 37.55 252.935 37.55C253.151 37.55 253.343 37.6083 253.51 37.725C253.676 37.825 253.76 37.975 253.76 38.175V43.175H257.01C257.176 43.175 257.31 43.2417 257.41 43.375C257.51 43.5083 257.56 43.6667 257.56 43.85C257.56 44.0333 257.51 44.1917 257.41 44.325C257.31 44.4583 257.176 44.525 257.01 44.525H253.76V51.325C253.76 52.1417 253.935 52.7167 254.285 53.05C254.635 53.3667 255.243 53.525 256.11 53.525H256.81C257.043 53.525 257.218 53.6 257.335 53.75C257.468 53.8833 257.535 54.05 257.535 54.25C257.535 54.45 257.468 54.625 257.335 54.775C257.218 54.925 257.043 55 256.81 55H256.11ZM260.383 39.675C260.083 39.675 259.816 39.575 259.583 39.375C259.366 39.1583 259.258 38.9083 259.258 38.625C259.258 38.3417 259.366 38.1 259.583 37.9C259.816 37.7 260.083 37.6 260.383 37.6C260.683 37.6 260.941 37.7 261.158 37.9C261.374 38.1 261.483 38.3417 261.483 38.625C261.483 38.9083 261.374 39.1583 261.158 39.375C260.941 39.575 260.683 39.675 260.383 39.675ZM260.358 55C260.141 55 259.949 54.9333 259.783 54.8C259.633 54.6667 259.558 54.5167 259.558 54.35V43.8C259.558 43.6 259.633 43.45 259.783 43.35C259.949 43.2333 260.141 43.175 260.358 43.175C260.591 43.175 260.783 43.2333 260.933 43.35C261.099 43.45 261.183 43.6 261.183 43.8V54.35C261.183 54.5167 261.099 54.6667 260.933 54.8C260.783 54.9333 260.591 55 260.358 55ZM268.594 55.175C267.744 55.175 266.961 54.9583 266.244 54.525C265.527 54.075 264.944 53.4917 264.494 52.775C264.061 52.0417 263.844 51.2583 263.844 50.425V47.725C263.844 46.875 264.052 46.1 264.469 45.4C264.902 44.6833 265.477 44.1083 266.194 43.675C266.927 43.2417 267.727 43.025 268.594 43.025C269.444 43.025 270.227 43.2417 270.944 43.675C271.677 44.0917 272.261 44.65 272.694 45.35C273.127 46.05 273.344 46.8417 273.344 47.725V50.425C273.344 51.2417 273.127 52.0167 272.694 52.75C272.261 53.4833 271.677 54.075 270.944 54.525C270.227 54.9583 269.444 55.175 268.594 55.175ZM268.594 53.675C269.177 53.675 269.702 53.525 270.169 53.225C270.636 52.9083 271.011 52.5 271.294 52C271.577 51.5 271.719 50.975 271.719 50.425V47.725C271.719 47.175 271.577 46.6583 271.294 46.175C271.027 45.6917 270.652 45.3 270.169 45C269.702 44.6833 269.177 44.525 268.594 44.525C268.011 44.525 267.486 44.6833 267.019 45C266.552 45.3 266.177 45.6917 265.894 46.175C265.611 46.6583 265.469 47.175 265.469 47.725V50.425C265.469 50.975 265.611 51.5 265.894 52C266.177 52.5 266.552 52.9083 267.019 53.225C267.502 53.525 268.027 53.675 268.594 53.675ZM276.813 55C276.596 55 276.405 54.9333 276.238 54.8C276.088 54.6667 276.013 54.5167 276.013 54.35V43.8C276.013 43.6 276.088 43.45 276.238 43.35C276.405 43.2333 276.596 43.175 276.813 43.175C277.03 43.175 277.213 43.2333 277.363 43.35C277.513 43.45 277.588 43.6 277.588 43.8V44.925C277.855 44.4417 278.271 44.0083 278.838 43.625C279.405 43.225 280.105 43.025 280.938 43.025C281.738 43.025 282.471 43.2417 283.138 43.675C283.821 44.0917 284.363 44.6583 284.763 45.375C285.163 46.075 285.363 46.8583 285.363 47.725V54.35C285.363 54.5667 285.28 54.7333 285.113 54.85C284.946 54.95 284.755 55 284.538 55C284.355 55 284.171 54.95 283.988 54.85C283.821 54.7333 283.738 54.5667 283.738 54.35V47.725C283.738 47.175 283.596 46.6583 283.313 46.175C283.03 45.6917 282.655 45.3 282.188 45C281.721 44.6833 281.205 44.525 280.638 44.525C280.138 44.525 279.655 44.6583 279.188 44.925C278.738 45.175 278.363 45.5333 278.063 46C277.78 46.4667 277.638 47.0417 277.638 47.725V54.35C277.638 54.5167 277.555 54.6667 277.388 54.8C277.238 54.9333 277.046 55 276.813 55Z" fill="#2D5781"/>
</svg>
