<svg width="617" height="392" viewBox="0 0 617 392" fill="none" xmlns="http://www.w3.org/2000/svg">
<rect width="617" height="392" fill="white"/>
<rect y="79" width="50" height="50" rx="7" fill="#8FA7BD"/>
<rect x="63" y="79" width="50" height="50" rx="7" fill="#8FA7BD"/>
<rect x="126" y="79" width="50" height="50" rx="7" fill="#8FA7BD"/>
<rect x="189" y="79" width="50" height="50" rx="7" fill="#8FA7BD"/>
<rect x="252" y="79" width="50" height="50" rx="7" fill="#8FA7BD"/>
<rect x="315" y="79" width="50" height="50" rx="7" fill="#8FA7BD"/>
<rect x="378" y="79" width="50" height="50" rx="7" fill="#E5E5E5"/>
<rect x="441" y="79" width="50" height="50" rx="7" fill="#E5E5E5"/>
<path d="M388 79H421C424.866 79 428 82.134 428 86V122C428 125.866 424.866 129 421 129H388V79Z" fill="#E5E5E5"/>
<rect x="504" y="79" width="50" height="50" rx="7" fill="#E5E5E5"/>
<rect x="567" y="79" width="50" height="50" rx="7" fill="#E5E5E5"/>
<rect y="201" width="50" height="50" rx="7" fill="#E5E5E5"/>
<rect x="63" y="201" width="50" height="50" rx="7" fill="#E5E5E5"/>
<rect y="262" width="50" height="50" rx="7" fill="#E5E5E5"/>
<rect x="63" y="262" width="50" height="50" rx="7" fill="#E5E5E5"/>
<rect y="362" width="30" height="30" rx="3" fill="#E5E5E5"/>
<rect x="126" y="201" width="50" height="50" rx="7" fill="#E5E5E5"/>
<rect x="189" y="201" width="50" height="50" rx="7" fill="#E5E5E5"/>
<rect x="252" y="201" width="50" height="50" rx="7" fill="#E5E5E5"/>
<rect x="315" y="201" width="50" height="50" rx="7" fill="#E5E5E5"/>
<rect x="378" y="201" width="50" height="50" rx="7" fill="#E5E5E5"/>
<rect x="441" y="201" width="50" height="50" rx="7" fill="#E5E5E5"/>
<rect x="504" y="201" width="50" height="50" rx="7" fill="#E5E5E5"/>
<rect x="567" y="201" width="50" height="50" rx="7" fill="#E5E5E5"/>
<rect y="140" width="50" height="50" rx="7" fill="#E5E5E5"/>
<rect x="63" y="140" width="50" height="50" rx="7" fill="#E5E5E5"/>
<rect x="126" y="140" width="50" height="50" rx="7" fill="#E5E5E5"/>
<rect x="189" y="140" width="50" height="50" rx="7" fill="#E5E5E5"/>
<rect x="252" y="140" width="50" height="50" rx="7" fill="#E5E5E5"/>
<rect x="315" y="140" width="50" height="50" rx="7" fill="#E5E5E5"/>
<rect x="378" y="140" width="50" height="50" rx="7" fill="#E5E5E5"/>
<rect x="441" y="140" width="50" height="50" rx="7" fill="#E5E5E5"/>
<rect x="504" y="140" width="50" height="50" rx="7" fill="#E5E5E5"/>
<rect x="567" y="140" width="50" height="50" rx="7" fill="#E5E5E5"/>
<path d="M39.6479 378.286V377.065H46.3618V378.286H39.6479ZM39.6479 381.338V380.117H46.3618V381.338H39.6479ZM57.0186 368.789V385H58.8008V367.129H57.2261L54.2109 368.35L54.748 369.766L57.0186 368.789ZM65.6123 384.634C66.4098 385.081 67.3172 385.305 68.3345 385.305C69.3517 385.305 70.2591 385.081 71.0566 384.634C71.8542 384.186 72.5052 383.556 73.0098 382.742C73.5143 381.928 73.8968 380.968 74.1572 379.861C74.4176 378.746 74.5479 377.513 74.5479 376.162C74.5479 374.803 74.4176 373.558 74.1572 372.427C73.8968 371.296 73.5103 370.311 72.9976 369.473C72.493 368.626 71.842 367.971 71.0444 367.507C70.255 367.035 69.3517 366.799 68.3345 366.799C67.3172 366.799 66.4098 367.035 65.6123 367.507C64.8229 367.971 64.1719 368.626 63.6592 369.473C63.1546 370.311 62.7721 371.296 62.5117 372.427C62.2513 373.558 62.1211 374.803 62.1211 376.162C62.1211 377.513 62.2513 378.746 62.5117 379.861C62.7721 380.968 63.1546 381.928 63.6592 382.742C64.1637 383.556 64.8148 384.186 65.6123 384.634ZM65.9541 369.265C66.6133 368.573 67.4067 368.228 68.3345 368.228C69.2622 368.228 70.0557 368.573 70.7148 369.265C71.374 369.949 71.8623 370.881 72.1797 372.061C72.4971 373.241 72.6558 374.608 72.6558 376.162C72.6558 377.676 72.5011 379.002 72.1919 380.142C71.8908 381.273 71.4106 382.176 70.7515 382.852C70.0923 383.527 69.2866 383.865 68.3345 383.865C67.3823 383.865 66.5767 383.527 65.9175 382.852C65.2583 382.176 64.7741 381.273 64.4648 380.142C64.1637 379.002 64.0132 377.676 64.0132 376.162C64.0132 374.608 64.1719 373.241 64.4893 372.061C64.8066 370.881 65.2949 369.949 65.9541 369.265ZM80.8223 384.634C81.6198 385.081 82.5272 385.305 83.5444 385.305C84.5617 385.305 85.4691 385.081 86.2666 384.634C87.0641 384.186 87.7152 383.556 88.2197 382.742C88.7243 381.928 89.1068 380.968 89.3672 379.861C89.6276 378.746 89.7578 377.513 89.7578 376.162C89.7578 374.803 89.6276 373.558 89.3672 372.427C89.1068 371.296 88.7202 370.311 88.2075 369.473C87.703 368.626 87.0519 367.971 86.2544 367.507C85.465 367.035 84.5617 366.799 83.5444 366.799C82.5272 366.799 81.6198 367.035 80.8223 367.507C80.0329 367.971 79.3818 368.626 78.8691 369.473C78.3646 370.311 77.9821 371.296 77.7217 372.427C77.4613 373.558 77.3311 374.803 77.3311 376.162C77.3311 377.513 77.4613 378.746 77.7217 379.861C77.9821 380.968 78.3646 381.928 78.8691 382.742C79.3737 383.556 80.0247 384.186 80.8223 384.634ZM81.1641 369.265C81.8232 368.573 82.6167 368.228 83.5444 368.228C84.4722 368.228 85.2656 368.573 85.9248 369.265C86.584 369.949 87.0723 370.881 87.3896 372.061C87.707 373.241 87.8657 374.608 87.8657 376.162C87.8657 377.676 87.7111 379.002 87.4019 380.142C87.1007 381.273 86.6206 382.176 85.9614 382.852C85.3022 383.527 84.4966 383.865 83.5444 383.865C82.5923 383.865 81.7866 383.527 81.1274 382.852C80.4683 382.176 79.984 381.273 79.6748 380.142C79.3737 379.002 79.2231 377.676 79.2231 376.162C79.2231 374.608 79.3818 373.241 79.6992 372.061C80.0166 370.881 80.5049 369.949 81.1641 369.265ZM92.3701 382.327H94.8115V383.364C94.7708 384.609 94.6935 385.472 94.5796 385.952C94.3599 386.88 93.8797 387.596 93.1392 388.101L92.541 387.344C92.7607 387.173 92.9723 386.868 93.1758 386.428C93.3874 385.997 93.5013 385.456 93.5176 384.805L92.3701 384.646V382.327ZM101.477 384.634C102.274 385.081 103.181 385.305 104.199 385.305C105.216 385.305 106.123 385.081 106.921 384.634C107.718 384.186 108.369 383.556 108.874 382.742C109.379 381.928 109.761 380.968 110.021 379.861C110.282 378.746 110.412 377.513 110.412 376.162C110.412 374.803 110.282 373.558 110.021 372.427C109.761 371.296 109.375 370.311 108.862 369.473C108.357 368.626 107.706 367.971 106.909 367.507C106.119 367.035 105.216 366.799 104.199 366.799C103.181 366.799 102.274 367.035 101.477 367.507C100.687 367.971 100.036 368.626 99.5234 369.473C99.0189 370.311 98.6364 371.296 98.376 372.427C98.1156 373.558 97.9854 374.803 97.9854 376.162C97.9854 377.513 98.1156 378.746 98.376 379.861C98.6364 380.968 99.0189 381.928 99.5234 382.742C100.028 383.556 100.679 384.186 101.477 384.634ZM101.818 369.265C102.478 368.573 103.271 368.228 104.199 368.228C105.126 368.228 105.92 368.573 106.579 369.265C107.238 369.949 107.727 370.881 108.044 372.061C108.361 373.241 108.52 374.608 108.52 376.162C108.52 377.676 108.365 379.002 108.056 380.142C107.755 381.273 107.275 382.176 106.616 382.852C105.957 383.527 105.151 383.865 104.199 383.865C103.247 383.865 102.441 383.527 101.782 382.852C101.123 382.176 100.638 381.273 100.329 380.142C100.028 379.002 99.8774 377.676 99.8774 376.162C99.8774 374.608 100.036 373.241 100.354 372.061C100.671 370.881 101.159 369.949 101.818 369.265ZM116.687 384.634C117.484 385.081 118.391 385.305 119.409 385.305C120.426 385.305 121.333 385.081 122.131 384.634C122.928 384.186 123.579 383.556 124.084 382.742C124.589 381.928 124.971 380.968 125.231 379.861C125.492 378.746 125.622 377.513 125.622 376.162C125.622 374.803 125.492 373.558 125.231 372.427C124.971 371.296 124.584 370.311 124.072 369.473C123.567 368.626 122.916 367.971 122.119 367.507C121.329 367.035 120.426 366.799 119.409 366.799C118.391 366.799 117.484 367.035 116.687 367.507C115.897 367.971 115.246 368.626 114.733 369.473C114.229 370.311 113.846 371.296 113.586 372.427C113.326 373.558 113.195 374.803 113.195 376.162C113.195 377.513 113.326 378.746 113.586 379.861C113.846 380.968 114.229 381.928 114.733 382.742C115.238 383.556 115.889 384.186 116.687 384.634ZM117.028 369.265C117.688 368.573 118.481 368.228 119.409 368.228C120.336 368.228 121.13 368.573 121.789 369.265C122.448 369.949 122.937 370.881 123.254 372.061C123.571 373.241 123.73 374.608 123.73 376.162C123.73 377.676 123.575 379.002 123.266 380.142C122.965 381.273 122.485 382.176 121.826 382.852C121.167 383.527 120.361 383.865 119.409 383.865C118.457 383.865 117.651 383.527 116.992 382.852C116.333 382.176 115.848 381.273 115.539 380.142C115.238 379.002 115.087 377.676 115.087 376.162C115.087 374.608 115.246 373.241 115.563 372.061C115.881 370.881 116.369 369.949 117.028 369.265ZM131.896 384.634C132.694 385.081 133.601 385.305 134.619 385.305C135.636 385.305 136.543 385.081 137.341 384.634C138.138 384.186 138.789 383.556 139.294 382.742C139.799 381.928 140.181 380.968 140.441 379.861C140.702 378.746 140.832 377.513 140.832 376.162C140.832 374.803 140.702 373.558 140.441 372.427C140.181 371.296 139.794 370.311 139.282 369.473C138.777 368.626 138.126 367.971 137.329 367.507C136.539 367.035 135.636 366.799 134.619 366.799C133.601 366.799 132.694 367.035 131.896 367.507C131.107 367.971 130.456 368.626 129.943 369.473C129.439 370.311 129.056 371.296 128.796 372.427C128.535 373.558 128.405 374.803 128.405 376.162C128.405 377.513 128.535 378.746 128.796 379.861C129.056 380.968 129.439 381.928 129.943 382.742C130.448 383.556 131.099 384.186 131.896 384.634ZM132.238 369.265C132.897 368.573 133.691 368.228 134.619 368.228C135.546 368.228 136.34 368.573 136.999 369.265C137.658 369.949 138.146 370.881 138.464 372.061C138.781 373.241 138.94 374.608 138.94 376.162C138.94 377.676 138.785 379.002 138.476 380.142C138.175 381.273 137.695 382.176 137.036 382.852C136.376 383.527 135.571 383.865 134.619 383.865C133.667 383.865 132.861 383.527 132.202 382.852C131.542 382.176 131.058 381.273 130.749 380.142C130.448 379.002 130.297 377.676 130.297 376.162C130.297 374.608 130.456 373.241 130.773 372.061C131.091 370.881 131.579 369.949 132.238 369.265ZM148.815 378.896C148.815 376.838 149.23 375.218 150.061 374.038C150.891 372.85 152.071 372.256 153.601 372.256C155.464 372.256 156.726 372.992 157.385 374.465V367.007H159.13V385H157.739L157.507 382.9C157.189 383.633 156.681 384.215 155.981 384.646C155.289 385.077 154.512 385.293 153.649 385.293C152.152 385.293 150.972 384.711 150.109 383.547C149.247 382.375 148.815 380.825 148.815 378.896ZM153.869 384.011C154.235 384.011 154.565 383.983 154.858 383.926C155.151 383.861 155.468 383.726 155.81 383.523C156.152 383.311 156.437 383.031 156.665 382.681C156.892 382.323 157.08 381.822 157.226 381.179C157.381 380.536 157.458 379.779 157.458 378.909C157.458 377.851 157.34 376.931 157.104 376.15C156.876 375.369 156.486 374.738 155.932 374.258C155.379 373.77 154.683 373.525 153.845 373.525C152.811 373.525 152.01 374.018 151.44 375.002C150.87 375.979 150.585 377.293 150.585 378.945C150.585 380.426 150.878 381.643 151.464 382.595C152.05 383.539 152.852 384.011 153.869 384.011ZM167.224 372.256C168.07 372.256 168.815 372.406 169.458 372.708C170.109 373 170.629 373.416 171.02 373.953C171.411 374.482 171.704 375.096 171.899 375.796C172.094 376.496 172.192 377.269 172.192 378.115C172.192 378.392 172.18 378.636 172.155 378.848H163.623C163.623 379.556 163.692 380.215 163.83 380.825C163.968 381.427 164.176 381.973 164.453 382.461C164.737 382.941 165.12 383.319 165.6 383.596C166.088 383.873 166.65 384.011 167.285 384.011C168.107 384.011 168.782 383.824 169.311 383.45C169.84 383.067 170.214 382.534 170.434 381.851L171.777 382.144C171.59 382.835 171.26 383.425 170.788 383.914C170.316 384.394 169.787 384.744 169.201 384.963C168.615 385.175 167.993 385.285 167.333 385.293H167.285C166.365 385.293 165.547 385.114 164.831 384.756C164.123 384.398 163.553 383.914 163.122 383.303C162.699 382.685 162.382 381.993 162.17 381.228C161.958 380.455 161.853 379.629 161.853 378.75C161.853 376.805 162.325 375.238 163.269 374.05C164.221 372.854 165.539 372.256 167.224 372.256ZM170.52 377.712C170.511 376.378 170.235 375.344 169.689 374.612C169.144 373.879 168.306 373.513 167.175 373.513C166.63 373.513 166.141 373.623 165.71 373.843C165.279 374.062 164.921 374.368 164.636 374.758C164.359 375.149 164.139 375.592 163.977 376.089C163.814 376.585 163.708 377.126 163.659 377.712H170.52ZM182.385 382.327C180.977 383.515 179.626 384.109 178.332 384.109C176.786 384.109 176.013 383.328 176.013 381.765C176.013 381.464 176.057 381.2 176.147 380.972C176.236 380.744 176.387 380.544 176.599 380.374C176.818 380.194 177.054 380.044 177.307 379.922C177.559 379.792 177.905 379.674 178.344 379.568C178.784 379.454 179.207 379.36 179.614 379.287C180.021 379.206 180.546 379.116 181.188 379.019L182.385 378.835V382.327ZM182.69 385H184.118V376.785C184.118 373.765 182.588 372.256 179.528 372.256C177.437 372.256 175.891 372.891 174.89 374.16C175.581 374.811 175.927 375.141 175.927 375.149C176.334 374.644 176.843 374.258 177.453 373.989C178.072 373.721 178.731 373.586 179.431 373.586C180.505 373.586 181.266 373.843 181.713 374.355C182.161 374.86 182.385 375.792 182.385 377.151V377.664L181.176 377.847C180.468 377.952 179.939 378.038 179.589 378.103C179.239 378.16 178.776 378.254 178.198 378.384C177.62 378.506 177.185 378.628 176.892 378.75C176.607 378.864 176.273 379.027 175.891 379.238C175.508 379.442 175.227 379.67 175.048 379.922C174.869 380.166 174.711 380.467 174.572 380.825C174.442 381.175 174.377 381.57 174.377 382.009C174.377 383.051 174.723 383.861 175.415 384.438C176.114 385.008 176.985 385.293 178.027 385.293C179.606 385.293 181.091 384.723 182.482 383.584L182.69 385ZM192.98 383.474L193.273 384.609C192.663 385 191.947 385.195 191.125 385.195C190.051 385.195 189.27 384.87 188.781 384.219C188.301 383.56 188.061 382.498 188.061 381.033V373.721H186.193V372.512H188.171V368.521L189.794 368.069V372.512H192.529V373.721H189.794V381.814C189.794 383.197 190.356 383.889 191.479 383.889C191.853 383.889 192.354 383.751 192.98 383.474ZM200.939 373.525C200.337 373.525 199.8 373.627 199.328 373.831C198.864 374.034 198.482 374.307 198.181 374.648C197.88 374.982 197.631 375.393 197.436 375.881C197.241 376.361 197.102 376.866 197.021 377.395C196.948 377.924 196.911 378.494 196.911 379.104V385H195.178V367.019H196.911V372.146V374.478C197.863 372.996 199.292 372.256 201.196 372.256C201.749 372.256 202.246 372.321 202.685 372.451C203.133 372.573 203.503 372.736 203.796 372.939C204.097 373.143 204.357 373.399 204.577 373.708C204.797 374.018 204.968 374.327 205.09 374.636C205.212 374.945 205.31 375.304 205.383 375.71C205.456 376.109 205.501 376.471 205.517 376.797C205.542 377.122 205.554 377.485 205.554 377.883V385H203.82V377.749C203.82 376.357 203.605 375.308 203.173 374.6C202.75 373.883 202.006 373.525 200.939 373.525ZM217.309 374.673C216.52 375.12 216.125 375.348 216.125 375.356C215.848 374.722 215.462 374.266 214.965 373.989C214.469 373.704 213.814 373.562 213 373.562C211.991 373.562 211.226 373.745 210.705 374.111C210.184 374.478 209.924 375.019 209.924 375.735C209.924 376.02 209.977 376.272 210.083 376.492C210.196 376.711 210.339 376.895 210.51 377.041C210.689 377.179 210.929 377.31 211.23 377.432C211.531 377.546 211.82 377.635 212.097 377.7C212.382 377.765 212.736 377.839 213.159 377.92C214.575 378.18 215.637 378.587 216.345 379.141C217.061 379.686 217.419 380.475 217.419 381.509C217.419 382.738 217.008 383.678 216.186 384.329C215.364 384.972 214.127 385.293 212.475 385.293C211.979 385.293 211.499 385.24 211.035 385.134C210.579 385.037 210.135 384.878 209.704 384.658C209.281 384.43 208.907 384.113 208.581 383.706C208.256 383.291 208.015 382.807 207.861 382.253L209.179 381.716C209.472 382.514 209.879 383.092 210.4 383.45C210.921 383.808 211.665 383.987 212.634 383.987C214.774 383.987 215.844 383.271 215.844 381.838C215.844 381.057 215.6 380.508 215.112 380.19C214.624 379.865 213.594 379.539 212.023 379.214C211.551 379.116 211.153 379.019 210.827 378.921C210.51 378.815 210.176 378.673 209.826 378.494C209.484 378.315 209.208 378.111 208.996 377.883C208.793 377.647 208.622 377.346 208.483 376.98C208.353 376.614 208.288 376.191 208.288 375.71C208.288 374.612 208.711 373.761 209.558 373.159C210.412 372.557 211.527 372.256 212.902 372.256C214.009 372.256 214.912 372.439 215.612 372.805C216.312 373.171 216.878 373.794 217.309 374.673Z" fill="black"/>
<path d="M569.107 370.502L569.469 371.527C567.027 372.217 565.807 374.753 565.807 379.135C565.807 383.536 567.027 386.062 569.469 386.713L569.107 387.758C567.617 387.4 566.448 386.508 565.602 385.082C564.755 383.656 564.332 381.674 564.332 379.135C564.332 376.596 564.755 374.61 565.602 373.178C566.454 371.745 567.623 370.854 569.107 370.502ZM571.686 375.365C572.519 373.536 573.785 372.621 575.484 372.621C576.311 372.621 577.014 372.891 577.594 373.432C578.18 373.965 578.473 374.698 578.473 375.629C578.473 376.202 578.336 376.755 578.062 377.289C577.789 377.816 577.431 378.298 576.988 378.734C576.546 379.164 576.057 379.59 575.523 380.014C574.99 380.43 574.452 380.857 573.912 381.293C573.378 381.729 572.887 382.175 572.438 382.631C571.988 383.08 571.617 383.598 571.324 384.184C571.031 384.763 570.875 385.368 570.855 386H579.83V384.818H572.613C572.822 384.402 573.121 383.982 573.512 383.559C573.909 383.129 574.329 382.735 574.771 382.377C575.221 382.012 575.693 381.638 576.188 381.254C576.689 380.87 577.164 380.476 577.613 380.072C578.062 379.669 578.469 379.249 578.834 378.812C579.199 378.37 579.488 377.878 579.703 377.338C579.924 376.798 580.035 376.234 580.035 375.648C580.035 374.932 579.905 374.298 579.645 373.744C579.391 373.191 579.042 372.751 578.6 372.426C578.157 372.094 577.662 371.846 577.115 371.684C576.568 371.514 575.986 371.43 575.367 371.43C574.247 371.43 573.277 371.706 572.457 372.26C571.637 372.807 570.96 373.673 570.426 374.857L571.686 375.365ZM584.898 385.707C585.536 386.065 586.262 386.244 587.076 386.244C587.89 386.244 588.616 386.065 589.254 385.707C589.892 385.349 590.413 384.844 590.816 384.193C591.22 383.542 591.526 382.774 591.734 381.889C591.943 380.997 592.047 380.01 592.047 378.93C592.047 377.842 591.943 376.846 591.734 375.941C591.526 375.036 591.217 374.249 590.807 373.578C590.403 372.901 589.882 372.377 589.244 372.006C588.613 371.628 587.89 371.439 587.076 371.439C586.262 371.439 585.536 371.628 584.898 372.006C584.267 372.377 583.746 372.901 583.336 373.578C582.932 374.249 582.626 375.036 582.418 375.941C582.21 376.846 582.105 377.842 582.105 378.93C582.105 380.01 582.21 380.997 582.418 381.889C582.626 382.774 582.932 383.542 583.336 384.193C583.74 384.844 584.26 385.349 584.898 385.707ZM585.172 373.412C585.699 372.859 586.334 372.582 587.076 372.582C587.818 372.582 588.453 372.859 588.98 373.412C589.508 373.959 589.898 374.704 590.152 375.648C590.406 376.592 590.533 377.686 590.533 378.93C590.533 380.141 590.41 381.202 590.162 382.113C589.921 383.018 589.537 383.741 589.01 384.281C588.482 384.822 587.838 385.092 587.076 385.092C586.314 385.092 585.67 384.822 585.143 384.281C584.615 383.741 584.228 383.018 583.98 382.113C583.74 381.202 583.619 380.141 583.619 378.93C583.619 377.686 583.746 376.592 584 375.648C584.254 374.704 584.645 373.959 585.172 373.412ZM595.973 373.031V386H597.398V371.703H596.139L593.727 372.68L594.156 373.812L595.973 373.031ZM607.848 379.721C607.516 379.968 607.177 380.176 606.832 380.346C606.493 380.515 606.145 380.645 605.787 380.736C605.429 380.827 605.071 380.873 604.713 380.873C604.088 380.873 603.499 380.775 602.945 380.58C602.398 380.385 601.91 380.105 601.48 379.74C601.057 379.376 600.722 378.904 600.475 378.324C600.227 377.738 600.104 377.084 600.104 376.361C600.104 375.945 600.143 375.541 600.221 375.15C600.299 374.753 600.413 374.369 600.562 373.998C600.719 373.627 600.924 373.288 601.178 372.982C601.432 372.67 601.721 372.4 602.047 372.172C602.379 371.938 602.766 371.755 603.209 371.625C603.658 371.495 604.146 371.43 604.674 371.43C606.288 371.43 607.483 372.025 608.258 373.217C609.033 374.402 609.42 376.153 609.42 378.471C609.42 379.708 609.296 380.818 609.049 381.801C608.801 382.777 608.453 383.585 608.004 384.223C607.561 384.861 607.031 385.349 606.412 385.688C605.794 386.02 605.11 386.186 604.361 386.186C603.378 386.186 602.311 385.88 601.158 385.268L601.559 384.184C602.594 384.75 603.512 385.033 604.312 385.033C605.335 385.033 606.152 384.584 606.764 383.686C607.382 382.787 607.743 381.465 607.848 379.721ZM607.906 378.451C607.913 378.295 607.916 377.999 607.916 377.562C607.916 377.126 607.893 376.716 607.848 376.332C607.809 375.941 607.74 375.554 607.643 375.17C607.545 374.786 607.408 374.444 607.232 374.145C607.063 373.839 606.858 373.568 606.617 373.334C606.383 373.093 606.09 372.908 605.738 372.777C605.393 372.647 605.009 372.582 604.586 372.582C604.176 372.582 603.788 372.667 603.424 372.836C603.066 373.005 602.747 373.246 602.467 373.559C602.193 373.871 601.975 374.268 601.812 374.75C601.656 375.225 601.578 375.749 601.578 376.322C601.578 376.921 601.66 377.445 601.822 377.895C601.985 378.337 602.213 378.689 602.506 378.949C602.799 379.21 603.131 379.402 603.502 379.525C603.873 379.649 604.283 379.711 604.732 379.711C605.234 379.711 605.764 379.597 606.324 379.369C606.884 379.141 607.411 378.835 607.906 378.451ZM611.412 387.758L611.051 386.732C613.492 386.042 614.713 383.507 614.713 379.125C614.713 374.724 613.492 372.198 611.051 371.547L611.412 370.502C612.903 370.86 614.072 371.752 614.918 373.178C615.764 374.604 616.188 376.586 616.188 379.125C616.188 381.664 615.761 383.65 614.908 385.082C614.062 386.514 612.896 387.406 611.412 387.758Z" fill="black"/>
<path d="M4.175 25.175C3.225 25.175 2.41667 24.9083 1.75 24.375C1.1 23.825 0.775 22.9917 0.775 21.875C0.775 20.9583 1.01667 20.2583 1.5 19.775C2 19.275 2.68333 18.9333 3.55 18.75C4.43333 18.55 5.45 18.45 6.6 18.45H7.875V17.875C7.875 17.325 7.775 16.7917 7.575 16.275C7.39167 15.7417 7.08333 15.3083 6.65 14.975C6.23333 14.625 5.65833 14.45 4.925 14.45C4.375 14.45 3.925 14.5083 3.575 14.625C3.225 14.7417 2.95 14.8667 2.75 15C2.55 15.1167 2.38333 15.175 2.25 15.175C2.05 15.175 1.88333 15.075 1.75 14.875C1.63333 14.675 1.575 14.4917 1.575 14.325C1.575 14.0917 1.75 13.8833 2.1 13.7C2.45 13.5 2.88333 13.3417 3.4 13.225C3.93333 13.0917 4.45833 13.025 4.975 13.025C6.09167 13.025 6.975 13.2583 7.625 13.725C8.29167 14.175 8.76667 14.7667 9.05 15.5C9.35 16.2333 9.5 17.0167 9.5 17.85V24.35C9.5 24.5333 9.425 24.6917 9.275 24.825C9.14167 24.9417 8.95 25 8.7 25C8.5 25 8.31667 24.9417 8.15 24.825C8 24.6917 7.925 24.5333 7.925 24.35V23.25C7.50833 23.75 6.99167 24.2 6.375 24.6C5.75833 24.9833 5.025 25.175 4.175 25.175ZM4.575 23.8C5.125 23.8 5.65 23.6583 6.15 23.375C6.65 23.0917 7.05833 22.75 7.375 22.35C7.70833 21.9333 7.875 21.5417 7.875 21.175V19.575H6.825C6.075 19.575 5.35833 19.625 4.675 19.725C4.00833 19.8083 3.45833 20 3.025 20.3C2.60833 20.6 2.4 21.075 2.4 21.725C2.4 22.4417 2.60833 22.9667 3.025 23.3C3.45833 23.6333 3.975 23.8 4.575 23.8ZM13.3369 9.675C13.0369 9.675 12.7702 9.575 12.5369 9.375C12.3202 9.15833 12.2119 8.90833 12.2119 8.625C12.2119 8.34167 12.3202 8.1 12.5369 7.9C12.7702 7.7 13.0369 7.6 13.3369 7.6C13.6369 7.6 13.8952 7.7 14.1119 7.9C14.3286 8.1 14.4369 8.34167 14.4369 8.625C14.4369 8.90833 14.3286 9.15833 14.1119 9.375C13.8952 9.575 13.6369 9.675 13.3369 9.675ZM13.3119 25C13.0952 25 12.9036 24.9333 12.7369 24.8C12.5869 24.6667 12.5119 24.5167 12.5119 24.35V13.8C12.5119 13.6 12.5869 13.45 12.7369 13.35C12.9036 13.2333 13.0952 13.175 13.3119 13.175C13.5452 13.175 13.7369 13.2333 13.8869 13.35C14.0536 13.45 14.1369 13.6 14.1369 13.8V24.35C14.1369 24.5167 14.0536 24.6667 13.8869 24.8C13.7369 24.9333 13.5452 25 13.3119 25ZM18.0482 25C17.8316 25 17.6399 24.9333 17.4732 24.8C17.3232 24.6667 17.2482 24.5167 17.2482 24.35V13.8C17.2482 13.6 17.3232 13.45 17.4732 13.35C17.6399 13.2333 17.8316 13.175 18.0482 13.175C18.2649 13.175 18.4482 13.2333 18.5982 13.35C18.7482 13.45 18.8232 13.6 18.8232 13.8V15.025C19.0066 14.675 19.2566 14.35 19.5732 14.05C19.8899 13.75 20.2649 13.5083 20.6982 13.325C21.1316 13.125 21.6232 13.025 22.1732 13.025H23.0482C23.2316 13.025 23.3816 13.1 23.4982 13.25C23.6316 13.4 23.6982 13.575 23.6982 13.775C23.6982 13.9917 23.6316 14.175 23.4982 14.325C23.3816 14.4583 23.2316 14.525 23.0482 14.525H22.1732C21.6232 14.525 21.0899 14.675 20.5732 14.975C20.0732 15.275 19.6649 15.6917 19.3482 16.225C19.0316 16.7583 18.8732 17.4083 18.8732 18.175V24.35C18.8732 24.5167 18.7899 24.6667 18.6232 24.8C18.4732 24.9333 18.2816 25 18.0482 25ZM31.3301 30.8C31.1134 30.8 30.9217 30.7333 30.7551 30.6C30.6051 30.4667 30.5301 30.3167 30.5301 30.15V13.8C30.5301 13.6 30.6051 13.45 30.7551 13.35C30.9217 13.2333 31.1134 13.175 31.3301 13.175C31.5467 13.175 31.7301 13.2333 31.8801 13.35C32.0301 13.45 32.1051 13.6 32.1051 13.8V14.925C32.3884 14.4417 32.8134 14.0083 33.3801 13.625C33.9467 13.225 34.6384 13.025 35.4551 13.025C36.2884 13.025 37.0384 13.2417 37.7051 13.675C38.3884 14.0917 38.9301 14.6583 39.3301 15.375C39.7467 16.075 39.9551 16.8583 39.9551 17.725V20.425C39.9551 21.2417 39.7467 22.0167 39.3301 22.75C38.9301 23.4833 38.3967 24.075 37.7301 24.525C37.0634 24.9583 36.3301 25.175 35.5301 25.175C34.7634 25.175 34.0801 24.9833 33.4801 24.6C32.8801 24.2167 32.4384 23.7667 32.1551 23.25V30.15C32.1551 30.3167 32.0717 30.4667 31.9051 30.6C31.7551 30.7333 31.5634 30.8 31.3301 30.8ZM35.2301 23.675C35.7801 23.675 36.2884 23.525 36.7551 23.225C37.2217 22.9083 37.5967 22.5 37.8801 22C38.1801 21.5 38.3301 20.975 38.3301 20.425V17.725C38.3301 17.175 38.1801 16.6583 37.8801 16.175C37.5967 15.6917 37.2217 15.3 36.7551 15C36.2884 14.6833 35.7634 14.525 35.1801 14.525C34.6801 14.525 34.1967 14.6583 33.7301 14.925C33.2801 15.175 32.9051 15.5333 32.6051 16C32.3051 16.4667 32.1551 17.0417 32.1551 17.725V21.2C32.1551 21.45 32.2884 21.775 32.5551 22.175C32.8217 22.5583 33.1884 22.9083 33.6551 23.225C34.1217 23.525 34.6467 23.675 35.2301 23.675ZM46.9145 25.175C46.0645 25.175 45.2811 24.9583 44.5645 24.525C43.8478 24.075 43.2645 23.4917 42.8145 22.775C42.3811 22.0417 42.1645 21.2583 42.1645 20.425V17.725C42.1645 16.875 42.3728 16.1 42.7895 15.4C43.2228 14.6833 43.7978 14.1083 44.5145 13.675C45.2478 13.2417 46.0478 13.025 46.9145 13.025C47.7645 13.025 48.5478 13.2417 49.2645 13.675C49.9978 14.0917 50.5811 14.65 51.0145 15.35C51.4478 16.05 51.6645 16.8417 51.6645 17.725V20.425C51.6645 21.2417 51.4478 22.0167 51.0145 22.75C50.5811 23.4833 49.9978 24.075 49.2645 24.525C48.5478 24.9583 47.7645 25.175 46.9145 25.175ZM46.9145 23.675C47.4978 23.675 48.0228 23.525 48.4895 23.225C48.9561 22.9083 49.3311 22.5 49.6145 22C49.8978 21.5 50.0395 20.975 50.0395 20.425V17.725C50.0395 17.175 49.8978 16.6583 49.6145 16.175C49.3478 15.6917 48.9728 15.3 48.4895 15C48.0228 14.6833 47.4978 14.525 46.9145 14.525C46.3311 14.525 45.8061 14.6833 45.3395 15C44.8728 15.3 44.4978 15.6917 44.2145 16.175C43.9311 16.6583 43.7895 17.175 43.7895 17.725V20.425C43.7895 20.975 43.9311 21.5 44.2145 22C44.4978 22.5 44.8728 22.9083 45.3395 23.225C45.8228 23.525 46.3478 23.675 46.9145 23.675ZM55.3582 25C55.1415 25 54.9499 24.9333 54.7832 24.8C54.6332 24.6667 54.5582 24.5167 54.5582 24.35V6.55C54.5582 6.35 54.6332 6.2 54.7832 6.1C54.9499 5.98333 55.1415 5.925 55.3582 5.925C55.5915 5.925 55.7832 5.98333 55.9332 6.1C56.0999 6.2 56.1832 6.35 56.1832 6.55V24.35C56.1832 24.5167 56.0999 24.6667 55.9332 24.8C55.7832 24.9333 55.5915 25 55.3582 25ZM60.5584 25C60.3417 25 60.1501 24.9333 59.9834 24.8C59.8334 24.6667 59.7584 24.5167 59.7584 24.35V6.55C59.7584 6.35 59.8334 6.2 59.9834 6.1C60.1501 5.98333 60.3417 5.925 60.5584 5.925C60.7917 5.925 60.9834 5.98333 61.1334 6.1C61.3001 6.2 61.3834 6.35 61.3834 6.55V24.35C61.3834 24.5167 61.3001 24.6667 61.1334 24.8C60.9834 24.9333 60.7917 25 60.5584 25ZM69.4086 25.175C68.5253 25.175 67.7169 24.9583 66.9836 24.525C66.2669 24.0917 65.6919 23.5167 65.2586 22.8C64.8419 22.0667 64.6336 21.2917 64.6336 20.475V13.825C64.6336 13.6583 64.7169 13.5083 64.8836 13.375C65.0503 13.2417 65.2419 13.175 65.4586 13.175C65.6753 13.175 65.8586 13.2417 66.0086 13.375C66.1753 13.5083 66.2586 13.6583 66.2586 13.825V20.475C66.2586 21.025 66.4003 21.5417 66.6836 22.025C66.9669 22.5083 67.3419 22.9083 67.8086 23.225C68.2753 23.525 68.8003 23.675 69.3836 23.675C69.9836 23.675 70.5169 23.525 70.9836 23.225C71.4503 22.925 71.8169 22.5333 72.0836 22.05C72.3669 21.55 72.5086 21.025 72.5086 20.475V13.8C72.5086 13.6167 72.5919 13.4667 72.7586 13.35C72.9253 13.2333 73.1169 13.175 73.3336 13.175C73.5836 13.175 73.7753 13.2333 73.9086 13.35C74.0586 13.4667 74.1336 13.6167 74.1336 13.8V20.475C74.1336 21.325 73.9169 22.1083 73.4836 22.825C73.0669 23.525 72.4919 24.0917 71.7586 24.525C71.0419 24.9583 70.2586 25.175 69.4086 25.175ZM81.0609 25C79.7776 25 78.7943 24.7083 78.1109 24.125C77.4276 23.5417 77.0859 22.6083 77.0859 21.325V8.175C77.0859 7.975 77.1693 7.825 77.3359 7.725C77.5193 7.60833 77.7026 7.55 77.8859 7.55C78.1026 7.55 78.2943 7.60833 78.4609 7.725C78.6276 7.825 78.7109 7.975 78.7109 8.175V13.175H81.9609C82.1276 13.175 82.2609 13.2417 82.3609 13.375C82.4609 13.5083 82.5109 13.6667 82.5109 13.85C82.5109 14.0333 82.4609 14.1917 82.3609 14.325C82.2609 14.4583 82.1276 14.525 81.9609 14.525H78.7109V21.325C78.7109 22.1417 78.8859 22.7167 79.2359 23.05C79.5859 23.3667 80.1943 23.525 81.0609 23.525H81.7609C81.9943 23.525 82.1693 23.6 82.2859 23.75C82.4193 23.8833 82.4859 24.05 82.4859 24.25C82.4859 24.45 82.4193 24.625 82.2859 24.775C82.1693 24.925 81.9943 25 81.7609 25H81.0609ZM85.334 9.675C85.034 9.675 84.7673 9.575 84.534 9.375C84.3173 9.15833 84.209 8.90833 84.209 8.625C84.209 8.34167 84.3173 8.1 84.534 7.9C84.7673 7.7 85.034 7.6 85.334 7.6C85.634 7.6 85.8923 7.7 86.109 7.9C86.3257 8.1 86.434 8.34167 86.434 8.625C86.434 8.90833 86.3257 9.15833 86.109 9.375C85.8923 9.575 85.634 9.675 85.334 9.675ZM85.309 25C85.0923 25 84.9007 24.9333 84.734 24.8C84.584 24.6667 84.509 24.5167 84.509 24.35V13.8C84.509 13.6 84.584 13.45 84.734 13.35C84.9007 13.2333 85.0923 13.175 85.309 13.175C85.5423 13.175 85.734 13.2333 85.884 13.35C86.0507 13.45 86.134 13.6 86.134 13.8V24.35C86.134 24.5167 86.0507 24.6667 85.884 24.8C85.734 24.9333 85.5423 25 85.309 25ZM93.5453 25.175C92.6953 25.175 91.912 24.9583 91.1953 24.525C90.4786 24.075 89.8953 23.4917 89.4453 22.775C89.012 22.0417 88.7953 21.2583 88.7953 20.425V17.725C88.7953 16.875 89.0036 16.1 89.4203 15.4C89.8536 14.6833 90.4286 14.1083 91.1453 13.675C91.8786 13.2417 92.6786 13.025 93.5453 13.025C94.3953 13.025 95.1786 13.2417 95.8953 13.675C96.6286 14.0917 97.212 14.65 97.6453 15.35C98.0786 16.05 98.2953 16.8417 98.2953 17.725V20.425C98.2953 21.2417 98.0786 22.0167 97.6453 22.75C97.212 23.4833 96.6286 24.075 95.8953 24.525C95.1786 24.9583 94.3953 25.175 93.5453 25.175ZM93.5453 23.675C94.1286 23.675 94.6536 23.525 95.1203 23.225C95.587 22.9083 95.962 22.5 96.2453 22C96.5286 21.5 96.6703 20.975 96.6703 20.425V17.725C96.6703 17.175 96.5286 16.6583 96.2453 16.175C95.9786 15.6917 95.6036 15.3 95.1203 15C94.6536 14.6833 94.1286 14.525 93.5453 14.525C92.962 14.525 92.437 14.6833 91.9703 15C91.5036 15.3 91.1286 15.6917 90.8453 16.175C90.562 16.6583 90.4203 17.175 90.4203 17.725V20.425C90.4203 20.975 90.562 21.5 90.8453 22C91.1286 22.5 91.5036 22.9083 91.9703 23.225C92.4536 23.525 92.9786 23.675 93.5453 23.675ZM101.764 25C101.547 25 101.356 24.9333 101.189 24.8C101.039 24.6667 100.964 24.5167 100.964 24.35V13.8C100.964 13.6 101.039 13.45 101.189 13.35C101.356 13.2333 101.547 13.175 101.764 13.175C101.981 13.175 102.164 13.2333 102.314 13.35C102.464 13.45 102.539 13.6 102.539 13.8V14.925C102.806 14.4417 103.222 14.0083 103.789 13.625C104.356 13.225 105.056 13.025 105.889 13.025C106.689 13.025 107.422 13.2417 108.089 13.675C108.772 14.0917 109.314 14.6583 109.714 15.375C110.114 16.075 110.314 16.8583 110.314 17.725V24.35C110.314 24.5667 110.231 24.7333 110.064 24.85C109.897 24.95 109.706 25 109.489 25C109.306 25 109.122 24.95 108.939 24.85C108.772 24.7333 108.689 24.5667 108.689 24.35V17.725C108.689 17.175 108.547 16.6583 108.264 16.175C107.981 15.6917 107.606 15.3 107.139 15C106.672 14.6833 106.156 14.525 105.589 14.525C105.089 14.525 104.606 14.6583 104.139 14.925C103.689 15.175 103.314 15.5333 103.014 16C102.731 16.4667 102.589 17.0417 102.589 17.725V24.35C102.589 24.5167 102.506 24.6667 102.339 24.8C102.189 24.9333 101.997 25 101.764 25ZM122.772 25.175C121.672 25.175 120.764 24.9667 120.047 24.55C119.331 24.1333 118.797 23.5667 118.447 22.85C118.097 22.1333 117.922 21.325 117.922 20.425V17.775C117.922 16.875 118.089 16.0667 118.422 15.35C118.772 14.6333 119.306 14.0667 120.022 13.65C120.756 13.2333 121.672 13.025 122.772 13.025C123.472 13.025 124.081 13.1167 124.597 13.3C125.131 13.4667 125.539 13.675 125.822 13.925C126.122 14.175 126.272 14.4167 126.272 14.65C126.272 14.7667 126.239 14.8917 126.172 15.025C126.122 15.1417 126.039 15.2417 125.922 15.325C125.822 15.4083 125.706 15.45 125.572 15.45C125.422 15.45 125.247 15.375 125.047 15.225C124.864 15.0583 124.606 14.9 124.272 14.75C123.939 14.6 123.464 14.525 122.847 14.525C121.764 14.525 120.939 14.8167 120.372 15.4C119.822 15.9667 119.547 16.7583 119.547 17.775V20.425C119.547 21.4417 119.822 22.2417 120.372 22.825C120.939 23.3917 121.772 23.675 122.872 23.675C123.506 23.675 123.997 23.6 124.347 23.45C124.697 23.2833 124.964 23.125 125.147 22.975C125.347 22.8083 125.531 22.725 125.697 22.725C125.847 22.725 125.972 22.7667 126.072 22.85C126.189 22.9333 126.272 23.0333 126.322 23.15C126.389 23.2667 126.422 23.3917 126.422 23.525C126.422 23.7417 126.272 23.9833 125.972 24.25C125.672 24.5 125.247 24.7167 124.697 24.9C124.164 25.0833 123.522 25.175 122.772 25.175ZM132.779 25.175C131.929 25.175 131.145 24.9583 130.429 24.525C129.712 24.075 129.129 23.4917 128.679 22.775C128.245 22.0417 128.029 21.2583 128.029 20.425V17.725C128.029 16.875 128.237 16.1 128.654 15.4C129.087 14.6833 129.662 14.1083 130.379 13.675C131.112 13.2417 131.912 13.025 132.779 13.025C133.629 13.025 134.412 13.2417 135.129 13.675C135.862 14.0917 136.445 14.65 136.879 15.35C137.312 16.05 137.529 16.8417 137.529 17.725V20.425C137.529 21.2417 137.312 22.0167 136.879 22.75C136.445 23.4833 135.862 24.075 135.129 24.525C134.412 24.9583 133.629 25.175 132.779 25.175ZM132.779 23.675C133.362 23.675 133.887 23.525 134.354 23.225C134.82 22.9083 135.195 22.5 135.479 22C135.762 21.5 135.904 20.975 135.904 20.425V17.725C135.904 17.175 135.762 16.6583 135.479 16.175C135.212 15.6917 134.837 15.3 134.354 15C133.887 14.6833 133.362 14.525 132.779 14.525C132.195 14.525 131.67 14.6833 131.204 15C130.737 15.3 130.362 15.6917 130.079 16.175C129.795 16.6583 129.654 17.175 129.654 17.725V20.425C129.654 20.975 129.795 21.5 130.079 22C130.362 22.5 130.737 22.9083 131.204 23.225C131.687 23.525 132.212 23.675 132.779 23.675ZM140.997 25C140.781 25 140.589 24.9333 140.422 24.8C140.272 24.6667 140.197 24.5167 140.197 24.35V13.8C140.197 13.6 140.272 13.45 140.422 13.35C140.589 13.2333 140.781 13.175 140.997 13.175C141.214 13.175 141.397 13.2333 141.547 13.35C141.697 13.45 141.772 13.6 141.772 13.8V14.925C142.039 14.4417 142.456 14.0083 143.022 13.625C143.589 13.225 144.289 13.025 145.122 13.025C145.922 13.025 146.656 13.2417 147.322 13.675C148.006 14.0917 148.547 14.6583 148.947 15.375C149.347 16.075 149.547 16.8583 149.547 17.725V24.35C149.547 24.5667 149.464 24.7333 149.297 24.85C149.131 24.95 148.939 25 148.722 25C148.539 25 148.356 24.95 148.172 24.85C148.006 24.7333 147.922 24.5667 147.922 24.35V17.725C147.922 17.175 147.781 16.6583 147.497 16.175C147.214 15.6917 146.839 15.3 146.372 15C145.906 14.6833 145.389 14.525 144.822 14.525C144.322 14.525 143.839 14.6583 143.372 14.925C142.922 15.175 142.547 15.5333 142.247 16C141.964 16.4667 141.822 17.0417 141.822 17.725V24.35C141.822 24.5167 141.739 24.6667 141.572 24.8C141.422 24.9333 141.231 25 140.997 25ZM156.476 25C155.193 25 154.209 24.7083 153.526 24.125C152.843 23.5417 152.501 22.6083 152.501 21.325V8.175C152.501 7.975 152.584 7.825 152.751 7.725C152.934 7.60833 153.118 7.55 153.301 7.55C153.518 7.55 153.709 7.60833 153.876 7.725C154.043 7.825 154.126 7.975 154.126 8.175V13.175H157.376C157.543 13.175 157.676 13.2417 157.776 13.375C157.876 13.5083 157.926 13.6667 157.926 13.85C157.926 14.0333 157.876 14.1917 157.776 14.325C157.676 14.4583 157.543 14.525 157.376 14.525H154.126V21.325C154.126 22.1417 154.301 22.7167 154.651 23.05C155.001 23.3667 155.609 23.525 156.476 23.525H157.176C157.409 23.525 157.584 23.6 157.701 23.75C157.834 23.8833 157.901 24.05 157.901 24.25C157.901 24.45 157.834 24.625 157.701 24.775C157.584 24.925 157.409 25 157.176 25H156.476ZM160.724 25C160.507 25 160.316 24.9333 160.149 24.8C159.999 24.6667 159.924 24.5167 159.924 24.35V13.8C159.924 13.6 159.999 13.45 160.149 13.35C160.316 13.2333 160.507 13.175 160.724 13.175C160.941 13.175 161.124 13.2333 161.274 13.35C161.424 13.45 161.499 13.6 161.499 13.8V15.025C161.682 14.675 161.932 14.35 162.249 14.05C162.566 13.75 162.941 13.5083 163.374 13.325C163.807 13.125 164.299 13.025 164.849 13.025H165.724C165.907 13.025 166.057 13.1 166.174 13.25C166.307 13.4 166.374 13.575 166.374 13.775C166.374 13.9917 166.307 14.175 166.174 14.325C166.057 14.4583 165.907 14.525 165.724 14.525H164.849C164.299 14.525 163.766 14.675 163.249 14.975C162.749 15.275 162.341 15.6917 162.024 16.225C161.707 16.7583 161.549 17.4083 161.549 18.175V24.35C161.549 24.5167 161.466 24.6667 161.299 24.8C161.149 24.9333 160.957 25 160.724 25ZM169.001 9.675C168.701 9.675 168.434 9.575 168.201 9.375C167.984 9.15833 167.876 8.90833 167.876 8.625C167.876 8.34167 167.984 8.1 168.201 7.9C168.434 7.7 168.701 7.6 169.001 7.6C169.301 7.6 169.559 7.7 169.776 7.9C169.993 8.1 170.101 8.34167 170.101 8.625C170.101 8.90833 169.993 9.15833 169.776 9.375C169.559 9.575 169.301 9.675 169.001 9.675ZM168.976 25C168.759 25 168.568 24.9333 168.401 24.8C168.251 24.6667 168.176 24.5167 168.176 24.35V13.8C168.176 13.6 168.251 13.45 168.401 13.35C168.568 13.2333 168.759 13.175 168.976 13.175C169.209 13.175 169.401 13.2333 169.551 13.35C169.718 13.45 169.801 13.6 169.801 13.8V24.35C169.801 24.5167 169.718 24.6667 169.551 24.8C169.401 24.9333 169.209 25 168.976 25ZM177.937 25.175C177.154 25.175 176.454 24.9833 175.837 24.6C175.221 24.2167 174.779 23.7667 174.512 23.25V24.35C174.512 24.5167 174.437 24.6667 174.287 24.8C174.137 24.9333 173.954 25 173.737 25C173.521 25 173.329 24.9333 173.162 24.8C173.012 24.6667 172.937 24.5167 172.937 24.35V6.55C172.937 6.35 173.012 6.2 173.162 6.1C173.329 5.98333 173.521 5.925 173.737 5.925C173.971 5.925 174.162 5.98333 174.312 6.1C174.479 6.2 174.562 6.35 174.562 6.55V14.925C174.846 14.4417 175.262 14.0083 175.812 13.625C176.379 13.225 177.071 13.025 177.887 13.025C178.704 13.025 179.446 13.2417 180.112 13.675C180.796 14.0917 181.337 14.6583 181.737 15.375C182.154 16.075 182.362 16.8583 182.362 17.725V20.425C182.362 21.2417 182.154 22.0167 181.737 22.75C181.337 23.4833 180.804 24.075 180.137 24.525C179.471 24.9583 178.737 25.175 177.937 25.175ZM177.637 23.675C178.204 23.675 178.721 23.525 179.187 23.225C179.654 22.9083 180.029 22.5 180.312 22C180.596 21.5 180.737 20.975 180.737 20.425V17.725C180.737 17.175 180.596 16.6583 180.312 16.175C180.029 15.6917 179.654 15.3 179.187 15C178.721 14.6833 178.196 14.525 177.612 14.525C177.112 14.525 176.629 14.6583 176.162 14.925C175.696 15.175 175.312 15.5333 175.012 16C174.712 16.4667 174.562 17.0417 174.562 17.725V21.2C174.562 21.45 174.696 21.775 174.962 22.175C175.246 22.5583 175.621 22.9083 176.087 23.225C176.554 23.525 177.071 23.675 177.637 23.675ZM189.697 25.175C188.813 25.175 188.005 24.9583 187.272 24.525C186.555 24.0917 185.98 23.5167 185.547 22.8C185.13 22.0667 184.922 21.2917 184.922 20.475V13.825C184.922 13.6583 185.005 13.5083 185.172 13.375C185.338 13.2417 185.53 13.175 185.747 13.175C185.963 13.175 186.147 13.2417 186.297 13.375C186.463 13.5083 186.547 13.6583 186.547 13.825V20.475C186.547 21.025 186.688 21.5417 186.972 22.025C187.255 22.5083 187.63 22.9083 188.097 23.225C188.563 23.525 189.088 23.675 189.672 23.675C190.272 23.675 190.805 23.525 191.272 23.225C191.738 22.925 192.105 22.5333 192.372 22.05C192.655 21.55 192.797 21.025 192.797 20.475V13.8C192.797 13.6167 192.88 13.4667 193.047 13.35C193.213 13.2333 193.405 13.175 193.622 13.175C193.872 13.175 194.063 13.2333 194.197 13.35C194.347 13.4667 194.422 13.6167 194.422 13.8V20.475C194.422 21.325 194.205 22.1083 193.772 22.825C193.355 23.525 192.78 24.0917 192.047 24.525C191.33 24.9583 190.547 25.175 189.697 25.175ZM201.349 25C200.066 25 199.082 24.7083 198.399 24.125C197.716 23.5417 197.374 22.6083 197.374 21.325V8.175C197.374 7.975 197.457 7.825 197.624 7.725C197.807 7.60833 197.991 7.55 198.174 7.55C198.391 7.55 198.582 7.60833 198.749 7.725C198.916 7.825 198.999 7.975 198.999 8.175V13.175H202.249C202.416 13.175 202.549 13.2417 202.649 13.375C202.749 13.5083 202.799 13.6667 202.799 13.85C202.799 14.0333 202.749 14.1917 202.649 14.325C202.549 14.4583 202.416 14.525 202.249 14.525H198.999V21.325C198.999 22.1417 199.174 22.7167 199.524 23.05C199.874 23.3667 200.482 23.525 201.349 23.525H202.049C202.282 23.525 202.457 23.6 202.574 23.75C202.707 23.8833 202.774 24.05 202.774 24.25C202.774 24.45 202.707 24.625 202.574 24.775C202.457 24.925 202.282 25 202.049 25H201.349ZM209.527 25.175C208.477 25.175 207.544 24.975 206.727 24.575C205.927 24.175 205.294 23.625 204.827 22.925C204.377 22.2083 204.152 21.375 204.152 20.425V17.65C204.152 16.8167 204.369 16.05 204.802 15.35C205.236 14.6333 205.811 14.0667 206.527 13.65C207.261 13.2333 208.061 13.025 208.927 13.025C209.761 13.025 210.527 13.225 211.227 13.625C211.944 14.0083 212.519 14.5417 212.952 15.225C213.386 15.9083 213.602 16.7 213.602 17.6C213.602 18.2333 213.494 18.6917 213.277 18.975C213.061 19.2583 212.786 19.4333 212.452 19.5C212.136 19.55 211.794 19.575 211.427 19.575H205.777V20.5C205.777 21.5 206.136 22.2917 206.852 22.875C207.569 23.4583 208.477 23.75 209.577 23.75C210.244 23.75 210.761 23.6667 211.127 23.5C211.494 23.3333 211.777 23.1667 211.977 23C212.194 22.8333 212.394 22.75 212.577 22.75C212.711 22.75 212.827 22.8 212.927 22.9C213.044 22.9833 213.127 23.0833 213.177 23.2C213.244 23.3167 213.277 23.425 213.277 23.525C213.277 23.7083 213.127 23.9333 212.827 24.2C212.527 24.4667 212.094 24.7 211.527 24.9C210.961 25.0833 210.294 25.175 209.527 25.175ZM205.777 18.375H210.777C211.277 18.375 211.611 18.325 211.777 18.225C211.944 18.1083 212.027 17.875 212.027 17.525C212.027 16.9917 211.894 16.4917 211.627 16.025C211.361 15.5417 210.994 15.15 210.527 14.85C210.061 14.5333 209.519 14.375 208.902 14.375C208.336 14.375 207.811 14.5167 207.327 14.8C206.861 15.0833 206.486 15.45 206.202 15.9C205.919 16.35 205.777 16.8583 205.777 17.425V18.375ZM220.003 25.175C219.236 25.175 218.511 24.9583 217.828 24.525C217.144 24.075 216.594 23.4833 216.178 22.75C215.778 22.0167 215.578 21.2417 215.578 20.425V17.725C215.578 16.8583 215.778 16.075 216.178 15.375C216.594 14.6583 217.144 14.0917 217.828 13.675C218.511 13.2417 219.261 13.025 220.078 13.025C220.894 13.025 221.578 13.225 222.128 13.625C222.694 14.0083 223.111 14.4417 223.378 14.925V6.55C223.378 6.35 223.461 6.2 223.628 6.1C223.794 5.98333 223.986 5.925 224.203 5.925C224.453 5.925 224.644 5.98333 224.778 6.1C224.928 6.2 225.003 6.35 225.003 6.55V24.35C225.003 24.5167 224.928 24.6667 224.778 24.8C224.644 24.9333 224.453 25 224.203 25C224.003 25 223.819 24.9333 223.653 24.8C223.503 24.6667 223.428 24.5167 223.428 24.35V23.25C223.178 23.7667 222.736 24.2167 222.103 24.6C221.486 24.9833 220.786 25.175 220.003 25.175ZM220.303 23.675C220.903 23.675 221.428 23.525 221.878 23.225C222.344 22.9083 222.711 22.5583 222.978 22.175C223.244 21.775 223.378 21.45 223.378 21.2V17.725C223.378 17.0417 223.228 16.4667 222.928 16C222.628 15.5333 222.244 15.175 221.778 14.925C221.311 14.6583 220.828 14.525 220.328 14.525C219.761 14.525 219.244 14.6833 218.778 15C218.311 15.3 217.936 15.6917 217.653 16.175C217.369 16.6583 217.228 17.175 217.228 17.725V20.425C217.228 20.975 217.369 21.5 217.653 22C217.936 22.5 218.311 22.9083 218.778 23.225C219.244 23.525 219.753 23.675 220.303 23.675ZM237.067 25C235.783 25 234.8 24.7083 234.117 24.125C233.433 23.5417 233.092 22.6083 233.092 21.325V8.175C233.092 7.975 233.175 7.825 233.342 7.725C233.525 7.60833 233.708 7.55 233.892 7.55C234.108 7.55 234.3 7.60833 234.467 7.725C234.633 7.825 234.717 7.975 234.717 8.175V13.175H237.967C238.133 13.175 238.267 13.2417 238.367 13.375C238.467 13.5083 238.517 13.6667 238.517 13.85C238.517 14.0333 238.467 14.1917 238.367 14.325C238.267 14.4583 238.133 14.525 237.967 14.525H234.717V21.325C234.717 22.1417 234.892 22.7167 235.242 23.05C235.592 23.3667 236.2 23.525 237.067 23.525H237.767C238 23.525 238.175 23.6 238.292 23.75C238.425 23.8833 238.492 24.05 238.492 24.25C238.492 24.45 238.425 24.625 238.292 24.775C238.175 24.925 238 25 237.767 25H237.067ZM244.595 25.175C243.745 25.175 242.962 24.9583 242.245 24.525C241.528 24.075 240.945 23.4917 240.495 22.775C240.062 22.0417 239.845 21.2583 239.845 20.425V17.725C239.845 16.875 240.053 16.1 240.47 15.4C240.903 14.6833 241.478 14.1083 242.195 13.675C242.928 13.2417 243.728 13.025 244.595 13.025C245.445 13.025 246.228 13.2417 246.945 13.675C247.678 14.0917 248.262 14.65 248.695 15.35C249.128 16.05 249.345 16.8417 249.345 17.725V20.425C249.345 21.2417 249.128 22.0167 248.695 22.75C248.262 23.4833 247.678 24.075 246.945 24.525C246.228 24.9583 245.445 25.175 244.595 25.175ZM244.595 23.675C245.178 23.675 245.703 23.525 246.17 23.225C246.637 22.9083 247.012 22.5 247.295 22C247.578 21.5 247.72 20.975 247.72 20.425V17.725C247.72 17.175 247.578 16.6583 247.295 16.175C247.028 15.6917 246.653 15.3 246.17 15C245.703 14.6833 245.178 14.525 244.595 14.525C244.012 14.525 243.487 14.6833 243.02 15C242.553 15.3 242.178 15.6917 241.895 16.175C241.612 16.6583 241.47 17.175 241.47 17.725V20.425C241.47 20.975 241.612 21.5 241.895 22C242.178 22.5 242.553 22.9083 243.02 23.225C243.503 23.525 244.028 23.675 244.595 23.675ZM259.644 25.175C258.694 25.175 257.885 24.9083 257.219 24.375C256.569 23.825 256.244 22.9917 256.244 21.875C256.244 20.9583 256.485 20.2583 256.969 19.775C257.469 19.275 258.152 18.9333 259.019 18.75C259.902 18.55 260.919 18.45 262.069 18.45H263.344V17.875C263.344 17.325 263.244 16.7917 263.044 16.275C262.86 15.7417 262.552 15.3083 262.119 14.975C261.702 14.625 261.127 14.45 260.394 14.45C259.844 14.45 259.394 14.5083 259.044 14.625C258.694 14.7417 258.419 14.8667 258.219 15C258.019 15.1167 257.852 15.175 257.719 15.175C257.519 15.175 257.352 15.075 257.219 14.875C257.102 14.675 257.044 14.4917 257.044 14.325C257.044 14.0917 257.219 13.8833 257.569 13.7C257.919 13.5 258.352 13.3417 258.869 13.225C259.402 13.0917 259.927 13.025 260.444 13.025C261.56 13.025 262.444 13.2583 263.094 13.725C263.76 14.175 264.235 14.7667 264.519 15.5C264.819 16.2333 264.969 17.0167 264.969 17.85V24.35C264.969 24.5333 264.894 24.6917 264.744 24.825C264.61 24.9417 264.419 25 264.169 25C263.969 25 263.785 24.9417 263.619 24.825C263.469 24.6917 263.394 24.5333 263.394 24.35V23.25C262.977 23.75 262.46 24.2 261.844 24.6C261.227 24.9833 260.494 25.175 259.644 25.175ZM260.044 23.8C260.594 23.8 261.119 23.6583 261.619 23.375C262.119 23.0917 262.527 22.75 262.844 22.35C263.177 21.9333 263.344 21.5417 263.344 21.175V19.575H262.294C261.544 19.575 260.827 19.625 260.144 19.725C259.477 19.8083 258.927 20 258.494 20.3C258.077 20.6 257.869 21.075 257.869 21.725C257.869 22.4417 258.077 22.9667 258.494 23.3C258.927 23.6333 259.444 23.8 260.044 23.8ZM273.006 25.175C272.222 25.175 271.522 24.9833 270.906 24.6C270.289 24.2167 269.847 23.7667 269.581 23.25V24.35C269.581 24.5167 269.506 24.6667 269.356 24.8C269.206 24.9333 269.022 25 268.806 25C268.589 25 268.397 24.9333 268.231 24.8C268.081 24.6667 268.006 24.5167 268.006 24.35V6.55C268.006 6.35 268.081 6.2 268.231 6.1C268.397 5.98333 268.589 5.925 268.806 5.925C269.039 5.925 269.231 5.98333 269.381 6.1C269.547 6.2 269.631 6.35 269.631 6.55V14.925C269.914 14.4417 270.331 14.0083 270.881 13.625C271.447 13.225 272.139 13.025 272.956 13.025C273.772 13.025 274.514 13.2417 275.181 13.675C275.864 14.0917 276.406 14.6583 276.806 15.375C277.222 16.075 277.431 16.8583 277.431 17.725V20.425C277.431 21.2417 277.222 22.0167 276.806 22.75C276.406 23.4833 275.872 24.075 275.206 24.525C274.539 24.9583 273.806 25.175 273.006 25.175ZM272.706 23.675C273.272 23.675 273.789 23.525 274.256 23.225C274.722 22.9083 275.097 22.5 275.381 22C275.664 21.5 275.806 20.975 275.806 20.425V17.725C275.806 17.175 275.664 16.6583 275.381 16.175C275.097 15.6917 274.722 15.3 274.256 15C273.789 14.6833 273.264 14.525 272.681 14.525C272.181 14.525 271.697 14.6583 271.231 14.925C270.764 15.175 270.381 15.5333 270.081 16C269.781 16.4667 269.631 17.0417 269.631 17.725V21.2C269.631 21.45 269.764 21.775 270.031 22.175C270.314 22.5583 270.689 22.9083 271.156 23.225C271.622 23.525 272.139 23.675 272.706 23.675ZM284.39 25.175C283.54 25.175 282.757 24.9583 282.04 24.525C281.323 24.075 280.74 23.4917 280.29 22.775C279.857 22.0417 279.64 21.2583 279.64 20.425V17.725C279.64 16.875 279.848 16.1 280.265 15.4C280.698 14.6833 281.273 14.1083 281.99 13.675C282.723 13.2417 283.523 13.025 284.39 13.025C285.24 13.025 286.023 13.2417 286.74 13.675C287.473 14.0917 288.057 14.65 288.49 15.35C288.923 16.05 289.14 16.8417 289.14 17.725V20.425C289.14 21.2417 288.923 22.0167 288.49 22.75C288.057 23.4833 287.473 24.075 286.74 24.525C286.023 24.9583 285.24 25.175 284.39 25.175ZM284.39 23.675C284.973 23.675 285.498 23.525 285.965 23.225C286.432 22.9083 286.807 22.5 287.09 22C287.373 21.5 287.515 20.975 287.515 20.425V17.725C287.515 17.175 287.373 16.6583 287.09 16.175C286.823 15.6917 286.448 15.3 285.965 15C285.498 14.6833 284.973 14.525 284.39 14.525C283.807 14.525 283.282 14.6833 282.815 15C282.348 15.3 281.973 15.6917 281.69 16.175C281.407 16.6583 281.265 17.175 281.265 17.725V20.425C281.265 20.975 281.407 21.5 281.69 22C281.973 22.5 282.348 22.9083 282.815 23.225C283.298 23.525 283.823 23.675 284.39 23.675ZM296.484 25.175C295.6 25.175 294.792 24.9583 294.059 24.525C293.342 24.0917 292.767 23.5167 292.334 22.8C291.917 22.0667 291.709 21.2917 291.709 20.475V13.825C291.709 13.6583 291.792 13.5083 291.959 13.375C292.125 13.2417 292.317 13.175 292.534 13.175C292.75 13.175 292.934 13.2417 293.084 13.375C293.25 13.5083 293.334 13.6583 293.334 13.825V20.475C293.334 21.025 293.475 21.5417 293.759 22.025C294.042 22.5083 294.417 22.9083 294.884 23.225C295.35 23.525 295.875 23.675 296.459 23.675C297.059 23.675 297.592 23.525 298.059 23.225C298.525 22.925 298.892 22.5333 299.159 22.05C299.442 21.55 299.584 21.025 299.584 20.475V13.8C299.584 13.6167 299.667 13.4667 299.834 13.35C300 13.2333 300.192 13.175 300.409 13.175C300.659 13.175 300.85 13.2333 300.984 13.35C301.134 13.4667 301.209 13.6167 301.209 13.8V20.475C301.209 21.325 300.992 22.1083 300.559 22.825C300.142 23.525 299.567 24.0917 298.834 24.525C298.117 24.9583 297.334 25.175 296.484 25.175ZM308.136 25C306.853 25 305.869 24.7083 305.186 24.125C304.503 23.5417 304.161 22.6083 304.161 21.325V8.175C304.161 7.975 304.244 7.825 304.411 7.725C304.594 7.60833 304.778 7.55 304.961 7.55C305.178 7.55 305.369 7.60833 305.536 7.725C305.703 7.825 305.786 7.975 305.786 8.175V13.175H309.036C309.203 13.175 309.336 13.2417 309.436 13.375C309.536 13.5083 309.586 13.6667 309.586 13.85C309.586 14.0333 309.536 14.1917 309.436 14.325C309.336 14.4583 309.203 14.525 309.036 14.525H305.786V21.325C305.786 22.1417 305.961 22.7167 306.311 23.05C306.661 23.3667 307.269 23.525 308.136 23.525H308.836C309.069 23.525 309.244 23.6 309.361 23.75C309.494 23.8833 309.561 24.05 309.561 24.25C309.561 24.45 309.494 24.625 309.361 24.775C309.244 24.925 309.069 25 308.836 25H308.136ZM318.864 25C318.531 25 318.222 24.925 317.939 24.775C317.672 24.625 317.539 24.4083 317.539 24.125V10.225L316.664 11.325C316.564 11.4083 316.464 11.475 316.364 11.525C316.281 11.5583 316.197 11.575 316.114 11.575C315.847 11.575 315.631 11.4667 315.464 11.25C315.297 11.0167 315.214 10.7667 315.214 10.5C315.214 10.3 315.264 10.1083 315.364 9.925C315.464 9.74167 315.589 9.59167 315.739 9.475L318.339 6.975C318.422 6.89167 318.514 6.825 318.614 6.775C318.731 6.725 318.864 6.7 319.014 6.7C319.297 6.7 319.564 6.775 319.814 6.925C320.064 7.075 320.189 7.29167 320.189 7.575V24.125C320.189 24.4083 320.047 24.625 319.764 24.775C319.497 24.925 319.197 25 318.864 25ZM328.179 25.15C327.246 25.15 326.429 25.025 325.729 24.775C325.046 24.5083 324.479 24.1583 324.029 23.725C323.579 23.2917 323.237 22.8083 323.004 22.275C322.787 21.7417 322.679 21.2167 322.679 20.7C322.679 20.2667 322.779 19.975 322.979 19.825C323.196 19.6583 323.512 19.575 323.929 19.575C324.279 19.575 324.596 19.6417 324.879 19.775C325.162 19.9083 325.304 20.175 325.304 20.575C325.304 21.0417 325.437 21.4417 325.704 21.775C325.971 22.0917 326.321 22.3417 326.754 22.525C327.204 22.7083 327.696 22.8 328.229 22.8C329.179 22.8 329.921 22.5417 330.454 22.025C331.004 21.4917 331.279 20.675 331.279 19.575V16.425C330.862 16.9417 330.346 17.3083 329.729 17.525C329.129 17.7417 328.479 17.85 327.779 17.85C326.846 17.85 325.987 17.7 325.204 17.4C324.437 17.0833 323.821 16.5583 323.354 15.825C322.904 15.075 322.679 14.05 322.679 12.75V12.3C322.679 10.95 322.929 9.86667 323.429 9.05C323.929 8.23333 324.596 7.64167 325.429 7.275C326.279 6.90833 327.229 6.725 328.279 6.725C329.346 6.725 330.304 6.90833 331.154 7.275C332.004 7.64167 332.679 8.23333 333.179 9.05C333.679 9.86667 333.929 10.95 333.929 12.3V19.575C333.929 20.925 333.671 22.0083 333.154 22.825C332.637 23.6417 331.946 24.2333 331.079 24.6C330.212 24.9667 329.246 25.15 328.179 25.15ZM328.304 15.725C329.204 15.725 329.921 15.5 330.454 15.05C331.004 14.6 331.279 13.85 331.279 12.8V12.15C331.279 11.0333 331.012 10.2167 330.479 9.7C329.946 9.18333 329.212 8.925 328.279 8.925C327.362 8.925 326.637 9.18333 326.104 9.7C325.587 10.2167 325.329 11.0333 325.329 12.15V12.575C325.329 13.725 325.587 14.5417 326.104 15.025C326.637 15.4917 327.371 15.725 328.304 15.725ZM340.406 25.875C340.123 25.875 339.89 25.775 339.706 25.575C339.523 25.3917 339.431 25.1833 339.431 24.95C339.431 24.8167 339.465 24.6917 339.531 24.575L348.731 6.2C348.865 5.9 349.106 5.75 349.456 5.75C349.706 5.75 349.94 5.84167 350.156 6.025C350.39 6.19167 350.506 6.41667 350.506 6.7C350.506 6.85 350.481 6.98333 350.431 7.1L341.256 25.4C341.19 25.55 341.073 25.6667 340.906 25.75C340.756 25.8333 340.59 25.875 340.406 25.875ZM339.356 16.575C338.406 16.575 337.606 16.3417 336.956 15.875C336.306 15.4083 335.981 14.6167 335.981 13.5V9.8C335.981 8.68333 336.306 7.89167 336.956 7.425C337.606 6.95833 338.406 6.725 339.356 6.725C340.006 6.725 340.581 6.825 341.081 7.025C341.598 7.225 342.006 7.55 342.306 8C342.606 8.45 342.756 9.05 342.756 9.8V13.5C342.756 14.25 342.606 14.85 342.306 15.3C342.006 15.75 341.598 16.075 341.081 16.275C340.581 16.475 340.006 16.575 339.356 16.575ZM339.381 14.975C339.865 14.975 340.248 14.8583 340.531 14.625C340.815 14.375 340.956 14 340.956 13.5V9.8C340.956 9.3 340.815 8.93333 340.531 8.7C340.248 8.45 339.865 8.325 339.381 8.325C338.881 8.325 338.49 8.45 338.206 8.7C337.94 8.93333 337.806 9.3 337.806 9.8V13.5C337.806 14 337.94 14.375 338.206 14.625C338.49 14.8583 338.881 14.975 339.381 14.975ZM350.431 25.075C349.465 25.075 348.656 24.8417 348.006 24.375C347.356 23.9083 347.031 23.1167 347.031 22V18.3C347.031 17.1833 347.356 16.3917 348.006 15.925C348.656 15.4583 349.465 15.225 350.431 15.225C351.065 15.225 351.631 15.325 352.131 15.525C352.648 15.725 353.056 16.05 353.356 16.5C353.656 16.95 353.806 17.55 353.806 18.3V22C353.806 22.75 353.656 23.35 353.356 23.8C353.056 24.25 352.648 24.575 352.131 24.775C351.631 24.975 351.065 25.075 350.431 25.075ZM350.431 23.475C350.915 23.475 351.298 23.3583 351.581 23.125C351.865 22.875 352.006 22.5 352.006 22V18.3C352.006 17.8 351.865 17.4333 351.581 17.2C351.298 16.95 350.915 16.825 350.431 16.825C349.948 16.825 349.565 16.95 349.281 17.2C349.015 17.4333 348.881 17.8 348.881 18.3V22C348.881 22.5 349.015 22.875 349.281 23.125C349.565 23.3583 349.948 23.475 350.431 23.475ZM5.85 55.175C5 55.175 4.21667 54.9583 3.5 54.525C2.78333 54.075 2.2 53.4917 1.75 52.775C1.31667 52.0417 1.1 51.2583 1.1 50.425V47.725C1.1 46.875 1.30833 46.1 1.725 45.4C2.15833 44.6833 2.73333 44.1083 3.45 43.675C4.18333 43.2417 4.98333 43.025 5.85 43.025C6.7 43.025 7.48333 43.2417 8.2 43.675C8.93333 44.0917 9.51667 44.65 9.95 45.35C10.3833 46.05 10.6 46.8417 10.6 47.725V50.425C10.6 51.2417 10.3833 52.0167 9.95 52.75C9.51667 53.4833 8.93333 54.075 8.2 54.525C7.48333 54.9583 6.7 55.175 5.85 55.175ZM5.85 53.675C6.43333 53.675 6.95833 53.525 7.425 53.225C7.89167 52.9083 8.26667 52.5 8.55 52C8.83333 51.5 8.975 50.975 8.975 50.425V47.725C8.975 47.175 8.83333 46.6583 8.55 46.175C8.28333 45.6917 7.90833 45.3 7.425 45C6.95833 44.6833 6.43333 44.525 5.85 44.525C5.26667 44.525 4.74167 44.6833 4.275 45C3.80833 45.3 3.43333 45.6917 3.15 46.175C2.86667 46.6583 2.725 47.175 2.725 47.725V50.425C2.725 50.975 2.86667 51.5 3.15 52C3.43333 52.5 3.80833 52.9083 4.275 53.225C4.75833 53.525 5.28333 53.675 5.85 53.675ZM14.0688 55C13.8521 55 13.6688 54.9417 13.5188 54.825C13.3688 54.7083 13.2938 54.5583 13.2938 54.375V40.525C13.2938 39.675 13.4938 38.9083 13.8938 38.225C14.3104 37.525 14.8521 36.9667 15.5188 36.55C16.2021 36.1333 16.9438 35.925 17.7438 35.925H18.3688C18.6021 35.925 18.7771 36 18.8938 36.15C19.0104 36.3 19.0687 36.475 19.0687 36.675C19.0687 36.8583 19.0104 37.025 18.8938 37.175C18.7771 37.325 18.6021 37.4 18.3688 37.4H17.9438C17.3771 37.4 16.8604 37.5417 16.3938 37.825C15.9438 38.1083 15.5854 38.475 15.3188 38.925C15.0688 39.375 14.9354 39.875 14.9188 40.425V43.175H18.4938C18.6771 43.175 18.8188 43.2417 18.9188 43.375C19.0188 43.5083 19.0687 43.6667 19.0687 43.85C19.0687 44.0167 19.0188 44.175 18.9188 44.325C18.8188 44.4583 18.6771 44.525 18.4938 44.525H14.9188V54.375C14.9188 54.5583 14.8354 54.7083 14.6688 54.825C14.5021 54.9417 14.3021 55 14.0688 55ZM30.0908 60.8C29.1075 60.8 28.2325 60.6583 27.4658 60.375C26.7158 60.1083 26.1158 59.725 25.6658 59.225C25.2325 58.7417 25.0158 58.1583 25.0158 57.475C25.0158 56.7417 25.2325 56.1583 25.6658 55.725C26.0992 55.2917 26.5908 54.9667 27.1408 54.75C26.7408 54.6 26.4075 54.4 26.1408 54.15C25.8908 53.8833 25.7658 53.5083 25.7658 53.025C25.7658 52.5583 25.8825 52.1917 26.1158 51.925C26.3492 51.6417 26.6492 51.4083 27.0158 51.225C26.5658 50.8583 26.2158 50.4083 25.9658 49.875C25.7325 49.325 25.6158 48.725 25.6158 48.075V47.125C25.6158 46.325 25.7908 45.6167 26.1408 45C26.5075 44.3833 27.0158 43.9 27.6658 43.55C28.3158 43.2 29.0742 43.025 29.9408 43.025C30.5242 43.025 31.0658 43.1167 31.5658 43.3C32.0658 43.4833 32.4992 43.7417 32.8658 44.075C33.1158 43.5583 33.3992 43.1667 33.7158 42.9C34.0325 42.6333 34.3325 42.5 34.6158 42.5C34.8825 42.5 35.0742 42.575 35.1908 42.725C35.3242 42.8583 35.3908 43 35.3908 43.15C35.3908 43.3 35.3492 43.425 35.2658 43.525C35.1825 43.6083 35.0825 43.6667 34.9658 43.7C34.7658 43.7333 34.5325 43.825 34.2658 43.975C34.0158 44.125 33.7825 44.3917 33.5658 44.775C33.7992 45.0917 33.9742 45.45 34.0908 45.85C34.2075 46.25 34.2658 46.675 34.2658 47.125V48.075C34.2658 48.8583 34.0825 49.5667 33.7158 50.2C33.3492 50.8333 32.8325 51.3333 32.1658 51.7C31.5158 52.05 30.7658 52.225 29.9158 52.225C29.1992 52.225 28.5575 52.0833 27.9908 51.8C27.8075 51.9 27.6325 52.025 27.4658 52.175C27.2992 52.3083 27.2158 52.5083 27.2158 52.775C27.2158 53.1417 27.4075 53.4083 27.7908 53.575C28.1742 53.7417 28.6575 53.8583 29.2408 53.925C29.8242 53.9917 30.4408 54.0667 31.0908 54.15C31.7575 54.2167 32.3825 54.35 32.9658 54.55C33.5658 54.75 34.0492 55.0583 34.4158 55.475C34.7992 55.8917 34.9908 56.4833 34.9908 57.25C34.9908 58.0333 34.7742 58.6833 34.3408 59.2C33.9242 59.7333 33.3492 60.1333 32.6158 60.4C31.8825 60.6667 31.0408 60.8 30.0908 60.8ZM30.0658 59.575C31.1158 59.575 31.9325 59.3667 32.5158 58.95C33.0992 58.5333 33.3908 57.9833 33.3908 57.3C33.3908 56.7667 33.2325 56.3583 32.9158 56.075C32.5992 55.8083 32.1908 55.6167 31.6908 55.5C31.2075 55.3833 30.6992 55.3 30.1658 55.25C29.6492 55.2 29.1992 55.15 28.8158 55.1C28.2325 55.2833 27.7158 55.55 27.2658 55.9C26.8158 56.25 26.5908 56.725 26.5908 57.325C26.5908 57.9917 26.8992 58.5333 27.5158 58.95C28.1325 59.3667 28.9825 59.575 30.0658 59.575ZM29.9658 51C30.7992 51 31.4575 50.725 31.9408 50.175C32.4242 49.6083 32.6658 48.9083 32.6658 48.075V47.125C32.6658 46.3083 32.4242 45.625 31.9408 45.075C31.4742 44.525 30.8075 44.25 29.9408 44.25C29.0742 44.25 28.3992 44.525 27.9158 45.075C27.4492 45.625 27.2158 46.3083 27.2158 47.125V48.05C27.2158 48.8833 27.4575 49.5833 27.9408 50.15C28.4242 50.7167 29.0992 51 29.9658 51ZM38.2684 55C38.0517 55 37.86 54.9333 37.6934 54.8C37.5434 54.6667 37.4684 54.5167 37.4684 54.35V36.55C37.4684 36.35 37.5434 36.2 37.6934 36.1C37.86 35.9833 38.0517 35.925 38.2684 35.925C38.5017 35.925 38.6934 35.9833 38.8434 36.1C39.01 36.2 39.0934 36.35 39.0934 36.55V54.35C39.0934 54.5167 39.01 54.6667 38.8434 54.8C38.6934 54.9333 38.5017 55 38.2684 55ZM46.7436 55.175C45.8936 55.175 45.1102 54.9583 44.3936 54.525C43.6769 54.075 43.0936 53.4917 42.6436 52.775C42.2102 52.0417 41.9936 51.2583 41.9936 50.425V47.725C41.9936 46.875 42.2019 46.1 42.6186 45.4C43.0519 44.6833 43.6269 44.1083 44.3436 43.675C45.0769 43.2417 45.8769 43.025 46.7436 43.025C47.5936 43.025 48.3769 43.2417 49.0936 43.675C49.8269 44.0917 50.4102 44.65 50.8436 45.35C51.2769 46.05 51.4936 46.8417 51.4936 47.725V50.425C51.4936 51.2417 51.2769 52.0167 50.8436 52.75C50.4102 53.4833 49.8269 54.075 49.0936 54.525C48.3769 54.9583 47.5936 55.175 46.7436 55.175ZM46.7436 53.675C47.3269 53.675 47.8519 53.525 48.3186 53.225C48.7852 52.9083 49.1602 52.5 49.4436 52C49.7269 51.5 49.8686 50.975 49.8686 50.425V47.725C49.8686 47.175 49.7269 46.6583 49.4436 46.175C49.1769 45.6917 48.8019 45.3 48.3186 45C47.8519 44.6833 47.3269 44.525 46.7436 44.525C46.1602 44.525 45.6352 44.6833 45.1686 45C44.7019 45.3 44.3269 45.6917 44.0436 46.175C43.7602 46.6583 43.6186 47.175 43.6186 47.725V50.425C43.6186 50.975 43.7602 51.5 44.0436 52C44.3269 52.5 44.7019 52.9083 45.1686 53.225C45.6519 53.525 46.1769 53.675 46.7436 53.675ZM59.1873 55.175C58.404 55.175 57.704 54.9833 57.0873 54.6C56.4706 54.2167 56.029 53.7667 55.7623 53.25V54.35C55.7623 54.5167 55.6873 54.6667 55.5373 54.8C55.3873 54.9333 55.204 55 54.9873 55C54.7706 55 54.579 54.9333 54.4123 54.8C54.2623 54.6667 54.1873 54.5167 54.1873 54.35V36.55C54.1873 36.35 54.2623 36.2 54.4123 36.1C54.579 35.9833 54.7706 35.925 54.9873 35.925C55.2206 35.925 55.4123 35.9833 55.5623 36.1C55.729 36.2 55.8123 36.35 55.8123 36.55V44.925C56.0956 44.4417 56.5123 44.0083 57.0623 43.625C57.629 43.225 58.3206 43.025 59.1373 43.025C59.954 43.025 60.6956 43.2417 61.3623 43.675C62.0456 44.0917 62.5873 44.6583 62.9873 45.375C63.404 46.075 63.6123 46.8583 63.6123 47.725V50.425C63.6123 51.2417 63.404 52.0167 62.9873 52.75C62.5873 53.4833 62.054 54.075 61.3873 54.525C60.7206 54.9583 59.9873 55.175 59.1873 55.175ZM58.8873 53.675C59.454 53.675 59.9706 53.525 60.4373 53.225C60.904 52.9083 61.279 52.5 61.5623 52C61.8456 51.5 61.9873 50.975 61.9873 50.425V47.725C61.9873 47.175 61.8456 46.6583 61.5623 46.175C61.279 45.6917 60.904 45.3 60.4373 45C59.9706 44.6833 59.4456 44.525 58.8623 44.525C58.3623 44.525 57.879 44.6583 57.4123 44.925C56.9456 45.175 56.5623 45.5333 56.2623 46C55.9623 46.4667 55.8123 47.0417 55.8123 47.725V51.2C55.8123 51.45 55.9456 51.775 56.2123 52.175C56.4956 52.5583 56.8706 52.9083 57.3373 53.225C57.804 53.525 58.3206 53.675 58.8873 53.675ZM68.8967 55.175C67.9467 55.175 67.1383 54.9083 66.4717 54.375C65.8217 53.825 65.4967 52.9917 65.4967 51.875C65.4967 50.9583 65.7383 50.2583 66.2217 49.775C66.7217 49.275 67.405 48.9333 68.2717 48.75C69.155 48.55 70.1717 48.45 71.3217 48.45H72.5967V47.875C72.5967 47.325 72.4967 46.7917 72.2967 46.275C72.1133 45.7417 71.805 45.3083 71.3717 44.975C70.955 44.625 70.38 44.45 69.6467 44.45C69.0967 44.45 68.6467 44.5083 68.2967 44.625C67.9467 44.7417 67.6717 44.8667 67.4717 45C67.2717 45.1167 67.105 45.175 66.9717 45.175C66.7717 45.175 66.605 45.075 66.4717 44.875C66.355 44.675 66.2967 44.4917 66.2967 44.325C66.2967 44.0917 66.4717 43.8833 66.8217 43.7C67.1717 43.5 67.605 43.3417 68.1217 43.225C68.655 43.0917 69.18 43.025 69.6967 43.025C70.8133 43.025 71.6967 43.2583 72.3467 43.725C73.0133 44.175 73.4883 44.7667 73.7717 45.5C74.0717 46.2333 74.2217 47.0167 74.2217 47.85V54.35C74.2217 54.5333 74.1467 54.6917 73.9967 54.825C73.8633 54.9417 73.6717 55 73.4217 55C73.2217 55 73.0383 54.9417 72.8717 54.825C72.7217 54.6917 72.6467 54.5333 72.6467 54.35V53.25C72.23 53.75 71.7133 54.2 71.0967 54.6C70.48 54.9833 69.7467 55.175 68.8967 55.175ZM69.2967 53.8C69.8467 53.8 70.3717 53.6583 70.8717 53.375C71.3717 53.0917 71.78 52.75 72.0967 52.35C72.43 51.9333 72.5967 51.5417 72.5967 51.175V49.575H71.5467C70.7967 49.575 70.08 49.625 69.3967 49.725C68.73 49.8083 68.18 50 67.7467 50.3C67.33 50.6 67.1217 51.075 67.1217 51.725C67.1217 52.4417 67.33 52.9667 67.7467 53.3C68.18 53.6333 68.6967 53.8 69.2967 53.8ZM78.2586 55C78.0419 55 77.8503 54.9333 77.6836 54.8C77.5336 54.6667 77.4586 54.5167 77.4586 54.35V36.55C77.4586 36.35 77.5336 36.2 77.6836 36.1C77.8503 35.9833 78.0419 35.925 78.2586 35.925C78.4919 35.925 78.6836 35.9833 78.8336 36.1C79.0003 36.2 79.0836 36.35 79.0836 36.55V54.35C79.0836 54.5167 79.0003 54.6667 78.8336 54.8C78.6836 54.9333 78.4919 55 78.2586 55ZM92.8887 55.15C91.8887 55.15 90.9637 54.9667 90.1137 54.6C89.2803 54.2333 88.6137 53.6417 88.1137 52.825C87.6137 52.0083 87.3637 50.925 87.3637 49.575V42.3C87.3637 40.95 87.6137 39.8667 88.1137 39.05C88.6137 38.2333 89.2887 37.6417 90.1387 37.275C90.9887 36.9083 91.9137 36.725 92.9137 36.725C94.0637 36.725 95.0553 36.925 95.8887 37.325C96.7387 37.7083 97.397 38.2417 97.8637 38.925C98.347 39.5917 98.5887 40.3667 98.5887 41.25C98.5887 41.8167 98.4803 42.1917 98.2637 42.375C98.047 42.5417 97.7137 42.625 97.2637 42.625C96.8637 42.625 96.547 42.5583 96.3137 42.425C96.0803 42.275 95.9553 42.05 95.9387 41.75C95.922 41.5333 95.8803 41.275 95.8137 40.975C95.747 40.675 95.6137 40.3833 95.4137 40.1C95.2303 39.8 94.947 39.5583 94.5637 39.375C94.1803 39.175 93.6553 39.075 92.9887 39.075C92.022 39.075 91.2803 39.3417 90.7637 39.875C90.247 40.3917 89.9887 41.2 89.9887 42.3V49.575C89.9887 50.675 90.247 51.4917 90.7637 52.025C91.297 52.5417 92.0637 52.8 93.0637 52.8C93.697 52.8 94.197 52.7083 94.5637 52.525C94.947 52.325 95.2303 52.0833 95.4137 51.8C95.597 51.5 95.722 51.1917 95.7887 50.875C95.8553 50.5417 95.9053 50.2417 95.9387 49.975C95.9553 49.6583 96.0803 49.4333 96.3137 49.3C96.5637 49.1667 96.872 49.1 97.2387 49.1C97.7053 49.1 98.047 49.1917 98.2637 49.375C98.4803 49.5583 98.5887 49.925 98.5887 50.475C98.5887 51.375 98.347 52.1833 97.8637 52.9C97.397 53.6 96.7387 54.15 95.8887 54.55C95.0387 54.95 94.0387 55.15 92.8887 55.15ZM106.489 55.15C105.422 55.15 104.464 54.9667 103.614 54.6C102.781 54.2333 102.114 53.6417 101.614 52.825C101.131 52.0083 100.889 50.925 100.889 49.575V42.3C100.889 40.95 101.131 39.8667 101.614 39.05C102.114 38.2333 102.781 37.6417 103.614 37.275C104.464 36.9083 105.422 36.725 106.489 36.725C107.539 36.725 108.489 36.9083 109.339 37.275C110.189 37.6417 110.864 38.2333 111.364 39.05C111.864 39.8667 112.114 40.95 112.114 42.3V49.575C112.114 50.925 111.864 52.0083 111.364 52.825C110.864 53.6417 110.189 54.2333 109.339 54.6C108.489 54.9667 107.539 55.15 106.489 55.15ZM106.489 52.8C107.406 52.8 108.131 52.5417 108.664 52.025C109.197 51.4917 109.464 50.675 109.464 49.575V42.3C109.464 41.2 109.197 40.3917 108.664 39.875C108.147 39.3417 107.422 39.075 106.489 39.075C105.556 39.075 104.822 39.3417 104.289 39.875C103.772 40.3917 103.514 41.2 103.514 42.3V49.575C103.514 50.675 103.772 51.4917 104.289 52.025C104.822 52.5417 105.556 52.8 106.489 52.8ZM116.549 55C116.216 55 115.908 54.925 115.624 54.775C115.358 54.625 115.224 54.4083 115.224 54.125V37.575C115.224 37.3417 115.316 37.1417 115.499 36.975C115.699 36.8083 115.949 36.725 116.249 36.725H121.124C122.141 36.725 123.066 36.9083 123.899 37.275C124.733 37.625 125.391 38.2083 125.874 39.025C126.358 39.825 126.599 40.8917 126.599 42.225V42.425C126.599 43.7583 126.349 44.8333 125.849 45.65C125.366 46.4667 124.691 47.0583 123.824 47.425C122.974 47.775 122.024 47.95 120.974 47.95H117.874V54.125C117.874 54.4083 117.733 54.625 117.449 54.775C117.183 54.925 116.883 55 116.549 55ZM117.874 45.85H120.974C121.908 45.85 122.633 45.5833 123.149 45.05C123.683 44.5167 123.949 43.7 123.949 42.6V42.3C123.949 41.2 123.683 40.3917 123.149 39.875C122.633 39.3417 121.908 39.075 120.974 39.075H117.874V45.85ZM130.047 55C129.697 55 129.413 54.9167 129.197 54.75C128.98 54.5833 128.872 54.3833 128.872 54.15V37.575C128.872 37.3417 128.98 37.1417 129.197 36.975C129.413 36.8083 129.697 36.725 130.047 36.725H134.472C135.522 36.725 136.472 36.9083 137.322 37.275C138.188 37.6417 138.863 38.2333 139.347 39.05C139.847 39.8667 140.097 40.95 140.097 42.3V49.425C140.097 50.775 139.847 51.8583 139.347 52.675C138.863 53.4917 138.188 54.0833 137.322 54.45C136.472 54.8167 135.522 55 134.472 55H130.047ZM131.522 52.65H134.472C135.405 52.65 136.13 52.3917 136.647 51.875C137.18 51.3417 137.447 50.525 137.447 49.425V42.3C137.447 41.2 137.18 40.3917 136.647 39.875C136.13 39.3417 135.405 39.075 134.472 39.075H131.522V52.65ZM152.083 55.175C151.316 55.175 150.591 54.9583 149.908 54.525C149.224 54.075 148.674 53.4833 148.258 52.75C147.858 52.0167 147.658 51.2417 147.658 50.425V47.725C147.658 46.8583 147.858 46.075 148.258 45.375C148.674 44.6583 149.224 44.0917 149.908 43.675C150.591 43.2417 151.341 43.025 152.158 43.025C152.974 43.025 153.658 43.225 154.208 43.625C154.774 44.0083 155.191 44.4417 155.458 44.925V36.55C155.458 36.35 155.541 36.2 155.708 36.1C155.874 35.9833 156.066 35.925 156.283 35.925C156.533 35.925 156.724 35.9833 156.858 36.1C157.008 36.2 157.083 36.35 157.083 36.55V54.35C157.083 54.5167 157.008 54.6667 156.858 54.8C156.724 54.9333 156.533 55 156.283 55C156.083 55 155.899 54.9333 155.733 54.8C155.583 54.6667 155.508 54.5167 155.508 54.35V53.25C155.258 53.7667 154.816 54.2167 154.183 54.6C153.566 54.9833 152.866 55.175 152.083 55.175ZM152.383 53.675C152.983 53.675 153.508 53.525 153.958 53.225C154.424 52.9083 154.791 52.5583 155.058 52.175C155.324 51.775 155.458 51.45 155.458 51.2V47.725C155.458 47.0417 155.308 46.4667 155.008 46C154.708 45.5333 154.324 45.175 153.858 44.925C153.391 44.6583 152.908 44.525 152.408 44.525C151.841 44.525 151.324 44.6833 150.858 45C150.391 45.3 150.016 45.6917 149.733 46.175C149.449 46.6583 149.308 47.175 149.308 47.725V50.425C149.308 50.975 149.449 51.5 149.733 52C150.016 52.5 150.391 52.9083 150.858 53.225C151.324 53.525 151.833 53.675 152.383 53.675ZM165.167 55.175C164.117 55.175 163.184 54.975 162.367 54.575C161.567 54.175 160.934 53.625 160.467 52.925C160.017 52.2083 159.792 51.375 159.792 50.425V47.65C159.792 46.8167 160.009 46.05 160.442 45.35C160.875 44.6333 161.45 44.0667 162.167 43.65C162.9 43.2333 163.7 43.025 164.567 43.025C165.4 43.025 166.167 43.225 166.867 43.625C167.584 44.0083 168.159 44.5417 168.592 45.225C169.025 45.9083 169.242 46.7 169.242 47.6C169.242 48.2333 169.134 48.6917 168.917 48.975C168.7 49.2583 168.425 49.4333 168.092 49.5C167.775 49.55 167.434 49.575 167.067 49.575H161.417V50.5C161.417 51.5 161.775 52.2917 162.492 52.875C163.209 53.4583 164.117 53.75 165.217 53.75C165.884 53.75 166.4 53.6667 166.767 53.5C167.134 53.3333 167.417 53.1667 167.617 53C167.834 52.8333 168.034 52.75 168.217 52.75C168.35 52.75 168.467 52.8 168.567 52.9C168.684 52.9833 168.767 53.0833 168.817 53.2C168.884 53.3167 168.917 53.425 168.917 53.525C168.917 53.7083 168.767 53.9333 168.467 54.2C168.167 54.4667 167.734 54.7 167.167 54.9C166.6 55.0833 165.934 55.175 165.167 55.175ZM161.417 48.375H166.417C166.917 48.375 167.25 48.325 167.417 48.225C167.584 48.1083 167.667 47.875 167.667 47.525C167.667 46.9917 167.534 46.4917 167.267 46.025C167 45.5417 166.634 45.15 166.167 44.85C165.7 44.5333 165.159 44.375 164.542 44.375C163.975 44.375 163.45 44.5167 162.967 44.8C162.5 45.0833 162.125 45.45 161.842 45.9C161.559 46.35 161.417 46.8583 161.417 47.425V48.375ZM174.292 55.175C173.342 55.175 172.534 54.9083 171.867 54.375C171.217 53.825 170.892 52.9917 170.892 51.875C170.892 50.9583 171.134 50.2583 171.617 49.775C172.117 49.275 172.801 48.9333 173.667 48.75C174.551 48.55 175.567 48.45 176.717 48.45H177.992V47.875C177.992 47.325 177.892 46.7917 177.692 46.275C177.509 45.7417 177.201 45.3083 176.767 44.975C176.351 44.625 175.776 44.45 175.042 44.45C174.492 44.45 174.042 44.5083 173.692 44.625C173.342 44.7417 173.067 44.8667 172.867 45C172.667 45.1167 172.501 45.175 172.367 45.175C172.167 45.175 172.001 45.075 171.867 44.875C171.751 44.675 171.692 44.4917 171.692 44.325C171.692 44.0917 171.867 43.8833 172.217 43.7C172.567 43.5 173.001 43.3417 173.517 43.225C174.051 43.0917 174.576 43.025 175.092 43.025C176.209 43.025 177.092 43.2583 177.742 43.725C178.409 44.175 178.884 44.7667 179.167 45.5C179.467 46.2333 179.617 47.0167 179.617 47.85V54.35C179.617 54.5333 179.542 54.6917 179.392 54.825C179.259 54.9417 179.067 55 178.817 55C178.617 55 178.434 54.9417 178.267 54.825C178.117 54.6917 178.042 54.5333 178.042 54.35V53.25C177.626 53.75 177.109 54.2 176.492 54.6C175.876 54.9833 175.142 55.175 174.292 55.175ZM174.692 53.8C175.242 53.8 175.767 53.6583 176.267 53.375C176.767 53.0917 177.176 52.75 177.492 52.35C177.826 51.9333 177.992 51.5417 177.992 51.175V49.575H176.942C176.192 49.575 175.476 49.625 174.792 49.725C174.126 49.8083 173.576 50 173.142 50.3C172.726 50.6 172.517 51.075 172.517 51.725C172.517 52.4417 172.726 52.9667 173.142 53.3C173.576 53.6333 174.092 53.8 174.692 53.8ZM186.554 55C185.271 55 184.287 54.7083 183.604 54.125C182.921 53.5417 182.579 52.6083 182.579 51.325V38.175C182.579 37.975 182.662 37.825 182.829 37.725C183.012 37.6083 183.196 37.55 183.379 37.55C183.596 37.55 183.787 37.6083 183.954 37.725C184.121 37.825 184.204 37.975 184.204 38.175V43.175H187.454C187.621 43.175 187.754 43.2417 187.854 43.375C187.954 43.5083 188.004 43.6667 188.004 43.85C188.004 44.0333 187.954 44.1917 187.854 44.325C187.754 44.4583 187.621 44.525 187.454 44.525H184.204V51.325C184.204 52.1417 184.379 52.7167 184.729 53.05C185.079 53.3667 185.687 53.525 186.554 53.525H187.254C187.487 53.525 187.662 53.6 187.779 53.75C187.912 53.8833 187.979 54.05 187.979 54.25C187.979 54.45 187.912 54.625 187.779 54.775C187.662 54.925 187.487 55 187.254 55H186.554ZM190.827 55C190.61 55 190.419 54.9333 190.252 54.8C190.102 54.6667 190.027 54.5167 190.027 54.35V36.55C190.027 36.35 190.102 36.2 190.252 36.1C190.419 35.9833 190.61 35.925 190.827 35.925C191.06 35.925 191.252 35.9833 191.402 36.1C191.569 36.2 191.652 36.35 191.652 36.55V44.925C191.935 44.4417 192.352 44.0083 192.902 43.625C193.452 43.225 194.135 43.025 194.952 43.025C195.752 43.025 196.485 43.2417 197.152 43.675C197.835 44.0917 198.377 44.6583 198.777 45.375C199.177 46.075 199.377 46.8583 199.377 47.725V54.35C199.377 54.5667 199.294 54.7333 199.127 54.85C198.96 54.95 198.769 55 198.552 55C198.369 55 198.185 54.95 198.002 54.85C197.835 54.7333 197.752 54.5667 197.752 54.35V47.725C197.752 47.175 197.61 46.6583 197.327 46.175C197.044 45.6917 196.669 45.3 196.202 45C195.735 44.6833 195.219 44.525 194.652 44.525C194.152 44.525 193.669 44.6583 193.202 44.925C192.752 45.175 192.377 45.5333 192.077 46C191.794 46.4667 191.652 47.0417 191.652 47.725V54.35C191.652 54.5167 191.569 54.6667 191.402 54.8C191.252 54.9333 191.06 55 190.827 55ZM205.605 55.175C204.822 55.175 204.13 55.075 203.53 54.875C202.947 54.675 202.488 54.4417 202.155 54.175C201.838 53.8917 201.68 53.625 201.68 53.375C201.68 53.2583 201.705 53.15 201.755 53.05C201.805 52.9333 201.872 52.8333 201.955 52.75C202.055 52.6667 202.155 52.625 202.255 52.625C202.438 52.625 202.638 52.725 202.855 52.925C203.088 53.1083 203.405 53.3 203.805 53.5C204.222 53.7 204.805 53.8 205.555 53.8C206.505 53.8 207.172 53.625 207.555 53.275C207.938 52.9083 208.13 52.4917 208.13 52.025C208.13 51.475 207.98 51.05 207.68 50.75C207.397 50.4333 207.013 50.1917 206.53 50.025C206.063 49.8583 205.563 49.7 205.03 49.55C204.513 49.4 204.013 49.2167 203.53 49C203.063 48.7833 202.68 48.475 202.38 48.075C202.097 47.6583 201.955 47.1083 201.955 46.425C201.955 45.8917 202.088 45.3667 202.355 44.85C202.622 44.3333 203.038 43.9 203.605 43.55C204.188 43.2 204.955 43.025 205.905 43.025C206.455 43.025 206.988 43.0833 207.505 43.2C208.022 43.3167 208.438 43.475 208.755 43.675C209.088 43.8583 209.255 44.0583 209.255 44.275C209.255 44.3417 209.222 44.45 209.155 44.6C209.105 44.7333 209.03 44.85 208.93 44.95C208.83 45.05 208.713 45.1 208.58 45.1C208.447 45.1 208.263 45.0417 208.03 44.925C207.813 44.8083 207.53 44.6917 207.18 44.575C206.83 44.4583 206.413 44.4 205.93 44.4C205.33 44.4 204.847 44.5083 204.48 44.725C204.113 44.9417 203.847 45.2 203.68 45.5C203.513 45.8 203.43 46.0917 203.43 46.375C203.43 46.8417 203.58 47.2 203.88 47.45C204.18 47.7 204.563 47.9083 205.03 48.075C205.513 48.225 206.013 48.375 206.53 48.525C207.063 48.6583 207.563 48.85 208.03 49.1C208.513 49.35 208.897 49.7 209.18 50.15C209.48 50.6 209.63 51.2 209.63 51.95C209.63 52.9333 209.28 53.7167 208.58 54.3C207.88 54.8833 206.888 55.175 205.605 55.175Z" fill="#2D5781"/>
</svg>
