<svg width="284" height="400" viewBox="0 0 284 400" fill="none" xmlns="http://www.w3.org/2000/svg">
<g clip-path="url(#clip0_78_316)">
<path fill-rule="evenodd" clip-rule="evenodd" d="M63.4535 0.516641C59.5482 1.42035 54.567 4.06694 52.0065 6.62745C50.425 8.19819 49.1232 10.2638 47.5095 13.6312C45.3147 18.1713 45.2179 18.4833 45.7128 20.2369C45.9818 21.2697 46.4336 23.4322 46.7026 25.046C46.9715 26.6597 47.9613 31.0169 48.9081 34.7931C53.1684 51.5011 53.8032 55.2235 54.1582 66.5952C54.4272 76.3424 54.0721 81.0976 52.2217 91.9637C48.9511 111.458 41.2695 127.456 26.2184 146.09C20.6563 152.921 17.8268 156.87 14.3196 162.529C3.08772 180.581 -0.548647 195.094 0.0753446 219.301C0.398099 230.619 0.753129 233.9 2.42069 241.313C3.9484 248.048 5.2932 252.093 9.24156 261.302C18.5369 283.131 28.6929 297.364 51.5546 320.764C56.6326 325.928 71.985 340.388 74.7714 342.593C75.5353 343.217 77.5579 344.842 79.2685 346.186C82.539 348.833 91.9312 355.439 97.1813 358.849C109.048 366.531 120.043 371.652 137.16 377.397C155.933 383.734 172.243 388.36 187.466 391.727C197.612 393.976 201.797 394.965 204.4 395.632C205.928 396.041 208.123 396.45 220.699 398.785C237.138 401.786 248.951 399.226 257.44 390.877C261.894 386.52 264.454 382.206 269.295 370.888C271.006 366.94 275.449 351.802 276.848 345.283C281.56 323.056 283.809 298.752 283.809 269.382C283.809 257.924 282.905 238.569 282.012 231.028C278.333 199.807 269.123 179.871 249.586 160.872C244.196 155.611 242.937 154.621 234.847 149.102C224.433 141.915 209.833 135.718 195.105 132.125C192.405 131.49 190.027 130.823 189.844 130.64C189.446 130.328 198.16 117.612 203.142 111.286C204.174 109.93 206.821 106.294 208.983 103.196C211.135 100.097 212.975 97.4935 213.072 97.4505C213.341 97.1815 218.279 101.001 222.098 104.368C224.067 106.111 226.229 107.908 226.81 108.317C228.198 109.22 231.974 110.382 233.545 110.382C235.073 110.382 240.828 108.542 243.389 107.241C245.993 105.896 250.167 101.668 251.426 99.0212C252.501 96.8158 252.727 93.4483 251.963 91.4688C250.845 88.5532 247.197 85.6807 244.594 85.6807C243.83 85.6807 243.335 85.2289 242.797 84.11C242.399 83.2063 242.033 82.4424 242.033 82.3564C242.033 82.2703 243.701 81.7324 245.724 81.1837C255.826 78.451 270.554 71.8023 274.373 68.209C276.579 66.1433 277.246 64.5726 275.998 64.5726C275.449 64.5726 275.449 64.2606 275.998 62.4639C276.353 61.3343 276.622 59.7636 276.622 58.9997C276.622 56.7512 275.363 52.4908 273.749 49.0696C270.694 42.7006 266.875 39.8711 261.216 39.8711C259.462 39.8711 257.483 40.1831 256.504 40.5812C255.6 40.947 251.824 42.0659 248.101 43.0126C235.17 46.38 227.036 49.4785 218.677 54.3305C216.934 55.3203 215.309 56.5253 215.04 56.9771C214.642 57.784 214.459 57.741 212.039 56.1272C203.454 50.2853 189.22 44.5834 178.935 42.7867C155.083 38.6554 136.353 43.3246 114.933 58.7307C111.2 61.4204 107.197 64.8416 98.1711 73.1471C96.1055 74.9868 92.2002 79.7958 89.9086 83.2063C89.0587 84.5081 87.9828 85.5409 87.9828 85.1428C87.9828 85.046 87.7569 83.1632 87.531 80.9685C86.5412 72.0713 86.1862 59.5376 86.1862 34.5672C86.1862 13.5021 86.0463 8.11212 85.5514 6.89642C84.7445 4.92762 81.6031 2.3671 78.5907 1.19442C75.4062 -0.0643169 67.4987 -0.376313 63.4535 0.516641V0.516641ZM77.063 7.66027C78.3217 8.29502 79.3976 9.18797 79.5374 9.63983C80.4304 13.1901 75.0404 17.7732 68.1227 19.43C63.5503 20.5059 52.8134 20.1509 51.5546 18.8921C50.9737 18.3112 52.1786 15.8797 54.61 12.7383C56.6326 10.0917 61.4309 7.30524 65.1211 6.67049C69.2954 5.90664 74.4164 6.35849 77.063 7.66027V7.66027ZM77.3319 28.4994C76.708 41.9368 77.0199 74.223 77.8699 79.6129C78.0097 80.3338 78.3217 84.11 78.5477 87.9293C79.3115 99.1503 80.3013 102.432 83.1738 103.776C86.2292 105.218 88.6499 103.508 89.3276 99.4193C89.5536 98.0315 89.6396 96.6436 89.5105 96.3209C89.1017 95.288 98.8489 82.4424 102.98 78.5801C120.323 62.4101 135.675 53.2547 150.683 50.2423C158.042 48.7576 163.529 48.6285 171.748 49.7044C180.14 50.7802 182.571 51.3612 189.263 53.8356C199.193 57.515 204.443 60.7964 225.648 76.4284C229.102 78.9459 233.685 82.2165 235.793 83.6581L239.613 86.3047L236.697 87.7464C233.276 89.3601 230.49 91.9637 228.112 95.6969L226.455 98.3004L222.453 94.6641C208.306 81.7754 186.832 73.5559 165.455 72.7921C153.954 72.3833 146.014 74.0938 136.213 78.989C129.166 82.5393 126.52 84.734 121.668 91.0707C114.524 100.28 113.136 102.346 111.157 106.563C107.025 115.277 105.541 122.647 105.229 136.213C105.003 146.09 104.508 149.64 103.163 152.383C101.592 155.385 96.6972 159.742 88.198 165.627C74.4164 175.105 69.6074 180.807 55.2771 204.659C50.8338 212.071 44.454 224.691 42.6574 229.672C41.0866 233.857 39.333 241.399 39.7418 242.077C40.1937 242.744 40.7316 242.034 43.2383 237.225C46.2507 231.566 51.8236 223.077 60.581 210.899C61.9258 209.016 63.8623 206.272 64.8521 204.885C69.5643 198.15 73.2007 193.481 73.6095 193.696C73.8785 193.836 74.0506 194.643 74.0506 195.406C74.0506 198.15 77.9129 210.189 81.0651 217.192C82.8188 221.098 86.3583 230.436 88.3809 236.418C95.0296 256.353 98.1281 263.809 99.5267 262.959C100.603 262.281 99.0318 249.037 96.6434 239.29C95.2125 233.319 93.007 225.143 91.3933 219.839C90.6725 217.59 90.8123 217.375 92.2432 218.354C94.7176 220.065 104.368 225.186 107.746 226.574C111.608 228.155 118.074 229.188 118.074 228.198C118.074 227.208 112.77 223.163 104.056 217.504C86.9931 206.455 86.4551 206.047 85.4223 204.035C83.0877 199.538 80.2045 191.361 79.6235 187.768C79.3545 186.025 79.4944 185.659 81.0221 183.777C82.7219 181.711 86.1862 178.881 92.6951 174.158C101.323 167.962 103.658 166.122 106.305 163.378C110.35 159.247 112.587 155.073 113.577 149.909C113.803 148.79 114.072 144.648 114.255 140.7C114.836 124.712 116.816 115.46 121.259 107.736L122.657 105.358L124.454 108.091C125.433 109.618 127.284 111.996 128.532 113.352C131.049 116.127 140.441 124.132 144.927 127.316C151.081 131.673 158.806 134.729 169.231 136.837L175.202 138.053L173.588 139.979C171.651 142.313 168.919 146.853 167.251 150.587C162.442 161.313 161.366 169.403 162.765 183.368C164.519 201.065 168.596 215.213 174.847 225.455L177.31 229.403L175.342 233.814C166.132 254.427 149.597 283.755 142.776 291.523C139.903 294.761 140.344 295.385 143.938 293.147C150.188 289.145 157.913 280.571 166.627 267.897C171.071 261.431 173.545 257.569 175.116 254.513C176.643 251.501 181.399 239.15 181.399 238.075C181.399 236.644 182.163 238.118 183.561 242.206C187.918 255.191 189.123 266.595 188.187 286.445C187.553 298.935 186.068 318.699 185.487 322.378C184.594 327.865 186.929 324.809 189.263 317.44C192.77 306.262 195.46 290.856 196.805 274.094C197.526 265.068 196.902 257.709 194.836 251.415C194.384 250.07 194.115 248.898 194.201 248.768C194.341 248.672 195.772 249.844 197.44 251.372C203.862 257.214 211.092 263.497 217.106 268.478C220.527 271.318 224.207 274.417 225.239 275.353C227.983 277.827 228.521 277.106 226.541 273.513C223.798 268.575 216.751 259.817 206.552 248.725C203.271 245.132 199.548 240.904 198.246 239.29C196.945 237.676 195.6 236.095 195.148 235.74C194.244 235.019 189.661 229.091 186.703 224.917C180.904 216.611 175.966 202.507 173.943 188.36C173.674 186.294 173.717 186.154 174.481 186.509C181.937 189.522 192.448 192.62 202.238 194.6C211.404 196.396 220.301 197.429 221.011 196.708C221.377 196.353 221.334 196.127 220.882 195.987C213.835 193.75 197.665 188.177 190.92 185.659C180.506 181.754 177.45 180.452 174.578 178.559L172.415 177.214V170.974C172.415 163.335 173.05 160.377 176.998 149.995C179.742 142.679 181.668 139.129 182.883 139.129C183.421 139.129 186.832 139.85 190.382 140.743C221.291 148.338 239.656 159.882 256.052 182.023C260.807 188.446 265.573 197.924 267.865 205.509C268.532 207.671 269.349 210.318 269.704 211.437C270.963 215.31 272.986 227.069 273.879 235.923C275.718 253.846 275.503 294.535 273.48 309.586C273.255 311.286 272.943 314.341 272.803 316.321C272.674 318.29 272.351 321.119 272.125 322.604C271.91 324.089 271.501 327.004 271.189 329.124C269.392 342.593 264.809 360.474 260.312 371.34C254.879 384.594 248.865 390.027 237.816 391.598C232.286 392.362 222.539 390.877 198.913 385.713C174.255 380.323 164.917 377.763 139.408 369.317C126.649 365.1 112.372 358.763 105.498 354.223C88.9619 343.4 81.4202 337.655 72.254 328.898C70.1453 326.875 66.6488 323.551 64.4003 321.442C56.9877 314.481 44.1851 300.549 36.1915 290.759C28.9618 281.915 20.7854 267.359 15.2663 253.481C10.5433 241.625 9.1555 234.707 8.47771 220.291C7.67083 202.41 9.01564 191.899 13.4696 181.345C17.9559 170.791 23.8408 161.27 31.2104 152.824C37.0415 146.09 43.8731 136.159 48.8543 127.09C55.7289 114.696 59.1932 103.561 61.7967 85.2289C62.8295 77.7733 62.8295 61.4311 61.7537 55.0083C60.7639 49.1234 58.3755 40.0433 55.5998 31.7377C54.3841 28.0045 53.4374 24.8631 53.5234 24.777C53.6203 24.6802 54.9651 24.82 56.5788 25.089C62.1087 26.0357 71.361 24.9599 75.1802 22.8943C76.17 22.3456 77.1491 21.9475 77.3319 21.9045C77.5148 21.9045 77.5148 24.8631 77.3319 28.4994V28.4994ZM261.571 45.5301C263.819 46.025 265.304 47.4128 267.187 50.6511C270.016 55.4924 271.049 61.0223 269.209 61.7001C268.22 62.0981 266.025 60.6673 264.314 58.5909C261.98 55.7614 259.107 49.7474 258.795 47.004C258.515 44.8953 258.569 44.7125 259.376 44.9384C259.828 45.0782 260.861 45.3472 261.571 45.5301V45.5301ZM253.448 50.2853C254.212 55.9013 259.279 64.1207 263.324 66.2294C264.357 66.7673 264.497 66.9933 264.002 67.2622C263.195 67.7141 251.017 71.7593 250.479 71.7593C249.586 71.7593 241.764 75.0298 240.291 76.0734C238.397 77.3214 237.859 77.4182 237.052 76.3854C235.976 75.1267 223.981 64.5296 221.732 62.905C219.624 61.3773 219.043 60.5274 220.118 60.5274C220.387 60.5274 223.357 59.4946 226.724 58.2359C235.342 55.0514 237.321 54.2445 245.186 50.9201C248.994 49.2956 252.372 47.9938 252.641 47.9938C252.91 47.9508 253.308 48.9836 253.448 50.2853V50.2853ZM175.299 82.0874L178.795 82.6684L175.74 84.1961C172.469 85.8636 165.282 90.5328 160.065 94.4812C153.782 99.2041 150.952 101.808 146.186 107.284C143.497 110.339 140.979 113.212 140.57 113.664C139.86 114.384 139.591 114.244 135.094 110.963C129.295 106.66 125.842 103.776 125.53 102.884C125.121 101.851 131.77 93.0933 134.599 90.8448C137.386 88.6393 146.907 83.798 149.962 82.9373C156.611 81.1406 167.251 80.7856 175.299 82.0874ZM189.941 85.5409C195.912 87.3913 203.905 91.1138 208.93 94.3521L212.394 96.5898L209.693 97.8916C203.54 100.861 190.608 115.191 185.261 124.981C184.594 126.197 183.69 127.725 183.238 128.306L182.388 129.425L178.44 128.801C165.767 126.961 159.258 125.068 150.952 120.85C147.811 119.279 145.11 117.795 144.884 117.612C144.346 117.074 155.75 106.251 164.562 98.9244C169.005 95.202 174.664 90.2208 177.138 87.7894C182.345 82.7114 181.356 82.8943 189.941 85.5409V85.5409ZM244.282 92.3725C246.218 96.0089 241.495 101.13 235.342 102.077L233.416 102.389L234.901 99.5592C236.471 96.6866 238.935 93.8572 241.366 92.3725C243.066 91.2967 243.701 91.2967 244.282 92.3725Z" fill="#8FA7BD"/>
<path fill-rule="evenodd" clip-rule="evenodd" d="M64.2174 7.97234C61.8828 8.46723 60.0001 9.59687 60.2691 10.3607C60.495 10.9417 60.2691 10.9847 65.7451 9.99493C70.7263 9.10198 71.1782 8.96212 70.6402 8.4242C69.9732 7.75717 66.4659 7.53124 64.2174 7.97234V7.97234Z" fill="#8FA7BD"/>
<path fill-rule="evenodd" clip-rule="evenodd" d="M73.2437 8.96195C73.4266 10.2207 75.2663 10.6725 75.7182 9.55366C76.0301 8.69299 75.1802 7.97217 73.9215 7.97217C73.3405 7.97217 73.1146 8.24113 73.2437 8.96195V8.96195Z" fill="#8FA7BD"/>
<path fill-rule="evenodd" clip-rule="evenodd" d="M57.9344 33.1254C57.9344 33.4912 58.3755 35.4169 58.9673 37.3965C59.6773 39.7741 60.269 41.0329 60.7639 41.1189C61.9689 41.3987 62.0657 40.0001 61.0759 37.4826C60.0431 34.9221 57.9344 32.0065 57.9344 33.1254V33.1254Z" fill="#8FA7BD"/>
<path fill-rule="evenodd" clip-rule="evenodd" d="M61.7537 46.4662C61.8828 47.4129 62.5606 50.6943 63.1415 53.7927C63.9484 57.7841 64.3035 61.6033 64.4863 67.1762C64.7123 74.137 65.0243 75.9767 65.8312 75.1698C65.971 75.0299 66.283 73.0611 66.4659 70.7696C66.9178 66.0036 66.283 56.3962 65.2502 52.222C63.9484 46.918 60.936 42.0229 61.7537 46.4662V46.4662Z" fill="#8FA7BD"/>
<path fill-rule="evenodd" clip-rule="evenodd" d="M155.126 51.7698C150.36 52.4906 145.96 54.4164 146.95 55.4061C147.09 55.546 149.285 55.3201 151.845 54.9112C154.363 54.5132 159.215 54.0613 162.539 53.9215C168.241 53.6955 169.048 53.7924 176.504 55.3201C185.175 57.0737 185.444 57.1167 185.444 56.525C185.444 55.9871 177.224 52.7595 173.405 51.7698C170.081 50.9198 160.785 50.9198 155.126 51.7698V51.7698Z" fill="#8FA7BD"/>
<path fill-rule="evenodd" clip-rule="evenodd" d="M189.532 57.1172C189.263 57.4292 189.123 58.0532 189.306 58.4189C189.618 59.3119 193.62 60.8396 197.934 61.7433C201.119 62.4103 202.238 62.3243 201.345 61.4313C200.893 60.9795 190.92 56.4824 190.382 56.4824C190.21 56.4824 189.801 56.7514 189.532 57.1172Z" fill="#8FA7BD"/>
<path fill-rule="evenodd" clip-rule="evenodd" d="M117.622 140.656C117.622 146.003 116.773 152.921 115.74 155.654C114.255 159.656 112.05 162.614 107.38 166.842C97.3212 175.912 93.5881 179.957 94.6747 180.678C95.1696 180.947 96.1055 180.183 105.681 171.469C118.881 159.473 120.721 155.385 119.15 141.603C118.569 136.299 117.622 135.718 117.622 140.656Z" fill="#8FA7BD"/>
<path fill-rule="evenodd" clip-rule="evenodd" d="M182.432 142.453C180.904 143.712 178.031 149.597 178.44 150.587C178.838 151.706 180.054 151.351 180.861 149.866C181.27 149.102 182.163 147.574 182.84 146.498C184.271 144.207 184.68 144.11 190.027 145.283C193.437 146.004 194.341 145.961 193.803 145.014C193.437 144.476 185.53 141.377 184.454 141.377C184.056 141.377 183.109 141.872 182.432 142.453V142.453Z" fill="#8FA7BD"/>
<path fill-rule="evenodd" clip-rule="evenodd" d="M27.9291 165.272C23.346 171.06 22.0872 174.653 24.5617 174.965C25.1426 175.062 25.9065 174.879 26.3153 174.524C27.9721 173.179 31.3826 163.647 30.5326 162.797C30.3497 162.615 29.1878 163.701 27.9291 165.272Z" fill="#8FA7BD"/>
<path fill-rule="evenodd" clip-rule="evenodd" d="M18.8597 182.873C16.5681 186.154 13.7387 192.932 11.5762 200.215C9.65045 206.638 10.0485 216.923 12.523 224.648C14.0076 229.274 15.2664 230.888 16.4713 229.672C17.0092 229.134 17.0092 228.198 16.3422 223.303C15.4815 216.558 15.3524 207.531 16.1163 203.357C16.3853 201.743 17.2352 198.193 17.999 195.492C19.7096 189.253 21.0975 181.711 20.6026 181.216C20.4304 180.99 19.6236 181.754 18.8597 182.873V182.873Z" fill="#8FA7BD"/>
<path fill-rule="evenodd" clip-rule="evenodd" d="M180.28 207.359C180.011 207.843 181.668 212.469 183.195 215.482C185.089 219.215 189.801 226.036 191.555 227.66C193.932 229.769 197.569 232.233 197.881 231.921C198.02 231.792 197.483 230.931 196.719 229.995C188.682 220.42 184.099 213.868 182.883 210.189C181.894 207.219 181.001 206.229 180.28 207.359V207.359Z" fill="#8FA7BD"/>
<path fill-rule="evenodd" clip-rule="evenodd" d="M198.645 234.847C198.289 235.471 199.591 237.268 201.474 238.709C203.497 240.237 203.636 239.376 201.797 236.687C200.269 234.395 199.279 233.857 198.645 234.847Z" fill="#8FA7BD"/>
<path fill-rule="evenodd" clip-rule="evenodd" d="M266.649 300.108C266.111 300.603 265.885 302.529 265.659 308.328C265.304 316.859 264.583 323.411 262.7 335.138C261.98 339.624 261.216 345.283 260.947 347.757C260.678 350.232 260.366 353.19 260.226 354.363C259.914 357.01 260.635 357.236 261.668 354.815C263.421 350.587 266.197 339.14 267.639 330.243C268.402 325.39 269.435 313.578 269.435 309.307C269.435 304.863 268.811 300.872 267.907 300.011C267.413 299.516 267.187 299.516 266.649 300.108V300.108Z" fill="#8FA7BD"/>
<path fill-rule="evenodd" clip-rule="evenodd" d="M256.902 361.593C256.052 362.668 255.062 365.412 253.943 370.124C251.963 378.3 252.544 378.655 256.009 371.426C259.419 364.196 260 362.668 259.505 361.775C258.967 360.872 257.622 360.786 256.902 361.593V361.593Z" fill="#8FA7BD"/>
<path fill-rule="evenodd" clip-rule="evenodd" d="M244.863 53.3406C243.701 53.7925 243.475 55.0512 244.465 55.4063C245.089 55.6752 248.327 53.8355 248.327 53.2115C248.327 52.7597 246.079 52.8458 244.863 53.3406Z" fill="#8FA7BD"/>
<path fill-rule="evenodd" clip-rule="evenodd" d="M237.095 56.9771C235.751 57.472 232.555 58.5908 230.092 59.4515C224.884 61.2482 223.798 61.8722 224.207 62.948C224.788 64.5295 229.285 63.2708 236.375 59.4946C242.399 56.3531 242.797 54.8684 237.095 56.9771V56.9771Z" fill="#8FA7BD"/>
</g>
<defs>
<clipPath id="clip0_78_316">
<rect width="283.809" height="400" fill="white"/>
</clipPath>
</defs>
</svg>
