<svg width="237" height="250" viewBox="0 0 237 250" fill="none" xmlns="http://www.w3.org/2000/svg">
<g clip-path="url(#clip0_4_166)">
<path fill-rule="evenodd" clip-rule="evenodd" d="M114.216 0.200178C111.576 0.720067 107.957 3.33284 106.924 5.47905C106.624 6.10558 106.297 7.47196 106.217 8.50507C106.131 9.53819 105.997 10.4913 105.917 10.598C105.857 10.7046 105.971 11.2245 106.157 11.7111C106.377 12.2309 106.624 14.0239 106.731 15.7435C106.951 19.0628 107.817 27.0878 108.257 29.6206C108.823 32.9932 109.83 45.3439 110.023 51.2493C110.43 64.9397 106.404 79.2766 98.379 92.5871C96.6327 95.5265 92.007 102.518 91.0872 103.631L90.5407 104.311L90.674 103.225C91.5205 97.2128 91.6538 85.1021 90.9473 79.8232C90.374 75.5241 89.1543 69.9986 87.8213 65.8662C83.6821 52.9956 75.7105 45.4838 64.9861 44.3641C62.3467 44.0975 58.3475 44.2841 55.9814 44.8307C52.5821 45.5905 47.9564 47.69 44.1972 50.1629C39.9848 52.9689 32.7463 59.7675 28.4473 64.993C25.7812 68.2057 20.8555 75.8774 17.7762 81.5895C17.0164 83.0092 16.2565 84.4222 16.0632 84.7221C13.2305 89.5678 6.07869 109.537 4.87895 116.015C4.71898 116.909 4.39239 118.435 4.17243 119.415C2.45946 126.787 1.55966 134.378 0.499882 149.755C0.00665435 156.667 -0.0733286 159.58 0.0666416 165.812C0.446561 184.208 1.6663 194.572 4.49903 203.363C7.51838 212.721 9.67126 217.267 13.8037 223.093C15.3034 225.212 19.3825 229.025 22.0486 230.791C29.1538 235.523 46.2435 240.289 57.5344 240.696C64.0663 240.942 68.6387 240.202 74.2975 238.029C77.6168 236.75 84.3087 232.044 87.0014 229.105C87.3547 228.725 88.3345 227.658 89.181 226.765C97.9724 217.427 103.358 206.216 105.831 191.933C106.571 187.767 106.837 177.596 106.377 172.53C105.944 167.931 105.124 162.766 104.284 159.033C103.465 155.554 100.965 146.816 99.9853 144.043C97.0193 135.605 95.8729 133.132 94.2132 131.685C93.48 131.006 93.3134 130.732 93.5334 130.352C93.8333 129.813 97.0193 126.68 102.272 121.808C108.09 116.395 111.03 113.183 113.422 109.67C113.942 108.91 114.462 108.257 114.542 108.257C114.622 108.257 114.949 108.724 115.249 109.29C116.282 111.117 120.934 116.942 124.28 120.641C126.593 123.167 137.177 134.518 137.751 135.065C138.077 135.358 138.977 136.398 139.79 137.318L141.263 139.037L140.143 144.256C138.977 149.702 138.81 150.761 137.917 157.92C136.524 168.858 136.611 184.368 138.077 193.019C139.49 201.291 142.923 213.375 145.509 219.227C149.075 227.252 156.42 237.836 161.179 241.782C167.551 247.061 173.97 249.514 182.541 249.947C193.999 250.493 207.056 245.701 216.147 237.65C221.02 233.324 223.579 230.464 226.158 226.492C229.344 221.566 232.257 214.981 233.537 209.755C233.643 209.376 233.89 208.396 234.103 207.576C236.176 200.044 236.829 193.619 236.583 183.228C236.283 170.137 235.25 159.959 233.017 147.715C232.83 146.596 232.444 144.316 232.204 142.683C231.957 141.023 231.437 138.217 231.057 136.424C230.677 134.625 230.104 131.739 229.751 130.026C228.311 122.954 226.185 114.003 225.099 110.57C221.833 100.285 220.72 97.2661 217.047 89.2079C212.695 79.6566 209.862 74.7909 204.39 67.5525C199.577 61.1272 194.978 56.7481 188.966 52.7756C185.64 50.5694 183.221 49.5097 178.049 47.9567C175.822 47.2768 175.196 47.1968 171.11 47.1968C166.704 47.1968 166.598 47.1968 164.198 48.0966C154.734 51.5759 148.035 59.3875 143.736 71.8782C142.843 74.5443 142.05 78.3235 141.723 81.7828C141.45 84.8554 141.563 87.0883 142.376 94.6534C142.596 96.6663 142.87 99.0591 142.949 99.9589L143.109 101.592L142.49 100.805C141.836 99.9856 139.004 96.1797 138.024 94.76C137.724 94.3268 136.911 93.047 136.231 91.9339C129.346 80.583 126.98 67.4658 127.819 45.8104C127.986 41.9179 128.279 32.6133 128.526 25.1282C128.746 17.6431 129.072 11.0045 129.206 10.3513C129.559 8.88499 129.559 7.00539 129.206 6.10558C128.799 4.96583 126.76 2.95292 125.287 2.21975C121.694 0.39347 117.315 -0.393029 114.216 0.200178ZM117.968 4.71921C121.074 5.45239 124.853 7.52528 124.853 8.50507C124.853 8.6917 124.367 9.42488 123.767 10.1114C122.267 11.7977 120.334 12.5309 117.315 12.5042C114.702 12.5042 113.289 12.1776 111.17 11.0579C108.91 9.83812 108.77 8.77168 110.676 6.6788C111.823 5.39907 113.969 4.31263 115.329 4.31263C115.849 4.31263 117.042 4.50593 117.968 4.71921ZM124.04 18.243C123.874 19.3028 123.574 22.5154 123.36 25.3748C123.14 28.2342 122.84 32.1467 122.674 34.1063C121.834 45.1839 121.587 60.2607 122.161 66.3527C123.574 81.9161 127.793 92.1739 138.191 105.264C139.057 106.384 140.39 108.044 141.097 108.964C141.803 109.89 143.329 111.69 144.443 113.023C145.562 114.329 147.142 116.202 147.928 117.209C148.748 118.188 150.021 119.795 150.841 120.774C152.394 122.707 157.673 129.999 159.846 133.292C160.612 134.412 161.945 136.371 162.812 137.644C163.685 138.924 166.784 143.496 169.697 147.849C177.129 158.926 182.214 165.645 184.041 166.765C184.854 167.278 186.08 167.498 186.08 167.145C186.08 167.065 185.86 166.651 185.587 166.271C185.314 165.865 184.634 164.505 184.041 163.225C182.321 159.413 178.082 151.035 176.502 148.262C175.683 146.842 173.97 143.85 172.663 141.59C171.383 139.364 170.35 137.484 170.404 137.458C170.457 137.404 171.223 137.538 172.09 137.784C175.356 138.624 189.779 138.491 199.684 137.511C205.096 136.964 217.127 135.498 217.614 135.305C218.353 135.065 217.507 134.678 215.601 134.412C212.308 133.918 206.076 133.592 197.505 133.432C192.939 133.345 185.967 133.158 181.994 132.992C173.21 132.665 171.083 132.259 168.117 130.246L166.871 129.426L166.898 126.787C166.951 123.82 167.224 123.007 168.911 120.774C172.636 115.849 189.62 103.905 196.911 101.132C197.618 100.859 198.051 100.505 198.051 100.232C198.051 99.7989 197.724 99.7723 194.865 99.8789C192.066 99.9856 191.279 100.152 188.666 101.019C184.721 102.352 180.775 104.338 175.849 107.524C167.957 112.61 164.638 115.549 162.485 119.415C161.945 120.395 161.232 121.594 160.906 122.081L160.312 122.954L159.546 121.808C159.113 121.154 158.433 120.201 158.026 119.688C157.586 119.168 156.28 117.508 155.114 116.015C153.914 114.516 151.954 112.15 150.734 110.79L148.528 108.257L148.282 104.938C148.008 101.485 147.355 95.0333 146.895 91.2541C146.729 90.0544 146.622 87.2816 146.622 85.0754C146.622 81.8094 146.762 80.4231 147.329 77.7303C148.448 72.2848 150.868 66.7593 154.187 61.947C156.667 58.3544 161.479 54.6552 165.478 53.2622C167.738 52.4757 172.15 52.2824 174.789 52.8289C187.06 55.4151 198.218 66.0528 208.502 84.9954C210.268 88.2347 214.134 96.9129 216.121 101.998C217.887 106.624 220.393 115.009 221.726 120.774C222.186 122.787 222.759 125.214 222.979 126.167C224.232 131.552 225.725 139.304 226.898 146.489C227.631 150.981 228.365 155.334 228.531 156.154C231.224 170.984 232.064 191.986 230.351 201.864C229.538 206.516 228.285 211.822 227.305 214.761C225.918 218.9 223.059 224.179 220.34 227.658C217.674 231.038 212.335 235.743 208.422 238.163C197.265 245.075 184.147 247.147 173.89 243.608C169.211 242.002 164.472 238.903 161.805 235.663C153.401 225.539 149.588 218.52 146.515 207.443C143.876 197.971 142.756 192.479 142.27 186.354C141.396 175.443 141.75 167.331 143.763 153.021C144.256 149.428 144.742 145.836 144.856 145.049C144.962 144.289 145.096 143.636 145.182 143.636C145.536 143.636 148.528 147.309 153.401 153.701C155.987 157.133 159.986 163.092 162.679 167.578C165.318 171.99 173.943 189.213 178.322 198.871C183.901 211.115 187.52 217.347 190.626 220.1C191.712 221.046 192.612 221.486 192.612 221.046C192.612 220.993 192.199 220.153 191.686 219.227C190.653 217.374 188.64 212.562 187.413 209.076C186.62 206.789 185.86 204.83 184.447 201.184C182.648 196.558 181.075 192.313 179.628 188.127C178.815 185.727 178.022 183.581 177.889 183.308C177.562 182.681 177.615 182.681 179.928 183.528C181.561 184.148 182.434 184.261 185.674 184.394C193.205 184.641 215.627 181.921 217.56 180.502C217.834 180.315 217.973 180.068 217.887 179.988C217.807 179.882 216.094 179.555 214.081 179.255C210.948 178.762 209.182 178.682 201.397 178.709C195.518 178.709 191.739 178.815 190.653 179.035C189.7 179.229 187.273 179.362 185.26 179.389C181.615 179.415 181.561 179.389 178.162 178.249L174.729 177.076L172.53 172.75C170.544 168.858 169.044 166.191 166.544 161.919C164.991 159.36 159.599 151.441 157.913 149.322C157.02 148.175 155.007 145.622 153.427 143.636C151.848 141.65 149.508 138.844 148.202 137.404C146.762 135.825 145.749 134.465 145.642 133.972C145.422 132.885 145.016 132.425 144.449 132.612C144.089 132.719 142.843 131.579 139.657 128.206C137.291 125.7 134.511 122.841 133.505 121.868C125.94 114.489 117.508 104.691 117.508 103.252C117.508 103.005 117.755 102.325 118.021 101.785C119.275 99.3324 119.275 97.3461 117.995 96.9662C117.102 96.6663 116.448 97.0995 115.055 99.0324C114.322 100.066 113.562 100.912 113.396 100.912C113.262 100.912 112.963 101.319 112.743 101.812C111.496 104.858 105.591 111.063 97.2326 118.188C89.5342 124.747 81.8092 133.158 77.83 139.277C77.0169 140.557 75.9038 142.27 75.3572 143.09C74.4041 144.583 71.0315 151.115 70.0517 153.427C69.2319 155.36 67.8722 159.2 66.4591 163.579L65.1528 167.604L62.7866 169.864C58.0476 174.383 53.3419 177.429 47.4365 179.769C34.9459 184.747 25.3146 189.373 21.642 192.066C18.9493 194.059 18.7293 194.925 21.1821 193.972C21.9686 193.672 25.9944 192.452 30.1336 191.253C37.372 189.187 46.3768 186.38 49.4761 185.187C53.3153 183.741 57.561 181.295 60.3338 178.955L62.32 177.296L62.1601 178.216C62.0534 178.735 61.5602 180.562 61.047 182.275C55.6281 200.531 53.4819 209.649 53.2353 215.441C53.1287 218.14 53.5886 218.274 54.6483 215.907C56.2013 212.502 60.5804 201.431 62.6466 195.745C65.4527 187.933 68.3121 180.122 69.2919 177.509C69.7251 176.316 70.6782 173.377 71.3848 170.984C74.3241 160.993 76.6103 155.007 79.463 149.648C80.9894 146.816 85.2885 140.204 86.9481 138.137C87.5213 137.458 88.5278 136.178 89.181 135.331C90.4874 133.672 90.6207 133.698 90.9739 135.605C91.0872 136.204 91.8737 138.357 92.7469 140.37C97.1526 150.681 99.7654 161.186 100.772 172.883C101.425 180.422 101.232 185.754 100.065 191.799C97.5858 204.723 92.9602 214.355 85.0685 222.979C77.5901 231.198 70.8649 234.63 61.0736 235.17C53.3153 235.61 39.3316 232.584 29.9136 228.425C21.2355 224.612 16.0099 217.754 11.4109 204.123C8.69147 196.125 7.4384 188.807 6.73189 176.829C6.37863 171.01 6.53859 154.221 7.00516 146.629C8.19824 127.386 10.951 113.263 16.2299 99.1457C18.7027 92.5871 20.4423 88.5547 22.5152 84.7221C27.6274 75.1975 32.693 67.9857 37.8586 62.7602C43.764 56.8014 48.4163 53.4555 53.7752 51.3626C56.9345 50.1362 58.7608 49.7563 61.5869 49.7563C71.4647 49.7563 78.3499 55.6617 82.3491 67.5791C85.4818 76.9105 86.4615 84.9421 85.915 97.4861C85.7817 101.105 85.5351 104.938 85.3951 106.024C85.2351 107.117 85.1285 108.697 85.1285 109.51C85.1285 110.87 85.0418 111.063 83.8221 112.396C80.3895 116.149 79.3031 117.235 78.8965 117.235C78.6499 117.235 77.5035 118.082 76.3637 119.115C73.9709 121.214 71.1915 122.707 69.3452 122.901C68.1455 123.007 68.0121 122.954 67.219 122.001C66.7857 121.428 65.8059 119.821 65.0728 118.408C64.2796 116.829 63.1399 115.142 62.1601 114.083C56.8545 108.257 42.4843 102.465 38.9517 104.691C37.7253 105.458 37.8319 105.784 39.2716 105.758C40.7713 105.731 43.4907 106.977 48.4963 110.003C56.148 114.629 58.7341 116.855 61.1803 120.968C63.6864 125.187 64.9328 126.38 67.6589 127.06L69.3719 127.5L67.7922 128.886C65.6393 130.732 62.8399 132.365 58.2676 134.378C50.5692 137.811 48.6629 138.324 43.9573 138.111C42.131 138.031 38.6251 137.758 36.1456 137.511C32.693 137.158 30.4068 137.078 26.2144 137.211C19.9824 137.404 18.7293 137.564 18.7293 138.084C18.7293 138.491 19.4092 138.677 23.7949 139.657C25.4212 140.044 27.874 140.584 29.2071 140.91C30.5668 141.237 33.1796 141.783 35.0592 142.137C36.9321 142.49 40.4714 143.17 42.9508 143.663C47.0833 144.449 47.6032 144.503 49.5361 144.229C51.2224 143.99 54.2951 143.01 57.6943 141.59C58.0476 141.457 57.861 142.163 56.8545 144.643C55.2749 148.449 53.3153 154.654 52.4755 158.466C51.6556 162.192 51.549 168.124 52.3088 170.297C52.962 172.257 53.5886 173.29 54.0751 173.29C54.3751 173.29 54.4017 172.997 54.2684 171.824C53.9152 168.724 55.0283 164.072 58.1876 155.467C61.2069 147.222 63.873 141.917 66.979 137.997C67.7122 137.078 69.5851 135.198 71.1648 133.812C72.7178 132.452 75.1106 130.079 76.4703 128.586C77.8634 127.06 79.1698 125.647 79.4097 125.4C81.8625 122.927 91.0872 112.343 93.2334 109.564C94.9197 107.364 98.6256 101.918 100.992 98.1393C108.557 86.0552 112.583 75.6041 114.702 62.8135C115.769 56.3682 115.082 40.2583 113.316 30.3004C112.476 25.5348 110.976 16.9099 110.87 16.0701C110.783 15.5769 110.87 15.4703 111.223 15.6302C112.829 16.2834 114.975 16.6367 117.508 16.6633C119.874 16.6633 120.688 16.5567 122.267 16.0101C124.527 15.197 124.527 15.197 124.04 18.243ZM161.319 123.387C161.319 123.987 161.259 124.067 160.906 123.767C160.579 123.494 160.552 123.334 160.799 123.061C161.232 122.514 161.319 122.574 161.319 123.387Z" fill="#8FA7BD"/>
<path fill-rule="evenodd" clip-rule="evenodd" d="M112.743 6.07877C111.55 6.51867 110.923 7.1452 111.17 7.73841C111.383 8.31162 112.009 8.20498 113.482 7.30517C114.189 6.84527 114.922 6.49201 115.055 6.49201C115.222 6.49201 115.329 6.29872 115.329 6.07877C115.329 5.56554 114.216 5.56554 112.743 6.07877Z" fill="#8FA7BD"/>
<path fill-rule="evenodd" clip-rule="evenodd" d="M117.368 5.9457C117.128 6.35228 117.482 6.75886 118.048 6.75886C118.701 6.75886 119.028 6.21897 118.568 5.91904C118.048 5.59244 117.588 5.6191 117.368 5.9457Z" fill="#8FA7BD"/>
<path fill-rule="evenodd" clip-rule="evenodd" d="M54.5684 52.9954C52.1489 53.6753 49.2095 55.5482 49.2095 56.4747C49.2095 57.2345 50.076 57.1279 51.8756 56.2014C52.8821 55.6882 54.3751 55.0616 55.1949 54.7884C57.3144 54.1085 59.274 53.262 59.274 53.0221C59.274 52.3422 57.0678 52.3422 54.5684 52.9954Z" fill="#8FA7BD"/>
<path fill-rule="evenodd" clip-rule="evenodd" d="M174.729 55.0883C174.463 55.8215 176.009 56.8812 181.041 59.414C185.674 61.7269 187.167 62.3001 187.167 61.7802C187.167 61.3736 183.901 59.0608 180.801 57.2678C176.362 54.6551 175.083 54.2152 174.729 55.0883Z" fill="#8FA7BD"/>
<path fill-rule="evenodd" clip-rule="evenodd" d="M45.2637 58.7079C44.5238 59.1411 42.7309 60.6408 41.2912 62.0272C35.6857 67.526 29.6936 76.9907 23.9282 89.508C21.9686 93.8071 21.4221 95.5267 21.942 95.8533C22.4285 96.1532 23.5216 94.4069 26.6476 88.2283C31.7932 78.0838 32.773 76.3708 36.1189 71.3852C38.5917 67.686 41.1512 64.5866 43.0041 63.0336C44.3905 61.8939 47.3032 58.5746 47.3032 58.1347C47.3032 57.7281 46.6234 57.9214 45.2637 58.7079Z" fill="#8FA7BD"/>
<path fill-rule="evenodd" clip-rule="evenodd" d="M191.359 65.9193C191.139 66.4591 191.439 66.9524 195.465 72.7511C198.898 77.6434 201.944 82.8423 205.13 89.2076C207.222 93.3734 210.022 98.219 210.295 98.0524C211.115 97.5659 207.469 88.6144 203.223 80.7228C200.937 76.4237 199.791 74.764 195.412 69.2919C192.579 65.726 191.712 64.9928 191.359 65.9193Z" fill="#8FA7BD"/>
<path fill-rule="evenodd" clip-rule="evenodd" d="M115.082 68.5856C114.922 69.0721 114.322 71.445 113.722 73.8378C112.689 77.9969 111.03 83.0892 109.477 86.735C107.93 90.4609 107.71 91.1141 108.064 91.1141C108.937 91.1141 112.336 84.8821 113.562 81.0496C114.349 78.5701 116.415 69.3454 116.415 68.339C116.415 67.3325 115.435 67.5258 115.082 68.5856Z" fill="#8FA7BD"/>
<path fill-rule="evenodd" clip-rule="evenodd" d="M104.471 96.5863C103.685 98.2459 103.111 99.6589 103.218 99.7656C103.438 100.012 103.845 99.4723 105.591 96.6129C106.897 94.46 107.084 93.5669 106.271 93.5669C106.051 93.5669 105.264 94.8999 104.471 96.5863Z" fill="#8FA7BD"/>
<path fill-rule="evenodd" clip-rule="evenodd" d="M149.261 95.3864C149.181 95.4998 149.261 96.3396 149.401 97.2394C149.535 98.1392 149.588 100.505 149.535 102.492C149.368 106.517 149.561 107.524 150.948 109.377C151.821 110.57 154.16 112.503 154.407 112.256C154.487 112.176 153.967 111.09 153.207 109.837C150.921 105.998 151.001 106.297 151.001 101.918C151.001 98.819 150.894 97.7259 150.515 96.6928C150.048 95.4398 149.535 94.9265 149.261 95.3864Z" fill="#8FA7BD"/>
<path fill-rule="evenodd" clip-rule="evenodd" d="M82.0225 98.5192C81.9159 99.1724 81.8892 101.345 81.9159 103.358L81.9958 107.037L80.7961 109.35C80.1429 110.623 79.3298 112.043 78.9765 112.53C78.13 113.616 78.13 114.083 78.9498 113.809C81.476 113.023 84.3087 108.857 84.3087 105.891C84.3087 103.771 83.7888 99.7123 83.3822 98.4926C82.869 97.0462 82.2158 97.0462 82.0225 98.5192Z" fill="#8FA7BD"/>
<path fill-rule="evenodd" clip-rule="evenodd" d="M127.22 113.076C126.866 113.429 127.06 113.729 129.726 116.882C132.965 120.748 138.51 126.22 138.677 125.727C138.837 125.213 137.644 123.58 133.858 119.141C129.399 113.889 127.819 112.449 127.22 113.076Z" fill="#8FA7BD"/>
<path fill-rule="evenodd" clip-rule="evenodd" d="M139.903 126.927C139.657 127.553 140.09 128.153 141.343 128.86C142.816 129.699 143.143 129.24 142.103 127.8C141.237 126.547 140.203 126.134 139.903 126.927Z" fill="#8FA7BD"/>
<path fill-rule="evenodd" clip-rule="evenodd" d="M78.7832 154.901C77.5901 156.12 76.0638 160.233 74.6774 165.972C73.6176 170.437 72.8778 174.136 72.8778 175.09C72.8778 177.456 74.5974 172.803 76.4437 165.292C77.0436 162.925 77.97 159.686 78.4832 158.107C79.523 154.954 79.603 154.107 78.7832 154.901Z" fill="#8FA7BD"/>
<path fill-rule="evenodd" clip-rule="evenodd" d="M55.3282 183.528C54.595 184.041 52.882 185.161 51.5223 186.001C49.0695 187.5 47.8431 188.447 47.8431 188.833C47.8431 189.727 50.6225 188.613 54.595 186.107C55.8214 185.347 56.8279 184.888 56.8279 185.048C56.8012 185.241 56.4746 186.9 56.0347 188.72C55.0549 193.046 55.5215 193.106 57.3144 188.887C59.6539 183.388 58.8141 181.128 55.3282 183.528Z" fill="#8FA7BD"/>
<path fill-rule="evenodd" clip-rule="evenodd" d="M182.594 185.894C181.835 186.247 181.615 187.087 181.835 188.72C182.108 190.706 183.821 194.139 184.281 193.672C184.367 193.619 184.201 192.259 183.954 190.653C183.741 189.047 183.601 187.634 183.714 187.554C183.821 187.44 185.754 187.334 188.04 187.28C190.326 187.254 192.666 187.087 193.265 186.954C194.272 186.681 195.005 186.221 194.758 186.001C194.458 185.727 183.168 185.621 182.594 185.894Z" fill="#8FA7BD"/>
<path fill-rule="evenodd" clip-rule="evenodd" d="M81.5626 220.26C81.0427 220.887 75.1906 224.726 73.7776 225.372C72.5245 225.919 72.1446 226.492 72.6645 227.092C73.8043 228.478 79.6297 224.752 81.9692 221.133C82.5691 220.207 82.2158 219.474 81.5626 220.26Z" fill="#8FA7BD"/>
<path fill-rule="evenodd" clip-rule="evenodd" d="M30.1602 223.773C29.9936 223.986 29.9403 224.286 30.0203 224.479C30.5401 225.292 39.3583 228.585 44.5238 229.891C52.6621 231.931 60.4738 232.451 65.4527 231.251C67.8189 230.711 68.552 230.385 68.0655 230.085C67.9255 230.005 66.0259 229.865 63.7664 229.785C59.2207 229.565 51.709 228.938 48.7963 228.505C45.317 227.985 43.1375 227.419 37.5053 225.566C30.6201 223.279 30.5668 223.253 30.1602 223.773Z" fill="#8FA7BD"/>
<path fill-rule="evenodd" clip-rule="evenodd" d="M209.209 233.184C204.556 236.07 196.471 239.496 191.139 240.889C188.693 241.509 184.474 242.002 179.682 242.222C178.162 242.275 178.109 242.302 178.815 242.602C181.288 243.715 187.547 243.795 191.332 242.815C199.084 240.802 206.729 237.21 210.542 233.784C211.275 233.13 211.681 232.584 211.548 232.397C211.275 231.931 211.168 231.957 209.209 233.184Z" fill="#8FA7BD"/>
<path fill-rule="evenodd" clip-rule="evenodd" d="M164.365 234.437C166.131 236.943 169.237 239.822 171.137 240.749C173.183 241.755 174.516 241.808 174.516 240.915C174.516 240.562 174.049 240.095 173.21 239.549C170.457 237.863 168.717 236.643 166.544 234.923C163.818 232.777 163.059 232.61 164.365 234.437Z" fill="#8FA7BD"/>
</g>
<defs>
<clipPath id="clip0_4_166">
<rect width="236.643" height="250" fill="white"/>
</clipPath>
</defs>
</svg>
