<svg width="617" height="577" viewBox="0 0 617 577" fill="none" xmlns="http://www.w3.org/2000/svg">
<rect width="617" height="577" fill="white"/>
<rect y="79" width="50" height="50" rx="7" fill="#8FA7BD"/>
<rect x="63" y="79" width="50" height="50" rx="7" fill="#8FA7BD"/>
<rect x="126" y="79" width="50" height="50" rx="7" fill="#8FA7BD"/>
<rect x="189" y="79" width="50" height="50" rx="7" fill="#8FA7BD"/>
<rect x="252" y="79" width="50" height="50" rx="7" fill="#8FA7BD"/>
<rect x="315" y="79" width="50" height="50" rx="7" fill="#8FA7BD"/>
<rect x="378" y="79" width="50" height="50" rx="7" fill="#8FA7BD"/>
<rect x="441" y="79" width="50" height="50" rx="7" fill="#8FA7BD"/>
<rect x="504" y="79" width="50" height="50" rx="7" fill="#8FA7BD"/>
<rect x="567" y="79" width="50" height="50" rx="7" fill="#8FA7BD"/>
<rect y="201" width="50" height="50" rx="7" fill="#E5E5E5"/>
<rect x="63" y="201" width="50" height="50" rx="7" fill="#E5E5E5"/>
<rect y="547" width="30" height="30" rx="3" fill="#E5E5E5"/>
<rect x="126" y="201" width="50" height="50" rx="7" fill="#E5E5E5"/>
<rect x="189" y="201" width="50" height="50" rx="7" fill="#E5E5E5"/>
<rect x="252" y="201" width="50" height="50" rx="7" fill="#E5E5E5"/>
<rect x="315" y="201" width="50" height="50" rx="7" fill="#E5E5E5"/>
<rect x="378" y="201" width="50" height="50" rx="7" fill="#E5E5E5"/>
<rect x="441" y="201" width="50" height="50" rx="7" fill="#E5E5E5"/>
<rect x="504" y="201" width="50" height="50" rx="7" fill="#E5E5E5"/>
<rect x="567" y="201" width="50" height="50" rx="7" fill="#E5E5E5"/>
<rect y="262" width="50" height="50" rx="7" fill="#E5E5E5"/>
<rect x="63" y="262" width="50" height="50" rx="7" fill="#E5E5E5"/>
<rect x="126" y="262" width="50" height="50" rx="7" fill="#E5E5E5"/>
<rect x="189" y="262" width="50" height="50" rx="7" fill="#E5E5E5"/>
<rect x="252" y="262" width="50" height="50" rx="7" fill="#E5E5E5"/>
<rect x="315" y="262" width="50" height="50" rx="7" fill="#E5E5E5"/>
<rect x="378" y="262" width="50" height="50" rx="7" fill="#E5E5E5"/>
<rect x="441" y="262" width="50" height="50" rx="7" fill="#E5E5E5"/>
<rect x="504" y="262" width="50" height="50" rx="7" fill="#E5E5E5"/>
<rect x="567" y="262" width="50" height="50" rx="7" fill="#E5E5E5"/>
<rect y="140" width="50" height="50" rx="7" fill="#8FA7BD"/>
<rect x="63" y="140" width="50" height="50" rx="7" fill="#E5E5E5"/>
<rect x="126" y="140" width="50" height="50" rx="7" fill="#E5E5E5"/>
<rect x="189" y="140" width="50" height="50" rx="7" fill="#E5E5E5"/>
<rect x="252" y="140" width="50" height="50" rx="7" fill="#E5E5E5"/>
<rect x="315" y="140" width="50" height="50" rx="7" fill="#E5E5E5"/>
<rect x="378" y="140" width="50" height="50" rx="7" fill="#E5E5E5"/>
<rect x="441" y="140" width="50" height="50" rx="7" fill="#E5E5E5"/>
<rect x="504" y="140" width="50" height="50" rx="7" fill="#E5E5E5"/>
<rect x="567" y="140" width="50" height="50" rx="7" fill="#E5E5E5"/>
<rect y="384" width="50" height="50" rx="7" fill="#E5E5E5"/>
<rect x="63" y="384" width="50" height="50" rx="7" fill="#E5E5E5"/>
<rect y="445" width="50" height="50" rx="7" fill="#E5E5E5"/>
<rect x="63" y="445" width="50" height="50" rx="7" fill="#E5E5E5"/>
<rect x="126" y="384" width="50" height="50" rx="7" fill="#E5E5E5"/>
<rect x="189" y="384" width="50" height="50" rx="7" fill="#E5E5E5"/>
<rect x="252" y="384" width="50" height="50" rx="7" fill="#E5E5E5"/>
<rect x="315" y="384" width="50" height="50" rx="7" fill="#E5E5E5"/>
<rect x="378" y="384" width="50" height="50" rx="7" fill="#E5E5E5"/>
<rect x="441" y="384" width="50" height="50" rx="7" fill="#E5E5E5"/>
<rect x="504" y="384" width="50" height="50" rx="7" fill="#E5E5E5"/>
<rect x="567" y="384" width="50" height="50" rx="7" fill="#E5E5E5"/>
<rect y="323" width="50" height="50" rx="7" fill="#E5E5E5"/>
<rect x="63" y="323" width="50" height="50" rx="7" fill="#E5E5E5"/>
<rect x="126" y="323" width="50" height="50" rx="7" fill="#E5E5E5"/>
<rect x="189" y="323" width="50" height="50" rx="7" fill="#E5E5E5"/>
<rect x="252" y="323" width="50" height="50" rx="7" fill="#E5E5E5"/>
<rect x="315" y="323" width="50" height="50" rx="7" fill="#E5E5E5"/>
<rect x="378" y="323" width="50" height="50" rx="7" fill="#E5E5E5"/>
<rect x="441" y="323" width="50" height="50" rx="7" fill="#E5E5E5"/>
<rect x="504" y="323" width="50" height="50" rx="7" fill="#E5E5E5"/>
<rect x="567" y="323" width="50" height="50" rx="7" fill="#E5E5E5"/>
<path d="M39.6479 563.286V562.065H46.3618V563.286H39.6479ZM39.6479 566.338V565.117H46.3618V566.338H39.6479ZM57.0186 553.789V570H58.8008V552.129H57.2261L54.2109 553.35L54.748 554.766L57.0186 553.789ZM65.6123 569.634C66.4098 570.081 67.3172 570.305 68.3345 570.305C69.3517 570.305 70.2591 570.081 71.0566 569.634C71.8542 569.186 72.5052 568.556 73.0098 567.742C73.5143 566.928 73.8968 565.968 74.1572 564.861C74.4176 563.746 74.5479 562.513 74.5479 561.162C74.5479 559.803 74.4176 558.558 74.1572 557.427C73.8968 556.296 73.5103 555.311 72.9976 554.473C72.493 553.626 71.842 552.971 71.0444 552.507C70.255 552.035 69.3517 551.799 68.3345 551.799C67.3172 551.799 66.4098 552.035 65.6123 552.507C64.8229 552.971 64.1719 553.626 63.6592 554.473C63.1546 555.311 62.7721 556.296 62.5117 557.427C62.2513 558.558 62.1211 559.803 62.1211 561.162C62.1211 562.513 62.2513 563.746 62.5117 564.861C62.7721 565.968 63.1546 566.928 63.6592 567.742C64.1637 568.556 64.8148 569.186 65.6123 569.634ZM65.9541 554.265C66.6133 553.573 67.4067 553.228 68.3345 553.228C69.2622 553.228 70.0557 553.573 70.7148 554.265C71.374 554.949 71.8623 555.881 72.1797 557.061C72.4971 558.241 72.6558 559.608 72.6558 561.162C72.6558 562.676 72.5011 564.002 72.1919 565.142C71.8908 566.273 71.4106 567.176 70.7515 567.852C70.0923 568.527 69.2866 568.865 68.3345 568.865C67.3823 568.865 66.5767 568.527 65.9175 567.852C65.2583 567.176 64.7741 566.273 64.4648 565.142C64.1637 564.002 64.0132 562.676 64.0132 561.162C64.0132 559.608 64.1719 558.241 64.4893 557.061C64.8066 555.881 65.2949 554.949 65.9541 554.265ZM80.8223 569.634C81.6198 570.081 82.5272 570.305 83.5444 570.305C84.5617 570.305 85.4691 570.081 86.2666 569.634C87.0641 569.186 87.7152 568.556 88.2197 567.742C88.7243 566.928 89.1068 565.968 89.3672 564.861C89.6276 563.746 89.7578 562.513 89.7578 561.162C89.7578 559.803 89.6276 558.558 89.3672 557.427C89.1068 556.296 88.7202 555.311 88.2075 554.473C87.703 553.626 87.0519 552.971 86.2544 552.507C85.465 552.035 84.5617 551.799 83.5444 551.799C82.5272 551.799 81.6198 552.035 80.8223 552.507C80.0329 552.971 79.3818 553.626 78.8691 554.473C78.3646 555.311 77.9821 556.296 77.7217 557.427C77.4613 558.558 77.3311 559.803 77.3311 561.162C77.3311 562.513 77.4613 563.746 77.7217 564.861C77.9821 565.968 78.3646 566.928 78.8691 567.742C79.3737 568.556 80.0247 569.186 80.8223 569.634ZM81.1641 554.265C81.8232 553.573 82.6167 553.228 83.5444 553.228C84.4722 553.228 85.2656 553.573 85.9248 554.265C86.584 554.949 87.0723 555.881 87.3896 557.061C87.707 558.241 87.8657 559.608 87.8657 561.162C87.8657 562.676 87.7111 564.002 87.4019 565.142C87.1007 566.273 86.6206 567.176 85.9614 567.852C85.3022 568.527 84.4966 568.865 83.5444 568.865C82.5923 568.865 81.7866 568.527 81.1274 567.852C80.4683 567.176 79.984 566.273 79.6748 565.142C79.3737 564.002 79.2231 562.676 79.2231 561.162C79.2231 559.608 79.3818 558.241 79.6992 557.061C80.0166 555.881 80.5049 554.949 81.1641 554.265ZM92.3701 567.327H94.8115V568.364C94.7708 569.609 94.6935 570.472 94.5796 570.952C94.3599 571.88 93.8797 572.596 93.1392 573.101L92.541 572.344C92.7607 572.173 92.9723 571.868 93.1758 571.428C93.3874 570.997 93.5013 570.456 93.5176 569.805L92.3701 569.646V567.327ZM101.477 569.634C102.274 570.081 103.181 570.305 104.199 570.305C105.216 570.305 106.123 570.081 106.921 569.634C107.718 569.186 108.369 568.556 108.874 567.742C109.379 566.928 109.761 565.968 110.021 564.861C110.282 563.746 110.412 562.513 110.412 561.162C110.412 559.803 110.282 558.558 110.021 557.427C109.761 556.296 109.375 555.311 108.862 554.473C108.357 553.626 107.706 552.971 106.909 552.507C106.119 552.035 105.216 551.799 104.199 551.799C103.181 551.799 102.274 552.035 101.477 552.507C100.687 552.971 100.036 553.626 99.5234 554.473C99.0189 555.311 98.6364 556.296 98.376 557.427C98.1156 558.558 97.9854 559.803 97.9854 561.162C97.9854 562.513 98.1156 563.746 98.376 564.861C98.6364 565.968 99.0189 566.928 99.5234 567.742C100.028 568.556 100.679 569.186 101.477 569.634ZM101.818 554.265C102.478 553.573 103.271 553.228 104.199 553.228C105.126 553.228 105.92 553.573 106.579 554.265C107.238 554.949 107.727 555.881 108.044 557.061C108.361 558.241 108.52 559.608 108.52 561.162C108.52 562.676 108.365 564.002 108.056 565.142C107.755 566.273 107.275 567.176 106.616 567.852C105.957 568.527 105.151 568.865 104.199 568.865C103.247 568.865 102.441 568.527 101.782 567.852C101.123 567.176 100.638 566.273 100.329 565.142C100.028 564.002 99.8774 562.676 99.8774 561.162C99.8774 559.608 100.036 558.241 100.354 557.061C100.671 555.881 101.159 554.949 101.818 554.265ZM116.687 569.634C117.484 570.081 118.391 570.305 119.409 570.305C120.426 570.305 121.333 570.081 122.131 569.634C122.928 569.186 123.579 568.556 124.084 567.742C124.589 566.928 124.971 565.968 125.231 564.861C125.492 563.746 125.622 562.513 125.622 561.162C125.622 559.803 125.492 558.558 125.231 557.427C124.971 556.296 124.584 555.311 124.072 554.473C123.567 553.626 122.916 552.971 122.119 552.507C121.329 552.035 120.426 551.799 119.409 551.799C118.391 551.799 117.484 552.035 116.687 552.507C115.897 552.971 115.246 553.626 114.733 554.473C114.229 555.311 113.846 556.296 113.586 557.427C113.326 558.558 113.195 559.803 113.195 561.162C113.195 562.513 113.326 563.746 113.586 564.861C113.846 565.968 114.229 566.928 114.733 567.742C115.238 568.556 115.889 569.186 116.687 569.634ZM117.028 554.265C117.688 553.573 118.481 553.228 119.409 553.228C120.336 553.228 121.13 553.573 121.789 554.265C122.448 554.949 122.937 555.881 123.254 557.061C123.571 558.241 123.73 559.608 123.73 561.162C123.73 562.676 123.575 564.002 123.266 565.142C122.965 566.273 122.485 567.176 121.826 567.852C121.167 568.527 120.361 568.865 119.409 568.865C118.457 568.865 117.651 568.527 116.992 567.852C116.333 567.176 115.848 566.273 115.539 565.142C115.238 564.002 115.087 562.676 115.087 561.162C115.087 559.608 115.246 558.241 115.563 557.061C115.881 555.881 116.369 554.949 117.028 554.265ZM131.896 569.634C132.694 570.081 133.601 570.305 134.619 570.305C135.636 570.305 136.543 570.081 137.341 569.634C138.138 569.186 138.789 568.556 139.294 567.742C139.799 566.928 140.181 565.968 140.441 564.861C140.702 563.746 140.832 562.513 140.832 561.162C140.832 559.803 140.702 558.558 140.441 557.427C140.181 556.296 139.794 555.311 139.282 554.473C138.777 553.626 138.126 552.971 137.329 552.507C136.539 552.035 135.636 551.799 134.619 551.799C133.601 551.799 132.694 552.035 131.896 552.507C131.107 552.971 130.456 553.626 129.943 554.473C129.439 555.311 129.056 556.296 128.796 557.427C128.535 558.558 128.405 559.803 128.405 561.162C128.405 562.513 128.535 563.746 128.796 564.861C129.056 565.968 129.439 566.928 129.943 567.742C130.448 568.556 131.099 569.186 131.896 569.634ZM132.238 554.265C132.897 553.573 133.691 553.228 134.619 553.228C135.546 553.228 136.34 553.573 136.999 554.265C137.658 554.949 138.146 555.881 138.464 557.061C138.781 558.241 138.94 559.608 138.94 561.162C138.94 562.676 138.785 564.002 138.476 565.142C138.175 566.273 137.695 567.176 137.036 567.852C136.376 568.527 135.571 568.865 134.619 568.865C133.667 568.865 132.861 568.527 132.202 567.852C131.542 567.176 131.058 566.273 130.749 565.142C130.448 564.002 130.297 562.676 130.297 561.162C130.297 559.608 130.456 558.241 130.773 557.061C131.091 555.881 131.579 554.949 132.238 554.265ZM148.815 563.896C148.815 561.838 149.23 560.218 150.061 559.038C150.891 557.85 152.071 557.256 153.601 557.256C155.464 557.256 156.726 557.992 157.385 559.465V552.007H159.13V570H157.739L157.507 567.9C157.189 568.633 156.681 569.215 155.981 569.646C155.289 570.077 154.512 570.293 153.649 570.293C152.152 570.293 150.972 569.711 150.109 568.547C149.247 567.375 148.815 565.825 148.815 563.896ZM153.869 569.011C154.235 569.011 154.565 568.983 154.858 568.926C155.151 568.861 155.468 568.726 155.81 568.523C156.152 568.311 156.437 568.031 156.665 567.681C156.892 567.323 157.08 566.822 157.226 566.179C157.381 565.536 157.458 564.779 157.458 563.909C157.458 562.851 157.34 561.931 157.104 561.15C156.876 560.369 156.486 559.738 155.932 559.258C155.379 558.77 154.683 558.525 153.845 558.525C152.811 558.525 152.01 559.018 151.44 560.002C150.87 560.979 150.585 562.293 150.585 563.945C150.585 565.426 150.878 566.643 151.464 567.595C152.05 568.539 152.852 569.011 153.869 569.011ZM167.224 557.256C168.07 557.256 168.815 557.406 169.458 557.708C170.109 558 170.629 558.416 171.02 558.953C171.411 559.482 171.704 560.096 171.899 560.796C172.094 561.496 172.192 562.269 172.192 563.115C172.192 563.392 172.18 563.636 172.155 563.848H163.623C163.623 564.556 163.692 565.215 163.83 565.825C163.968 566.427 164.176 566.973 164.453 567.461C164.737 567.941 165.12 568.319 165.6 568.596C166.088 568.873 166.65 569.011 167.285 569.011C168.107 569.011 168.782 568.824 169.311 568.45C169.84 568.067 170.214 567.534 170.434 566.851L171.777 567.144C171.59 567.835 171.26 568.425 170.788 568.914C170.316 569.394 169.787 569.744 169.201 569.963C168.615 570.175 167.993 570.285 167.333 570.293H167.285C166.365 570.293 165.547 570.114 164.831 569.756C164.123 569.398 163.553 568.914 163.122 568.303C162.699 567.685 162.382 566.993 162.17 566.228C161.958 565.455 161.853 564.629 161.853 563.75C161.853 561.805 162.325 560.238 163.269 559.05C164.221 557.854 165.539 557.256 167.224 557.256ZM170.52 562.712C170.511 561.378 170.235 560.344 169.689 559.612C169.144 558.879 168.306 558.513 167.175 558.513C166.63 558.513 166.141 558.623 165.71 558.843C165.279 559.062 164.921 559.368 164.636 559.758C164.359 560.149 164.139 560.592 163.977 561.089C163.814 561.585 163.708 562.126 163.659 562.712H170.52ZM182.385 567.327C180.977 568.515 179.626 569.109 178.332 569.109C176.786 569.109 176.013 568.328 176.013 566.765C176.013 566.464 176.057 566.2 176.147 565.972C176.236 565.744 176.387 565.544 176.599 565.374C176.818 565.194 177.054 565.044 177.307 564.922C177.559 564.792 177.905 564.674 178.344 564.568C178.784 564.454 179.207 564.36 179.614 564.287C180.021 564.206 180.546 564.116 181.188 564.019L182.385 563.835V567.327ZM182.69 570H184.118V561.785C184.118 558.765 182.588 557.256 179.528 557.256C177.437 557.256 175.891 557.891 174.89 559.16C175.581 559.811 175.927 560.141 175.927 560.149C176.334 559.644 176.843 559.258 177.453 558.989C178.072 558.721 178.731 558.586 179.431 558.586C180.505 558.586 181.266 558.843 181.713 559.355C182.161 559.86 182.385 560.792 182.385 562.151V562.664L181.176 562.847C180.468 562.952 179.939 563.038 179.589 563.103C179.239 563.16 178.776 563.254 178.198 563.384C177.62 563.506 177.185 563.628 176.892 563.75C176.607 563.864 176.273 564.027 175.891 564.238C175.508 564.442 175.227 564.67 175.048 564.922C174.869 565.166 174.711 565.467 174.572 565.825C174.442 566.175 174.377 566.57 174.377 567.009C174.377 568.051 174.723 568.861 175.415 569.438C176.114 570.008 176.985 570.293 178.027 570.293C179.606 570.293 181.091 569.723 182.482 568.584L182.69 570ZM192.98 568.474L193.273 569.609C192.663 570 191.947 570.195 191.125 570.195C190.051 570.195 189.27 569.87 188.781 569.219C188.301 568.56 188.061 567.498 188.061 566.033V558.721H186.193V557.512H188.171V553.521L189.794 553.069V557.512H192.529V558.721H189.794V566.814C189.794 568.197 190.356 568.889 191.479 568.889C191.853 568.889 192.354 568.751 192.98 568.474ZM200.939 558.525C200.337 558.525 199.8 558.627 199.328 558.831C198.864 559.034 198.482 559.307 198.181 559.648C197.88 559.982 197.631 560.393 197.436 560.881C197.241 561.361 197.102 561.866 197.021 562.395C196.948 562.924 196.911 563.494 196.911 564.104V570H195.178V552.019H196.911V557.146V559.478C197.863 557.996 199.292 557.256 201.196 557.256C201.749 557.256 202.246 557.321 202.685 557.451C203.133 557.573 203.503 557.736 203.796 557.939C204.097 558.143 204.357 558.399 204.577 558.708C204.797 559.018 204.968 559.327 205.09 559.636C205.212 559.945 205.31 560.304 205.383 560.71C205.456 561.109 205.501 561.471 205.517 561.797C205.542 562.122 205.554 562.485 205.554 562.883V570H203.82V562.749C203.82 561.357 203.605 560.308 203.173 559.6C202.75 558.883 202.006 558.525 200.939 558.525ZM217.309 559.673C216.52 560.12 216.125 560.348 216.125 560.356C215.848 559.722 215.462 559.266 214.965 558.989C214.469 558.704 213.814 558.562 213 558.562C211.991 558.562 211.226 558.745 210.705 559.111C210.184 559.478 209.924 560.019 209.924 560.735C209.924 561.02 209.977 561.272 210.083 561.492C210.196 561.711 210.339 561.895 210.51 562.041C210.689 562.179 210.929 562.31 211.23 562.432C211.531 562.546 211.82 562.635 212.097 562.7C212.382 562.765 212.736 562.839 213.159 562.92C214.575 563.18 215.637 563.587 216.345 564.141C217.061 564.686 217.419 565.475 217.419 566.509C217.419 567.738 217.008 568.678 216.186 569.329C215.364 569.972 214.127 570.293 212.475 570.293C211.979 570.293 211.499 570.24 211.035 570.134C210.579 570.037 210.135 569.878 209.704 569.658C209.281 569.43 208.907 569.113 208.581 568.706C208.256 568.291 208.015 567.807 207.861 567.253L209.179 566.716C209.472 567.514 209.879 568.092 210.4 568.45C210.921 568.808 211.665 568.987 212.634 568.987C214.774 568.987 215.844 568.271 215.844 566.838C215.844 566.057 215.6 565.508 215.112 565.19C214.624 564.865 213.594 564.539 212.023 564.214C211.551 564.116 211.153 564.019 210.827 563.921C210.51 563.815 210.176 563.673 209.826 563.494C209.484 563.315 209.208 563.111 208.996 562.883C208.793 562.647 208.622 562.346 208.483 561.98C208.353 561.614 208.288 561.191 208.288 560.71C208.288 559.612 208.711 558.761 209.558 558.159C210.412 557.557 211.527 557.256 212.902 557.256C214.009 557.256 214.912 557.439 215.612 557.805C216.312 558.171 216.878 558.794 217.309 559.673Z" fill="black"/>
<path d="M4.175 25.175C3.225 25.175 2.41667 24.9083 1.75 24.375C1.1 23.825 0.775 22.9917 0.775 21.875C0.775 20.9583 1.01667 20.2583 1.5 19.775C2 19.275 2.68333 18.9333 3.55 18.75C4.43333 18.55 5.45 18.45 6.6 18.45H7.875V17.875C7.875 17.325 7.775 16.7917 7.575 16.275C7.39167 15.7417 7.08333 15.3083 6.65 14.975C6.23333 14.625 5.65833 14.45 4.925 14.45C4.375 14.45 3.925 14.5083 3.575 14.625C3.225 14.7417 2.95 14.8667 2.75 15C2.55 15.1167 2.38333 15.175 2.25 15.175C2.05 15.175 1.88333 15.075 1.75 14.875C1.63333 14.675 1.575 14.4917 1.575 14.325C1.575 14.0917 1.75 13.8833 2.1 13.7C2.45 13.5 2.88333 13.3417 3.4 13.225C3.93333 13.0917 4.45833 13.025 4.975 13.025C6.09167 13.025 6.975 13.2583 7.625 13.725C8.29167 14.175 8.76667 14.7667 9.05 15.5C9.35 16.2333 9.5 17.0167 9.5 17.85V24.35C9.5 24.5333 9.425 24.6917 9.275 24.825C9.14167 24.9417 8.95 25 8.7 25C8.5 25 8.31667 24.9417 8.15 24.825C8 24.6917 7.925 24.5333 7.925 24.35V23.25C7.50833 23.75 6.99167 24.2 6.375 24.6C5.75833 24.9833 5.025 25.175 4.175 25.175ZM4.575 23.8C5.125 23.8 5.65 23.6583 6.15 23.375C6.65 23.0917 7.05833 22.75 7.375 22.35C7.70833 21.9333 7.875 21.5417 7.875 21.175V19.575H6.825C6.075 19.575 5.35833 19.625 4.675 19.725C4.00833 19.8083 3.45833 20 3.025 20.3C2.60833 20.6 2.4 21.075 2.4 21.725C2.4 22.4417 2.60833 22.9667 3.025 23.3C3.45833 23.6333 3.975 23.8 4.575 23.8ZM13.3369 9.675C13.0369 9.675 12.7702 9.575 12.5369 9.375C12.3202 9.15833 12.2119 8.90833 12.2119 8.625C12.2119 8.34167 12.3202 8.1 12.5369 7.9C12.7702 7.7 13.0369 7.6 13.3369 7.6C13.6369 7.6 13.8952 7.7 14.1119 7.9C14.3286 8.1 14.4369 8.34167 14.4369 8.625C14.4369 8.90833 14.3286 9.15833 14.1119 9.375C13.8952 9.575 13.6369 9.675 13.3369 9.675ZM13.3119 25C13.0952 25 12.9036 24.9333 12.7369 24.8C12.5869 24.6667 12.5119 24.5167 12.5119 24.35V13.8C12.5119 13.6 12.5869 13.45 12.7369 13.35C12.9036 13.2333 13.0952 13.175 13.3119 13.175C13.5452 13.175 13.7369 13.2333 13.8869 13.35C14.0536 13.45 14.1369 13.6 14.1369 13.8V24.35C14.1369 24.5167 14.0536 24.6667 13.8869 24.8C13.7369 24.9333 13.5452 25 13.3119 25ZM18.0482 25C17.8316 25 17.6399 24.9333 17.4732 24.8C17.3232 24.6667 17.2482 24.5167 17.2482 24.35V13.8C17.2482 13.6 17.3232 13.45 17.4732 13.35C17.6399 13.2333 17.8316 13.175 18.0482 13.175C18.2649 13.175 18.4482 13.2333 18.5982 13.35C18.7482 13.45 18.8232 13.6 18.8232 13.8V15.025C19.0066 14.675 19.2566 14.35 19.5732 14.05C19.8899 13.75 20.2649 13.5083 20.6982 13.325C21.1316 13.125 21.6232 13.025 22.1732 13.025H23.0482C23.2316 13.025 23.3816 13.1 23.4982 13.25C23.6316 13.4 23.6982 13.575 23.6982 13.775C23.6982 13.9917 23.6316 14.175 23.4982 14.325C23.3816 14.4583 23.2316 14.525 23.0482 14.525H22.1732C21.6232 14.525 21.0899 14.675 20.5732 14.975C20.0732 15.275 19.6649 15.6917 19.3482 16.225C19.0316 16.7583 18.8732 17.4083 18.8732 18.175V24.35C18.8732 24.5167 18.7899 24.6667 18.6232 24.8C18.4732 24.9333 18.2816 25 18.0482 25ZM31.3301 30.8C31.1134 30.8 30.9217 30.7333 30.7551 30.6C30.6051 30.4667 30.5301 30.3167 30.5301 30.15V13.8C30.5301 13.6 30.6051 13.45 30.7551 13.35C30.9217 13.2333 31.1134 13.175 31.3301 13.175C31.5467 13.175 31.7301 13.2333 31.8801 13.35C32.0301 13.45 32.1051 13.6 32.1051 13.8V14.925C32.3884 14.4417 32.8134 14.0083 33.3801 13.625C33.9467 13.225 34.6384 13.025 35.4551 13.025C36.2884 13.025 37.0384 13.2417 37.7051 13.675C38.3884 14.0917 38.9301 14.6583 39.3301 15.375C39.7467 16.075 39.9551 16.8583 39.9551 17.725V20.425C39.9551 21.2417 39.7467 22.0167 39.3301 22.75C38.9301 23.4833 38.3967 24.075 37.7301 24.525C37.0634 24.9583 36.3301 25.175 35.5301 25.175C34.7634 25.175 34.0801 24.9833 33.4801 24.6C32.8801 24.2167 32.4384 23.7667 32.1551 23.25V30.15C32.1551 30.3167 32.0717 30.4667 31.9051 30.6C31.7551 30.7333 31.5634 30.8 31.3301 30.8ZM35.2301 23.675C35.7801 23.675 36.2884 23.525 36.7551 23.225C37.2217 22.9083 37.5967 22.5 37.8801 22C38.1801 21.5 38.3301 20.975 38.3301 20.425V17.725C38.3301 17.175 38.1801 16.6583 37.8801 16.175C37.5967 15.6917 37.2217 15.3 36.7551 15C36.2884 14.6833 35.7634 14.525 35.1801 14.525C34.6801 14.525 34.1967 14.6583 33.7301 14.925C33.2801 15.175 32.9051 15.5333 32.6051 16C32.3051 16.4667 32.1551 17.0417 32.1551 17.725V21.2C32.1551 21.45 32.2884 21.775 32.5551 22.175C32.8217 22.5583 33.1884 22.9083 33.6551 23.225C34.1217 23.525 34.6467 23.675 35.2301 23.675ZM46.9145 25.175C46.0645 25.175 45.2811 24.9583 44.5645 24.525C43.8478 24.075 43.2645 23.4917 42.8145 22.775C42.3811 22.0417 42.1645 21.2583 42.1645 20.425V17.725C42.1645 16.875 42.3728 16.1 42.7895 15.4C43.2228 14.6833 43.7978 14.1083 44.5145 13.675C45.2478 13.2417 46.0478 13.025 46.9145 13.025C47.7645 13.025 48.5478 13.2417 49.2645 13.675C49.9978 14.0917 50.5811 14.65 51.0145 15.35C51.4478 16.05 51.6645 16.8417 51.6645 17.725V20.425C51.6645 21.2417 51.4478 22.0167 51.0145 22.75C50.5811 23.4833 49.9978 24.075 49.2645 24.525C48.5478 24.9583 47.7645 25.175 46.9145 25.175ZM46.9145 23.675C47.4978 23.675 48.0228 23.525 48.4895 23.225C48.9561 22.9083 49.3311 22.5 49.6145 22C49.8978 21.5 50.0395 20.975 50.0395 20.425V17.725C50.0395 17.175 49.8978 16.6583 49.6145 16.175C49.3478 15.6917 48.9728 15.3 48.4895 15C48.0228 14.6833 47.4978 14.525 46.9145 14.525C46.3311 14.525 45.8061 14.6833 45.3395 15C44.8728 15.3 44.4978 15.6917 44.2145 16.175C43.9311 16.6583 43.7895 17.175 43.7895 17.725V20.425C43.7895 20.975 43.9311 21.5 44.2145 22C44.4978 22.5 44.8728 22.9083 45.3395 23.225C45.8228 23.525 46.3478 23.675 46.9145 23.675ZM55.3582 25C55.1415 25 54.9499 24.9333 54.7832 24.8C54.6332 24.6667 54.5582 24.5167 54.5582 24.35V6.55C54.5582 6.35 54.6332 6.2 54.7832 6.1C54.9499 5.98333 55.1415 5.925 55.3582 5.925C55.5915 5.925 55.7832 5.98333 55.9332 6.1C56.0999 6.2 56.1832 6.35 56.1832 6.55V24.35C56.1832 24.5167 56.0999 24.6667 55.9332 24.8C55.7832 24.9333 55.5915 25 55.3582 25ZM60.5584 25C60.3417 25 60.1501 24.9333 59.9834 24.8C59.8334 24.6667 59.7584 24.5167 59.7584 24.35V6.55C59.7584 6.35 59.8334 6.2 59.9834 6.1C60.1501 5.98333 60.3417 5.925 60.5584 5.925C60.7917 5.925 60.9834 5.98333 61.1334 6.1C61.3001 6.2 61.3834 6.35 61.3834 6.55V24.35C61.3834 24.5167 61.3001 24.6667 61.1334 24.8C60.9834 24.9333 60.7917 25 60.5584 25ZM69.4086 25.175C68.5253 25.175 67.7169 24.9583 66.9836 24.525C66.2669 24.0917 65.6919 23.5167 65.2586 22.8C64.8419 22.0667 64.6336 21.2917 64.6336 20.475V13.825C64.6336 13.6583 64.7169 13.5083 64.8836 13.375C65.0503 13.2417 65.2419 13.175 65.4586 13.175C65.6753 13.175 65.8586 13.2417 66.0086 13.375C66.1753 13.5083 66.2586 13.6583 66.2586 13.825V20.475C66.2586 21.025 66.4003 21.5417 66.6836 22.025C66.9669 22.5083 67.3419 22.9083 67.8086 23.225C68.2753 23.525 68.8003 23.675 69.3836 23.675C69.9836 23.675 70.5169 23.525 70.9836 23.225C71.4503 22.925 71.8169 22.5333 72.0836 22.05C72.3669 21.55 72.5086 21.025 72.5086 20.475V13.8C72.5086 13.6167 72.5919 13.4667 72.7586 13.35C72.9253 13.2333 73.1169 13.175 73.3336 13.175C73.5836 13.175 73.7753 13.2333 73.9086 13.35C74.0586 13.4667 74.1336 13.6167 74.1336 13.8V20.475C74.1336 21.325 73.9169 22.1083 73.4836 22.825C73.0669 23.525 72.4919 24.0917 71.7586 24.525C71.0419 24.9583 70.2586 25.175 69.4086 25.175ZM81.0609 25C79.7776 25 78.7943 24.7083 78.1109 24.125C77.4276 23.5417 77.0859 22.6083 77.0859 21.325V8.175C77.0859 7.975 77.1693 7.825 77.3359 7.725C77.5193 7.60833 77.7026 7.55 77.8859 7.55C78.1026 7.55 78.2943 7.60833 78.4609 7.725C78.6276 7.825 78.7109 7.975 78.7109 8.175V13.175H81.9609C82.1276 13.175 82.2609 13.2417 82.3609 13.375C82.4609 13.5083 82.5109 13.6667 82.5109 13.85C82.5109 14.0333 82.4609 14.1917 82.3609 14.325C82.2609 14.4583 82.1276 14.525 81.9609 14.525H78.7109V21.325C78.7109 22.1417 78.8859 22.7167 79.2359 23.05C79.5859 23.3667 80.1943 23.525 81.0609 23.525H81.7609C81.9943 23.525 82.1693 23.6 82.2859 23.75C82.4193 23.8833 82.4859 24.05 82.4859 24.25C82.4859 24.45 82.4193 24.625 82.2859 24.775C82.1693 24.925 81.9943 25 81.7609 25H81.0609ZM85.334 9.675C85.034 9.675 84.7673 9.575 84.534 9.375C84.3173 9.15833 84.209 8.90833 84.209 8.625C84.209 8.34167 84.3173 8.1 84.534 7.9C84.7673 7.7 85.034 7.6 85.334 7.6C85.634 7.6 85.8923 7.7 86.109 7.9C86.3257 8.1 86.434 8.34167 86.434 8.625C86.434 8.90833 86.3257 9.15833 86.109 9.375C85.8923 9.575 85.634 9.675 85.334 9.675ZM85.309 25C85.0923 25 84.9007 24.9333 84.734 24.8C84.584 24.6667 84.509 24.5167 84.509 24.35V13.8C84.509 13.6 84.584 13.45 84.734 13.35C84.9007 13.2333 85.0923 13.175 85.309 13.175C85.5423 13.175 85.734 13.2333 85.884 13.35C86.0507 13.45 86.134 13.6 86.134 13.8V24.35C86.134 24.5167 86.0507 24.6667 85.884 24.8C85.734 24.9333 85.5423 25 85.309 25ZM93.5453 25.175C92.6953 25.175 91.912 24.9583 91.1953 24.525C90.4786 24.075 89.8953 23.4917 89.4453 22.775C89.012 22.0417 88.7953 21.2583 88.7953 20.425V17.725C88.7953 16.875 89.0036 16.1 89.4203 15.4C89.8536 14.6833 90.4286 14.1083 91.1453 13.675C91.8786 13.2417 92.6786 13.025 93.5453 13.025C94.3953 13.025 95.1786 13.2417 95.8953 13.675C96.6286 14.0917 97.212 14.65 97.6453 15.35C98.0786 16.05 98.2953 16.8417 98.2953 17.725V20.425C98.2953 21.2417 98.0786 22.0167 97.6453 22.75C97.212 23.4833 96.6286 24.075 95.8953 24.525C95.1786 24.9583 94.3953 25.175 93.5453 25.175ZM93.5453 23.675C94.1286 23.675 94.6536 23.525 95.1203 23.225C95.587 22.9083 95.962 22.5 96.2453 22C96.5286 21.5 96.6703 20.975 96.6703 20.425V17.725C96.6703 17.175 96.5286 16.6583 96.2453 16.175C95.9786 15.6917 95.6036 15.3 95.1203 15C94.6536 14.6833 94.1286 14.525 93.5453 14.525C92.962 14.525 92.437 14.6833 91.9703 15C91.5036 15.3 91.1286 15.6917 90.8453 16.175C90.562 16.6583 90.4203 17.175 90.4203 17.725V20.425C90.4203 20.975 90.562 21.5 90.8453 22C91.1286 22.5 91.5036 22.9083 91.9703 23.225C92.4536 23.525 92.9786 23.675 93.5453 23.675ZM101.764 25C101.547 25 101.356 24.9333 101.189 24.8C101.039 24.6667 100.964 24.5167 100.964 24.35V13.8C100.964 13.6 101.039 13.45 101.189 13.35C101.356 13.2333 101.547 13.175 101.764 13.175C101.981 13.175 102.164 13.2333 102.314 13.35C102.464 13.45 102.539 13.6 102.539 13.8V14.925C102.806 14.4417 103.222 14.0083 103.789 13.625C104.356 13.225 105.056 13.025 105.889 13.025C106.689 13.025 107.422 13.2417 108.089 13.675C108.772 14.0917 109.314 14.6583 109.714 15.375C110.114 16.075 110.314 16.8583 110.314 17.725V24.35C110.314 24.5667 110.231 24.7333 110.064 24.85C109.897 24.95 109.706 25 109.489 25C109.306 25 109.122 24.95 108.939 24.85C108.772 24.7333 108.689 24.5667 108.689 24.35V17.725C108.689 17.175 108.547 16.6583 108.264 16.175C107.981 15.6917 107.606 15.3 107.139 15C106.672 14.6833 106.156 14.525 105.589 14.525C105.089 14.525 104.606 14.6583 104.139 14.925C103.689 15.175 103.314 15.5333 103.014 16C102.731 16.4667 102.589 17.0417 102.589 17.725V24.35C102.589 24.5167 102.506 24.6667 102.339 24.8C102.189 24.9333 101.997 25 101.764 25ZM122.772 25.175C121.672 25.175 120.764 24.9667 120.047 24.55C119.331 24.1333 118.797 23.5667 118.447 22.85C118.097 22.1333 117.922 21.325 117.922 20.425V17.775C117.922 16.875 118.089 16.0667 118.422 15.35C118.772 14.6333 119.306 14.0667 120.022 13.65C120.756 13.2333 121.672 13.025 122.772 13.025C123.472 13.025 124.081 13.1167 124.597 13.3C125.131 13.4667 125.539 13.675 125.822 13.925C126.122 14.175 126.272 14.4167 126.272 14.65C126.272 14.7667 126.239 14.8917 126.172 15.025C126.122 15.1417 126.039 15.2417 125.922 15.325C125.822 15.4083 125.706 15.45 125.572 15.45C125.422 15.45 125.247 15.375 125.047 15.225C124.864 15.0583 124.606 14.9 124.272 14.75C123.939 14.6 123.464 14.525 122.847 14.525C121.764 14.525 120.939 14.8167 120.372 15.4C119.822 15.9667 119.547 16.7583 119.547 17.775V20.425C119.547 21.4417 119.822 22.2417 120.372 22.825C120.939 23.3917 121.772 23.675 122.872 23.675C123.506 23.675 123.997 23.6 124.347 23.45C124.697 23.2833 124.964 23.125 125.147 22.975C125.347 22.8083 125.531 22.725 125.697 22.725C125.847 22.725 125.972 22.7667 126.072 22.85C126.189 22.9333 126.272 23.0333 126.322 23.15C126.389 23.2667 126.422 23.3917 126.422 23.525C126.422 23.7417 126.272 23.9833 125.972 24.25C125.672 24.5 125.247 24.7167 124.697 24.9C124.164 25.0833 123.522 25.175 122.772 25.175ZM132.779 25.175C131.929 25.175 131.145 24.9583 130.429 24.525C129.712 24.075 129.129 23.4917 128.679 22.775C128.245 22.0417 128.029 21.2583 128.029 20.425V17.725C128.029 16.875 128.237 16.1 128.654 15.4C129.087 14.6833 129.662 14.1083 130.379 13.675C131.112 13.2417 131.912 13.025 132.779 13.025C133.629 13.025 134.412 13.2417 135.129 13.675C135.862 14.0917 136.445 14.65 136.879 15.35C137.312 16.05 137.529 16.8417 137.529 17.725V20.425C137.529 21.2417 137.312 22.0167 136.879 22.75C136.445 23.4833 135.862 24.075 135.129 24.525C134.412 24.9583 133.629 25.175 132.779 25.175ZM132.779 23.675C133.362 23.675 133.887 23.525 134.354 23.225C134.82 22.9083 135.195 22.5 135.479 22C135.762 21.5 135.904 20.975 135.904 20.425V17.725C135.904 17.175 135.762 16.6583 135.479 16.175C135.212 15.6917 134.837 15.3 134.354 15C133.887 14.6833 133.362 14.525 132.779 14.525C132.195 14.525 131.67 14.6833 131.204 15C130.737 15.3 130.362 15.6917 130.079 16.175C129.795 16.6583 129.654 17.175 129.654 17.725V20.425C129.654 20.975 129.795 21.5 130.079 22C130.362 22.5 130.737 22.9083 131.204 23.225C131.687 23.525 132.212 23.675 132.779 23.675ZM140.997 25C140.781 25 140.589 24.9333 140.422 24.8C140.272 24.6667 140.197 24.5167 140.197 24.35V13.8C140.197 13.6 140.272 13.45 140.422 13.35C140.589 13.2333 140.781 13.175 140.997 13.175C141.214 13.175 141.397 13.2333 141.547 13.35C141.697 13.45 141.772 13.6 141.772 13.8V14.925C142.039 14.4417 142.456 14.0083 143.022 13.625C143.589 13.225 144.289 13.025 145.122 13.025C145.922 13.025 146.656 13.2417 147.322 13.675C148.006 14.0917 148.547 14.6583 148.947 15.375C149.347 16.075 149.547 16.8583 149.547 17.725V24.35C149.547 24.5667 149.464 24.7333 149.297 24.85C149.131 24.95 148.939 25 148.722 25C148.539 25 148.356 24.95 148.172 24.85C148.006 24.7333 147.922 24.5667 147.922 24.35V17.725C147.922 17.175 147.781 16.6583 147.497 16.175C147.214 15.6917 146.839 15.3 146.372 15C145.906 14.6833 145.389 14.525 144.822 14.525C144.322 14.525 143.839 14.6583 143.372 14.925C142.922 15.175 142.547 15.5333 142.247 16C141.964 16.4667 141.822 17.0417 141.822 17.725V24.35C141.822 24.5167 141.739 24.6667 141.572 24.8C141.422 24.9333 141.231 25 140.997 25ZM156.476 25C155.193 25 154.209 24.7083 153.526 24.125C152.843 23.5417 152.501 22.6083 152.501 21.325V8.175C152.501 7.975 152.584 7.825 152.751 7.725C152.934 7.60833 153.118 7.55 153.301 7.55C153.518 7.55 153.709 7.60833 153.876 7.725C154.043 7.825 154.126 7.975 154.126 8.175V13.175H157.376C157.543 13.175 157.676 13.2417 157.776 13.375C157.876 13.5083 157.926 13.6667 157.926 13.85C157.926 14.0333 157.876 14.1917 157.776 14.325C157.676 14.4583 157.543 14.525 157.376 14.525H154.126V21.325C154.126 22.1417 154.301 22.7167 154.651 23.05C155.001 23.3667 155.609 23.525 156.476 23.525H157.176C157.409 23.525 157.584 23.6 157.701 23.75C157.834 23.8833 157.901 24.05 157.901 24.25C157.901 24.45 157.834 24.625 157.701 24.775C157.584 24.925 157.409 25 157.176 25H156.476ZM160.724 25C160.507 25 160.316 24.9333 160.149 24.8C159.999 24.6667 159.924 24.5167 159.924 24.35V13.8C159.924 13.6 159.999 13.45 160.149 13.35C160.316 13.2333 160.507 13.175 160.724 13.175C160.941 13.175 161.124 13.2333 161.274 13.35C161.424 13.45 161.499 13.6 161.499 13.8V15.025C161.682 14.675 161.932 14.35 162.249 14.05C162.566 13.75 162.941 13.5083 163.374 13.325C163.807 13.125 164.299 13.025 164.849 13.025H165.724C165.907 13.025 166.057 13.1 166.174 13.25C166.307 13.4 166.374 13.575 166.374 13.775C166.374 13.9917 166.307 14.175 166.174 14.325C166.057 14.4583 165.907 14.525 165.724 14.525H164.849C164.299 14.525 163.766 14.675 163.249 14.975C162.749 15.275 162.341 15.6917 162.024 16.225C161.707 16.7583 161.549 17.4083 161.549 18.175V24.35C161.549 24.5167 161.466 24.6667 161.299 24.8C161.149 24.9333 160.957 25 160.724 25ZM169.001 9.675C168.701 9.675 168.434 9.575 168.201 9.375C167.984 9.15833 167.876 8.90833 167.876 8.625C167.876 8.34167 167.984 8.1 168.201 7.9C168.434 7.7 168.701 7.6 169.001 7.6C169.301 7.6 169.559 7.7 169.776 7.9C169.993 8.1 170.101 8.34167 170.101 8.625C170.101 8.90833 169.993 9.15833 169.776 9.375C169.559 9.575 169.301 9.675 169.001 9.675ZM168.976 25C168.759 25 168.568 24.9333 168.401 24.8C168.251 24.6667 168.176 24.5167 168.176 24.35V13.8C168.176 13.6 168.251 13.45 168.401 13.35C168.568 13.2333 168.759 13.175 168.976 13.175C169.209 13.175 169.401 13.2333 169.551 13.35C169.718 13.45 169.801 13.6 169.801 13.8V24.35C169.801 24.5167 169.718 24.6667 169.551 24.8C169.401 24.9333 169.209 25 168.976 25ZM177.937 25.175C177.154 25.175 176.454 24.9833 175.837 24.6C175.221 24.2167 174.779 23.7667 174.512 23.25V24.35C174.512 24.5167 174.437 24.6667 174.287 24.8C174.137 24.9333 173.954 25 173.737 25C173.521 25 173.329 24.9333 173.162 24.8C173.012 24.6667 172.937 24.5167 172.937 24.35V6.55C172.937 6.35 173.012 6.2 173.162 6.1C173.329 5.98333 173.521 5.925 173.737 5.925C173.971 5.925 174.162 5.98333 174.312 6.1C174.479 6.2 174.562 6.35 174.562 6.55V14.925C174.846 14.4417 175.262 14.0083 175.812 13.625C176.379 13.225 177.071 13.025 177.887 13.025C178.704 13.025 179.446 13.2417 180.112 13.675C180.796 14.0917 181.337 14.6583 181.737 15.375C182.154 16.075 182.362 16.8583 182.362 17.725V20.425C182.362 21.2417 182.154 22.0167 181.737 22.75C181.337 23.4833 180.804 24.075 180.137 24.525C179.471 24.9583 178.737 25.175 177.937 25.175ZM177.637 23.675C178.204 23.675 178.721 23.525 179.187 23.225C179.654 22.9083 180.029 22.5 180.312 22C180.596 21.5 180.737 20.975 180.737 20.425V17.725C180.737 17.175 180.596 16.6583 180.312 16.175C180.029 15.6917 179.654 15.3 179.187 15C178.721 14.6833 178.196 14.525 177.612 14.525C177.112 14.525 176.629 14.6583 176.162 14.925C175.696 15.175 175.312 15.5333 175.012 16C174.712 16.4667 174.562 17.0417 174.562 17.725V21.2C174.562 21.45 174.696 21.775 174.962 22.175C175.246 22.5583 175.621 22.9083 176.087 23.225C176.554 23.525 177.071 23.675 177.637 23.675ZM189.697 25.175C188.813 25.175 188.005 24.9583 187.272 24.525C186.555 24.0917 185.98 23.5167 185.547 22.8C185.13 22.0667 184.922 21.2917 184.922 20.475V13.825C184.922 13.6583 185.005 13.5083 185.172 13.375C185.338 13.2417 185.53 13.175 185.747 13.175C185.963 13.175 186.147 13.2417 186.297 13.375C186.463 13.5083 186.547 13.6583 186.547 13.825V20.475C186.547 21.025 186.688 21.5417 186.972 22.025C187.255 22.5083 187.63 22.9083 188.097 23.225C188.563 23.525 189.088 23.675 189.672 23.675C190.272 23.675 190.805 23.525 191.272 23.225C191.738 22.925 192.105 22.5333 192.372 22.05C192.655 21.55 192.797 21.025 192.797 20.475V13.8C192.797 13.6167 192.88 13.4667 193.047 13.35C193.213 13.2333 193.405 13.175 193.622 13.175C193.872 13.175 194.063 13.2333 194.197 13.35C194.347 13.4667 194.422 13.6167 194.422 13.8V20.475C194.422 21.325 194.205 22.1083 193.772 22.825C193.355 23.525 192.78 24.0917 192.047 24.525C191.33 24.9583 190.547 25.175 189.697 25.175ZM201.349 25C200.066 25 199.082 24.7083 198.399 24.125C197.716 23.5417 197.374 22.6083 197.374 21.325V8.175C197.374 7.975 197.457 7.825 197.624 7.725C197.807 7.60833 197.991 7.55 198.174 7.55C198.391 7.55 198.582 7.60833 198.749 7.725C198.916 7.825 198.999 7.975 198.999 8.175V13.175H202.249C202.416 13.175 202.549 13.2417 202.649 13.375C202.749 13.5083 202.799 13.6667 202.799 13.85C202.799 14.0333 202.749 14.1917 202.649 14.325C202.549 14.4583 202.416 14.525 202.249 14.525H198.999V21.325C198.999 22.1417 199.174 22.7167 199.524 23.05C199.874 23.3667 200.482 23.525 201.349 23.525H202.049C202.282 23.525 202.457 23.6 202.574 23.75C202.707 23.8833 202.774 24.05 202.774 24.25C202.774 24.45 202.707 24.625 202.574 24.775C202.457 24.925 202.282 25 202.049 25H201.349ZM209.527 25.175C208.477 25.175 207.544 24.975 206.727 24.575C205.927 24.175 205.294 23.625 204.827 22.925C204.377 22.2083 204.152 21.375 204.152 20.425V17.65C204.152 16.8167 204.369 16.05 204.802 15.35C205.236 14.6333 205.811 14.0667 206.527 13.65C207.261 13.2333 208.061 13.025 208.927 13.025C209.761 13.025 210.527 13.225 211.227 13.625C211.944 14.0083 212.519 14.5417 212.952 15.225C213.386 15.9083 213.602 16.7 213.602 17.6C213.602 18.2333 213.494 18.6917 213.277 18.975C213.061 19.2583 212.786 19.4333 212.452 19.5C212.136 19.55 211.794 19.575 211.427 19.575H205.777V20.5C205.777 21.5 206.136 22.2917 206.852 22.875C207.569 23.4583 208.477 23.75 209.577 23.75C210.244 23.75 210.761 23.6667 211.127 23.5C211.494 23.3333 211.777 23.1667 211.977 23C212.194 22.8333 212.394 22.75 212.577 22.75C212.711 22.75 212.827 22.8 212.927 22.9C213.044 22.9833 213.127 23.0833 213.177 23.2C213.244 23.3167 213.277 23.425 213.277 23.525C213.277 23.7083 213.127 23.9333 212.827 24.2C212.527 24.4667 212.094 24.7 211.527 24.9C210.961 25.0833 210.294 25.175 209.527 25.175ZM205.777 18.375H210.777C211.277 18.375 211.611 18.325 211.777 18.225C211.944 18.1083 212.027 17.875 212.027 17.525C212.027 16.9917 211.894 16.4917 211.627 16.025C211.361 15.5417 210.994 15.15 210.527 14.85C210.061 14.5333 209.519 14.375 208.902 14.375C208.336 14.375 207.811 14.5167 207.327 14.8C206.861 15.0833 206.486 15.45 206.202 15.9C205.919 16.35 205.777 16.8583 205.777 17.425V18.375ZM220.003 25.175C219.236 25.175 218.511 24.9583 217.828 24.525C217.144 24.075 216.594 23.4833 216.178 22.75C215.778 22.0167 215.578 21.2417 215.578 20.425V17.725C215.578 16.8583 215.778 16.075 216.178 15.375C216.594 14.6583 217.144 14.0917 217.828 13.675C218.511 13.2417 219.261 13.025 220.078 13.025C220.894 13.025 221.578 13.225 222.128 13.625C222.694 14.0083 223.111 14.4417 223.378 14.925V6.55C223.378 6.35 223.461 6.2 223.628 6.1C223.794 5.98333 223.986 5.925 224.203 5.925C224.453 5.925 224.644 5.98333 224.778 6.1C224.928 6.2 225.003 6.35 225.003 6.55V24.35C225.003 24.5167 224.928 24.6667 224.778 24.8C224.644 24.9333 224.453 25 224.203 25C224.003 25 223.819 24.9333 223.653 24.8C223.503 24.6667 223.428 24.5167 223.428 24.35V23.25C223.178 23.7667 222.736 24.2167 222.103 24.6C221.486 24.9833 220.786 25.175 220.003 25.175ZM220.303 23.675C220.903 23.675 221.428 23.525 221.878 23.225C222.344 22.9083 222.711 22.5583 222.978 22.175C223.244 21.775 223.378 21.45 223.378 21.2V17.725C223.378 17.0417 223.228 16.4667 222.928 16C222.628 15.5333 222.244 15.175 221.778 14.925C221.311 14.6583 220.828 14.525 220.328 14.525C219.761 14.525 219.244 14.6833 218.778 15C218.311 15.3 217.936 15.6917 217.653 16.175C217.369 16.6583 217.228 17.175 217.228 17.725V20.425C217.228 20.975 217.369 21.5 217.653 22C217.936 22.5 218.311 22.9083 218.778 23.225C219.244 23.525 219.753 23.675 220.303 23.675ZM237.067 25C235.783 25 234.8 24.7083 234.117 24.125C233.433 23.5417 233.092 22.6083 233.092 21.325V8.175C233.092 7.975 233.175 7.825 233.342 7.725C233.525 7.60833 233.708 7.55 233.892 7.55C234.108 7.55 234.3 7.60833 234.467 7.725C234.633 7.825 234.717 7.975 234.717 8.175V13.175H237.967C238.133 13.175 238.267 13.2417 238.367 13.375C238.467 13.5083 238.517 13.6667 238.517 13.85C238.517 14.0333 238.467 14.1917 238.367 14.325C238.267 14.4583 238.133 14.525 237.967 14.525H234.717V21.325C234.717 22.1417 234.892 22.7167 235.242 23.05C235.592 23.3667 236.2 23.525 237.067 23.525H237.767C238 23.525 238.175 23.6 238.292 23.75C238.425 23.8833 238.492 24.05 238.492 24.25C238.492 24.45 238.425 24.625 238.292 24.775C238.175 24.925 238 25 237.767 25H237.067ZM244.595 25.175C243.745 25.175 242.962 24.9583 242.245 24.525C241.528 24.075 240.945 23.4917 240.495 22.775C240.062 22.0417 239.845 21.2583 239.845 20.425V17.725C239.845 16.875 240.053 16.1 240.47 15.4C240.903 14.6833 241.478 14.1083 242.195 13.675C242.928 13.2417 243.728 13.025 244.595 13.025C245.445 13.025 246.228 13.2417 246.945 13.675C247.678 14.0917 248.262 14.65 248.695 15.35C249.128 16.05 249.345 16.8417 249.345 17.725V20.425C249.345 21.2417 249.128 22.0167 248.695 22.75C248.262 23.4833 247.678 24.075 246.945 24.525C246.228 24.9583 245.445 25.175 244.595 25.175ZM244.595 23.675C245.178 23.675 245.703 23.525 246.17 23.225C246.637 22.9083 247.012 22.5 247.295 22C247.578 21.5 247.72 20.975 247.72 20.425V17.725C247.72 17.175 247.578 16.6583 247.295 16.175C247.028 15.6917 246.653 15.3 246.17 15C245.703 14.6833 245.178 14.525 244.595 14.525C244.012 14.525 243.487 14.6833 243.02 15C242.553 15.3 242.178 15.6917 241.895 16.175C241.612 16.6583 241.47 17.175 241.47 17.725V20.425C241.47 20.975 241.612 21.5 241.895 22C242.178 22.5 242.553 22.9083 243.02 23.225C243.503 23.525 244.028 23.675 244.595 23.675ZM259.644 25.175C258.694 25.175 257.885 24.9083 257.219 24.375C256.569 23.825 256.244 22.9917 256.244 21.875C256.244 20.9583 256.485 20.2583 256.969 19.775C257.469 19.275 258.152 18.9333 259.019 18.75C259.902 18.55 260.919 18.45 262.069 18.45H263.344V17.875C263.344 17.325 263.244 16.7917 263.044 16.275C262.86 15.7417 262.552 15.3083 262.119 14.975C261.702 14.625 261.127 14.45 260.394 14.45C259.844 14.45 259.394 14.5083 259.044 14.625C258.694 14.7417 258.419 14.8667 258.219 15C258.019 15.1167 257.852 15.175 257.719 15.175C257.519 15.175 257.352 15.075 257.219 14.875C257.102 14.675 257.044 14.4917 257.044 14.325C257.044 14.0917 257.219 13.8833 257.569 13.7C257.919 13.5 258.352 13.3417 258.869 13.225C259.402 13.0917 259.927 13.025 260.444 13.025C261.56 13.025 262.444 13.2583 263.094 13.725C263.76 14.175 264.235 14.7667 264.519 15.5C264.819 16.2333 264.969 17.0167 264.969 17.85V24.35C264.969 24.5333 264.894 24.6917 264.744 24.825C264.61 24.9417 264.419 25 264.169 25C263.969 25 263.785 24.9417 263.619 24.825C263.469 24.6917 263.394 24.5333 263.394 24.35V23.25C262.977 23.75 262.46 24.2 261.844 24.6C261.227 24.9833 260.494 25.175 259.644 25.175ZM260.044 23.8C260.594 23.8 261.119 23.6583 261.619 23.375C262.119 23.0917 262.527 22.75 262.844 22.35C263.177 21.9333 263.344 21.5417 263.344 21.175V19.575H262.294C261.544 19.575 260.827 19.625 260.144 19.725C259.477 19.8083 258.927 20 258.494 20.3C258.077 20.6 257.869 21.075 257.869 21.725C257.869 22.4417 258.077 22.9667 258.494 23.3C258.927 23.6333 259.444 23.8 260.044 23.8ZM273.006 25.175C272.222 25.175 271.522 24.9833 270.906 24.6C270.289 24.2167 269.847 23.7667 269.581 23.25V24.35C269.581 24.5167 269.506 24.6667 269.356 24.8C269.206 24.9333 269.022 25 268.806 25C268.589 25 268.397 24.9333 268.231 24.8C268.081 24.6667 268.006 24.5167 268.006 24.35V6.55C268.006 6.35 268.081 6.2 268.231 6.1C268.397 5.98333 268.589 5.925 268.806 5.925C269.039 5.925 269.231 5.98333 269.381 6.1C269.547 6.2 269.631 6.35 269.631 6.55V14.925C269.914 14.4417 270.331 14.0083 270.881 13.625C271.447 13.225 272.139 13.025 272.956 13.025C273.772 13.025 274.514 13.2417 275.181 13.675C275.864 14.0917 276.406 14.6583 276.806 15.375C277.222 16.075 277.431 16.8583 277.431 17.725V20.425C277.431 21.2417 277.222 22.0167 276.806 22.75C276.406 23.4833 275.872 24.075 275.206 24.525C274.539 24.9583 273.806 25.175 273.006 25.175ZM272.706 23.675C273.272 23.675 273.789 23.525 274.256 23.225C274.722 22.9083 275.097 22.5 275.381 22C275.664 21.5 275.806 20.975 275.806 20.425V17.725C275.806 17.175 275.664 16.6583 275.381 16.175C275.097 15.6917 274.722 15.3 274.256 15C273.789 14.6833 273.264 14.525 272.681 14.525C272.181 14.525 271.697 14.6583 271.231 14.925C270.764 15.175 270.381 15.5333 270.081 16C269.781 16.4667 269.631 17.0417 269.631 17.725V21.2C269.631 21.45 269.764 21.775 270.031 22.175C270.314 22.5583 270.689 22.9083 271.156 23.225C271.622 23.525 272.139 23.675 272.706 23.675ZM284.39 25.175C283.54 25.175 282.757 24.9583 282.04 24.525C281.323 24.075 280.74 23.4917 280.29 22.775C279.857 22.0417 279.64 21.2583 279.64 20.425V17.725C279.64 16.875 279.848 16.1 280.265 15.4C280.698 14.6833 281.273 14.1083 281.99 13.675C282.723 13.2417 283.523 13.025 284.39 13.025C285.24 13.025 286.023 13.2417 286.74 13.675C287.473 14.0917 288.057 14.65 288.49 15.35C288.923 16.05 289.14 16.8417 289.14 17.725V20.425C289.14 21.2417 288.923 22.0167 288.49 22.75C288.057 23.4833 287.473 24.075 286.74 24.525C286.023 24.9583 285.24 25.175 284.39 25.175ZM284.39 23.675C284.973 23.675 285.498 23.525 285.965 23.225C286.432 22.9083 286.807 22.5 287.09 22C287.373 21.5 287.515 20.975 287.515 20.425V17.725C287.515 17.175 287.373 16.6583 287.09 16.175C286.823 15.6917 286.448 15.3 285.965 15C285.498 14.6833 284.973 14.525 284.39 14.525C283.807 14.525 283.282 14.6833 282.815 15C282.348 15.3 281.973 15.6917 281.69 16.175C281.407 16.6583 281.265 17.175 281.265 17.725V20.425C281.265 20.975 281.407 21.5 281.69 22C281.973 22.5 282.348 22.9083 282.815 23.225C283.298 23.525 283.823 23.675 284.39 23.675ZM296.484 25.175C295.6 25.175 294.792 24.9583 294.059 24.525C293.342 24.0917 292.767 23.5167 292.334 22.8C291.917 22.0667 291.709 21.2917 291.709 20.475V13.825C291.709 13.6583 291.792 13.5083 291.959 13.375C292.125 13.2417 292.317 13.175 292.534 13.175C292.75 13.175 292.934 13.2417 293.084 13.375C293.25 13.5083 293.334 13.6583 293.334 13.825V20.475C293.334 21.025 293.475 21.5417 293.759 22.025C294.042 22.5083 294.417 22.9083 294.884 23.225C295.35 23.525 295.875 23.675 296.459 23.675C297.059 23.675 297.592 23.525 298.059 23.225C298.525 22.925 298.892 22.5333 299.159 22.05C299.442 21.55 299.584 21.025 299.584 20.475V13.8C299.584 13.6167 299.667 13.4667 299.834 13.35C300 13.2333 300.192 13.175 300.409 13.175C300.659 13.175 300.85 13.2333 300.984 13.35C301.134 13.4667 301.209 13.6167 301.209 13.8V20.475C301.209 21.325 300.992 22.1083 300.559 22.825C300.142 23.525 299.567 24.0917 298.834 24.525C298.117 24.9583 297.334 25.175 296.484 25.175ZM308.136 25C306.853 25 305.869 24.7083 305.186 24.125C304.503 23.5417 304.161 22.6083 304.161 21.325V8.175C304.161 7.975 304.244 7.825 304.411 7.725C304.594 7.60833 304.778 7.55 304.961 7.55C305.178 7.55 305.369 7.60833 305.536 7.725C305.703 7.825 305.786 7.975 305.786 8.175V13.175H309.036C309.203 13.175 309.336 13.2417 309.436 13.375C309.536 13.5083 309.586 13.6667 309.586 13.85C309.586 14.0333 309.536 14.1917 309.436 14.325C309.336 14.4583 309.203 14.525 309.036 14.525H305.786V21.325C305.786 22.1417 305.961 22.7167 306.311 23.05C306.661 23.3667 307.269 23.525 308.136 23.525H308.836C309.069 23.525 309.244 23.6 309.361 23.75C309.494 23.8833 309.561 24.05 309.561 24.25C309.561 24.45 309.494 24.625 309.361 24.775C309.244 24.925 309.069 25 308.836 25H308.136ZM318.864 25C318.531 25 318.222 24.925 317.939 24.775C317.672 24.625 317.539 24.4083 317.539 24.125V10.225L316.664 11.325C316.564 11.4083 316.464 11.475 316.364 11.525C316.281 11.5583 316.197 11.575 316.114 11.575C315.847 11.575 315.631 11.4667 315.464 11.25C315.297 11.0167 315.214 10.7667 315.214 10.5C315.214 10.3 315.264 10.1083 315.364 9.925C315.464 9.74167 315.589 9.59167 315.739 9.475L318.339 6.975C318.422 6.89167 318.514 6.825 318.614 6.775C318.731 6.725 318.864 6.7 319.014 6.7C319.297 6.7 319.564 6.775 319.814 6.925C320.064 7.075 320.189 7.29167 320.189 7.575V24.125C320.189 24.4083 320.047 24.625 319.764 24.775C319.497 24.925 319.197 25 318.864 25ZM328.229 25.15C327.179 25.15 326.229 24.9833 325.379 24.65C324.529 24.3 323.854 23.75 323.354 23C322.854 22.2333 322.604 21.2333 322.604 20V19.7C322.604 18.4167 322.871 17.4 323.404 16.65C323.954 15.8833 324.654 15.3417 325.504 15.025C324.804 14.7583 324.237 14.3083 323.804 13.675C323.387 13.0417 323.179 12.1917 323.179 11.125C323.179 10.0583 323.396 9.2 323.829 8.55C324.279 7.9 324.879 7.43333 325.629 7.15C326.396 6.86667 327.262 6.725 328.229 6.725C329.212 6.725 330.079 6.86667 330.829 7.15C331.596 7.43333 332.196 7.9 332.629 8.55C333.079 9.2 333.304 10.0583 333.304 11.125C333.304 12.1917 333.087 13.0417 332.654 13.675C332.221 14.3083 331.662 14.7583 330.979 15.025C331.846 15.3417 332.537 15.8833 333.054 16.65C333.571 17.4 333.829 18.4167 333.829 19.7V20C333.829 21.2333 333.579 22.2333 333.079 23C332.596 23.75 331.929 24.3 331.079 24.65C330.229 24.9833 329.279 25.15 328.229 25.15ZM328.254 22.95C329.187 22.95 329.912 22.6833 330.429 22.15C330.946 21.6167 331.204 20.8083 331.204 19.725V19.275C331.204 18.2083 330.937 17.425 330.404 16.925C329.887 16.4083 329.162 16.15 328.229 16.15C327.312 16.15 326.587 16.4083 326.054 16.925C325.521 17.425 325.254 18.2083 325.254 19.275V19.725C325.254 20.8417 325.521 21.6583 326.054 22.175C326.604 22.6917 327.337 22.95 328.254 22.95ZM328.229 13.95C329.029 13.95 329.646 13.7583 330.079 13.375C330.529 12.975 330.754 12.325 330.754 11.425C330.754 10.5417 330.529 9.90833 330.079 9.525C329.646 9.125 329.029 8.925 328.229 8.925C327.446 8.925 326.829 9.125 326.379 9.525C325.946 9.90833 325.729 10.5417 325.729 11.425C325.729 12.325 325.946 12.975 326.379 13.375C326.829 13.7583 327.446 13.95 328.229 13.95ZM337.066 25.15C336.632 25.15 336.274 25 335.991 24.7C335.707 24.4 335.566 24.05 335.566 23.65C335.566 23.2333 335.707 22.8833 335.991 22.6C336.274 22.3 336.632 22.15 337.066 22.15C337.466 22.15 337.807 22.3 338.091 22.6C338.391 22.8833 338.541 23.2333 338.541 23.65C338.541 24.05 338.391 24.4 338.091 24.7C337.807 25 337.466 25.15 337.066 25.15ZM345.431 25.15C344.464 25.15 343.631 25.0167 342.931 24.75C342.231 24.4833 341.656 24.1333 341.206 23.7C340.756 23.2667 340.423 22.7917 340.206 22.275C340.006 21.7583 339.906 21.25 339.906 20.75C339.906 20.3 339.998 20 340.181 19.85C340.381 19.7 340.706 19.625 341.156 19.625C341.689 19.625 342.048 19.7083 342.231 19.875C342.414 20.025 342.506 20.275 342.506 20.625C342.506 20.8917 342.564 21.1583 342.681 21.425C342.814 21.675 342.998 21.9083 343.231 22.125C343.464 22.325 343.764 22.4917 344.131 22.625C344.514 22.7417 344.956 22.8 345.456 22.8C346.489 22.8 347.248 22.5583 347.731 22.075C348.231 21.575 348.481 20.7833 348.481 19.7V19.225C348.481 18.225 348.198 17.525 347.631 17.125C347.081 16.7083 346.356 16.5 345.456 16.5C345.139 16.5 344.914 16.3917 344.781 16.175C344.648 15.9417 344.581 15.7 344.581 15.45C344.581 15.1667 344.648 14.9167 344.781 14.7C344.914 14.4833 345.131 14.375 345.431 14.375C345.948 14.375 346.398 14.3083 346.781 14.175C347.181 14.025 347.489 13.75 347.706 13.35C347.923 12.95 348.031 12.375 348.031 11.625C348.031 10.7083 347.814 10.05 347.381 9.65C346.964 9.25 346.348 9.05 345.531 9.05C345.031 9.05 344.614 9.10833 344.281 9.225C343.948 9.34167 343.681 9.5 343.481 9.7C343.281 9.9 343.139 10.1167 343.056 10.35C342.973 10.5833 342.931 10.8333 342.931 11.1C342.931 11.4167 342.839 11.675 342.656 11.875C342.489 12.075 342.164 12.175 341.681 12.175C341.298 12.175 341.006 12.1417 340.806 12.075C340.606 12.0083 340.473 11.8833 340.406 11.7C340.339 11.5167 340.306 11.2667 340.306 10.95C340.306 10.55 340.389 10.1083 340.556 9.625C340.723 9.125 340.998 8.65833 341.381 8.225C341.781 7.775 342.323 7.41667 343.006 7.15C343.689 6.86667 344.539 6.725 345.556 6.725C346.539 6.725 347.406 6.86667 348.156 7.15C348.906 7.43333 349.498 7.9 349.931 8.55C350.364 9.2 350.581 10.075 350.581 11.175C350.581 12.225 350.398 13.1167 350.031 13.85C349.681 14.5667 349.198 15.0667 348.581 15.35C349.314 15.6333 349.923 16.0833 350.406 16.7C350.889 17.3167 351.131 18.1583 351.131 19.225V19.7C351.131 21.0167 350.873 22.075 350.356 22.875C349.856 23.675 349.173 24.2583 348.306 24.625C347.439 24.975 346.481 25.15 345.431 25.15ZM357.301 25.875C357.017 25.875 356.784 25.775 356.601 25.575C356.417 25.3917 356.326 25.1833 356.326 24.95C356.326 24.8167 356.359 24.6917 356.426 24.575L365.626 6.2C365.759 5.9 366.001 5.75 366.351 5.75C366.601 5.75 366.834 5.84167 367.051 6.025C367.284 6.19167 367.401 6.41667 367.401 6.7C367.401 6.85 367.376 6.98333 367.326 7.1L358.151 25.4C358.084 25.55 357.967 25.6667 357.801 25.75C357.651 25.8333 357.484 25.875 357.301 25.875ZM356.251 16.575C355.301 16.575 354.501 16.3417 353.851 15.875C353.201 15.4083 352.876 14.6167 352.876 13.5V9.8C352.876 8.68333 353.201 7.89167 353.851 7.425C354.501 6.95833 355.301 6.725 356.251 6.725C356.901 6.725 357.476 6.825 357.976 7.025C358.492 7.225 358.901 7.55 359.201 8C359.501 8.45 359.651 9.05 359.651 9.8V13.5C359.651 14.25 359.501 14.85 359.201 15.3C358.901 15.75 358.492 16.075 357.976 16.275C357.476 16.475 356.901 16.575 356.251 16.575ZM356.276 14.975C356.759 14.975 357.142 14.8583 357.426 14.625C357.709 14.375 357.851 14 357.851 13.5V9.8C357.851 9.3 357.709 8.93333 357.426 8.7C357.142 8.45 356.759 8.325 356.276 8.325C355.776 8.325 355.384 8.45 355.101 8.7C354.834 8.93333 354.701 9.3 354.701 9.8V13.5C354.701 14 354.834 14.375 355.101 14.625C355.384 14.8583 355.776 14.975 356.276 14.975ZM367.326 25.075C366.359 25.075 365.551 24.8417 364.901 24.375C364.251 23.9083 363.926 23.1167 363.926 22V18.3C363.926 17.1833 364.251 16.3917 364.901 15.925C365.551 15.4583 366.359 15.225 367.326 15.225C367.959 15.225 368.526 15.325 369.026 15.525C369.542 15.725 369.951 16.05 370.251 16.5C370.551 16.95 370.701 17.55 370.701 18.3V22C370.701 22.75 370.551 23.35 370.251 23.8C369.951 24.25 369.542 24.575 369.026 24.775C368.526 24.975 367.959 25.075 367.326 25.075ZM367.326 23.475C367.809 23.475 368.192 23.3583 368.476 23.125C368.759 22.875 368.901 22.5 368.901 22V18.3C368.901 17.8 368.759 17.4333 368.476 17.2C368.192 16.95 367.809 16.825 367.326 16.825C366.842 16.825 366.459 16.95 366.176 17.2C365.909 17.4333 365.776 17.8 365.776 18.3V22C365.776 22.5 365.909 22.875 366.176 23.125C366.459 23.3583 366.842 23.475 367.326 23.475ZM5.85 55.175C5 55.175 4.21667 54.9583 3.5 54.525C2.78333 54.075 2.2 53.4917 1.75 52.775C1.31667 52.0417 1.1 51.2583 1.1 50.425V47.725C1.1 46.875 1.30833 46.1 1.725 45.4C2.15833 44.6833 2.73333 44.1083 3.45 43.675C4.18333 43.2417 4.98333 43.025 5.85 43.025C6.7 43.025 7.48333 43.2417 8.2 43.675C8.93333 44.0917 9.51667 44.65 9.95 45.35C10.3833 46.05 10.6 46.8417 10.6 47.725V50.425C10.6 51.2417 10.3833 52.0167 9.95 52.75C9.51667 53.4833 8.93333 54.075 8.2 54.525C7.48333 54.9583 6.7 55.175 5.85 55.175ZM5.85 53.675C6.43333 53.675 6.95833 53.525 7.425 53.225C7.89167 52.9083 8.26667 52.5 8.55 52C8.83333 51.5 8.975 50.975 8.975 50.425V47.725C8.975 47.175 8.83333 46.6583 8.55 46.175C8.28333 45.6917 7.90833 45.3 7.425 45C6.95833 44.6833 6.43333 44.525 5.85 44.525C5.26667 44.525 4.74167 44.6833 4.275 45C3.80833 45.3 3.43333 45.6917 3.15 46.175C2.86667 46.6583 2.725 47.175 2.725 47.725V50.425C2.725 50.975 2.86667 51.5 3.15 52C3.43333 52.5 3.80833 52.9083 4.275 53.225C4.75833 53.525 5.28333 53.675 5.85 53.675ZM14.0688 55C13.8521 55 13.6688 54.9417 13.5188 54.825C13.3688 54.7083 13.2938 54.5583 13.2938 54.375V40.525C13.2938 39.675 13.4938 38.9083 13.8938 38.225C14.3104 37.525 14.8521 36.9667 15.5188 36.55C16.2021 36.1333 16.9438 35.925 17.7438 35.925H18.3688C18.6021 35.925 18.7771 36 18.8938 36.15C19.0104 36.3 19.0687 36.475 19.0687 36.675C19.0687 36.8583 19.0104 37.025 18.8938 37.175C18.7771 37.325 18.6021 37.4 18.3688 37.4H17.9438C17.3771 37.4 16.8604 37.5417 16.3938 37.825C15.9438 38.1083 15.5854 38.475 15.3188 38.925C15.0688 39.375 14.9354 39.875 14.9188 40.425V43.175H18.4938C18.6771 43.175 18.8188 43.2417 18.9188 43.375C19.0188 43.5083 19.0687 43.6667 19.0687 43.85C19.0687 44.0167 19.0188 44.175 18.9188 44.325C18.8188 44.4583 18.6771 44.525 18.4938 44.525H14.9188V54.375C14.9188 54.5583 14.8354 54.7083 14.6688 54.825C14.5021 54.9417 14.3021 55 14.0688 55ZM30.0908 60.8C29.1075 60.8 28.2325 60.6583 27.4658 60.375C26.7158 60.1083 26.1158 59.725 25.6658 59.225C25.2325 58.7417 25.0158 58.1583 25.0158 57.475C25.0158 56.7417 25.2325 56.1583 25.6658 55.725C26.0992 55.2917 26.5908 54.9667 27.1408 54.75C26.7408 54.6 26.4075 54.4 26.1408 54.15C25.8908 53.8833 25.7658 53.5083 25.7658 53.025C25.7658 52.5583 25.8825 52.1917 26.1158 51.925C26.3492 51.6417 26.6492 51.4083 27.0158 51.225C26.5658 50.8583 26.2158 50.4083 25.9658 49.875C25.7325 49.325 25.6158 48.725 25.6158 48.075V47.125C25.6158 46.325 25.7908 45.6167 26.1408 45C26.5075 44.3833 27.0158 43.9 27.6658 43.55C28.3158 43.2 29.0742 43.025 29.9408 43.025C30.5242 43.025 31.0658 43.1167 31.5658 43.3C32.0658 43.4833 32.4992 43.7417 32.8658 44.075C33.1158 43.5583 33.3992 43.1667 33.7158 42.9C34.0325 42.6333 34.3325 42.5 34.6158 42.5C34.8825 42.5 35.0742 42.575 35.1908 42.725C35.3242 42.8583 35.3908 43 35.3908 43.15C35.3908 43.3 35.3492 43.425 35.2658 43.525C35.1825 43.6083 35.0825 43.6667 34.9658 43.7C34.7658 43.7333 34.5325 43.825 34.2658 43.975C34.0158 44.125 33.7825 44.3917 33.5658 44.775C33.7992 45.0917 33.9742 45.45 34.0908 45.85C34.2075 46.25 34.2658 46.675 34.2658 47.125V48.075C34.2658 48.8583 34.0825 49.5667 33.7158 50.2C33.3492 50.8333 32.8325 51.3333 32.1658 51.7C31.5158 52.05 30.7658 52.225 29.9158 52.225C29.1992 52.225 28.5575 52.0833 27.9908 51.8C27.8075 51.9 27.6325 52.025 27.4658 52.175C27.2992 52.3083 27.2158 52.5083 27.2158 52.775C27.2158 53.1417 27.4075 53.4083 27.7908 53.575C28.1742 53.7417 28.6575 53.8583 29.2408 53.925C29.8242 53.9917 30.4408 54.0667 31.0908 54.15C31.7575 54.2167 32.3825 54.35 32.9658 54.55C33.5658 54.75 34.0492 55.0583 34.4158 55.475C34.7992 55.8917 34.9908 56.4833 34.9908 57.25C34.9908 58.0333 34.7742 58.6833 34.3408 59.2C33.9242 59.7333 33.3492 60.1333 32.6158 60.4C31.8825 60.6667 31.0408 60.8 30.0908 60.8ZM30.0658 59.575C31.1158 59.575 31.9325 59.3667 32.5158 58.95C33.0992 58.5333 33.3908 57.9833 33.3908 57.3C33.3908 56.7667 33.2325 56.3583 32.9158 56.075C32.5992 55.8083 32.1908 55.6167 31.6908 55.5C31.2075 55.3833 30.6992 55.3 30.1658 55.25C29.6492 55.2 29.1992 55.15 28.8158 55.1C28.2325 55.2833 27.7158 55.55 27.2658 55.9C26.8158 56.25 26.5908 56.725 26.5908 57.325C26.5908 57.9917 26.8992 58.5333 27.5158 58.95C28.1325 59.3667 28.9825 59.575 30.0658 59.575ZM29.9658 51C30.7992 51 31.4575 50.725 31.9408 50.175C32.4242 49.6083 32.6658 48.9083 32.6658 48.075V47.125C32.6658 46.3083 32.4242 45.625 31.9408 45.075C31.4742 44.525 30.8075 44.25 29.9408 44.25C29.0742 44.25 28.3992 44.525 27.9158 45.075C27.4492 45.625 27.2158 46.3083 27.2158 47.125V48.05C27.2158 48.8833 27.4575 49.5833 27.9408 50.15C28.4242 50.7167 29.0992 51 29.9658 51ZM38.2684 55C38.0517 55 37.86 54.9333 37.6934 54.8C37.5434 54.6667 37.4684 54.5167 37.4684 54.35V36.55C37.4684 36.35 37.5434 36.2 37.6934 36.1C37.86 35.9833 38.0517 35.925 38.2684 35.925C38.5017 35.925 38.6934 35.9833 38.8434 36.1C39.01 36.2 39.0934 36.35 39.0934 36.55V54.35C39.0934 54.5167 39.01 54.6667 38.8434 54.8C38.6934 54.9333 38.5017 55 38.2684 55ZM46.7436 55.175C45.8936 55.175 45.1102 54.9583 44.3936 54.525C43.6769 54.075 43.0936 53.4917 42.6436 52.775C42.2102 52.0417 41.9936 51.2583 41.9936 50.425V47.725C41.9936 46.875 42.2019 46.1 42.6186 45.4C43.0519 44.6833 43.6269 44.1083 44.3436 43.675C45.0769 43.2417 45.8769 43.025 46.7436 43.025C47.5936 43.025 48.3769 43.2417 49.0936 43.675C49.8269 44.0917 50.4102 44.65 50.8436 45.35C51.2769 46.05 51.4936 46.8417 51.4936 47.725V50.425C51.4936 51.2417 51.2769 52.0167 50.8436 52.75C50.4102 53.4833 49.8269 54.075 49.0936 54.525C48.3769 54.9583 47.5936 55.175 46.7436 55.175ZM46.7436 53.675C47.3269 53.675 47.8519 53.525 48.3186 53.225C48.7852 52.9083 49.1602 52.5 49.4436 52C49.7269 51.5 49.8686 50.975 49.8686 50.425V47.725C49.8686 47.175 49.7269 46.6583 49.4436 46.175C49.1769 45.6917 48.8019 45.3 48.3186 45C47.8519 44.6833 47.3269 44.525 46.7436 44.525C46.1602 44.525 45.6352 44.6833 45.1686 45C44.7019 45.3 44.3269 45.6917 44.0436 46.175C43.7602 46.6583 43.6186 47.175 43.6186 47.725V50.425C43.6186 50.975 43.7602 51.5 44.0436 52C44.3269 52.5 44.7019 52.9083 45.1686 53.225C45.6519 53.525 46.1769 53.675 46.7436 53.675ZM59.1873 55.175C58.404 55.175 57.704 54.9833 57.0873 54.6C56.4706 54.2167 56.029 53.7667 55.7623 53.25V54.35C55.7623 54.5167 55.6873 54.6667 55.5373 54.8C55.3873 54.9333 55.204 55 54.9873 55C54.7706 55 54.579 54.9333 54.4123 54.8C54.2623 54.6667 54.1873 54.5167 54.1873 54.35V36.55C54.1873 36.35 54.2623 36.2 54.4123 36.1C54.579 35.9833 54.7706 35.925 54.9873 35.925C55.2206 35.925 55.4123 35.9833 55.5623 36.1C55.729 36.2 55.8123 36.35 55.8123 36.55V44.925C56.0956 44.4417 56.5123 44.0083 57.0623 43.625C57.629 43.225 58.3206 43.025 59.1373 43.025C59.954 43.025 60.6956 43.2417 61.3623 43.675C62.0456 44.0917 62.5873 44.6583 62.9873 45.375C63.404 46.075 63.6123 46.8583 63.6123 47.725V50.425C63.6123 51.2417 63.404 52.0167 62.9873 52.75C62.5873 53.4833 62.054 54.075 61.3873 54.525C60.7206 54.9583 59.9873 55.175 59.1873 55.175ZM58.8873 53.675C59.454 53.675 59.9706 53.525 60.4373 53.225C60.904 52.9083 61.279 52.5 61.5623 52C61.8456 51.5 61.9873 50.975 61.9873 50.425V47.725C61.9873 47.175 61.8456 46.6583 61.5623 46.175C61.279 45.6917 60.904 45.3 60.4373 45C59.9706 44.6833 59.4456 44.525 58.8623 44.525C58.3623 44.525 57.879 44.6583 57.4123 44.925C56.9456 45.175 56.5623 45.5333 56.2623 46C55.9623 46.4667 55.8123 47.0417 55.8123 47.725V51.2C55.8123 51.45 55.9456 51.775 56.2123 52.175C56.4956 52.5583 56.8706 52.9083 57.3373 53.225C57.804 53.525 58.3206 53.675 58.8873 53.675ZM68.8967 55.175C67.9467 55.175 67.1383 54.9083 66.4717 54.375C65.8217 53.825 65.4967 52.9917 65.4967 51.875C65.4967 50.9583 65.7383 50.2583 66.2217 49.775C66.7217 49.275 67.405 48.9333 68.2717 48.75C69.155 48.55 70.1717 48.45 71.3217 48.45H72.5967V47.875C72.5967 47.325 72.4967 46.7917 72.2967 46.275C72.1133 45.7417 71.805 45.3083 71.3717 44.975C70.955 44.625 70.38 44.45 69.6467 44.45C69.0967 44.45 68.6467 44.5083 68.2967 44.625C67.9467 44.7417 67.6717 44.8667 67.4717 45C67.2717 45.1167 67.105 45.175 66.9717 45.175C66.7717 45.175 66.605 45.075 66.4717 44.875C66.355 44.675 66.2967 44.4917 66.2967 44.325C66.2967 44.0917 66.4717 43.8833 66.8217 43.7C67.1717 43.5 67.605 43.3417 68.1217 43.225C68.655 43.0917 69.18 43.025 69.6967 43.025C70.8133 43.025 71.6967 43.2583 72.3467 43.725C73.0133 44.175 73.4883 44.7667 73.7717 45.5C74.0717 46.2333 74.2217 47.0167 74.2217 47.85V54.35C74.2217 54.5333 74.1467 54.6917 73.9967 54.825C73.8633 54.9417 73.6717 55 73.4217 55C73.2217 55 73.0383 54.9417 72.8717 54.825C72.7217 54.6917 72.6467 54.5333 72.6467 54.35V53.25C72.23 53.75 71.7133 54.2 71.0967 54.6C70.48 54.9833 69.7467 55.175 68.8967 55.175ZM69.2967 53.8C69.8467 53.8 70.3717 53.6583 70.8717 53.375C71.3717 53.0917 71.78 52.75 72.0967 52.35C72.43 51.9333 72.5967 51.5417 72.5967 51.175V49.575H71.5467C70.7967 49.575 70.08 49.625 69.3967 49.725C68.73 49.8083 68.18 50 67.7467 50.3C67.33 50.6 67.1217 51.075 67.1217 51.725C67.1217 52.4417 67.33 52.9667 67.7467 53.3C68.18 53.6333 68.6967 53.8 69.2967 53.8ZM78.2586 55C78.0419 55 77.8503 54.9333 77.6836 54.8C77.5336 54.6667 77.4586 54.5167 77.4586 54.35V36.55C77.4586 36.35 77.5336 36.2 77.6836 36.1C77.8503 35.9833 78.0419 35.925 78.2586 35.925C78.4919 35.925 78.6836 35.9833 78.8336 36.1C79.0003 36.2 79.0836 36.35 79.0836 36.55V54.35C79.0836 54.5167 79.0003 54.6667 78.8336 54.8C78.6836 54.9333 78.4919 55 78.2586 55ZM90.8887 55.2C90.072 55.2 89.3387 55.1 88.6887 54.9C88.0387 54.7 87.522 54.45 87.1387 54.15C86.772 53.8333 86.5887 53.5167 86.5887 53.2C86.5887 53.05 86.622 52.8833 86.6887 52.7C86.772 52.5167 86.8803 52.3583 87.0137 52.225C87.1637 52.0917 87.322 52.025 87.4887 52.025C87.7053 52.025 87.9303 52.125 88.1637 52.325C88.4137 52.5083 88.7387 52.7 89.1387 52.9C89.5387 53.0833 90.097 53.175 90.8137 53.175C91.647 53.175 92.2053 53.0333 92.4887 52.75C92.7887 52.4667 92.9387 52.1583 92.9387 51.825C92.9387 51.3917 92.7887 51.0583 92.4887 50.825C92.2053 50.575 91.8303 50.375 91.3637 50.225C90.9137 50.075 90.4303 49.9333 89.9137 49.8C89.397 49.65 88.9053 49.4583 88.4387 49.225C87.9887 48.9917 87.6137 48.6667 87.3137 48.25C87.0303 47.8333 86.8887 47.2833 86.8887 46.6C86.8887 46.0333 87.0303 45.475 87.3137 44.925C87.597 44.3583 88.047 43.9 88.6637 43.55C89.297 43.1833 90.1387 43 91.1887 43C91.822 43 92.422 43.0667 92.9887 43.2C93.5553 43.3333 94.022 43.5167 94.3887 43.75C94.7553 43.9667 94.9387 44.2083 94.9387 44.475C94.9387 44.5917 94.897 44.7583 94.8137 44.975C94.7303 45.175 94.6137 45.3583 94.4637 45.525C94.3303 45.675 94.1553 45.75 93.9387 45.75C93.772 45.75 93.5637 45.6917 93.3137 45.575C93.0637 45.4417 92.772 45.3167 92.4387 45.2C92.1053 45.0833 91.697 45.025 91.2137 45.025C90.7303 45.025 90.3387 45.1083 90.0387 45.275C89.7553 45.425 89.547 45.6083 89.4137 45.825C89.2803 46.0417 89.2137 46.2583 89.2137 46.475C89.2137 46.8417 89.3553 47.125 89.6387 47.325C89.922 47.525 90.297 47.6917 90.7637 47.825C91.2303 47.9583 91.722 48.1 92.2387 48.25C92.7553 48.3833 93.2387 48.5833 93.6887 48.85C94.1553 49.1167 94.5303 49.475 94.8137 49.925C95.1137 50.375 95.2637 50.975 95.2637 51.725C95.2637 52.775 94.8803 53.6167 94.1137 54.25C93.3637 54.8833 92.2887 55.2 90.8887 55.2ZM101.745 55C100.328 55 99.2449 54.6917 98.4949 54.075C97.7449 53.4417 97.3699 52.45 97.3699 51.1V38.575C97.3699 38.325 97.5033 38.125 97.7699 37.975C98.0533 37.8083 98.3533 37.725 98.6699 37.725C98.9866 37.725 99.2866 37.8083 99.5699 37.975C99.8533 38.125 99.9949 38.325 99.9949 38.575V43.15H103.045C103.278 43.15 103.453 43.25 103.57 43.45C103.703 43.65 103.77 43.875 103.77 44.125C103.77 44.375 103.703 44.6 103.57 44.8C103.453 45 103.278 45.1 103.045 45.1H99.9949V51.1C99.9949 51.7 100.12 52.125 100.37 52.375C100.637 52.625 101.095 52.75 101.745 52.75H102.595C102.978 52.75 103.262 52.8667 103.445 53.1C103.645 53.3167 103.745 53.575 103.745 53.875C103.745 54.1583 103.645 54.4167 103.445 54.65C103.262 54.8833 102.978 55 102.595 55H101.745ZM106.849 55C106.483 55 106.174 54.9083 105.924 54.725C105.691 54.5417 105.574 54.3417 105.574 54.125V44C105.574 43.75 105.691 43.55 105.924 43.4C106.174 43.2333 106.483 43.15 106.849 43.15C107.183 43.15 107.466 43.2333 107.699 43.4C107.933 43.55 108.049 43.75 108.049 44V45.1C108.233 44.75 108.474 44.4167 108.774 44.1C109.091 43.7833 109.458 43.525 109.874 43.325C110.291 43.1083 110.741 43 111.224 43H112.024C112.291 43 112.524 43.1167 112.724 43.35C112.924 43.5667 113.024 43.8333 113.024 44.15C113.024 44.4667 112.924 44.7417 112.724 44.975C112.524 45.2083 112.291 45.325 112.024 45.325H111.224C110.724 45.325 110.241 45.475 109.774 45.775C109.308 46.075 108.924 46.5 108.624 47.05C108.341 47.5833 108.199 48.2333 108.199 49V54.125C108.199 54.3417 108.066 54.5417 107.799 54.725C107.549 54.9083 107.233 55 106.849 55ZM118.819 55.2C117.919 55.2 117.077 54.9667 116.294 54.5C115.51 54.0333 114.877 53.425 114.394 52.675C113.927 51.9083 113.694 51.0917 113.694 50.225V47.925C113.694 47.0417 113.919 46.225 114.369 45.475C114.835 44.725 115.46 44.125 116.244 43.675C117.044 43.225 117.91 43 118.844 43C119.777 43 120.635 43.225 121.419 43.675C122.202 44.1083 122.827 44.7 123.294 45.45C123.777 46.1833 124.019 47.0083 124.019 47.925V50.225C124.019 51.075 123.777 51.8833 123.294 52.65C122.827 53.4167 122.194 54.0333 121.394 54.5C120.61 54.9667 119.752 55.2 118.819 55.2ZM118.844 52.875C119.31 52.875 119.735 52.75 120.119 52.5C120.502 52.25 120.81 51.925 121.044 51.525C121.277 51.1083 121.394 50.675 121.394 50.225V47.925C121.394 47.4917 121.277 47.075 121.044 46.675C120.81 46.275 120.502 45.95 120.119 45.7C119.735 45.45 119.31 45.325 118.844 45.325C118.36 45.325 117.927 45.45 117.544 45.7C117.177 45.95 116.877 46.275 116.644 46.675C116.427 47.075 116.319 47.4917 116.319 47.925V50.225C116.319 50.675 116.427 51.1083 116.644 51.525C116.877 51.925 117.185 52.25 117.569 52.5C117.952 52.75 118.377 52.875 118.844 52.875ZM127.602 55C127.235 55 126.927 54.9083 126.677 54.725C126.443 54.5417 126.327 54.3417 126.327 54.125V36.95C126.327 36.7 126.443 36.5 126.677 36.35C126.927 36.1833 127.235 36.1 127.602 36.1C127.985 36.1 128.302 36.1833 128.552 36.35C128.818 36.5 128.952 36.7 128.952 36.95V48.075L134.177 43.275C134.327 43.125 134.51 43.05 134.727 43.05C134.927 43.05 135.118 43.1167 135.302 43.25C135.502 43.3667 135.668 43.525 135.802 43.725C135.935 43.9083 136.002 44.1 136.002 44.3C136.002 44.4 135.985 44.5 135.952 44.6C135.918 44.6833 135.86 44.7667 135.777 44.85L132.552 47.725L136.477 53.375C136.577 53.5417 136.627 53.6917 136.627 53.825C136.627 54.0417 136.543 54.25 136.377 54.45C136.227 54.65 136.035 54.8167 135.802 54.95C135.585 55.0833 135.368 55.15 135.152 55.15C134.852 55.15 134.618 55.025 134.452 54.775L130.777 49.35L128.952 51V54.125C128.952 54.3417 128.818 54.5417 128.552 54.725C128.302 54.9083 127.985 55 127.602 55ZM143.371 55.2C142.237 55.2 141.237 54.9917 140.371 54.575C139.504 54.1583 138.821 53.5833 138.321 52.85C137.821 52.1 137.571 51.225 137.571 50.225V47.85C137.571 46.9667 137.804 46.1583 138.271 45.425C138.754 44.6917 139.387 44.1083 140.171 43.675C140.954 43.225 141.821 43 142.771 43C143.671 43 144.496 43.2 145.246 43.6C145.996 43.9833 146.596 44.525 147.046 45.225C147.512 45.925 147.746 46.725 147.746 47.625C147.746 48.325 147.637 48.825 147.421 49.125C147.204 49.425 146.921 49.6083 146.571 49.675C146.221 49.7417 145.854 49.775 145.471 49.775H140.196V50.35C140.196 51.1833 140.496 51.85 141.096 52.35C141.712 52.8333 142.496 53.075 143.446 53.075C144.029 53.075 144.504 52.9917 144.871 52.825C145.237 52.6583 145.546 52.5 145.796 52.35C146.046 52.2 146.279 52.125 146.496 52.125C146.712 52.125 146.896 52.1917 147.046 52.325C147.196 52.4583 147.312 52.6167 147.396 52.8C147.479 52.9833 147.521 53.15 147.521 53.3C147.521 53.55 147.346 53.825 146.996 54.125C146.662 54.425 146.187 54.6833 145.571 54.9C144.954 55.1 144.221 55.2 143.371 55.2ZM140.196 48.15H144.346C144.712 48.15 144.954 48.1 145.071 48C145.204 47.9 145.271 47.7 145.271 47.4C145.271 46.9667 145.162 46.5667 144.946 46.2C144.729 45.8167 144.429 45.525 144.046 45.325C143.662 45.1083 143.229 45 142.746 45C142.279 45 141.854 45.1 141.471 45.3C141.087 45.5 140.779 45.775 140.546 46.125C140.312 46.475 140.196 46.8833 140.196 47.35V48.15ZM159.041 55.175C158.274 55.175 157.549 54.9583 156.866 54.525C156.182 54.075 155.632 53.4833 155.216 52.75C154.816 52.0167 154.616 51.2417 154.616 50.425V47.725C154.616 46.8583 154.816 46.075 155.216 45.375C155.632 44.6583 156.182 44.0917 156.866 43.675C157.549 43.2417 158.299 43.025 159.116 43.025C159.932 43.025 160.616 43.225 161.166 43.625C161.732 44.0083 162.149 44.4417 162.416 44.925V36.55C162.416 36.35 162.499 36.2 162.666 36.1C162.832 35.9833 163.024 35.925 163.241 35.925C163.491 35.925 163.682 35.9833 163.816 36.1C163.966 36.2 164.041 36.35 164.041 36.55V54.35C164.041 54.5167 163.966 54.6667 163.816 54.8C163.682 54.9333 163.491 55 163.241 55C163.041 55 162.857 54.9333 162.691 54.8C162.541 54.6667 162.466 54.5167 162.466 54.35V53.25C162.216 53.7667 161.774 54.2167 161.141 54.6C160.524 54.9833 159.824 55.175 159.041 55.175ZM159.341 53.675C159.941 53.675 160.466 53.525 160.916 53.225C161.382 52.9083 161.749 52.5583 162.016 52.175C162.282 51.775 162.416 51.45 162.416 51.2V47.725C162.416 47.0417 162.266 46.4667 161.966 46C161.666 45.5333 161.282 45.175 160.816 44.925C160.349 44.6583 159.866 44.525 159.366 44.525C158.799 44.525 158.282 44.6833 157.816 45C157.349 45.3 156.974 45.6917 156.691 46.175C156.407 46.6583 156.266 47.175 156.266 47.725V50.425C156.266 50.975 156.407 51.5 156.691 52C156.974 52.5 157.349 52.9083 157.816 53.225C158.282 53.525 158.791 53.675 159.341 53.675ZM172.125 55.175C171.075 55.175 170.142 54.975 169.325 54.575C168.525 54.175 167.892 53.625 167.425 52.925C166.975 52.2083 166.75 51.375 166.75 50.425V47.65C166.75 46.8167 166.967 46.05 167.4 45.35C167.833 44.6333 168.408 44.0667 169.125 43.65C169.858 43.2333 170.658 43.025 171.525 43.025C172.358 43.025 173.125 43.225 173.825 43.625C174.542 44.0083 175.117 44.5417 175.55 45.225C175.983 45.9083 176.2 46.7 176.2 47.6C176.2 48.2333 176.092 48.6917 175.875 48.975C175.658 49.2583 175.383 49.4333 175.05 49.5C174.733 49.55 174.392 49.575 174.025 49.575H168.375V50.5C168.375 51.5 168.733 52.2917 169.45 52.875C170.167 53.4583 171.075 53.75 172.175 53.75C172.842 53.75 173.358 53.6667 173.725 53.5C174.092 53.3333 174.375 53.1667 174.575 53C174.792 52.8333 174.992 52.75 175.175 52.75C175.308 52.75 175.425 52.8 175.525 52.9C175.642 52.9833 175.725 53.0833 175.775 53.2C175.842 53.3167 175.875 53.425 175.875 53.525C175.875 53.7083 175.725 53.9333 175.425 54.2C175.125 54.4667 174.692 54.7 174.125 54.9C173.558 55.0833 172.892 55.175 172.125 55.175ZM168.375 48.375H173.375C173.875 48.375 174.208 48.325 174.375 48.225C174.542 48.1083 174.625 47.875 174.625 47.525C174.625 46.9917 174.492 46.4917 174.225 46.025C173.958 45.5417 173.592 45.15 173.125 44.85C172.658 44.5333 172.117 44.375 171.5 44.375C170.933 44.375 170.408 44.5167 169.925 44.8C169.458 45.0833 169.083 45.45 168.8 45.9C168.517 46.35 168.375 46.8583 168.375 47.425V48.375ZM181.25 55.175C180.3 55.175 179.492 54.9083 178.825 54.375C178.175 53.825 177.85 52.9917 177.85 51.875C177.85 50.9583 178.092 50.2583 178.575 49.775C179.075 49.275 179.759 48.9333 180.625 48.75C181.509 48.55 182.525 48.45 183.675 48.45H184.95V47.875C184.95 47.325 184.85 46.7917 184.65 46.275C184.467 45.7417 184.159 45.3083 183.725 44.975C183.309 44.625 182.734 44.45 182 44.45C181.45 44.45 181 44.5083 180.65 44.625C180.3 44.7417 180.025 44.8667 179.825 45C179.625 45.1167 179.459 45.175 179.325 45.175C179.125 45.175 178.959 45.075 178.825 44.875C178.709 44.675 178.65 44.4917 178.65 44.325C178.65 44.0917 178.825 43.8833 179.175 43.7C179.525 43.5 179.959 43.3417 180.475 43.225C181.009 43.0917 181.534 43.025 182.05 43.025C183.167 43.025 184.05 43.2583 184.7 43.725C185.367 44.175 185.842 44.7667 186.125 45.5C186.425 46.2333 186.575 47.0167 186.575 47.85V54.35C186.575 54.5333 186.5 54.6917 186.35 54.825C186.217 54.9417 186.025 55 185.775 55C185.575 55 185.392 54.9417 185.225 54.825C185.075 54.6917 185 54.5333 185 54.35V53.25C184.584 53.75 184.067 54.2 183.45 54.6C182.834 54.9833 182.1 55.175 181.25 55.175ZM181.65 53.8C182.2 53.8 182.725 53.6583 183.225 53.375C183.725 53.0917 184.134 52.75 184.45 52.35C184.784 51.9333 184.95 51.5417 184.95 51.175V49.575H183.9C183.15 49.575 182.434 49.625 181.75 49.725C181.084 49.8083 180.534 50 180.1 50.3C179.684 50.6 179.475 51.075 179.475 51.725C179.475 52.4417 179.684 52.9667 180.1 53.3C180.534 53.6333 181.05 53.8 181.65 53.8ZM193.512 55C192.229 55 191.245 54.7083 190.562 54.125C189.879 53.5417 189.537 52.6083 189.537 51.325V38.175C189.537 37.975 189.62 37.825 189.787 37.725C189.97 37.6083 190.154 37.55 190.337 37.55C190.554 37.55 190.745 37.6083 190.912 37.725C191.079 37.825 191.162 37.975 191.162 38.175V43.175H194.412C194.579 43.175 194.712 43.2417 194.812 43.375C194.912 43.5083 194.962 43.6667 194.962 43.85C194.962 44.0333 194.912 44.1917 194.812 44.325C194.712 44.4583 194.579 44.525 194.412 44.525H191.162V51.325C191.162 52.1417 191.337 52.7167 191.687 53.05C192.037 53.3667 192.645 53.525 193.512 53.525H194.212C194.445 53.525 194.62 53.6 194.737 53.75C194.87 53.8833 194.937 54.05 194.937 54.25C194.937 54.45 194.87 54.625 194.737 54.775C194.62 54.925 194.445 55 194.212 55H193.512ZM197.785 55C197.568 55 197.377 54.9333 197.21 54.8C197.06 54.6667 196.985 54.5167 196.985 54.35V36.55C196.985 36.35 197.06 36.2 197.21 36.1C197.377 35.9833 197.568 35.925 197.785 35.925C198.018 35.925 198.21 35.9833 198.36 36.1C198.527 36.2 198.61 36.35 198.61 36.55V44.925C198.893 44.4417 199.31 44.0083 199.86 43.625C200.41 43.225 201.093 43.025 201.91 43.025C202.71 43.025 203.443 43.2417 204.11 43.675C204.793 44.0917 205.335 44.6583 205.735 45.375C206.135 46.075 206.335 46.8583 206.335 47.725V54.35C206.335 54.5667 206.252 54.7333 206.085 54.85C205.918 54.95 205.727 55 205.51 55C205.327 55 205.143 54.95 204.96 54.85C204.793 54.7333 204.71 54.5667 204.71 54.35V47.725C204.71 47.175 204.568 46.6583 204.285 46.175C204.002 45.6917 203.627 45.3 203.16 45C202.693 44.6833 202.177 44.525 201.61 44.525C201.11 44.525 200.627 44.6583 200.16 44.925C199.71 45.175 199.335 45.5333 199.035 46C198.752 46.4667 198.61 47.0417 198.61 47.725V54.35C198.61 54.5167 198.527 54.6667 198.36 54.8C198.21 54.9333 198.018 55 197.785 55ZM212.563 55.175C211.78 55.175 211.088 55.075 210.488 54.875C209.905 54.675 209.446 54.4417 209.113 54.175C208.796 53.8917 208.638 53.625 208.638 53.375C208.638 53.2583 208.663 53.15 208.713 53.05C208.763 52.9333 208.83 52.8333 208.913 52.75C209.013 52.6667 209.113 52.625 209.213 52.625C209.396 52.625 209.596 52.725 209.813 52.925C210.046 53.1083 210.363 53.3 210.763 53.5C211.18 53.7 211.763 53.8 212.513 53.8C213.463 53.8 214.13 53.625 214.513 53.275C214.896 52.9083 215.088 52.4917 215.088 52.025C215.088 51.475 214.938 51.05 214.638 50.75C214.355 50.4333 213.971 50.1917 213.488 50.025C213.021 49.8583 212.521 49.7 211.988 49.55C211.471 49.4 210.971 49.2167 210.488 49C210.021 48.7833 209.638 48.475 209.338 48.075C209.055 47.6583 208.913 47.1083 208.913 46.425C208.913 45.8917 209.046 45.3667 209.313 44.85C209.58 44.3333 209.996 43.9 210.563 43.55C211.146 43.2 211.913 43.025 212.863 43.025C213.413 43.025 213.946 43.0833 214.463 43.2C214.98 43.3167 215.396 43.475 215.713 43.675C216.046 43.8583 216.213 44.0583 216.213 44.275C216.213 44.3417 216.18 44.45 216.113 44.6C216.063 44.7333 215.988 44.85 215.888 44.95C215.788 45.05 215.671 45.1 215.538 45.1C215.405 45.1 215.221 45.0417 214.988 44.925C214.771 44.8083 214.488 44.6917 214.138 44.575C213.788 44.4583 213.371 44.4 212.888 44.4C212.288 44.4 211.805 44.5083 211.438 44.725C211.071 44.9417 210.805 45.2 210.638 45.5C210.471 45.8 210.388 46.0917 210.388 46.375C210.388 46.8417 210.538 47.2 210.838 47.45C211.138 47.7 211.521 47.9083 211.988 48.075C212.471 48.225 212.971 48.375 213.488 48.525C214.021 48.6583 214.521 48.85 214.988 49.1C215.471 49.35 215.855 49.7 216.138 50.15C216.438 50.6 216.588 51.2 216.588 51.95C216.588 52.9333 216.238 53.7167 215.538 54.3C214.838 54.8833 213.846 55.175 212.563 55.175Z" fill="#2D5781"/>
<path d="M569.107 555.502L569.469 556.527C567.027 557.217 565.807 559.753 565.807 564.135C565.807 568.536 567.027 571.062 569.469 571.713L569.107 572.758C567.617 572.4 566.448 571.508 565.602 570.082C564.755 568.656 564.332 566.674 564.332 564.135C564.332 561.596 564.755 559.61 565.602 558.178C566.454 556.745 567.623 555.854 569.107 555.502ZM571.686 560.365C572.519 558.536 573.785 557.621 575.484 557.621C576.311 557.621 577.014 557.891 577.594 558.432C578.18 558.965 578.473 559.698 578.473 560.629C578.473 561.202 578.336 561.755 578.062 562.289C577.789 562.816 577.431 563.298 576.988 563.734C576.546 564.164 576.057 564.59 575.523 565.014C574.99 565.43 574.452 565.857 573.912 566.293C573.378 566.729 572.887 567.175 572.438 567.631C571.988 568.08 571.617 568.598 571.324 569.184C571.031 569.763 570.875 570.368 570.855 571H579.83V569.818H572.613C572.822 569.402 573.121 568.982 573.512 568.559C573.909 568.129 574.329 567.735 574.771 567.377C575.221 567.012 575.693 566.638 576.188 566.254C576.689 565.87 577.164 565.476 577.613 565.072C578.062 564.669 578.469 564.249 578.834 563.812C579.199 563.37 579.488 562.878 579.703 562.338C579.924 561.798 580.035 561.234 580.035 560.648C580.035 559.932 579.905 559.298 579.645 558.744C579.391 558.191 579.042 557.751 578.6 557.426C578.157 557.094 577.662 556.846 577.115 556.684C576.568 556.514 575.986 556.43 575.367 556.43C574.247 556.43 573.277 556.706 572.457 557.26C571.637 557.807 570.96 558.673 570.426 559.857L571.686 560.365ZM584.898 570.707C585.536 571.065 586.262 571.244 587.076 571.244C587.89 571.244 588.616 571.065 589.254 570.707C589.892 570.349 590.413 569.844 590.816 569.193C591.22 568.542 591.526 567.774 591.734 566.889C591.943 565.997 592.047 565.01 592.047 563.93C592.047 562.842 591.943 561.846 591.734 560.941C591.526 560.036 591.217 559.249 590.807 558.578C590.403 557.901 589.882 557.377 589.244 557.006C588.613 556.628 587.89 556.439 587.076 556.439C586.262 556.439 585.536 556.628 584.898 557.006C584.267 557.377 583.746 557.901 583.336 558.578C582.932 559.249 582.626 560.036 582.418 560.941C582.21 561.846 582.105 562.842 582.105 563.93C582.105 565.01 582.21 565.997 582.418 566.889C582.626 567.774 582.932 568.542 583.336 569.193C583.74 569.844 584.26 570.349 584.898 570.707ZM585.172 558.412C585.699 557.859 586.334 557.582 587.076 557.582C587.818 557.582 588.453 557.859 588.98 558.412C589.508 558.959 589.898 559.704 590.152 560.648C590.406 561.592 590.533 562.686 590.533 563.93C590.533 565.141 590.41 566.202 590.162 567.113C589.921 568.018 589.537 568.741 589.01 569.281C588.482 569.822 587.838 570.092 587.076 570.092C586.314 570.092 585.67 569.822 585.143 569.281C584.615 568.741 584.228 568.018 583.98 567.113C583.74 566.202 583.619 565.141 583.619 563.93C583.619 562.686 583.746 561.592 584 560.648C584.254 559.704 584.645 558.959 585.172 558.412ZM595.973 558.031V571H597.398V556.703H596.139L593.727 557.68L594.156 558.812L595.973 558.031ZM607.848 564.721C607.516 564.968 607.177 565.176 606.832 565.346C606.493 565.515 606.145 565.645 605.787 565.736C605.429 565.827 605.071 565.873 604.713 565.873C604.088 565.873 603.499 565.775 602.945 565.58C602.398 565.385 601.91 565.105 601.48 564.74C601.057 564.376 600.722 563.904 600.475 563.324C600.227 562.738 600.104 562.084 600.104 561.361C600.104 560.945 600.143 560.541 600.221 560.15C600.299 559.753 600.413 559.369 600.562 558.998C600.719 558.627 600.924 558.288 601.178 557.982C601.432 557.67 601.721 557.4 602.047 557.172C602.379 556.938 602.766 556.755 603.209 556.625C603.658 556.495 604.146 556.43 604.674 556.43C606.288 556.43 607.483 557.025 608.258 558.217C609.033 559.402 609.42 561.153 609.42 563.471C609.42 564.708 609.296 565.818 609.049 566.801C608.801 567.777 608.453 568.585 608.004 569.223C607.561 569.861 607.031 570.349 606.412 570.688C605.794 571.02 605.11 571.186 604.361 571.186C603.378 571.186 602.311 570.88 601.158 570.268L601.559 569.184C602.594 569.75 603.512 570.033 604.312 570.033C605.335 570.033 606.152 569.584 606.764 568.686C607.382 567.787 607.743 566.465 607.848 564.721ZM607.906 563.451C607.913 563.295 607.916 562.999 607.916 562.562C607.916 562.126 607.893 561.716 607.848 561.332C607.809 560.941 607.74 560.554 607.643 560.17C607.545 559.786 607.408 559.444 607.232 559.145C607.063 558.839 606.858 558.568 606.617 558.334C606.383 558.093 606.09 557.908 605.738 557.777C605.393 557.647 605.009 557.582 604.586 557.582C604.176 557.582 603.788 557.667 603.424 557.836C603.066 558.005 602.747 558.246 602.467 558.559C602.193 558.871 601.975 559.268 601.812 559.75C601.656 560.225 601.578 560.749 601.578 561.322C601.578 561.921 601.66 562.445 601.822 562.895C601.985 563.337 602.213 563.689 602.506 563.949C602.799 564.21 603.131 564.402 603.502 564.525C603.873 564.649 604.283 564.711 604.732 564.711C605.234 564.711 605.764 564.597 606.324 564.369C606.884 564.141 607.411 563.835 607.906 563.451ZM611.412 572.758L611.051 571.732C613.492 571.042 614.713 568.507 614.713 564.125C614.713 559.724 613.492 557.198 611.051 556.547L611.412 555.502C612.903 555.86 614.072 556.752 614.918 558.178C615.764 559.604 616.188 561.586 616.188 564.125C616.188 566.664 615.761 568.65 614.908 570.082C614.062 571.514 612.896 572.406 611.412 572.758Z" fill="black"/>
</svg>
