<svg width="617" height="577" viewBox="0 0 617 577" fill="none" xmlns="http://www.w3.org/2000/svg">
<rect width="617" height="577" fill="white"/>
<rect y="79" width="50" height="50" rx="7" fill="#8FA7BD"/>
<rect x="63" y="79" width="50" height="50" rx="7" fill="#8FA7BD"/>
<rect x="126" y="79" width="50" height="50" rx="7" fill="#8FA7BD"/>
<rect x="189" y="79" width="50" height="50" rx="7" fill="#8FA7BD"/>
<rect x="252" y="79" width="50" height="50" rx="7" fill="#8FA7BD"/>
<rect x="315" y="79" width="50" height="50" rx="7" fill="#8FA7BD"/>
<rect x="378" y="79" width="50" height="50" rx="7" fill="#8FA7BD"/>
<rect x="441" y="79" width="50" height="50" rx="7" fill="#8FA7BD"/>
<rect x="504" y="79" width="50" height="50" rx="7" fill="#8FA7BD"/>
<rect x="567" y="79" width="50" height="50" rx="7" fill="#8FA7BD"/>
<rect y="201" width="50" height="50" rx="7" fill="#E5E5E5"/>
<rect x="63" y="201" width="50" height="50" rx="7" fill="#E5E5E5"/>
<rect y="547" width="30" height="30" rx="3" fill="#E5E5E5"/>
<rect x="126" y="201" width="50" height="50" rx="7" fill="#E5E5E5"/>
<rect x="189" y="201" width="50" height="50" rx="7" fill="#E5E5E5"/>
<rect x="252" y="201" width="50" height="50" rx="7" fill="#E5E5E5"/>
<rect x="315" y="201" width="50" height="50" rx="7" fill="#E5E5E5"/>
<rect x="378" y="201" width="50" height="50" rx="7" fill="#E5E5E5"/>
<rect x="441" y="201" width="50" height="50" rx="7" fill="#E5E5E5"/>
<rect x="504" y="201" width="50" height="50" rx="7" fill="#E5E5E5"/>
<rect x="567" y="201" width="50" height="50" rx="7" fill="#E5E5E5"/>
<rect y="262" width="50" height="50" rx="7" fill="#E5E5E5"/>
<rect x="63" y="262" width="50" height="50" rx="7" fill="#E5E5E5"/>
<rect x="126" y="262" width="50" height="50" rx="7" fill="#E5E5E5"/>
<rect x="189" y="262" width="50" height="50" rx="7" fill="#E5E5E5"/>
<rect x="252" y="262" width="50" height="50" rx="7" fill="#E5E5E5"/>
<rect x="315" y="262" width="50" height="50" rx="7" fill="#E5E5E5"/>
<rect x="378" y="262" width="50" height="50" rx="7" fill="#E5E5E5"/>
<rect x="441" y="262" width="50" height="50" rx="7" fill="#E5E5E5"/>
<rect x="504" y="262" width="50" height="50" rx="7" fill="#E5E5E5"/>
<rect x="567" y="262" width="50" height="50" rx="7" fill="#E5E5E5"/>
<rect y="140" width="50" height="50" rx="7" fill="#8FA7BD"/>
<rect x="63" y="140" width="50" height="50" rx="7" fill="#E5E5E5"/>
<rect x="126" y="140" width="50" height="50" rx="7" fill="#E5E5E5"/>
<rect x="189" y="140" width="50" height="50" rx="7" fill="#E5E5E5"/>
<rect x="252" y="140" width="50" height="50" rx="7" fill="#E5E5E5"/>
<rect x="315" y="140" width="50" height="50" rx="7" fill="#E5E5E5"/>
<rect x="378" y="140" width="50" height="50" rx="7" fill="#E5E5E5"/>
<rect x="441" y="140" width="50" height="50" rx="7" fill="#E5E5E5"/>
<rect x="504" y="140" width="50" height="50" rx="7" fill="#E5E5E5"/>
<rect x="567" y="140" width="50" height="50" rx="7" fill="#E5E5E5"/>
<rect y="384" width="50" height="50" rx="7" fill="#E5E5E5"/>
<rect x="63" y="384" width="50" height="50" rx="7" fill="#E5E5E5"/>
<rect y="445" width="50" height="50" rx="7" fill="#E5E5E5"/>
<rect x="63" y="445" width="50" height="50" rx="7" fill="#E5E5E5"/>
<rect x="126" y="384" width="50" height="50" rx="7" fill="#E5E5E5"/>
<rect x="189" y="384" width="50" height="50" rx="7" fill="#E5E5E5"/>
<rect x="252" y="384" width="50" height="50" rx="7" fill="#E5E5E5"/>
<rect x="315" y="384" width="50" height="50" rx="7" fill="#E5E5E5"/>
<rect x="378" y="384" width="50" height="50" rx="7" fill="#E5E5E5"/>
<rect x="441" y="384" width="50" height="50" rx="7" fill="#E5E5E5"/>
<rect x="504" y="384" width="50" height="50" rx="7" fill="#E5E5E5"/>
<rect x="567" y="384" width="50" height="50" rx="7" fill="#E5E5E5"/>
<rect y="323" width="50" height="50" rx="7" fill="#E5E5E5"/>
<rect x="63" y="323" width="50" height="50" rx="7" fill="#E5E5E5"/>
<rect x="126" y="323" width="50" height="50" rx="7" fill="#E5E5E5"/>
<rect x="189" y="323" width="50" height="50" rx="7" fill="#E5E5E5"/>
<rect x="252" y="323" width="50" height="50" rx="7" fill="#E5E5E5"/>
<rect x="315" y="323" width="50" height="50" rx="7" fill="#E5E5E5"/>
<rect x="378" y="323" width="50" height="50" rx="7" fill="#E5E5E5"/>
<rect x="441" y="323" width="50" height="50" rx="7" fill="#E5E5E5"/>
<rect x="504" y="323" width="50" height="50" rx="7" fill="#E5E5E5"/>
<rect x="567" y="323" width="50" height="50" rx="7" fill="#E5E5E5"/>
<path d="M39.6479 563.286V562.065H46.3618V563.286H39.6479ZM39.6479 566.338V565.117H46.3618V566.338H39.6479ZM57.0186 553.789V570H58.8008V552.129H57.2261L54.2109 553.35L54.748 554.766L57.0186 553.789ZM65.6123 569.634C66.4098 570.081 67.3172 570.305 68.3345 570.305C69.3517 570.305 70.2591 570.081 71.0566 569.634C71.8542 569.186 72.5052 568.556 73.0098 567.742C73.5143 566.928 73.8968 565.968 74.1572 564.861C74.4176 563.746 74.5479 562.513 74.5479 561.162C74.5479 559.803 74.4176 558.558 74.1572 557.427C73.8968 556.296 73.5103 555.311 72.9976 554.473C72.493 553.626 71.842 552.971 71.0444 552.507C70.255 552.035 69.3517 551.799 68.3345 551.799C67.3172 551.799 66.4098 552.035 65.6123 552.507C64.8229 552.971 64.1719 553.626 63.6592 554.473C63.1546 555.311 62.7721 556.296 62.5117 557.427C62.2513 558.558 62.1211 559.803 62.1211 561.162C62.1211 562.513 62.2513 563.746 62.5117 564.861C62.7721 565.968 63.1546 566.928 63.6592 567.742C64.1637 568.556 64.8148 569.186 65.6123 569.634ZM65.9541 554.265C66.6133 553.573 67.4067 553.228 68.3345 553.228C69.2622 553.228 70.0557 553.573 70.7148 554.265C71.374 554.949 71.8623 555.881 72.1797 557.061C72.4971 558.241 72.6558 559.608 72.6558 561.162C72.6558 562.676 72.5011 564.002 72.1919 565.142C71.8908 566.273 71.4106 567.176 70.7515 567.852C70.0923 568.527 69.2866 568.865 68.3345 568.865C67.3823 568.865 66.5767 568.527 65.9175 567.852C65.2583 567.176 64.7741 566.273 64.4648 565.142C64.1637 564.002 64.0132 562.676 64.0132 561.162C64.0132 559.608 64.1719 558.241 64.4893 557.061C64.8066 555.881 65.2949 554.949 65.9541 554.265ZM80.8223 569.634C81.6198 570.081 82.5272 570.305 83.5444 570.305C84.5617 570.305 85.4691 570.081 86.2666 569.634C87.0641 569.186 87.7152 568.556 88.2197 567.742C88.7243 566.928 89.1068 565.968 89.3672 564.861C89.6276 563.746 89.7578 562.513 89.7578 561.162C89.7578 559.803 89.6276 558.558 89.3672 557.427C89.1068 556.296 88.7202 555.311 88.2075 554.473C87.703 553.626 87.0519 552.971 86.2544 552.507C85.465 552.035 84.5617 551.799 83.5444 551.799C82.5272 551.799 81.6198 552.035 80.8223 552.507C80.0329 552.971 79.3818 553.626 78.8691 554.473C78.3646 555.311 77.9821 556.296 77.7217 557.427C77.4613 558.558 77.3311 559.803 77.3311 561.162C77.3311 562.513 77.4613 563.746 77.7217 564.861C77.9821 565.968 78.3646 566.928 78.8691 567.742C79.3737 568.556 80.0247 569.186 80.8223 569.634ZM81.1641 554.265C81.8232 553.573 82.6167 553.228 83.5444 553.228C84.4722 553.228 85.2656 553.573 85.9248 554.265C86.584 554.949 87.0723 555.881 87.3896 557.061C87.707 558.241 87.8657 559.608 87.8657 561.162C87.8657 562.676 87.7111 564.002 87.4019 565.142C87.1007 566.273 86.6206 567.176 85.9614 567.852C85.3022 568.527 84.4966 568.865 83.5444 568.865C82.5923 568.865 81.7866 568.527 81.1274 567.852C80.4683 567.176 79.984 566.273 79.6748 565.142C79.3737 564.002 79.2231 562.676 79.2231 561.162C79.2231 559.608 79.3818 558.241 79.6992 557.061C80.0166 555.881 80.5049 554.949 81.1641 554.265ZM92.3701 567.327H94.8115V568.364C94.7708 569.609 94.6935 570.472 94.5796 570.952C94.3599 571.88 93.8797 572.596 93.1392 573.101L92.541 572.344C92.7607 572.173 92.9723 571.868 93.1758 571.428C93.3874 570.997 93.5013 570.456 93.5176 569.805L92.3701 569.646V567.327ZM101.477 569.634C102.274 570.081 103.181 570.305 104.199 570.305C105.216 570.305 106.123 570.081 106.921 569.634C107.718 569.186 108.369 568.556 108.874 567.742C109.379 566.928 109.761 565.968 110.021 564.861C110.282 563.746 110.412 562.513 110.412 561.162C110.412 559.803 110.282 558.558 110.021 557.427C109.761 556.296 109.375 555.311 108.862 554.473C108.357 553.626 107.706 552.971 106.909 552.507C106.119 552.035 105.216 551.799 104.199 551.799C103.181 551.799 102.274 552.035 101.477 552.507C100.687 552.971 100.036 553.626 99.5234 554.473C99.0189 555.311 98.6364 556.296 98.376 557.427C98.1156 558.558 97.9854 559.803 97.9854 561.162C97.9854 562.513 98.1156 563.746 98.376 564.861C98.6364 565.968 99.0189 566.928 99.5234 567.742C100.028 568.556 100.679 569.186 101.477 569.634ZM101.818 554.265C102.478 553.573 103.271 553.228 104.199 553.228C105.126 553.228 105.92 553.573 106.579 554.265C107.238 554.949 107.727 555.881 108.044 557.061C108.361 558.241 108.52 559.608 108.52 561.162C108.52 562.676 108.365 564.002 108.056 565.142C107.755 566.273 107.275 567.176 106.616 567.852C105.957 568.527 105.151 568.865 104.199 568.865C103.247 568.865 102.441 568.527 101.782 567.852C101.123 567.176 100.638 566.273 100.329 565.142C100.028 564.002 99.8774 562.676 99.8774 561.162C99.8774 559.608 100.036 558.241 100.354 557.061C100.671 555.881 101.159 554.949 101.818 554.265ZM116.687 569.634C117.484 570.081 118.391 570.305 119.409 570.305C120.426 570.305 121.333 570.081 122.131 569.634C122.928 569.186 123.579 568.556 124.084 567.742C124.589 566.928 124.971 565.968 125.231 564.861C125.492 563.746 125.622 562.513 125.622 561.162C125.622 559.803 125.492 558.558 125.231 557.427C124.971 556.296 124.584 555.311 124.072 554.473C123.567 553.626 122.916 552.971 122.119 552.507C121.329 552.035 120.426 551.799 119.409 551.799C118.391 551.799 117.484 552.035 116.687 552.507C115.897 552.971 115.246 553.626 114.733 554.473C114.229 555.311 113.846 556.296 113.586 557.427C113.326 558.558 113.195 559.803 113.195 561.162C113.195 562.513 113.326 563.746 113.586 564.861C113.846 565.968 114.229 566.928 114.733 567.742C115.238 568.556 115.889 569.186 116.687 569.634ZM117.028 554.265C117.688 553.573 118.481 553.228 119.409 553.228C120.336 553.228 121.13 553.573 121.789 554.265C122.448 554.949 122.937 555.881 123.254 557.061C123.571 558.241 123.73 559.608 123.73 561.162C123.73 562.676 123.575 564.002 123.266 565.142C122.965 566.273 122.485 567.176 121.826 567.852C121.167 568.527 120.361 568.865 119.409 568.865C118.457 568.865 117.651 568.527 116.992 567.852C116.333 567.176 115.848 566.273 115.539 565.142C115.238 564.002 115.087 562.676 115.087 561.162C115.087 559.608 115.246 558.241 115.563 557.061C115.881 555.881 116.369 554.949 117.028 554.265ZM131.896 569.634C132.694 570.081 133.601 570.305 134.619 570.305C135.636 570.305 136.543 570.081 137.341 569.634C138.138 569.186 138.789 568.556 139.294 567.742C139.799 566.928 140.181 565.968 140.441 564.861C140.702 563.746 140.832 562.513 140.832 561.162C140.832 559.803 140.702 558.558 140.441 557.427C140.181 556.296 139.794 555.311 139.282 554.473C138.777 553.626 138.126 552.971 137.329 552.507C136.539 552.035 135.636 551.799 134.619 551.799C133.601 551.799 132.694 552.035 131.896 552.507C131.107 552.971 130.456 553.626 129.943 554.473C129.439 555.311 129.056 556.296 128.796 557.427C128.535 558.558 128.405 559.803 128.405 561.162C128.405 562.513 128.535 563.746 128.796 564.861C129.056 565.968 129.439 566.928 129.943 567.742C130.448 568.556 131.099 569.186 131.896 569.634ZM132.238 554.265C132.897 553.573 133.691 553.228 134.619 553.228C135.546 553.228 136.34 553.573 136.999 554.265C137.658 554.949 138.146 555.881 138.464 557.061C138.781 558.241 138.94 559.608 138.94 561.162C138.94 562.676 138.785 564.002 138.476 565.142C138.175 566.273 137.695 567.176 137.036 567.852C136.376 568.527 135.571 568.865 134.619 568.865C133.667 568.865 132.861 568.527 132.202 567.852C131.542 567.176 131.058 566.273 130.749 565.142C130.448 564.002 130.297 562.676 130.297 561.162C130.297 559.608 130.456 558.241 130.773 557.061C131.091 555.881 131.579 554.949 132.238 554.265ZM148.815 563.896C148.815 561.838 149.23 560.218 150.061 559.038C150.891 557.85 152.071 557.256 153.601 557.256C155.464 557.256 156.726 557.992 157.385 559.465V552.007H159.13V570H157.739L157.507 567.9C157.189 568.633 156.681 569.215 155.981 569.646C155.289 570.077 154.512 570.293 153.649 570.293C152.152 570.293 150.972 569.711 150.109 568.547C149.247 567.375 148.815 565.825 148.815 563.896ZM153.869 569.011C154.235 569.011 154.565 568.983 154.858 568.926C155.151 568.861 155.468 568.726 155.81 568.523C156.152 568.311 156.437 568.031 156.665 567.681C156.892 567.323 157.08 566.822 157.226 566.179C157.381 565.536 157.458 564.779 157.458 563.909C157.458 562.851 157.34 561.931 157.104 561.15C156.876 560.369 156.486 559.738 155.932 559.258C155.379 558.77 154.683 558.525 153.845 558.525C152.811 558.525 152.01 559.018 151.44 560.002C150.87 560.979 150.585 562.293 150.585 563.945C150.585 565.426 150.878 566.643 151.464 567.595C152.05 568.539 152.852 569.011 153.869 569.011ZM167.224 557.256C168.07 557.256 168.815 557.406 169.458 557.708C170.109 558 170.629 558.416 171.02 558.953C171.411 559.482 171.704 560.096 171.899 560.796C172.094 561.496 172.192 562.269 172.192 563.115C172.192 563.392 172.18 563.636 172.155 563.848H163.623C163.623 564.556 163.692 565.215 163.83 565.825C163.968 566.427 164.176 566.973 164.453 567.461C164.737 567.941 165.12 568.319 165.6 568.596C166.088 568.873 166.65 569.011 167.285 569.011C168.107 569.011 168.782 568.824 169.311 568.45C169.84 568.067 170.214 567.534 170.434 566.851L171.777 567.144C171.59 567.835 171.26 568.425 170.788 568.914C170.316 569.394 169.787 569.744 169.201 569.963C168.615 570.175 167.993 570.285 167.333 570.293H167.285C166.365 570.293 165.547 570.114 164.831 569.756C164.123 569.398 163.553 568.914 163.122 568.303C162.699 567.685 162.382 566.993 162.17 566.228C161.958 565.455 161.853 564.629 161.853 563.75C161.853 561.805 162.325 560.238 163.269 559.05C164.221 557.854 165.539 557.256 167.224 557.256ZM170.52 562.712C170.511 561.378 170.235 560.344 169.689 559.612C169.144 558.879 168.306 558.513 167.175 558.513C166.63 558.513 166.141 558.623 165.71 558.843C165.279 559.062 164.921 559.368 164.636 559.758C164.359 560.149 164.139 560.592 163.977 561.089C163.814 561.585 163.708 562.126 163.659 562.712H170.52ZM182.385 567.327C180.977 568.515 179.626 569.109 178.332 569.109C176.786 569.109 176.013 568.328 176.013 566.765C176.013 566.464 176.057 566.2 176.147 565.972C176.236 565.744 176.387 565.544 176.599 565.374C176.818 565.194 177.054 565.044 177.307 564.922C177.559 564.792 177.905 564.674 178.344 564.568C178.784 564.454 179.207 564.36 179.614 564.287C180.021 564.206 180.546 564.116 181.188 564.019L182.385 563.835V567.327ZM182.69 570H184.118V561.785C184.118 558.765 182.588 557.256 179.528 557.256C177.437 557.256 175.891 557.891 174.89 559.16C175.581 559.811 175.927 560.141 175.927 560.149C176.334 559.644 176.843 559.258 177.453 558.989C178.072 558.721 178.731 558.586 179.431 558.586C180.505 558.586 181.266 558.843 181.713 559.355C182.161 559.86 182.385 560.792 182.385 562.151V562.664L181.176 562.847C180.468 562.952 179.939 563.038 179.589 563.103C179.239 563.16 178.776 563.254 178.198 563.384C177.62 563.506 177.185 563.628 176.892 563.75C176.607 563.864 176.273 564.027 175.891 564.238C175.508 564.442 175.227 564.67 175.048 564.922C174.869 565.166 174.711 565.467 174.572 565.825C174.442 566.175 174.377 566.57 174.377 567.009C174.377 568.051 174.723 568.861 175.415 569.438C176.114 570.008 176.985 570.293 178.027 570.293C179.606 570.293 181.091 569.723 182.482 568.584L182.69 570ZM192.98 568.474L193.273 569.609C192.663 570 191.947 570.195 191.125 570.195C190.051 570.195 189.27 569.87 188.781 569.219C188.301 568.56 188.061 567.498 188.061 566.033V558.721H186.193V557.512H188.171V553.521L189.794 553.069V557.512H192.529V558.721H189.794V566.814C189.794 568.197 190.356 568.889 191.479 568.889C191.853 568.889 192.354 568.751 192.98 568.474ZM200.939 558.525C200.337 558.525 199.8 558.627 199.328 558.831C198.864 559.034 198.482 559.307 198.181 559.648C197.88 559.982 197.631 560.393 197.436 560.881C197.241 561.361 197.102 561.866 197.021 562.395C196.948 562.924 196.911 563.494 196.911 564.104V570H195.178V552.019H196.911V557.146V559.478C197.863 557.996 199.292 557.256 201.196 557.256C201.749 557.256 202.246 557.321 202.685 557.451C203.133 557.573 203.503 557.736 203.796 557.939C204.097 558.143 204.357 558.399 204.577 558.708C204.797 559.018 204.968 559.327 205.09 559.636C205.212 559.945 205.31 560.304 205.383 560.71C205.456 561.109 205.501 561.471 205.517 561.797C205.542 562.122 205.554 562.485 205.554 562.883V570H203.82V562.749C203.82 561.357 203.605 560.308 203.173 559.6C202.75 558.883 202.006 558.525 200.939 558.525ZM217.309 559.673C216.52 560.12 216.125 560.348 216.125 560.356C215.848 559.722 215.462 559.266 214.965 558.989C214.469 558.704 213.814 558.562 213 558.562C211.991 558.562 211.226 558.745 210.705 559.111C210.184 559.478 209.924 560.019 209.924 560.735C209.924 561.02 209.977 561.272 210.083 561.492C210.196 561.711 210.339 561.895 210.51 562.041C210.689 562.179 210.929 562.31 211.23 562.432C211.531 562.546 211.82 562.635 212.097 562.7C212.382 562.765 212.736 562.839 213.159 562.92C214.575 563.18 215.637 563.587 216.345 564.141C217.061 564.686 217.419 565.475 217.419 566.509C217.419 567.738 217.008 568.678 216.186 569.329C215.364 569.972 214.127 570.293 212.475 570.293C211.979 570.293 211.499 570.24 211.035 570.134C210.579 570.037 210.135 569.878 209.704 569.658C209.281 569.43 208.907 569.113 208.581 568.706C208.256 568.291 208.015 567.807 207.861 567.253L209.179 566.716C209.472 567.514 209.879 568.092 210.4 568.45C210.921 568.808 211.665 568.987 212.634 568.987C214.774 568.987 215.844 568.271 215.844 566.838C215.844 566.057 215.6 565.508 215.112 565.19C214.624 564.865 213.594 564.539 212.023 564.214C211.551 564.116 211.153 564.019 210.827 563.921C210.51 563.815 210.176 563.673 209.826 563.494C209.484 563.315 209.208 563.111 208.996 562.883C208.793 562.647 208.622 562.346 208.483 561.98C208.353 561.614 208.288 561.191 208.288 560.71C208.288 559.612 208.711 558.761 209.558 558.159C210.412 557.557 211.527 557.256 212.902 557.256C214.009 557.256 214.912 557.439 215.612 557.805C216.312 558.171 216.878 558.794 217.309 559.673Z" fill="black"/>
<path d="M4.175 25.175C3.225 25.175 2.41667 24.9083 1.75 24.375C1.1 23.825 0.775 22.9917 0.775 21.875C0.775 20.9583 1.01667 20.2583 1.5 19.775C2 19.275 2.68333 18.9333 3.55 18.75C4.43333 18.55 5.45 18.45 6.6 18.45H7.875V17.875C7.875 17.325 7.775 16.7917 7.575 16.275C7.39167 15.7417 7.08333 15.3083 6.65 14.975C6.23333 14.625 5.65833 14.45 4.925 14.45C4.375 14.45 3.925 14.5083 3.575 14.625C3.225 14.7417 2.95 14.8667 2.75 15C2.55 15.1167 2.38333 15.175 2.25 15.175C2.05 15.175 1.88333 15.075 1.75 14.875C1.63333 14.675 1.575 14.4917 1.575 14.325C1.575 14.0917 1.75 13.8833 2.1 13.7C2.45 13.5 2.88333 13.3417 3.4 13.225C3.93333 13.0917 4.45833 13.025 4.975 13.025C6.09167 13.025 6.975 13.2583 7.625 13.725C8.29167 14.175 8.76667 14.7667 9.05 15.5C9.35 16.2333 9.5 17.0167 9.5 17.85V24.35C9.5 24.5333 9.425 24.6917 9.275 24.825C9.14167 24.9417 8.95 25 8.7 25C8.5 25 8.31667 24.9417 8.15 24.825C8 24.6917 7.925 24.5333 7.925 24.35V23.25C7.50833 23.75 6.99167 24.2 6.375 24.6C5.75833 24.9833 5.025 25.175 4.175 25.175ZM4.575 23.8C5.125 23.8 5.65 23.6583 6.15 23.375C6.65 23.0917 7.05833 22.75 7.375 22.35C7.70833 21.9333 7.875 21.5417 7.875 21.175V19.575H6.825C6.075 19.575 5.35833 19.625 4.675 19.725C4.00833 19.8083 3.45833 20 3.025 20.3C2.60833 20.6 2.4 21.075 2.4 21.725C2.4 22.4417 2.60833 22.9667 3.025 23.3C3.45833 23.6333 3.975 23.8 4.575 23.8ZM17.5369 25.175C16.7536 25.175 16.0536 24.9833 15.4369 24.6C14.8202 24.2167 14.3786 23.7667 14.1119 23.25V24.35C14.1119 24.5167 14.0369 24.6667 13.8869 24.8C13.7369 24.9333 13.5536 25 13.3369 25C13.1202 25 12.9286 24.9333 12.7619 24.8C12.6119 24.6667 12.5369 24.5167 12.5369 24.35V6.55C12.5369 6.35 12.6119 6.2 12.7619 6.1C12.9286 5.98333 13.1202 5.925 13.3369 5.925C13.5702 5.925 13.7619 5.98333 13.9119 6.1C14.0786 6.2 14.1619 6.35 14.1619 6.55V14.925C14.4452 14.4417 14.8619 14.0083 15.4119 13.625C15.9786 13.225 16.6702 13.025 17.4869 13.025C18.3036 13.025 19.0452 13.2417 19.7119 13.675C20.3952 14.0917 20.9369 14.6583 21.3369 15.375C21.7536 16.075 21.9619 16.8583 21.9619 17.725V20.425C21.9619 21.2417 21.7536 22.0167 21.3369 22.75C20.9369 23.4833 20.4036 24.075 19.7369 24.525C19.0702 24.9583 18.3369 25.175 17.5369 25.175ZM17.2369 23.675C17.8036 23.675 18.3202 23.525 18.7869 23.225C19.2536 22.9083 19.6286 22.5 19.9119 22C20.1952 21.5 20.3369 20.975 20.3369 20.425V17.725C20.3369 17.175 20.1952 16.6583 19.9119 16.175C19.6286 15.6917 19.2536 15.3 18.7869 15C18.3202 14.6833 17.7952 14.525 17.2119 14.525C16.7119 14.525 16.2286 14.6583 15.7619 14.925C15.2952 15.175 14.9119 15.5333 14.6119 16C14.3119 16.4667 14.1619 17.0417 14.1619 17.725V21.2C14.1619 21.45 14.2952 21.775 14.5619 22.175C14.8452 22.5583 15.2202 22.9083 15.6869 23.225C16.1536 23.525 16.6702 23.675 17.2369 23.675ZM28.9213 25.175C28.0713 25.175 27.288 24.9583 26.5713 24.525C25.8546 24.075 25.2713 23.4917 24.8213 22.775C24.388 22.0417 24.1713 21.2583 24.1713 20.425V17.725C24.1713 16.875 24.3796 16.1 24.7963 15.4C25.2296 14.6833 25.8046 14.1083 26.5213 13.675C27.2546 13.2417 28.0546 13.025 28.9213 13.025C29.7713 13.025 30.5546 13.2417 31.2713 13.675C32.0046 14.0917 32.588 14.65 33.0213 15.35C33.4546 16.05 33.6713 16.8417 33.6713 17.725V20.425C33.6713 21.2417 33.4546 22.0167 33.0213 22.75C32.588 23.4833 32.0046 24.075 31.2713 24.525C30.5546 24.9583 29.7713 25.175 28.9213 25.175ZM28.9213 23.675C29.5046 23.675 30.0296 23.525 30.4963 23.225C30.963 22.9083 31.338 22.5 31.6213 22C31.9046 21.5 32.0463 20.975 32.0463 20.425V17.725C32.0463 17.175 31.9046 16.6583 31.6213 16.175C31.3546 15.6917 30.9796 15.3 30.4963 15C30.0296 14.6833 29.5046 14.525 28.9213 14.525C28.338 14.525 27.813 14.6833 27.3463 15C26.8796 15.3 26.5046 15.6917 26.2213 16.175C25.938 16.6583 25.7963 17.175 25.7963 17.725V20.425C25.7963 20.975 25.938 21.5 26.2213 22C26.5046 22.5 26.8796 22.9083 27.3463 23.225C27.8296 23.525 28.3546 23.675 28.9213 23.675ZM41.015 25.175C40.1317 25.175 39.3234 24.9583 38.59 24.525C37.8734 24.0917 37.2984 23.5167 36.865 22.8C36.4484 22.0667 36.24 21.2917 36.24 20.475V13.825C36.24 13.6583 36.3234 13.5083 36.49 13.375C36.6567 13.2417 36.8484 13.175 37.065 13.175C37.2817 13.175 37.465 13.2417 37.615 13.375C37.7817 13.5083 37.865 13.6583 37.865 13.825V20.475C37.865 21.025 38.0067 21.5417 38.29 22.025C38.5734 22.5083 38.9484 22.9083 39.415 23.225C39.8817 23.525 40.4067 23.675 40.99 23.675C41.59 23.675 42.1234 23.525 42.59 23.225C43.0567 22.925 43.4234 22.5333 43.69 22.05C43.9734 21.55 44.115 21.025 44.115 20.475V13.8C44.115 13.6167 44.1984 13.4667 44.365 13.35C44.5317 13.2333 44.7234 13.175 44.94 13.175C45.19 13.175 45.3817 13.2333 45.515 13.35C45.665 13.4667 45.74 13.6167 45.74 13.8V20.475C45.74 21.325 45.5234 22.1083 45.09 22.825C44.6734 23.525 44.0984 24.0917 43.365 24.525C42.6484 24.9583 41.865 25.175 41.015 25.175ZM52.6674 25C51.384 25 50.4007 24.7083 49.7174 24.125C49.034 23.5417 48.6924 22.6083 48.6924 21.325V8.175C48.6924 7.975 48.7757 7.825 48.9424 7.725C49.1257 7.60833 49.309 7.55 49.4924 7.55C49.709 7.55 49.9007 7.60833 50.0674 7.725C50.234 7.825 50.3174 7.975 50.3174 8.175V13.175H53.5674C53.734 13.175 53.8674 13.2417 53.9674 13.375C54.0674 13.5083 54.1174 13.6667 54.1174 13.85C54.1174 14.0333 54.0674 14.1917 53.9674 14.325C53.8674 14.4583 53.734 14.525 53.5674 14.525H50.3174V21.325C50.3174 22.1417 50.4924 22.7167 50.8424 23.05C51.1924 23.3667 51.8007 23.525 52.6674 23.525H53.3674C53.6007 23.525 53.7757 23.6 53.8924 23.75C54.0257 23.8833 54.0924 24.05 54.0924 24.25C54.0924 24.45 54.0257 24.625 53.8924 24.775C53.7757 24.925 53.6007 25 53.3674 25H52.6674ZM63.3953 25C63.062 25 62.7536 24.925 62.4703 24.775C62.2036 24.625 62.0703 24.4083 62.0703 24.125V10.225L61.1953 11.325C61.0953 11.4083 60.9953 11.475 60.8953 11.525C60.812 11.5583 60.7286 11.575 60.6453 11.575C60.3786 11.575 60.162 11.4667 59.9953 11.25C59.8286 11.0167 59.7453 10.7667 59.7453 10.5C59.7453 10.3 59.7953 10.1083 59.8953 9.925C59.9953 9.74167 60.1203 9.59167 60.2703 9.475L62.8703 6.975C62.9536 6.89167 63.0453 6.825 63.1453 6.775C63.262 6.725 63.3953 6.7 63.5453 6.7C63.8286 6.7 64.0953 6.775 64.3453 6.925C64.5953 7.075 64.7203 7.29167 64.7203 7.575V24.125C64.7203 24.4083 64.5786 24.625 64.2953 24.775C64.0286 24.925 63.7286 25 63.3953 25ZM72.7604 25.15C71.7104 25.15 70.7604 24.9833 69.9104 24.65C69.0604 24.3 68.3854 23.75 67.8854 23C67.3854 22.2333 67.1354 21.2333 67.1354 20V19.7C67.1354 18.4167 67.402 17.4 67.9354 16.65C68.4854 15.8833 69.1854 15.3417 70.0354 15.025C69.3354 14.7583 68.7687 14.3083 68.3354 13.675C67.9187 13.0417 67.7104 12.1917 67.7104 11.125C67.7104 10.0583 67.927 9.2 68.3604 8.55C68.8104 7.9 69.4104 7.43333 70.1604 7.15C70.927 6.86667 71.7937 6.725 72.7604 6.725C73.7437 6.725 74.6104 6.86667 75.3604 7.15C76.127 7.43333 76.727 7.9 77.1604 8.55C77.6104 9.2 77.8354 10.0583 77.8354 11.125C77.8354 12.1917 77.6187 13.0417 77.1854 13.675C76.752 14.3083 76.1937 14.7583 75.5104 15.025C76.377 15.3417 77.0687 15.8833 77.5854 16.65C78.102 17.4 78.3604 18.4167 78.3604 19.7V20C78.3604 21.2333 78.1104 22.2333 77.6104 23C77.127 23.75 76.4604 24.3 75.6104 24.65C74.7604 24.9833 73.8104 25.15 72.7604 25.15ZM72.7854 22.95C73.7187 22.95 74.4437 22.6833 74.9604 22.15C75.477 21.6167 75.7354 20.8083 75.7354 19.725V19.275C75.7354 18.2083 75.4687 17.425 74.9354 16.925C74.4187 16.4083 73.6937 16.15 72.7604 16.15C71.8437 16.15 71.1187 16.4083 70.5854 16.925C70.052 17.425 69.7854 18.2083 69.7854 19.275V19.725C69.7854 20.8417 70.052 21.6583 70.5854 22.175C71.1354 22.6917 71.8687 22.95 72.7854 22.95ZM72.7604 13.95C73.5604 13.95 74.177 13.7583 74.6104 13.375C75.0604 12.975 75.2854 12.325 75.2854 11.425C75.2854 10.5417 75.0604 9.90833 74.6104 9.525C74.177 9.125 73.5604 8.925 72.7604 8.925C71.977 8.925 71.3604 9.125 70.9104 9.525C70.477 9.90833 70.2604 10.5417 70.2604 11.425C70.2604 12.325 70.477 12.975 70.9104 13.375C71.3604 13.7583 71.977 13.95 72.7604 13.95ZM81.5969 25.15C81.1635 25.15 80.8052 25 80.5219 24.7C80.2385 24.4 80.0969 24.05 80.0969 23.65C80.0969 23.2333 80.2385 22.8833 80.5219 22.6C80.8052 22.3 81.1635 22.15 81.5969 22.15C81.9969 22.15 82.3385 22.3 82.6219 22.6C82.9219 22.8833 83.0719 23.2333 83.0719 23.65C83.0719 24.05 82.9219 24.4 82.6219 24.7C82.3385 25 81.9969 25.15 81.5969 25.15ZM89.9623 25.15C88.9956 25.15 88.1623 25.0167 87.4623 24.75C86.7623 24.4833 86.1873 24.1333 85.7373 23.7C85.2873 23.2667 84.954 22.7917 84.7373 22.275C84.5373 21.7583 84.4373 21.25 84.4373 20.75C84.4373 20.3 84.529 20 84.7123 19.85C84.9123 19.7 85.2373 19.625 85.6873 19.625C86.2206 19.625 86.579 19.7083 86.7623 19.875C86.9456 20.025 87.0373 20.275 87.0373 20.625C87.0373 20.8917 87.0956 21.1583 87.2123 21.425C87.3456 21.675 87.529 21.9083 87.7623 22.125C87.9956 22.325 88.2956 22.4917 88.6623 22.625C89.0456 22.7417 89.4873 22.8 89.9873 22.8C91.0206 22.8 91.779 22.5583 92.2623 22.075C92.7623 21.575 93.0123 20.7833 93.0123 19.7V19.225C93.0123 18.225 92.729 17.525 92.1623 17.125C91.6123 16.7083 90.8873 16.5 89.9873 16.5C89.6706 16.5 89.4456 16.3917 89.3123 16.175C89.179 15.9417 89.1123 15.7 89.1123 15.45C89.1123 15.1667 89.179 14.9167 89.3123 14.7C89.4456 14.4833 89.6623 14.375 89.9623 14.375C90.479 14.375 90.929 14.3083 91.3123 14.175C91.7123 14.025 92.0206 13.75 92.2373 13.35C92.454 12.95 92.5623 12.375 92.5623 11.625C92.5623 10.7083 92.3456 10.05 91.9123 9.65C91.4956 9.25 90.879 9.05 90.0623 9.05C89.5623 9.05 89.1456 9.10833 88.8123 9.225C88.479 9.34167 88.2123 9.5 88.0123 9.7C87.8123 9.9 87.6706 10.1167 87.5873 10.35C87.504 10.5833 87.4623 10.8333 87.4623 11.1C87.4623 11.4167 87.3706 11.675 87.1873 11.875C87.0206 12.075 86.6956 12.175 86.2123 12.175C85.829 12.175 85.5373 12.1417 85.3373 12.075C85.1373 12.0083 85.004 11.8833 84.9373 11.7C84.8706 11.5167 84.8373 11.2667 84.8373 10.95C84.8373 10.55 84.9206 10.1083 85.0873 9.625C85.254 9.125 85.529 8.65833 85.9123 8.225C86.3123 7.775 86.854 7.41667 87.5373 7.15C88.2206 6.86667 89.0706 6.725 90.0873 6.725C91.0706 6.725 91.9373 6.86667 92.6873 7.15C93.4373 7.43333 94.029 7.9 94.4623 8.55C94.8956 9.2 95.1123 10.075 95.1123 11.175C95.1123 12.225 94.929 13.1167 94.5623 13.85C94.2123 14.5667 93.729 15.0667 93.1123 15.35C93.8456 15.6333 94.454 16.0833 94.9373 16.7C95.4206 17.3167 95.6623 18.1583 95.6623 19.225V19.7C95.6623 21.0167 95.404 22.075 94.8873 22.875C94.3873 23.675 93.704 24.2583 92.8373 24.625C91.9706 24.975 91.0123 25.15 89.9623 25.15ZM101.832 25.875C101.549 25.875 101.315 25.775 101.132 25.575C100.949 25.3917 100.857 25.1833 100.857 24.95C100.857 24.8167 100.89 24.6917 100.957 24.575L110.157 6.2C110.29 5.9 110.532 5.75 110.882 5.75C111.132 5.75 111.365 5.84167 111.582 6.025C111.815 6.19167 111.932 6.41667 111.932 6.7C111.932 6.85 111.907 6.98333 111.857 7.1L102.682 25.4C102.615 25.55 102.499 25.6667 102.332 25.75C102.182 25.8333 102.015 25.875 101.832 25.875ZM100.782 16.575C99.832 16.575 99.032 16.3417 98.382 15.875C97.732 15.4083 97.407 14.6167 97.407 13.5V9.8C97.407 8.68333 97.732 7.89167 98.382 7.425C99.032 6.95833 99.832 6.725 100.782 6.725C101.432 6.725 102.007 6.825 102.507 7.025C103.024 7.225 103.432 7.55 103.732 8C104.032 8.45 104.182 9.05 104.182 9.8V13.5C104.182 14.25 104.032 14.85 103.732 15.3C103.432 15.75 103.024 16.075 102.507 16.275C102.007 16.475 101.432 16.575 100.782 16.575ZM100.807 14.975C101.29 14.975 101.674 14.8583 101.957 14.625C102.24 14.375 102.382 14 102.382 13.5V9.8C102.382 9.3 102.24 8.93333 101.957 8.7C101.674 8.45 101.29 8.325 100.807 8.325C100.307 8.325 99.9154 8.45 99.632 8.7C99.3654 8.93333 99.232 9.3 99.232 9.8V13.5C99.232 14 99.3654 14.375 99.632 14.625C99.9154 14.8583 100.307 14.975 100.807 14.975ZM111.857 25.075C110.89 25.075 110.082 24.8417 109.432 24.375C108.782 23.9083 108.457 23.1167 108.457 22V18.3C108.457 17.1833 108.782 16.3917 109.432 15.925C110.082 15.4583 110.89 15.225 111.857 15.225C112.49 15.225 113.057 15.325 113.557 15.525C114.074 15.725 114.482 16.05 114.782 16.5C115.082 16.95 115.232 17.55 115.232 18.3V22C115.232 22.75 115.082 23.35 114.782 23.8C114.482 24.25 114.074 24.575 113.557 24.775C113.057 24.975 112.49 25.075 111.857 25.075ZM111.857 23.475C112.34 23.475 112.724 23.3583 113.007 23.125C113.29 22.875 113.432 22.5 113.432 22V18.3C113.432 17.8 113.29 17.4333 113.007 17.2C112.724 16.95 112.34 16.825 111.857 16.825C111.374 16.825 110.99 16.95 110.707 17.2C110.44 17.4333 110.307 17.8 110.307 18.3V22C110.307 22.5 110.44 22.875 110.707 23.125C110.99 23.3583 111.374 23.475 111.857 23.475ZM126.919 25.175C126.069 25.175 125.286 24.9583 124.569 24.525C123.853 24.075 123.269 23.4917 122.819 22.775C122.386 22.0417 122.169 21.2583 122.169 20.425V17.725C122.169 16.875 122.378 16.1 122.794 15.4C123.228 14.6833 123.803 14.1083 124.519 13.675C125.253 13.2417 126.053 13.025 126.919 13.025C127.769 13.025 128.553 13.2417 129.269 13.675C130.003 14.0917 130.586 14.65 131.019 15.35C131.453 16.05 131.669 16.8417 131.669 17.725V20.425C131.669 21.2417 131.453 22.0167 131.019 22.75C130.586 23.4833 130.003 24.075 129.269 24.525C128.553 24.9583 127.769 25.175 126.919 25.175ZM126.919 23.675C127.503 23.675 128.028 23.525 128.494 23.225C128.961 22.9083 129.336 22.5 129.619 22C129.903 21.5 130.044 20.975 130.044 20.425V17.725C130.044 17.175 129.903 16.6583 129.619 16.175C129.353 15.6917 128.978 15.3 128.494 15C128.028 14.6833 127.503 14.525 126.919 14.525C126.336 14.525 125.811 14.6833 125.344 15C124.878 15.3 124.503 15.6917 124.219 16.175C123.936 16.6583 123.794 17.175 123.794 17.725V20.425C123.794 20.975 123.936 21.5 124.219 22C124.503 22.5 124.878 22.9083 125.344 23.225C125.828 23.525 126.353 23.675 126.919 23.675ZM135.138 25C134.921 25 134.738 24.9417 134.588 24.825C134.438 24.7083 134.363 24.5583 134.363 24.375V10.525C134.363 9.675 134.563 8.90833 134.963 8.225C135.38 7.525 135.921 6.96667 136.588 6.55C137.271 6.13333 138.013 5.925 138.813 5.925H139.438C139.671 5.925 139.846 6 139.963 6.15C140.08 6.3 140.138 6.475 140.138 6.675C140.138 6.85833 140.08 7.025 139.963 7.175C139.846 7.325 139.671 7.4 139.438 7.4H139.013C138.446 7.4 137.93 7.54167 137.463 7.825C137.013 8.10833 136.655 8.475 136.388 8.925C136.138 9.375 136.005 9.875 135.988 10.425V13.175H139.563C139.746 13.175 139.888 13.2417 139.988 13.375C140.088 13.5083 140.138 13.6667 140.138 13.85C140.138 14.0167 140.088 14.175 139.988 14.325C139.888 14.4583 139.746 14.525 139.563 14.525H135.988V24.375C135.988 24.5583 135.905 24.7083 135.738 24.825C135.571 24.9417 135.371 25 135.138 25ZM151.16 30.8C150.177 30.8 149.302 30.6583 148.535 30.375C147.785 30.1083 147.185 29.725 146.735 29.225C146.302 28.7417 146.085 28.1583 146.085 27.475C146.085 26.7417 146.302 26.1583 146.735 25.725C147.168 25.2917 147.66 24.9667 148.21 24.75C147.81 24.6 147.477 24.4 147.21 24.15C146.96 23.8833 146.835 23.5083 146.835 23.025C146.835 22.5583 146.952 22.1917 147.185 21.925C147.418 21.6417 147.718 21.4083 148.085 21.225C147.635 20.8583 147.285 20.4083 147.035 19.875C146.802 19.325 146.685 18.725 146.685 18.075V17.125C146.685 16.325 146.86 15.6167 147.21 15C147.577 14.3833 148.085 13.9 148.735 13.55C149.385 13.2 150.143 13.025 151.01 13.025C151.593 13.025 152.135 13.1167 152.635 13.3C153.135 13.4833 153.568 13.7417 153.935 14.075C154.185 13.5583 154.468 13.1667 154.785 12.9C155.102 12.6333 155.402 12.5 155.685 12.5C155.952 12.5 156.143 12.575 156.26 12.725C156.393 12.8583 156.46 13 156.46 13.15C156.46 13.3 156.418 13.425 156.335 13.525C156.252 13.6083 156.152 13.6667 156.035 13.7C155.835 13.7333 155.602 13.825 155.335 13.975C155.085 14.125 154.852 14.3917 154.635 14.775C154.868 15.0917 155.043 15.45 155.16 15.85C155.277 16.25 155.335 16.675 155.335 17.125V18.075C155.335 18.8583 155.152 19.5667 154.785 20.2C154.418 20.8333 153.902 21.3333 153.235 21.7C152.585 22.05 151.835 22.225 150.985 22.225C150.268 22.225 149.627 22.0833 149.06 21.8C148.877 21.9 148.702 22.025 148.535 22.175C148.368 22.3083 148.285 22.5083 148.285 22.775C148.285 23.1417 148.477 23.4083 148.86 23.575C149.243 23.7417 149.727 23.8583 150.31 23.925C150.893 23.9917 151.51 24.0667 152.16 24.15C152.827 24.2167 153.452 24.35 154.035 24.55C154.635 24.75 155.118 25.0583 155.485 25.475C155.868 25.8917 156.06 26.4833 156.06 27.25C156.06 28.0333 155.843 28.6833 155.41 29.2C154.993 29.7333 154.418 30.1333 153.685 30.4C152.952 30.6667 152.11 30.8 151.16 30.8ZM151.135 29.575C152.185 29.575 153.002 29.3667 153.585 28.95C154.168 28.5333 154.46 27.9833 154.46 27.3C154.46 26.7667 154.302 26.3583 153.985 26.075C153.668 25.8083 153.26 25.6167 152.76 25.5C152.277 25.3833 151.768 25.3 151.235 25.25C150.718 25.2 150.268 25.15 149.885 25.1C149.302 25.2833 148.785 25.55 148.335 25.9C147.885 26.25 147.66 26.725 147.66 27.325C147.66 27.9917 147.968 28.5333 148.585 28.95C149.202 29.3667 150.052 29.575 151.135 29.575ZM151.035 21C151.868 21 152.527 20.725 153.01 20.175C153.493 19.6083 153.735 18.9083 153.735 18.075V17.125C153.735 16.3083 153.493 15.625 153.01 15.075C152.543 14.525 151.877 14.25 151.01 14.25C150.143 14.25 149.468 14.525 148.985 15.075C148.518 15.625 148.285 16.3083 148.285 17.125V18.05C148.285 18.8833 148.527 19.5833 149.01 20.15C149.493 20.7167 150.168 21 151.035 21ZM159.338 25C159.121 25 158.929 24.9333 158.763 24.8C158.613 24.6667 158.538 24.5167 158.538 24.35V6.55C158.538 6.35 158.613 6.2 158.763 6.1C158.929 5.98333 159.121 5.925 159.338 5.925C159.571 5.925 159.763 5.98333 159.913 6.1C160.079 6.2 160.163 6.35 160.163 6.55V24.35C160.163 24.5167 160.079 24.6667 159.913 24.8C159.763 24.9333 159.571 25 159.338 25ZM167.813 25.175C166.963 25.175 166.18 24.9583 165.463 24.525C164.746 24.075 164.163 23.4917 163.713 22.775C163.28 22.0417 163.063 21.2583 163.063 20.425V17.725C163.063 16.875 163.271 16.1 163.688 15.4C164.121 14.6833 164.696 14.1083 165.413 13.675C166.146 13.2417 166.946 13.025 167.813 13.025C168.663 13.025 169.446 13.2417 170.163 13.675C170.896 14.0917 171.48 14.65 171.913 15.35C172.346 16.05 172.563 16.8417 172.563 17.725V20.425C172.563 21.2417 172.346 22.0167 171.913 22.75C171.48 23.4833 170.896 24.075 170.163 24.525C169.446 24.9583 168.663 25.175 167.813 25.175ZM167.813 23.675C168.396 23.675 168.921 23.525 169.388 23.225C169.855 22.9083 170.23 22.5 170.513 22C170.796 21.5 170.938 20.975 170.938 20.425V17.725C170.938 17.175 170.796 16.6583 170.513 16.175C170.246 15.6917 169.871 15.3 169.388 15C168.921 14.6833 168.396 14.525 167.813 14.525C167.23 14.525 166.705 14.6833 166.238 15C165.771 15.3 165.396 15.6917 165.113 16.175C164.83 16.6583 164.688 17.175 164.688 17.725V20.425C164.688 20.975 164.83 21.5 165.113 22C165.396 22.5 165.771 22.9083 166.238 23.225C166.721 23.525 167.246 23.675 167.813 23.675ZM180.257 25.175C179.473 25.175 178.773 24.9833 178.157 24.6C177.54 24.2167 177.098 23.7667 176.832 23.25V24.35C176.832 24.5167 176.757 24.6667 176.607 24.8C176.457 24.9333 176.273 25 176.057 25C175.84 25 175.648 24.9333 175.482 24.8C175.332 24.6667 175.257 24.5167 175.257 24.35V6.55C175.257 6.35 175.332 6.2 175.482 6.1C175.648 5.98333 175.84 5.925 176.057 5.925C176.29 5.925 176.482 5.98333 176.632 6.1C176.798 6.2 176.882 6.35 176.882 6.55V14.925C177.165 14.4417 177.582 14.0083 178.132 13.625C178.698 13.225 179.39 13.025 180.207 13.025C181.023 13.025 181.765 13.2417 182.432 13.675C183.115 14.0917 183.657 14.6583 184.057 15.375C184.473 16.075 184.682 16.8583 184.682 17.725V20.425C184.682 21.2417 184.473 22.0167 184.057 22.75C183.657 23.4833 183.123 24.075 182.457 24.525C181.79 24.9583 181.057 25.175 180.257 25.175ZM179.957 23.675C180.523 23.675 181.04 23.525 181.507 23.225C181.973 22.9083 182.348 22.5 182.632 22C182.915 21.5 183.057 20.975 183.057 20.425V17.725C183.057 17.175 182.915 16.6583 182.632 16.175C182.348 15.6917 181.973 15.3 181.507 15C181.04 14.6833 180.515 14.525 179.932 14.525C179.432 14.525 178.948 14.6583 178.482 14.925C178.015 15.175 177.632 15.5333 177.332 16C177.032 16.4667 176.882 17.0417 176.882 17.725V21.2C176.882 21.45 177.015 21.775 177.282 22.175C177.565 22.5583 177.94 22.9083 178.407 23.225C178.873 23.525 179.39 23.675 179.957 23.675ZM189.966 25.175C189.016 25.175 188.208 24.9083 187.541 24.375C186.891 23.825 186.566 22.9917 186.566 21.875C186.566 20.9583 186.808 20.2583 187.291 19.775C187.791 19.275 188.474 18.9333 189.341 18.75C190.224 18.55 191.241 18.45 192.391 18.45H193.666V17.875C193.666 17.325 193.566 16.7917 193.366 16.275C193.183 15.7417 192.874 15.3083 192.441 14.975C192.024 14.625 191.449 14.45 190.716 14.45C190.166 14.45 189.716 14.5083 189.366 14.625C189.016 14.7417 188.741 14.8667 188.541 15C188.341 15.1167 188.174 15.175 188.041 15.175C187.841 15.175 187.674 15.075 187.541 14.875C187.424 14.675 187.366 14.4917 187.366 14.325C187.366 14.0917 187.541 13.8833 187.891 13.7C188.241 13.5 188.674 13.3417 189.191 13.225C189.724 13.0917 190.249 13.025 190.766 13.025C191.883 13.025 192.766 13.2583 193.416 13.725C194.083 14.175 194.558 14.7667 194.841 15.5C195.141 16.2333 195.291 17.0167 195.291 17.85V24.35C195.291 24.5333 195.216 24.6917 195.066 24.825C194.933 24.9417 194.741 25 194.491 25C194.291 25 194.108 24.9417 193.941 24.825C193.791 24.6917 193.716 24.5333 193.716 24.35V23.25C193.299 23.75 192.783 24.2 192.166 24.6C191.549 24.9833 190.816 25.175 189.966 25.175ZM190.366 23.8C190.916 23.8 191.441 23.6583 191.941 23.375C192.441 23.0917 192.849 22.75 193.166 22.35C193.499 21.9333 193.666 21.5417 193.666 21.175V19.575H192.616C191.866 19.575 191.149 19.625 190.466 19.725C189.799 19.8083 189.249 20 188.816 20.3C188.399 20.6 188.191 21.075 188.191 21.725C188.191 22.4417 188.399 22.9667 188.816 23.3C189.249 23.6333 189.766 23.8 190.366 23.8ZM199.328 25C199.111 25 198.92 24.9333 198.753 24.8C198.603 24.6667 198.528 24.5167 198.528 24.35V6.55C198.528 6.35 198.603 6.2 198.753 6.1C198.92 5.98333 199.111 5.925 199.328 5.925C199.561 5.925 199.753 5.98333 199.903 6.1C200.07 6.2 200.153 6.35 200.153 6.55V24.35C200.153 24.5167 200.07 24.6667 199.903 24.8C199.753 24.9333 199.561 25 199.328 25ZM211.958 25.2C211.141 25.2 210.408 25.1 209.758 24.9C209.108 24.7 208.591 24.45 208.208 24.15C207.841 23.8333 207.658 23.5167 207.658 23.2C207.658 23.05 207.691 22.8833 207.758 22.7C207.841 22.5167 207.95 22.3583 208.083 22.225C208.233 22.0917 208.391 22.025 208.558 22.025C208.775 22.025 209 22.125 209.233 22.325C209.483 22.5083 209.808 22.7 210.208 22.9C210.608 23.0833 211.166 23.175 211.883 23.175C212.716 23.175 213.275 23.0333 213.558 22.75C213.858 22.4667 214.008 22.1583 214.008 21.825C214.008 21.3917 213.858 21.0583 213.558 20.825C213.275 20.575 212.9 20.375 212.433 20.225C211.983 20.075 211.5 19.9333 210.983 19.8C210.466 19.65 209.975 19.4583 209.508 19.225C209.058 18.9917 208.683 18.6667 208.383 18.25C208.1 17.8333 207.958 17.2833 207.958 16.6C207.958 16.0333 208.1 15.475 208.383 14.925C208.666 14.3583 209.116 13.9 209.733 13.55C210.366 13.1833 211.208 13 212.258 13C212.891 13 213.491 13.0667 214.058 13.2C214.625 13.3333 215.091 13.5167 215.458 13.75C215.825 13.9667 216.008 14.2083 216.008 14.475C216.008 14.5917 215.966 14.7583 215.883 14.975C215.8 15.175 215.683 15.3583 215.533 15.525C215.4 15.675 215.225 15.75 215.008 15.75C214.841 15.75 214.633 15.6917 214.383 15.575C214.133 15.4417 213.841 15.3167 213.508 15.2C213.175 15.0833 212.766 15.025 212.283 15.025C211.8 15.025 211.408 15.1083 211.108 15.275C210.825 15.425 210.616 15.6083 210.483 15.825C210.35 16.0417 210.283 16.2583 210.283 16.475C210.283 16.8417 210.425 17.125 210.708 17.325C210.991 17.525 211.366 17.6917 211.833 17.825C212.3 17.9583 212.791 18.1 213.308 18.25C213.825 18.3833 214.308 18.5833 214.758 18.85C215.225 19.1167 215.6 19.475 215.883 19.925C216.183 20.375 216.333 20.975 216.333 21.725C216.333 22.775 215.95 23.6167 215.183 24.25C214.433 24.8833 213.358 25.2 211.958 25.2ZM222.814 25C221.398 25 220.314 24.6917 219.564 24.075C218.814 23.4417 218.439 22.45 218.439 21.1V8.575C218.439 8.325 218.573 8.125 218.839 7.975C219.123 7.80833 219.423 7.725 219.739 7.725C220.056 7.725 220.356 7.80833 220.639 7.975C220.923 8.125 221.064 8.325 221.064 8.575V13.15H224.114C224.348 13.15 224.523 13.25 224.639 13.45C224.773 13.65 224.839 13.875 224.839 14.125C224.839 14.375 224.773 14.6 224.639 14.8C224.523 15 224.348 15.1 224.114 15.1H221.064V21.1C221.064 21.7 221.189 22.125 221.439 22.375C221.706 22.625 222.164 22.75 222.814 22.75H223.664C224.048 22.75 224.331 22.8667 224.514 23.1C224.714 23.3167 224.814 23.575 224.814 23.875C224.814 24.1583 224.714 24.4167 224.514 24.65C224.331 24.8833 224.048 25 223.664 25H222.814ZM227.919 25C227.552 25 227.244 24.9083 226.994 24.725C226.76 24.5417 226.644 24.3417 226.644 24.125V14C226.644 13.75 226.76 13.55 226.994 13.4C227.244 13.2333 227.552 13.15 227.919 13.15C228.252 13.15 228.535 13.2333 228.769 13.4C229.002 13.55 229.119 13.75 229.119 14V15.1C229.302 14.75 229.544 14.4167 229.844 14.1C230.16 13.7833 230.527 13.525 230.944 13.325C231.36 13.1083 231.81 13 232.294 13H233.094C233.36 13 233.594 13.1167 233.794 13.35C233.994 13.5667 234.094 13.8333 234.094 14.15C234.094 14.4667 233.994 14.7417 233.794 14.975C233.594 15.2083 233.36 15.325 233.094 15.325H232.294C231.794 15.325 231.31 15.475 230.844 15.775C230.377 16.075 229.994 16.5 229.694 17.05C229.41 17.5833 229.269 18.2333 229.269 19V24.125C229.269 24.3417 229.135 24.5417 228.869 24.725C228.619 24.9083 228.302 25 227.919 25ZM239.888 25.2C238.988 25.2 238.146 24.9667 237.363 24.5C236.58 24.0333 235.946 23.425 235.463 22.675C234.996 21.9083 234.763 21.0917 234.763 20.225V17.925C234.763 17.0417 234.988 16.225 235.438 15.475C235.905 14.725 236.53 14.125 237.313 13.675C238.113 13.225 238.98 13 239.913 13C240.846 13 241.705 13.225 242.488 13.675C243.271 14.1083 243.896 14.7 244.363 15.45C244.846 16.1833 245.088 17.0083 245.088 17.925V20.225C245.088 21.075 244.846 21.8833 244.363 22.65C243.896 23.4167 243.263 24.0333 242.463 24.5C241.68 24.9667 240.821 25.2 239.888 25.2ZM239.913 22.875C240.38 22.875 240.805 22.75 241.188 22.5C241.571 22.25 241.88 21.925 242.113 21.525C242.346 21.1083 242.463 20.675 242.463 20.225V17.925C242.463 17.4917 242.346 17.075 242.113 16.675C241.88 16.275 241.571 15.95 241.188 15.7C240.805 15.45 240.38 15.325 239.913 15.325C239.43 15.325 238.996 15.45 238.613 15.7C238.246 15.95 237.946 16.275 237.713 16.675C237.496 17.075 237.388 17.4917 237.388 17.925V20.225C237.388 20.675 237.496 21.1083 237.713 21.525C237.946 21.925 238.255 22.25 238.638 22.5C239.021 22.75 239.446 22.875 239.913 22.875ZM248.671 25C248.304 25 247.996 24.9083 247.746 24.725C247.513 24.5417 247.396 24.3417 247.396 24.125V6.95C247.396 6.7 247.513 6.5 247.746 6.35C247.996 6.18333 248.304 6.1 248.671 6.1C249.054 6.1 249.371 6.18333 249.621 6.35C249.888 6.5 250.021 6.7 250.021 6.95V18.075L255.246 13.275C255.396 13.125 255.579 13.05 255.796 13.05C255.996 13.05 256.188 13.1167 256.371 13.25C256.571 13.3667 256.738 13.525 256.871 13.725C257.004 13.9083 257.071 14.1 257.071 14.3C257.071 14.4 257.054 14.5 257.021 14.6C256.988 14.6833 256.929 14.7667 256.846 14.85L253.621 17.725L257.546 23.375C257.646 23.5417 257.696 23.6917 257.696 23.825C257.696 24.0417 257.613 24.25 257.446 24.45C257.296 24.65 257.104 24.8167 256.871 24.95C256.654 25.0833 256.438 25.15 256.221 25.15C255.921 25.15 255.688 25.025 255.521 24.775L251.846 19.35L250.021 21V24.125C250.021 24.3417 249.888 24.5417 249.621 24.725C249.371 24.9083 249.054 25 248.671 25ZM264.44 25.2C263.307 25.2 262.307 24.9917 261.44 24.575C260.573 24.1583 259.89 23.5833 259.39 22.85C258.89 22.1 258.64 21.225 258.64 20.225V17.85C258.64 16.9667 258.873 16.1583 259.34 15.425C259.823 14.6917 260.457 14.1083 261.24 13.675C262.023 13.225 262.89 13 263.84 13C264.74 13 265.565 13.2 266.315 13.6C267.065 13.9833 267.665 14.525 268.115 15.225C268.582 15.925 268.815 16.725 268.815 17.625C268.815 18.325 268.707 18.825 268.49 19.125C268.273 19.425 267.99 19.6083 267.64 19.675C267.29 19.7417 266.923 19.775 266.54 19.775H261.265V20.35C261.265 21.1833 261.565 21.85 262.165 22.35C262.782 22.8333 263.565 23.075 264.515 23.075C265.098 23.075 265.573 22.9917 265.94 22.825C266.307 22.6583 266.615 22.5 266.865 22.35C267.115 22.2 267.348 22.125 267.565 22.125C267.782 22.125 267.965 22.1917 268.115 22.325C268.265 22.4583 268.382 22.6167 268.465 22.8C268.548 22.9833 268.59 23.15 268.59 23.3C268.59 23.55 268.415 23.825 268.065 24.125C267.732 24.425 267.257 24.6833 266.64 24.9C266.023 25.1 265.29 25.2 264.44 25.2ZM261.265 18.15H265.415C265.782 18.15 266.023 18.1 266.14 18C266.273 17.9 266.34 17.7 266.34 17.4C266.34 16.9667 266.232 16.5667 266.015 16.2C265.798 15.8167 265.498 15.525 265.115 15.325C264.732 15.1083 264.298 15 263.815 15C263.348 15 262.923 15.1 262.54 15.3C262.157 15.5 261.848 15.775 261.615 16.125C261.382 16.475 261.265 16.8833 261.265 17.35V18.15ZM280.11 25.175C279.343 25.175 278.618 24.9583 277.935 24.525C277.252 24.075 276.702 23.4833 276.285 22.75C275.885 22.0167 275.685 21.2417 275.685 20.425V17.725C275.685 16.8583 275.885 16.075 276.285 15.375C276.702 14.6583 277.252 14.0917 277.935 13.675C278.618 13.2417 279.368 13.025 280.185 13.025C281.002 13.025 281.685 13.225 282.235 13.625C282.802 14.0083 283.218 14.4417 283.485 14.925V6.55C283.485 6.35 283.568 6.2 283.735 6.1C283.902 5.98333 284.093 5.925 284.31 5.925C284.56 5.925 284.752 5.98333 284.885 6.1C285.035 6.2 285.11 6.35 285.11 6.55V24.35C285.11 24.5167 285.035 24.6667 284.885 24.8C284.752 24.9333 284.56 25 284.31 25C284.11 25 283.927 24.9333 283.76 24.8C283.61 24.6667 283.535 24.5167 283.535 24.35V23.25C283.285 23.7667 282.843 24.2167 282.21 24.6C281.593 24.9833 280.893 25.175 280.11 25.175ZM280.41 23.675C281.01 23.675 281.535 23.525 281.985 23.225C282.452 22.9083 282.818 22.5583 283.085 22.175C283.352 21.775 283.485 21.45 283.485 21.2V17.725C283.485 17.0417 283.335 16.4667 283.035 16C282.735 15.5333 282.352 15.175 281.885 14.925C281.418 14.6583 280.935 14.525 280.435 14.525C279.868 14.525 279.352 14.6833 278.885 15C278.418 15.3 278.043 15.6917 277.76 16.175C277.477 16.6583 277.335 17.175 277.335 17.725V20.425C277.335 20.975 277.477 21.5 277.76 22C278.043 22.5 278.418 22.9083 278.885 23.225C279.352 23.525 279.86 23.675 280.41 23.675ZM293.194 25.175C292.144 25.175 291.211 24.975 290.394 24.575C289.594 24.175 288.961 23.625 288.494 22.925C288.044 22.2083 287.819 21.375 287.819 20.425V17.65C287.819 16.8167 288.036 16.05 288.469 15.35C288.903 14.6333 289.478 14.0667 290.194 13.65C290.928 13.2333 291.728 13.025 292.594 13.025C293.428 13.025 294.194 13.225 294.894 13.625C295.611 14.0083 296.186 14.5417 296.619 15.225C297.053 15.9083 297.269 16.7 297.269 17.6C297.269 18.2333 297.161 18.6917 296.944 18.975C296.728 19.2583 296.453 19.4333 296.119 19.5C295.803 19.55 295.461 19.575 295.094 19.575H289.444V20.5C289.444 21.5 289.803 22.2917 290.519 22.875C291.236 23.4583 292.144 23.75 293.244 23.75C293.911 23.75 294.428 23.6667 294.794 23.5C295.161 23.3333 295.444 23.1667 295.644 23C295.861 22.8333 296.061 22.75 296.244 22.75C296.378 22.75 296.494 22.8 296.594 22.9C296.711 22.9833 296.794 23.0833 296.844 23.2C296.911 23.3167 296.944 23.425 296.944 23.525C296.944 23.7083 296.794 23.9333 296.494 24.2C296.194 24.4667 295.761 24.7 295.194 24.9C294.628 25.0833 293.961 25.175 293.194 25.175ZM289.444 18.375H294.444C294.944 18.375 295.278 18.325 295.444 18.225C295.611 18.1083 295.694 17.875 295.694 17.525C295.694 16.9917 295.561 16.4917 295.294 16.025C295.028 15.5417 294.661 15.15 294.194 14.85C293.728 14.5333 293.186 14.375 292.569 14.375C292.003 14.375 291.478 14.5167 290.994 14.8C290.528 15.0833 290.153 15.45 289.869 15.9C289.586 16.35 289.444 16.8583 289.444 17.425V18.375ZM302.32 25.175C301.37 25.175 300.561 24.9083 299.895 24.375C299.245 23.825 298.92 22.9917 298.92 21.875C298.92 20.9583 299.161 20.2583 299.645 19.775C300.145 19.275 300.828 18.9333 301.695 18.75C302.578 18.55 303.595 18.45 304.745 18.45H306.02V17.875C306.02 17.325 305.92 16.7917 305.72 16.275C305.536 15.7417 305.228 15.3083 304.795 14.975C304.378 14.625 303.803 14.45 303.07 14.45C302.52 14.45 302.07 14.5083 301.72 14.625C301.37 14.7417 301.095 14.8667 300.895 15C300.695 15.1167 300.528 15.175 300.395 15.175C300.195 15.175 300.028 15.075 299.895 14.875C299.778 14.675 299.72 14.4917 299.72 14.325C299.72 14.0917 299.895 13.8833 300.245 13.7C300.595 13.5 301.028 13.3417 301.545 13.225C302.078 13.0917 302.603 13.025 303.12 13.025C304.236 13.025 305.12 13.2583 305.77 13.725C306.436 14.175 306.911 14.7667 307.195 15.5C307.495 16.2333 307.645 17.0167 307.645 17.85V24.35C307.645 24.5333 307.57 24.6917 307.42 24.825C307.286 24.9417 307.095 25 306.845 25C306.645 25 306.461 24.9417 306.295 24.825C306.145 24.6917 306.07 24.5333 306.07 24.35V23.25C305.653 23.75 305.136 24.2 304.52 24.6C303.903 24.9833 303.17 25.175 302.32 25.175ZM302.72 23.8C303.27 23.8 303.795 23.6583 304.295 23.375C304.795 23.0917 305.203 22.75 305.52 22.35C305.853 21.9333 306.02 21.5417 306.02 21.175V19.575H304.97C304.22 19.575 303.503 19.625 302.82 19.725C302.153 19.8083 301.603 20 301.17 20.3C300.753 20.6 300.545 21.075 300.545 21.725C300.545 22.4417 300.753 22.9667 301.17 23.3C301.603 23.6333 302.12 23.8 302.72 23.8ZM314.581 25C313.298 25 312.315 24.7083 311.631 24.125C310.948 23.5417 310.606 22.6083 310.606 21.325V8.175C310.606 7.975 310.69 7.825 310.856 7.725C311.04 7.60833 311.223 7.55 311.406 7.55C311.623 7.55 311.815 7.60833 311.981 7.725C312.148 7.825 312.231 7.975 312.231 8.175V13.175H315.481C315.648 13.175 315.781 13.2417 315.881 13.375C315.981 13.5083 316.031 13.6667 316.031 13.85C316.031 14.0333 315.981 14.1917 315.881 14.325C315.781 14.4583 315.648 14.525 315.481 14.525H312.231V21.325C312.231 22.1417 312.406 22.7167 312.756 23.05C313.106 23.3667 313.715 23.525 314.581 23.525H315.281C315.515 23.525 315.69 23.6 315.806 23.75C315.94 23.8833 316.006 24.05 316.006 24.25C316.006 24.45 315.94 24.625 315.806 24.775C315.69 24.925 315.515 25 315.281 25H314.581ZM318.854 25C318.638 25 318.446 24.9333 318.279 24.8C318.129 24.6667 318.054 24.5167 318.054 24.35V6.55C318.054 6.35 318.129 6.2 318.279 6.1C318.446 5.98333 318.638 5.925 318.854 5.925C319.088 5.925 319.279 5.98333 319.429 6.1C319.596 6.2 319.679 6.35 319.679 6.55V14.925C319.963 14.4417 320.379 14.0083 320.929 13.625C321.479 13.225 322.163 13.025 322.979 13.025C323.779 13.025 324.513 13.2417 325.179 13.675C325.863 14.0917 326.404 14.6583 326.804 15.375C327.204 16.075 327.404 16.8583 327.404 17.725V24.35C327.404 24.5667 327.321 24.7333 327.154 24.85C326.988 24.95 326.796 25 326.579 25C326.396 25 326.213 24.95 326.029 24.85C325.863 24.7333 325.779 24.5667 325.779 24.35V17.725C325.779 17.175 325.638 16.6583 325.354 16.175C325.071 15.6917 324.696 15.3 324.229 15C323.763 14.6833 323.246 14.525 322.679 14.525C322.179 14.525 321.696 14.6583 321.229 14.925C320.779 15.175 320.404 15.5333 320.104 16C319.821 16.4667 319.679 17.0417 319.679 17.725V24.35C319.679 24.5167 319.596 24.6667 319.429 24.8C319.279 24.9333 319.088 25 318.854 25ZM333.632 25.175C332.849 25.175 332.157 25.075 331.557 24.875C330.974 24.675 330.516 24.4417 330.182 24.175C329.866 23.8917 329.707 23.625 329.707 23.375C329.707 23.2583 329.732 23.15 329.782 23.05C329.832 22.9333 329.899 22.8333 329.982 22.75C330.082 22.6667 330.182 22.625 330.282 22.625C330.466 22.625 330.666 22.725 330.882 22.925C331.116 23.1083 331.432 23.3 331.832 23.5C332.249 23.7 332.832 23.8 333.582 23.8C334.532 23.8 335.199 23.625 335.582 23.275C335.966 22.9083 336.157 22.4917 336.157 22.025C336.157 21.475 336.007 21.05 335.707 20.75C335.424 20.4333 335.041 20.1917 334.557 20.025C334.091 19.8583 333.591 19.7 333.057 19.55C332.541 19.4 332.041 19.2167 331.557 19C331.091 18.7833 330.707 18.475 330.407 18.075C330.124 17.6583 329.982 17.1083 329.982 16.425C329.982 15.8917 330.116 15.3667 330.382 14.85C330.649 14.3333 331.066 13.9 331.632 13.55C332.216 13.2 332.982 13.025 333.932 13.025C334.482 13.025 335.016 13.0833 335.532 13.2C336.049 13.3167 336.466 13.475 336.782 13.675C337.116 13.8583 337.282 14.0583 337.282 14.275C337.282 14.3417 337.249 14.45 337.182 14.6C337.132 14.7333 337.057 14.85 336.957 14.95C336.857 15.05 336.741 15.1 336.607 15.1C336.474 15.1 336.291 15.0417 336.057 14.925C335.841 14.8083 335.557 14.6917 335.207 14.575C334.857 14.4583 334.441 14.4 333.957 14.4C333.357 14.4 332.874 14.5083 332.507 14.725C332.141 14.9417 331.874 15.2 331.707 15.5C331.541 15.8 331.457 16.0917 331.457 16.375C331.457 16.8417 331.607 17.2 331.907 17.45C332.207 17.7 332.591 17.9083 333.057 18.075C333.541 18.225 334.041 18.375 334.557 18.525C335.091 18.6583 335.591 18.85 336.057 19.1C336.541 19.35 336.924 19.7 337.207 20.15C337.507 20.6 337.657 21.2 337.657 21.95C337.657 22.9333 337.307 23.7167 336.607 24.3C335.907 24.8833 334.916 25.175 333.632 25.175ZM348.58 25.2C348.414 25.2 348.272 25.1667 348.155 25.1C348.055 25.0333 347.964 24.9 347.88 24.7L344.005 14.25C343.972 14.1833 343.947 14.1167 343.93 14.05C343.914 13.9667 343.905 13.9083 343.905 13.875C343.905 13.725 343.955 13.6 344.055 13.5C344.155 13.3833 344.28 13.2917 344.43 13.225C344.58 13.1583 344.73 13.125 344.88 13.125C344.997 13.125 345.114 13.1583 345.23 13.225C345.347 13.2917 345.422 13.3833 345.455 13.5L348.655 22.4L351.205 14.275C351.255 14.125 351.339 14.0167 351.455 13.95C351.572 13.8833 351.714 13.85 351.88 13.85C352.03 13.85 352.164 13.8833 352.28 13.95C352.397 14.0167 352.48 14.125 352.53 14.275L355.005 22.5L358.255 13.5C358.339 13.25 358.53 13.125 358.83 13.125C358.964 13.125 359.105 13.1583 359.255 13.225C359.422 13.2917 359.555 13.375 359.655 13.475C359.755 13.575 359.805 13.7 359.805 13.85C359.805 13.9167 359.789 13.9917 359.755 14.075C359.739 14.1417 359.722 14.2 359.705 14.25L355.805 24.8C355.755 24.95 355.664 25.05 355.53 25.1C355.414 25.1667 355.289 25.2 355.155 25.2C354.989 25.2 354.847 25.1667 354.73 25.1C354.614 25.0333 354.53 24.9417 354.48 24.825L351.88 16.7L349.305 24.7C349.255 24.8667 349.164 24.9917 349.03 25.075C348.897 25.1583 348.747 25.2 348.58 25.2ZM366.656 25.175C365.606 25.175 364.673 24.975 363.856 24.575C363.056 24.175 362.423 23.625 361.956 22.925C361.506 22.2083 361.281 21.375 361.281 20.425V17.65C361.281 16.8167 361.498 16.05 361.931 15.35C362.365 14.6333 362.94 14.0667 363.656 13.65C364.39 13.2333 365.19 13.025 366.056 13.025C366.89 13.025 367.656 13.225 368.356 13.625C369.073 14.0083 369.648 14.5417 370.081 15.225C370.515 15.9083 370.731 16.7 370.731 17.6C370.731 18.2333 370.623 18.6917 370.406 18.975C370.19 19.2583 369.915 19.4333 369.581 19.5C369.265 19.55 368.923 19.575 368.556 19.575H362.906V20.5C362.906 21.5 363.265 22.2917 363.981 22.875C364.698 23.4583 365.606 23.75 366.706 23.75C367.373 23.75 367.89 23.6667 368.256 23.5C368.623 23.3333 368.906 23.1667 369.106 23C369.323 22.8333 369.523 22.75 369.706 22.75C369.84 22.75 369.956 22.8 370.056 22.9C370.173 22.9833 370.256 23.0833 370.306 23.2C370.373 23.3167 370.406 23.425 370.406 23.525C370.406 23.7083 370.256 23.9333 369.956 24.2C369.656 24.4667 369.223 24.7 368.656 24.9C368.09 25.0833 367.423 25.175 366.656 25.175ZM362.906 18.375H367.906C368.406 18.375 368.74 18.325 368.906 18.225C369.073 18.1083 369.156 17.875 369.156 17.525C369.156 16.9917 369.023 16.4917 368.756 16.025C368.49 15.5417 368.123 15.15 367.656 14.85C367.19 14.5333 366.648 14.375 366.031 14.375C365.465 14.375 364.94 14.5167 364.456 14.8C363.99 15.0833 363.615 15.45 363.331 15.9C363.048 16.35 362.906 16.8583 362.906 17.425V18.375ZM373.956 25C373.74 25 373.548 24.9333 373.381 24.8C373.231 24.6667 373.156 24.5167 373.156 24.35V13.8C373.156 13.6 373.231 13.45 373.381 13.35C373.548 13.2333 373.74 13.175 373.956 13.175C374.173 13.175 374.356 13.2333 374.506 13.35C374.656 13.45 374.731 13.6 374.731 13.8V15.025C374.915 14.675 375.165 14.35 375.481 14.05C375.798 13.75 376.173 13.5083 376.606 13.325C377.04 13.125 377.531 13.025 378.081 13.025H378.956C379.14 13.025 379.29 13.1 379.406 13.25C379.54 13.4 379.606 13.575 379.606 13.775C379.606 13.9917 379.54 14.175 379.406 14.325C379.29 14.4583 379.14 14.525 378.956 14.525H378.081C377.531 14.525 376.998 14.675 376.481 14.975C375.981 15.275 375.573 15.6917 375.256 16.225C374.94 16.7583 374.781 17.4083 374.781 18.175V24.35C374.781 24.5167 374.698 24.6667 374.531 24.8C374.381 24.9333 374.19 25 373.956 25ZM385.821 25.175C384.771 25.175 383.838 24.975 383.021 24.575C382.221 24.175 381.588 23.625 381.121 22.925C380.671 22.2083 380.446 21.375 380.446 20.425V17.65C380.446 16.8167 380.663 16.05 381.096 15.35C381.53 14.6333 382.105 14.0667 382.821 13.65C383.555 13.2333 384.355 13.025 385.221 13.025C386.055 13.025 386.821 13.225 387.521 13.625C388.238 14.0083 388.813 14.5417 389.246 15.225C389.68 15.9083 389.896 16.7 389.896 17.6C389.896 18.2333 389.788 18.6917 389.571 18.975C389.355 19.2583 389.08 19.4333 388.746 19.5C388.43 19.55 388.088 19.575 387.721 19.575H382.071V20.5C382.071 21.5 382.43 22.2917 383.146 22.875C383.863 23.4583 384.771 23.75 385.871 23.75C386.538 23.75 387.055 23.6667 387.421 23.5C387.788 23.3333 388.071 23.1667 388.271 23C388.488 22.8333 388.688 22.75 388.871 22.75C389.005 22.75 389.121 22.8 389.221 22.9C389.338 22.9833 389.421 23.0833 389.471 23.2C389.538 23.3167 389.571 23.425 389.571 23.525C389.571 23.7083 389.421 23.9333 389.121 24.2C388.821 24.4667 388.388 24.7 387.821 24.9C387.255 25.0833 386.588 25.175 385.821 25.175ZM382.071 18.375H387.071C387.571 18.375 387.905 18.325 388.071 18.225C388.238 18.1083 388.321 17.875 388.321 17.525C388.321 16.9917 388.188 16.4917 387.921 16.025C387.655 15.5417 387.288 15.15 386.821 14.85C386.355 14.5333 385.813 14.375 385.196 14.375C384.63 14.375 384.105 14.5167 383.621 14.8C383.155 15.0833 382.78 15.45 382.496 15.9C382.213 16.35 382.071 16.8583 382.071 17.425V18.375ZM4.175 55.175C3.225 55.175 2.41667 54.9083 1.75 54.375C1.1 53.825 0.775 52.9917 0.775 51.875C0.775 50.9583 1.01667 50.2583 1.5 49.775C2 49.275 2.68333 48.9333 3.55 48.75C4.43333 48.55 5.45 48.45 6.6 48.45H7.875V47.875C7.875 47.325 7.775 46.7917 7.575 46.275C7.39167 45.7417 7.08333 45.3083 6.65 44.975C6.23333 44.625 5.65833 44.45 4.925 44.45C4.375 44.45 3.925 44.5083 3.575 44.625C3.225 44.7417 2.95 44.8667 2.75 45C2.55 45.1167 2.38333 45.175 2.25 45.175C2.05 45.175 1.88333 45.075 1.75 44.875C1.63333 44.675 1.575 44.4917 1.575 44.325C1.575 44.0917 1.75 43.8833 2.1 43.7C2.45 43.5 2.88333 43.3417 3.4 43.225C3.93333 43.0917 4.45833 43.025 4.975 43.025C6.09167 43.025 6.975 43.2583 7.625 43.725C8.29167 44.175 8.76667 44.7667 9.05 45.5C9.35 46.2333 9.5 47.0167 9.5 47.85V54.35C9.5 54.5333 9.425 54.6917 9.275 54.825C9.14167 54.9417 8.95 55 8.7 55C8.5 55 8.31667 54.9417 8.15 54.825C8 54.6917 7.925 54.5333 7.925 54.35V53.25C7.50833 53.75 6.99167 54.2 6.375 54.6C5.75833 54.9833 5.025 55.175 4.175 55.175ZM4.575 53.8C5.125 53.8 5.65 53.6583 6.15 53.375C6.65 53.0917 7.05833 52.75 7.375 52.35C7.70833 51.9333 7.875 51.5417 7.875 51.175V49.575H6.825C6.075 49.575 5.35833 49.625 4.675 49.725C4.00833 49.8083 3.45833 50 3.025 50.3C2.60833 50.6 2.4 51.075 2.4 51.725C2.4 52.4417 2.60833 52.9667 3.025 53.3C3.45833 53.6333 3.975 53.8 4.575 53.8ZM16.4369 55C15.1536 55 14.1702 54.7083 13.4869 54.125C12.8036 53.5417 12.4619 52.6083 12.4619 51.325V38.175C12.4619 37.975 12.5452 37.825 12.7119 37.725C12.8952 37.6083 13.0786 37.55 13.2619 37.55C13.4786 37.55 13.6702 37.6083 13.8369 37.725C14.0036 37.825 14.0869 37.975 14.0869 38.175V43.175H17.3369C17.5036 43.175 17.6369 43.2417 17.7369 43.375C17.8369 43.5083 17.8869 43.6667 17.8869 43.85C17.8869 44.0333 17.8369 44.1917 17.7369 44.325C17.6369 44.4583 17.5036 44.525 17.3369 44.525H14.0869V51.325C14.0869 52.1417 14.2619 52.7167 14.6119 53.05C14.9619 53.3667 15.5702 53.525 16.4369 53.525H17.1369C17.3702 53.525 17.5452 53.6 17.6619 53.75C17.7952 53.8833 17.8619 54.05 17.8619 54.25C17.8619 54.45 17.7952 54.625 17.6619 54.775C17.5452 54.925 17.3702 55 17.1369 55H16.4369ZM23.81 55C22.5266 55 21.5433 54.7083 20.86 54.125C20.1766 53.5417 19.835 52.6083 19.835 51.325V38.175C19.835 37.975 19.9183 37.825 20.085 37.725C20.2683 37.6083 20.4516 37.55 20.635 37.55C20.8516 37.55 21.0433 37.6083 21.21 37.725C21.3766 37.825 21.46 37.975 21.46 38.175V43.175H24.71C24.8766 43.175 25.01 43.2417 25.11 43.375C25.21 43.5083 25.26 43.6667 25.26 43.85C25.26 44.0333 25.21 44.1917 25.11 44.325C25.01 44.4583 24.8766 44.525 24.71 44.525H21.46V51.325C21.46 52.1417 21.635 52.7167 21.985 53.05C22.335 53.3667 22.9433 53.525 23.81 53.525H24.51C24.7433 53.525 24.9183 53.6 25.035 53.75C25.1683 53.8833 25.235 54.05 25.235 54.25C25.235 54.45 25.1683 54.625 25.035 54.775C24.9183 54.925 24.7433 55 24.51 55H23.81ZM28.058 55C27.8413 55 27.6497 54.9333 27.483 54.8C27.333 54.6667 27.258 54.5167 27.258 54.35V43.8C27.258 43.6 27.333 43.45 27.483 43.35C27.6497 43.2333 27.8413 43.175 28.058 43.175C28.2747 43.175 28.458 43.2333 28.608 43.35C28.758 43.45 28.833 43.6 28.833 43.8V45.025C29.0163 44.675 29.2663 44.35 29.583 44.05C29.8997 43.75 30.2747 43.5083 30.708 43.325C31.1413 43.125 31.633 43.025 32.183 43.025H33.058C33.2413 43.025 33.3913 43.1 33.508 43.25C33.6413 43.4 33.708 43.575 33.708 43.775C33.708 43.9917 33.6413 44.175 33.508 44.325C33.3913 44.4583 33.2413 44.525 33.058 44.525H32.183C31.633 44.525 31.0997 44.675 30.583 44.975C30.083 45.275 29.6747 45.6917 29.358 46.225C29.0413 46.7583 28.883 47.4083 28.883 48.175V54.35C28.883 54.5167 28.7997 54.6667 28.633 54.8C28.483 54.9333 28.2913 55 28.058 55ZM36.335 39.675C36.035 39.675 35.7683 39.575 35.535 39.375C35.3183 39.1583 35.21 38.9083 35.21 38.625C35.21 38.3417 35.3183 38.1 35.535 37.9C35.7683 37.7 36.035 37.6 36.335 37.6C36.635 37.6 36.8933 37.7 37.11 37.9C37.3266 38.1 37.435 38.3417 37.435 38.625C37.435 38.9083 37.3266 39.1583 37.11 39.375C36.8933 39.575 36.635 39.675 36.335 39.675ZM36.31 55C36.0933 55 35.9016 54.9333 35.735 54.8C35.585 54.6667 35.51 54.5167 35.51 54.35V43.8C35.51 43.6 35.585 43.45 35.735 43.35C35.9016 43.2333 36.0933 43.175 36.31 43.175C36.5433 43.175 36.735 43.2333 36.885 43.35C37.0516 43.45 37.135 43.6 37.135 43.8V54.35C37.135 54.5167 37.0516 54.6667 36.885 54.8C36.735 54.9333 36.5433 55 36.31 55ZM45.2713 55.175C44.488 55.175 43.788 54.9833 43.1713 54.6C42.5546 54.2167 42.113 53.7667 41.8463 53.25V54.35C41.8463 54.5167 41.7713 54.6667 41.6213 54.8C41.4713 54.9333 41.288 55 41.0713 55C40.8546 55 40.663 54.9333 40.4963 54.8C40.3463 54.6667 40.2713 54.5167 40.2713 54.35V36.55C40.2713 36.35 40.3463 36.2 40.4963 36.1C40.663 35.9833 40.8546 35.925 41.0713 35.925C41.3046 35.925 41.4963 35.9833 41.6463 36.1C41.813 36.2 41.8963 36.35 41.8963 36.55V44.925C42.1796 44.4417 42.5963 44.0083 43.1463 43.625C43.713 43.225 44.4046 43.025 45.2213 43.025C46.038 43.025 46.7796 43.2417 47.4463 43.675C48.1296 44.0917 48.6713 44.6583 49.0713 45.375C49.488 46.075 49.6963 46.8583 49.6963 47.725V50.425C49.6963 51.2417 49.488 52.0167 49.0713 52.75C48.6713 53.4833 48.138 54.075 47.4713 54.525C46.8046 54.9583 46.0713 55.175 45.2713 55.175ZM44.9713 53.675C45.538 53.675 46.0546 53.525 46.5213 53.225C46.988 52.9083 47.363 52.5 47.6463 52C47.9296 51.5 48.0713 50.975 48.0713 50.425V47.725C48.0713 47.175 47.9296 46.6583 47.6463 46.175C47.363 45.6917 46.988 45.3 46.5213 45C46.0546 44.6833 45.5296 44.525 44.9463 44.525C44.4463 44.525 43.963 44.6583 43.4963 44.925C43.0296 45.175 42.6463 45.5333 42.3463 46C42.0463 46.4667 41.8963 47.0417 41.8963 47.725V51.2C41.8963 51.45 42.0296 51.775 42.2963 52.175C42.5796 52.5583 42.9546 52.9083 43.4213 53.225C43.888 53.525 44.4046 53.675 44.9713 53.675ZM57.0307 55.175C56.1473 55.175 55.339 54.9583 54.6057 54.525C53.889 54.0917 53.314 53.5167 52.8807 52.8C52.464 52.0667 52.2557 51.2917 52.2557 50.475V43.825C52.2557 43.6583 52.339 43.5083 52.5057 43.375C52.6723 43.2417 52.864 43.175 53.0807 43.175C53.2973 43.175 53.4807 43.2417 53.6307 43.375C53.7973 43.5083 53.8807 43.6583 53.8807 43.825V50.475C53.8807 51.025 54.0223 51.5417 54.3057 52.025C54.589 52.5083 54.964 52.9083 55.4307 53.225C55.8973 53.525 56.4223 53.675 57.0057 53.675C57.6057 53.675 58.139 53.525 58.6057 53.225C59.0723 52.925 59.439 52.5333 59.7057 52.05C59.989 51.55 60.1307 51.025 60.1307 50.475V43.8C60.1307 43.6167 60.214 43.4667 60.3807 43.35C60.5473 43.2333 60.739 43.175 60.9557 43.175C61.2057 43.175 61.3973 43.2333 61.5307 43.35C61.6807 43.4667 61.7557 43.6167 61.7557 43.8V50.475C61.7557 51.325 61.539 52.1083 61.1057 52.825C60.689 53.525 60.114 54.0917 59.3807 54.525C58.664 54.9583 57.8807 55.175 57.0307 55.175ZM68.683 55C67.3997 55 66.4163 54.7083 65.733 54.125C65.0497 53.5417 64.708 52.6083 64.708 51.325V38.175C64.708 37.975 64.7913 37.825 64.958 37.725C65.1413 37.6083 65.3247 37.55 65.508 37.55C65.7247 37.55 65.9163 37.6083 66.083 37.725C66.2497 37.825 66.333 37.975 66.333 38.175V43.175H69.583C69.7497 43.175 69.883 43.2417 69.983 43.375C70.083 43.5083 70.133 43.6667 70.133 43.85C70.133 44.0333 70.083 44.1917 69.983 44.325C69.883 44.4583 69.7497 44.525 69.583 44.525H66.333V51.325C66.333 52.1417 66.508 52.7167 66.858 53.05C67.208 53.3667 67.8163 53.525 68.683 53.525H69.383C69.6163 53.525 69.7913 53.6 69.908 53.75C70.0413 53.8833 70.108 54.05 70.108 54.25C70.108 54.45 70.0413 54.625 69.908 54.775C69.7913 54.925 69.6163 55 69.383 55H68.683ZM76.8613 55.175C75.8113 55.175 74.878 54.975 74.0613 54.575C73.2613 54.175 72.628 53.625 72.1613 52.925C71.7113 52.2083 71.4863 51.375 71.4863 50.425V47.65C71.4863 46.8167 71.703 46.05 72.1363 45.35C72.5697 44.6333 73.1447 44.0667 73.8613 43.65C74.5947 43.2333 75.3947 43.025 76.2613 43.025C77.0947 43.025 77.8613 43.225 78.5613 43.625C79.278 44.0083 79.853 44.5417 80.2863 45.225C80.7197 45.9083 80.9363 46.7 80.9363 47.6C80.9363 48.2333 80.828 48.6917 80.6113 48.975C80.3947 49.2583 80.1197 49.4333 79.7863 49.5C79.4697 49.55 79.128 49.575 78.7613 49.575H73.1113V50.5C73.1113 51.5 73.4697 52.2917 74.1863 52.875C74.903 53.4583 75.8113 53.75 76.9113 53.75C77.578 53.75 78.0947 53.6667 78.4613 53.5C78.828 53.3333 79.1113 53.1667 79.3113 53C79.528 52.8333 79.728 52.75 79.9113 52.75C80.0447 52.75 80.1613 52.8 80.2613 52.9C80.378 52.9833 80.4613 53.0833 80.5113 53.2C80.578 53.3167 80.6113 53.425 80.6113 53.525C80.6113 53.7083 80.4613 53.9333 80.1613 54.2C79.8613 54.4667 79.428 54.7 78.8613 54.9C78.2947 55.0833 77.628 55.175 76.8613 55.175ZM73.1113 48.375H78.1113C78.6113 48.375 78.9447 48.325 79.1113 48.225C79.278 48.1083 79.3613 47.875 79.3613 47.525C79.3613 46.9917 79.228 46.4917 78.9613 46.025C78.6947 45.5417 78.328 45.15 77.8613 44.85C77.3947 44.5333 76.853 44.375 76.2363 44.375C75.6697 44.375 75.1447 44.5167 74.6613 44.8C74.1947 45.0833 73.8197 45.45 73.5363 45.9C73.253 46.35 73.1113 46.8583 73.1113 47.425V48.375ZM87.3365 55.175C86.5699 55.175 85.8449 54.9583 85.1615 54.525C84.4782 54.075 83.9282 53.4833 83.5115 52.75C83.1115 52.0167 82.9115 51.2417 82.9115 50.425V47.725C82.9115 46.8583 83.1115 46.075 83.5115 45.375C83.9282 44.6583 84.4782 44.0917 85.1615 43.675C85.8449 43.2417 86.5949 43.025 87.4115 43.025C88.2282 43.025 88.9115 43.225 89.4615 43.625C90.0282 44.0083 90.4449 44.4417 90.7115 44.925V36.55C90.7115 36.35 90.7949 36.2 90.9615 36.1C91.1282 35.9833 91.3199 35.925 91.5365 35.925C91.7865 35.925 91.9782 35.9833 92.1115 36.1C92.2615 36.2 92.3365 36.35 92.3365 36.55V54.35C92.3365 54.5167 92.2615 54.6667 92.1115 54.8C91.9782 54.9333 91.7865 55 91.5365 55C91.3365 55 91.1532 54.9333 90.9865 54.8C90.8365 54.6667 90.7615 54.5167 90.7615 54.35V53.25C90.5115 53.7667 90.0699 54.2167 89.4365 54.6C88.8199 54.9833 88.1199 55.175 87.3365 55.175ZM87.6365 53.675C88.2365 53.675 88.7615 53.525 89.2115 53.225C89.6782 52.9083 90.0449 52.5583 90.3115 52.175C90.5782 51.775 90.7115 51.45 90.7115 51.2V47.725C90.7115 47.0417 90.5615 46.4667 90.2615 46C89.9615 45.5333 89.5782 45.175 89.1115 44.925C88.6449 44.6583 88.1615 44.525 87.6615 44.525C87.0949 44.525 86.5782 44.6833 86.1115 45C85.6449 45.3 85.2699 45.6917 84.9865 46.175C84.7032 46.6583 84.5615 47.175 84.5615 47.725V50.425C84.5615 50.975 84.7032 51.5 84.9865 52C85.2699 52.5 85.6449 52.9083 86.1115 53.225C86.5782 53.525 87.0865 53.675 87.6365 53.675ZM104.401 55C103.117 55 102.134 54.7083 101.451 54.125C100.767 53.5417 100.426 52.6083 100.426 51.325V38.175C100.426 37.975 100.509 37.825 100.676 37.725C100.859 37.6083 101.042 37.55 101.226 37.55C101.442 37.55 101.634 37.6083 101.801 37.725C101.967 37.825 102.051 37.975 102.051 38.175V43.175H105.301C105.467 43.175 105.601 43.2417 105.701 43.375C105.801 43.5083 105.851 43.6667 105.851 43.85C105.851 44.0333 105.801 44.1917 105.701 44.325C105.601 44.4583 105.467 44.525 105.301 44.525H102.051V51.325C102.051 52.1417 102.226 52.7167 102.576 53.05C102.926 53.3667 103.534 53.525 104.401 53.525H105.101C105.334 53.525 105.509 53.6 105.626 53.75C105.759 53.8833 105.826 54.05 105.826 54.25C105.826 54.45 105.759 54.625 105.626 54.775C105.509 54.925 105.334 55 105.101 55H104.401ZM111.929 55.175C111.079 55.175 110.296 54.9583 109.579 54.525C108.862 54.075 108.279 53.4917 107.829 52.775C107.396 52.0417 107.179 51.2583 107.179 50.425V47.725C107.179 46.875 107.387 46.1 107.804 45.4C108.237 44.6833 108.812 44.1083 109.529 43.675C110.262 43.2417 111.062 43.025 111.929 43.025C112.779 43.025 113.562 43.2417 114.279 43.675C115.012 44.0917 115.596 44.65 116.029 45.35C116.462 46.05 116.679 46.8417 116.679 47.725V50.425C116.679 51.2417 116.462 52.0167 116.029 52.75C115.596 53.4833 115.012 54.075 114.279 54.525C113.562 54.9583 112.779 55.175 111.929 55.175ZM111.929 53.675C112.512 53.675 113.037 53.525 113.504 53.225C113.971 52.9083 114.346 52.5 114.629 52C114.912 51.5 115.054 50.975 115.054 50.425V47.725C115.054 47.175 114.912 46.6583 114.629 46.175C114.362 45.6917 113.987 45.3 113.504 45C113.037 44.6833 112.512 44.525 111.929 44.525C111.346 44.525 110.821 44.6833 110.354 45C109.887 45.3 109.512 45.6917 109.229 46.175C108.946 46.6583 108.804 47.175 108.804 47.725V50.425C108.804 50.975 108.946 51.5 109.229 52C109.512 52.5 109.887 52.9083 110.354 53.225C110.837 53.525 111.362 53.675 111.929 53.675ZM126.978 55.175C126.028 55.175 125.219 54.9083 124.553 54.375C123.903 53.825 123.578 52.9917 123.578 51.875C123.578 50.9583 123.819 50.2583 124.303 49.775C124.803 49.275 125.486 48.9333 126.353 48.75C127.236 48.55 128.253 48.45 129.403 48.45H130.678V47.875C130.678 47.325 130.578 46.7917 130.378 46.275C130.194 45.7417 129.886 45.3083 129.453 44.975C129.036 44.625 128.461 44.45 127.728 44.45C127.178 44.45 126.728 44.5083 126.378 44.625C126.028 44.7417 125.753 44.8667 125.553 45C125.353 45.1167 125.186 45.175 125.053 45.175C124.853 45.175 124.686 45.075 124.553 44.875C124.436 44.675 124.378 44.4917 124.378 44.325C124.378 44.0917 124.553 43.8833 124.903 43.7C125.253 43.5 125.686 43.3417 126.203 43.225C126.736 43.0917 127.261 43.025 127.778 43.025C128.894 43.025 129.778 43.2583 130.428 43.725C131.094 44.175 131.569 44.7667 131.853 45.5C132.153 46.2333 132.303 47.0167 132.303 47.85V54.35C132.303 54.5333 132.228 54.6917 132.078 54.825C131.944 54.9417 131.753 55 131.503 55C131.303 55 131.119 54.9417 130.953 54.825C130.803 54.6917 130.728 54.5333 130.728 54.35V53.25C130.311 53.75 129.794 54.2 129.178 54.6C128.561 54.9833 127.828 55.175 126.978 55.175ZM127.378 53.8C127.928 53.8 128.453 53.6583 128.953 53.375C129.453 53.0917 129.861 52.75 130.178 52.35C130.511 51.9333 130.678 51.5417 130.678 51.175V49.575H129.628C128.878 49.575 128.161 49.625 127.478 49.725C126.811 49.8083 126.261 50 125.828 50.3C125.411 50.6 125.203 51.075 125.203 51.725C125.203 52.4417 125.411 52.9667 125.828 53.3C126.261 53.6333 126.778 53.8 127.378 53.8ZM136.14 39.675C135.84 39.675 135.573 39.575 135.34 39.375C135.123 39.1583 135.015 38.9083 135.015 38.625C135.015 38.3417 135.123 38.1 135.34 37.9C135.573 37.7 135.84 37.6 136.14 37.6C136.44 37.6 136.698 37.7 136.915 37.9C137.131 38.1 137.24 38.3417 137.24 38.625C137.24 38.9083 137.131 39.1583 136.915 39.375C136.698 39.575 136.44 39.675 136.14 39.675ZM136.115 55C135.898 55 135.706 54.9333 135.54 54.8C135.39 54.6667 135.315 54.5167 135.315 54.35V43.8C135.315 43.6 135.39 43.45 135.54 43.35C135.706 43.2333 135.898 43.175 136.115 43.175C136.348 43.175 136.54 43.2333 136.69 43.35C136.856 43.45 136.94 43.6 136.94 43.8V54.35C136.94 54.5167 136.856 54.6667 136.69 54.8C136.54 54.9333 136.348 55 136.115 55ZM140.851 55C140.634 55 140.443 54.9333 140.276 54.8C140.126 54.6667 140.051 54.5167 140.051 54.35V43.8C140.051 43.6 140.126 43.45 140.276 43.35C140.443 43.2333 140.634 43.175 140.851 43.175C141.068 43.175 141.251 43.2333 141.401 43.35C141.551 43.45 141.626 43.6 141.626 43.8V45.025C141.809 44.675 142.059 44.35 142.376 44.05C142.693 43.75 143.068 43.5083 143.501 43.325C143.934 43.125 144.426 43.025 144.976 43.025H145.851C146.034 43.025 146.184 43.1 146.301 43.25C146.434 43.4 146.501 43.575 146.501 43.775C146.501 43.9917 146.434 44.175 146.301 44.325C146.184 44.4583 146.034 44.525 145.851 44.525H144.976C144.426 44.525 143.893 44.675 143.376 44.975C142.876 45.275 142.468 45.6917 142.151 46.225C141.834 46.7583 141.676 47.4083 141.676 48.175V54.35C141.676 54.5167 141.593 54.6667 141.426 54.8C141.276 54.9333 141.084 55 140.851 55ZM154.133 60.8C153.916 60.8 153.724 60.7333 153.558 60.6C153.408 60.4667 153.333 60.3167 153.333 60.15V43.8C153.333 43.6 153.408 43.45 153.558 43.35C153.724 43.2333 153.916 43.175 154.133 43.175C154.349 43.175 154.533 43.2333 154.683 43.35C154.833 43.45 154.908 43.6 154.908 43.8V44.925C155.191 44.4417 155.616 44.0083 156.183 43.625C156.749 43.225 157.441 43.025 158.258 43.025C159.091 43.025 159.841 43.2417 160.508 43.675C161.191 44.0917 161.733 44.6583 162.133 45.375C162.549 46.075 162.758 46.8583 162.758 47.725V50.425C162.758 51.2417 162.549 52.0167 162.133 52.75C161.733 53.4833 161.199 54.075 160.533 54.525C159.866 54.9583 159.133 55.175 158.333 55.175C157.566 55.175 156.883 54.9833 156.283 54.6C155.683 54.2167 155.241 53.7667 154.958 53.25V60.15C154.958 60.3167 154.874 60.4667 154.708 60.6C154.558 60.7333 154.366 60.8 154.133 60.8ZM158.033 53.675C158.583 53.675 159.091 53.525 159.558 53.225C160.024 52.9083 160.399 52.5 160.683 52C160.983 51.5 161.133 50.975 161.133 50.425V47.725C161.133 47.175 160.983 46.6583 160.683 46.175C160.399 45.6917 160.024 45.3 159.558 45C159.091 44.6833 158.566 44.525 157.983 44.525C157.483 44.525 156.999 44.6583 156.533 44.925C156.083 45.175 155.708 45.5333 155.408 46C155.108 46.4667 154.958 47.0417 154.958 47.725V51.2C154.958 51.45 155.091 51.775 155.358 52.175C155.624 52.5583 155.991 52.9083 156.458 53.225C156.924 53.525 157.449 53.675 158.033 53.675ZM169.717 55.175C168.867 55.175 168.084 54.9583 167.367 54.525C166.651 54.075 166.067 53.4917 165.617 52.775C165.184 52.0417 164.967 51.2583 164.967 50.425V47.725C164.967 46.875 165.176 46.1 165.592 45.4C166.026 44.6833 166.601 44.1083 167.317 43.675C168.051 43.2417 168.851 43.025 169.717 43.025C170.567 43.025 171.351 43.2417 172.067 43.675C172.801 44.0917 173.384 44.65 173.817 45.35C174.251 46.05 174.467 46.8417 174.467 47.725V50.425C174.467 51.2417 174.251 52.0167 173.817 52.75C173.384 53.4833 172.801 54.075 172.067 54.525C171.351 54.9583 170.567 55.175 169.717 55.175ZM169.717 53.675C170.301 53.675 170.826 53.525 171.292 53.225C171.759 52.9083 172.134 52.5 172.417 52C172.701 51.5 172.842 50.975 172.842 50.425V47.725C172.842 47.175 172.701 46.6583 172.417 46.175C172.151 45.6917 171.776 45.3 171.292 45C170.826 44.6833 170.301 44.525 169.717 44.525C169.134 44.525 168.609 44.6833 168.142 45C167.676 45.3 167.301 45.6917 167.017 46.175C166.734 46.6583 166.592 47.175 166.592 47.725V50.425C166.592 50.975 166.734 51.5 167.017 52C167.301 52.5 167.676 52.9083 168.142 53.225C168.626 53.525 169.151 53.675 169.717 53.675ZM178.161 55C177.944 55 177.753 54.9333 177.586 54.8C177.436 54.6667 177.361 54.5167 177.361 54.35V36.55C177.361 36.35 177.436 36.2 177.586 36.1C177.753 35.9833 177.944 35.925 178.161 35.925C178.394 35.925 178.586 35.9833 178.736 36.1C178.903 36.2 178.986 36.35 178.986 36.55V54.35C178.986 54.5167 178.903 54.6667 178.736 54.8C178.586 54.9333 178.394 55 178.161 55ZM183.361 55C183.144 55 182.953 54.9333 182.786 54.8C182.636 54.6667 182.561 54.5167 182.561 54.35V36.55C182.561 36.35 182.636 36.2 182.786 36.1C182.953 35.9833 183.144 35.925 183.361 35.925C183.594 35.925 183.786 35.9833 183.936 36.1C184.103 36.2 184.186 36.35 184.186 36.55V54.35C184.186 54.5167 184.103 54.6667 183.936 54.8C183.786 54.9333 183.594 55 183.361 55ZM192.211 55.175C191.328 55.175 190.52 54.9583 189.786 54.525C189.07 54.0917 188.495 53.5167 188.061 52.8C187.645 52.0667 187.436 51.2917 187.436 50.475V43.825C187.436 43.6583 187.52 43.5083 187.686 43.375C187.853 43.2417 188.045 43.175 188.261 43.175C188.478 43.175 188.661 43.2417 188.811 43.375C188.978 43.5083 189.061 43.6583 189.061 43.825V50.475C189.061 51.025 189.203 51.5417 189.486 52.025C189.77 52.5083 190.145 52.9083 190.611 53.225C191.078 53.525 191.603 53.675 192.186 53.675C192.786 53.675 193.32 53.525 193.786 53.225C194.253 52.925 194.62 52.5333 194.886 52.05C195.17 51.55 195.311 51.025 195.311 50.475V43.8C195.311 43.6167 195.395 43.4667 195.561 43.35C195.728 43.2333 195.92 43.175 196.136 43.175C196.386 43.175 196.578 43.2333 196.711 43.35C196.861 43.4667 196.936 43.6167 196.936 43.8V50.475C196.936 51.325 196.72 52.1083 196.286 52.825C195.87 53.525 195.295 54.0917 194.561 54.525C193.845 54.9583 193.061 55.175 192.211 55.175ZM203.864 55C202.58 55 201.597 54.7083 200.914 54.125C200.23 53.5417 199.889 52.6083 199.889 51.325V38.175C199.889 37.975 199.972 37.825 200.139 37.725C200.322 37.6083 200.505 37.55 200.689 37.55C200.905 37.55 201.097 37.6083 201.264 37.725C201.43 37.825 201.514 37.975 201.514 38.175V43.175H204.764C204.93 43.175 205.064 43.2417 205.164 43.375C205.264 43.5083 205.314 43.6667 205.314 43.85C205.314 44.0333 205.264 44.1917 205.164 44.325C205.064 44.4583 204.93 44.525 204.764 44.525H201.514V51.325C201.514 52.1417 201.689 52.7167 202.039 53.05C202.389 53.3667 202.997 53.525 203.864 53.525H204.564C204.797 53.525 204.972 53.6 205.089 53.75C205.222 53.8833 205.289 54.05 205.289 54.25C205.289 54.45 205.222 54.625 205.089 54.775C204.972 54.925 204.797 55 204.564 55H203.864ZM208.137 39.675C207.837 39.675 207.57 39.575 207.337 39.375C207.12 39.1583 207.012 38.9083 207.012 38.625C207.012 38.3417 207.12 38.1 207.337 37.9C207.57 37.7 207.837 37.6 208.137 37.6C208.437 37.6 208.695 37.7 208.912 37.9C209.128 38.1 209.237 38.3417 209.237 38.625C209.237 38.9083 209.128 39.1583 208.912 39.375C208.695 39.575 208.437 39.675 208.137 39.675ZM208.112 55C207.895 55 207.703 54.9333 207.537 54.8C207.387 54.6667 207.312 54.5167 207.312 54.35V43.8C207.312 43.6 207.387 43.45 207.537 43.35C207.703 43.2333 207.895 43.175 208.112 43.175C208.345 43.175 208.537 43.2333 208.687 43.35C208.853 43.45 208.937 43.6 208.937 43.8V54.35C208.937 54.5167 208.853 54.6667 208.687 54.8C208.537 54.9333 208.345 55 208.112 55ZM216.348 55.175C215.498 55.175 214.715 54.9583 213.998 54.525C213.281 54.075 212.698 53.4917 212.248 52.775C211.815 52.0417 211.598 51.2583 211.598 50.425V47.725C211.598 46.875 211.806 46.1 212.223 45.4C212.656 44.6833 213.231 44.1083 213.948 43.675C214.681 43.2417 215.481 43.025 216.348 43.025C217.198 43.025 217.981 43.2417 218.698 43.675C219.431 44.0917 220.015 44.65 220.448 45.35C220.881 46.05 221.098 46.8417 221.098 47.725V50.425C221.098 51.2417 220.881 52.0167 220.448 52.75C220.015 53.4833 219.431 54.075 218.698 54.525C217.981 54.9583 217.198 55.175 216.348 55.175ZM216.348 53.675C216.931 53.675 217.456 53.525 217.923 53.225C218.39 52.9083 218.765 52.5 219.048 52C219.331 51.5 219.473 50.975 219.473 50.425V47.725C219.473 47.175 219.331 46.6583 219.048 46.175C218.781 45.6917 218.406 45.3 217.923 45C217.456 44.6833 216.931 44.525 216.348 44.525C215.765 44.525 215.24 44.6833 214.773 45C214.306 45.3 213.931 45.6917 213.648 46.175C213.365 46.6583 213.223 47.175 213.223 47.725V50.425C213.223 50.975 213.365 51.5 213.648 52C213.931 52.5 214.306 52.9083 214.773 53.225C215.256 53.525 215.781 53.675 216.348 53.675ZM224.567 55C224.35 55 224.158 54.9333 223.992 54.8C223.842 54.6667 223.767 54.5167 223.767 54.35V43.8C223.767 43.6 223.842 43.45 223.992 43.35C224.158 43.2333 224.35 43.175 224.567 43.175C224.783 43.175 224.967 43.2333 225.117 43.35C225.267 43.45 225.342 43.6 225.342 43.8V44.925C225.608 44.4417 226.025 44.0083 226.592 43.625C227.158 43.225 227.858 43.025 228.692 43.025C229.492 43.025 230.225 43.2417 230.892 43.675C231.575 44.0917 232.117 44.6583 232.517 45.375C232.917 46.075 233.117 46.8583 233.117 47.725V54.35C233.117 54.5667 233.033 54.7333 232.867 54.85C232.7 54.95 232.508 55 232.292 55C232.108 55 231.925 54.95 231.742 54.85C231.575 54.7333 231.492 54.5667 231.492 54.35V47.725C231.492 47.175 231.35 46.6583 231.067 46.175C230.783 45.6917 230.408 45.3 229.942 45C229.475 44.6833 228.958 44.525 228.392 44.525C227.892 44.525 227.408 44.6583 226.942 44.925C226.492 45.175 226.117 45.5333 225.817 46C225.533 46.4667 225.392 47.0417 225.392 47.725V54.35C225.392 54.5167 225.308 54.6667 225.142 54.8C224.992 54.9333 224.8 55 224.567 55Z" fill="#2D5781"/>
<path d="M557.384 550.627L557.836 551.909C554.784 552.772 553.258 555.942 553.258 561.418C553.258 566.92 554.784 570.077 557.836 570.891L557.384 572.197C555.521 571.75 554.06 570.635 553.002 568.853C551.944 567.07 551.415 564.592 551.415 561.418C551.415 558.245 551.944 555.763 553.002 553.972C554.068 552.182 555.529 551.067 557.384 550.627ZM560.607 556.707C561.649 554.42 563.231 553.276 565.355 553.276C566.389 553.276 567.268 553.614 567.992 554.29C568.725 554.957 569.091 555.872 569.091 557.036C569.091 557.752 568.92 558.444 568.578 559.111C568.236 559.771 567.789 560.373 567.235 560.918C566.682 561.455 566.072 561.988 565.404 562.517C564.737 563.038 564.066 563.571 563.39 564.116C562.723 564.661 562.108 565.219 561.547 565.789C560.985 566.35 560.521 566.997 560.155 567.729C559.789 568.454 559.594 569.211 559.569 570H570.788V568.523H561.767C562.027 568.002 562.401 567.477 562.89 566.948C563.386 566.411 563.911 565.919 564.464 565.471C565.026 565.015 565.616 564.548 566.234 564.067C566.861 563.587 567.455 563.095 568.017 562.59C568.578 562.086 569.087 561.561 569.542 561.016C569.998 560.462 570.36 559.848 570.629 559.172C570.906 558.497 571.044 557.793 571.044 557.061C571.044 556.165 570.881 555.372 570.556 554.68C570.238 553.988 569.803 553.439 569.25 553.032C568.696 552.617 568.078 552.308 567.394 552.104C566.71 551.893 565.982 551.787 565.209 551.787C563.809 551.787 562.597 552.133 561.571 552.825C560.546 553.508 559.7 554.591 559.032 556.072L560.607 556.707ZM577.123 569.634C577.921 570.081 578.828 570.305 579.845 570.305C580.862 570.305 581.77 570.081 582.567 569.634C583.365 569.186 584.016 568.556 584.521 567.742C585.025 566.928 585.408 565.968 585.668 564.861C585.928 563.746 586.059 562.513 586.059 561.162C586.059 559.803 585.928 558.558 585.668 557.427C585.408 556.296 585.021 555.311 584.508 554.473C584.004 553.626 583.353 552.971 582.555 552.507C581.766 552.035 580.862 551.799 579.845 551.799C578.828 551.799 577.921 552.035 577.123 552.507C576.334 552.971 575.683 553.626 575.17 554.473C574.665 555.311 574.283 556.296 574.022 557.427C573.762 558.558 573.632 559.803 573.632 561.162C573.632 562.513 573.762 563.746 574.022 564.861C574.283 565.968 574.665 566.928 575.17 567.742C575.674 568.556 576.326 569.186 577.123 569.634ZM577.465 554.265C578.124 553.573 578.917 553.228 579.845 553.228C580.773 553.228 581.566 553.573 582.226 554.265C582.885 554.949 583.373 555.881 583.69 557.061C584.008 558.241 584.167 559.608 584.167 561.162C584.167 562.676 584.012 564.002 583.703 565.142C583.402 566.273 582.921 567.176 582.262 567.852C581.603 568.527 580.797 568.865 579.845 568.865C578.893 568.865 578.087 568.527 577.428 567.852C576.769 567.176 576.285 566.273 575.976 565.142C575.674 564.002 575.524 562.676 575.524 561.162C575.524 559.608 575.683 558.241 576 557.061C576.317 555.881 576.806 554.949 577.465 554.265ZM590.966 553.789V570H592.748V552.129H591.173L588.158 553.35L588.695 554.766L590.966 553.789ZM605.81 562.151C605.395 562.46 604.971 562.721 604.54 562.932C604.117 563.144 603.681 563.306 603.234 563.42C602.786 563.534 602.339 563.591 601.891 563.591C601.11 563.591 600.373 563.469 599.682 563.225C598.998 562.981 598.388 562.631 597.851 562.175C597.322 561.72 596.903 561.13 596.593 560.405C596.284 559.673 596.129 558.855 596.129 557.952C596.129 557.431 596.178 556.926 596.276 556.438C596.374 555.942 596.516 555.461 596.703 554.998C596.898 554.534 597.155 554.111 597.472 553.728C597.79 553.337 598.152 553 598.559 552.715C598.974 552.422 599.458 552.194 600.011 552.031C600.573 551.868 601.183 551.787 601.842 551.787C603.861 551.787 605.354 552.532 606.322 554.021C607.291 555.502 607.775 557.691 607.775 560.588C607.775 562.135 607.62 563.522 607.311 564.751C607.002 565.972 606.566 566.981 606.005 567.778C605.451 568.576 604.788 569.186 604.015 569.609C603.242 570.024 602.388 570.232 601.452 570.232C600.223 570.232 598.888 569.849 597.448 569.084L597.948 567.729C599.242 568.438 600.39 568.792 601.391 568.792C602.668 568.792 603.69 568.23 604.455 567.107C605.228 565.984 605.679 564.332 605.81 562.151ZM605.883 560.564C605.891 560.369 605.895 559.998 605.895 559.453C605.895 558.908 605.867 558.395 605.81 557.915C605.761 557.427 605.675 556.943 605.553 556.462C605.431 555.982 605.26 555.555 605.041 555.181C604.829 554.798 604.573 554.46 604.271 554.167C603.979 553.866 603.612 553.634 603.173 553.472C602.742 553.309 602.261 553.228 601.732 553.228C601.22 553.228 600.736 553.333 600.28 553.545C599.832 553.757 599.433 554.058 599.083 554.448C598.742 554.839 598.469 555.335 598.266 555.938C598.07 556.532 597.973 557.187 597.973 557.903C597.973 558.652 598.074 559.307 598.278 559.868C598.481 560.422 598.766 560.861 599.132 561.187C599.499 561.512 599.914 561.752 600.377 561.907C600.841 562.061 601.354 562.139 601.916 562.139C602.542 562.139 603.205 561.996 603.905 561.711C604.605 561.427 605.264 561.044 605.883 560.564ZM610.265 572.197L609.813 570.916C612.865 570.053 614.391 566.883 614.391 561.406C614.391 555.905 612.865 552.747 609.813 551.934L610.265 550.627C612.129 551.075 613.59 552.19 614.647 553.972C615.705 555.754 616.234 558.232 616.234 561.406C616.234 564.58 615.701 567.062 614.635 568.853C613.577 570.643 612.121 571.758 610.265 572.197Z" fill="black"/>
</svg>
