<svg viewBox="0,0,300,225" width="300" height="225" xmlns="http://www.w3.org/2000/svg" xmlns:xlink="http://www.w3.org/1999/xlink"><g width="240" height="90" transform="translate(125, 125)"><g class="axisWrapper"><circle class="gridCircle" r="75" style="fill: rgb(205, 205, 205); stroke: rgb(205, 205, 205); fill-opacity: 0.1;"/><circle class="gridCircle" r="37.5" style="fill: rgb(205, 205, 205); stroke: rgb(205, 205, 205); fill-opacity: 0.1;"/><g class="axis"><line x1="0" y1="0" x2="5.051668046482832e-15" y2="-82.5" class="line" style="stroke: white; stroke-width: 2px;"/><text class="legend" text-anchor="middle" dy="0.35em" x="5.143516556418884e-15" y="-79.00000000000001" style="font: 8px sans-serif;">Stationary Fuel Combustion</text></g><g class="axis"><line x1="0" y1="0" x2="82.5" y2="0" class="line" style="stroke: white; stroke-width: 2px;"/><text class="legend" text-anchor="middle" dy="0.35em" x="84.00000000000001" y="5" style="font: 8px sans-serif;">Industrial and Other Processes</text></g><g class="axis"><line x1="0" y1="0" x2="5.051668046482832e-15" y2="82.5" class="line" style="stroke: white; stroke-width: 2px;"/><text class="legend" text-anchor="middle" dy="0.35em" x="5.143516556418884e-15" y="89.00000000000001" style="font: 8px sans-serif;">Highway Vehicles</text></g><g class="axis"><line x1="0" y1="0" x2="-82.5" y2="1.0103336092965664e-14" class="line" style="stroke: white; stroke-width: 2px;"/><text class="legend" text-anchor="middle" dy="0.35em" x="-84.00000000000001" y="5.000000000000011" style="font: 8px sans-serif;">Non-Road Mobile</text></g></g><g><g data-name="CO" fill="#644195"><path d="M20.905534109999998,-1.2800947716138654e-15C20.905534109999998,5.535684316249999,6.964315683750002,26.818305780000003,3.2842952332031963e-15,26.818305780000003C-6.964315683749995,26.818305780000003,-20.8803599925,5.535684316250004,-20.8803599925,3.8356599044789366e-15C-20.8803599925,-5.535684316249997,-6.964315683749999,-6.3958001174999985,0,-6.395800117499999C6.964315683749999,-6.3958001175,20.905534109999998,-5.535684316250001,20.905534109999998,-1.2800947716138654e-15" fill="#644195" fill-opacity="0.1" stroke="#644195" stroke-width="1"/><circle r="2" cx="3.91629807094132e-16" cy="-6.395800117499999" style="fill-opacity: 0.8;"/><circle r="2" cx="20.905534109999998" cy="0" style="fill-opacity: 0.8;"/><circle r="2" cx="1.6421476166015982e-15" cy="26.818305780000003" style="fill-opacity: 0.8;"/><circle r="2" cx="-20.8803599925" cy="2.5571066029859577e-15" style="fill-opacity: 0.8;"/></g><g data-name="CO" fill="#644195"><path d="M20.905534109999998,-1.2800947716138654e-15C20.905534109999998,5.535684316249999,6.964315683750002,26.818305780000003,3.2842952332031963e-15,26.818305780000003C-6.964315683749995,26.818305780000003,-20.8803599925,5.535684316250004,-20.8803599925,3.8356599044789366e-15C-20.8803599925,-5.535684316249997,-6.964315683749999,-6.3958001174999985,0,-6.395800117499999C6.964315683749999,-6.3958001175,20.905534109999998,-5.535684316250001,20.905534109999998,-1.2800947716138654e-15" fill="#644195" fill-opacity="0.1" stroke="#644195" stroke-width="1"/><circle r="2" cx="3.91629807094132e-16" cy="-6.395800117499999" style="fill-opacity: 0.8;"/><circle r="2" cx="20.905534109999998" cy="0" style="fill-opacity: 0.8;"/><circle r="2" cx="1.6421476166015982e-15" cy="26.818305780000003" style="fill-opacity: 0.8;"/><circle r="2" cx="-20.8803599925" cy="2.5571066029859577e-15" style="fill-opacity: 0.8;"/></g><g data-name="CO" fill="#644195"><path d="M20.905534109999998,-1.2800947716138654e-15C20.905534109999998,5.535684316249999,6.964315683750002,26.818305780000003,3.2842952332031963e-15,26.818305780000003C-6.964315683749995,26.818305780000003,-20.8803599925,5.535684316250004,-20.8803599925,3.8356599044789366e-15C-20.8803599925,-5.535684316249997,-6.964315683749999,-6.3958001174999985,0,-6.395800117499999C6.964315683749999,-6.3958001175,20.905534109999998,-5.535684316250001,20.905534109999998,-1.2800947716138654e-15" fill="#644195" fill-opacity="0.1" stroke="#644195" stroke-width="1"/><circle r="2" cx="3.91629807094132e-16" cy="-6.395800117499999" style="fill-opacity: 0.8;"/><circle r="2" cx="20.905534109999998" cy="0" style="fill-opacity: 0.8;"/><circle r="2" cx="1.6421476166015982e-15" cy="26.818305780000003" style="fill-opacity: 0.8;"/><circle r="2" cx="-20.8803599925" cy="2.5571066029859577e-15" style="fill-opacity: 0.8;"/></g><g data-name="CO" fill="#644195"><path d="M20.905534109999998,-1.2800947716138654e-15C20.905534109999998,5.535684316249999,6.964315683750002,26.818305780000003,3.2842952332031963e-15,26.818305780000003C-6.964315683749995,26.818305780000003,-20.8803599925,5.535684316250004,-20.8803599925,3.8356599044789366e-15C-20.8803599925,-5.535684316249997,-6.964315683749999,-6.3958001174999985,0,-6.395800117499999C6.964315683749999,-6.3958001175,20.905534109999998,-5.535684316250001,20.905534109999998,-1.2800947716138654e-15" fill="#644195" fill-opacity="0.1" stroke="#644195" stroke-width="1"/><circle r="2" cx="3.91629807094132e-16" cy="-6.395800117499999" style="fill-opacity: 0.8;"/><circle r="2" cx="20.905534109999998" cy="0" style="fill-opacity: 0.8;"/><circle r="2" cx="1.6421476166015982e-15" cy="26.818305780000003" style="fill-opacity: 0.8;"/><circle r="2" cx="-20.8803599925" cy="2.5571066029859577e-15" style="fill-opacity: 0.8;"/></g></g><text x="0" y="-100" text-anchor="middle" style="font: 12px sans-serif;">CO Emission Source Contributions</text><title> CO Sources: 
 Stationary Fuel Combustion: 8.52773349
 Industrial and Other Processes: 27.87404548
 Highway Vehicles: 35.75774104
 Non-Road Mobile: 27.84047999</title></g></svg>