<svg viewBox="0,0,300,225" width="300" height="225" xmlns="http://www.w3.org/2000/svg" xmlns:xlink="http://www.w3.org/1999/xlink"><g width="240" height="90" transform="translate(125, 125)"><g class="axisWrapper"><circle class="gridCircle" r="75" style="fill: rgb(205, 205, 205); stroke: rgb(205, 205, 205); fill-opacity: 0.1;"/><circle class="gridCircle" r="37.5" style="fill: rgb(205, 205, 205); stroke: rgb(205, 205, 205); fill-opacity: 0.1;"/><g class="axis"><line x1="0" y1="0" x2="5.051668046482832e-15" y2="-82.5" class="line" style="stroke: white; stroke-width: 2px;"/><text class="legend" text-anchor="middle" dy="0.35em" x="5.143516556418884e-15" y="-79.00000000000001" style="font: 8px sans-serif;">Stationary Fuel Combustion</text></g><g class="axis"><line x1="0" y1="0" x2="82.5" y2="0" class="line" style="stroke: white; stroke-width: 2px;"/><text class="legend" text-anchor="middle" dy="0.35em" x="84.00000000000001" y="5" style="font: 8px sans-serif;">Industrial and Other Processes</text></g><g class="axis"><line x1="0" y1="0" x2="5.051668046482832e-15" y2="82.5" class="line" style="stroke: white; stroke-width: 2px;"/><text class="legend" text-anchor="middle" dy="0.35em" x="5.143516556418884e-15" y="89.00000000000001" style="font: 8px sans-serif;">Highway Vehicles</text></g><g class="axis"><line x1="0" y1="0" x2="-82.5" y2="1.0103336092965664e-14" class="line" style="stroke: white; stroke-width: 2px;"/><text class="legend" text-anchor="middle" dy="0.35em" x="-84.00000000000001" y="5.000000000000011" style="font: 8px sans-serif;">Non-Road Mobile</text></g></g><g><g data-name="NH3" fill="#BBDD93"><path d="M70.4162976075,-4.311754673641615e-15C70.4162976075,0.7528786536249956,11.747121346124999,2.125775021999999,2.603323576399694e-16,2.125775022C-11.747121346124999,2.125775022000001,-0.06643046924999994,0.752878653625,-0.06643046924999998,1.2203079229930373e-17C-0.06643046925000003,-0.752878653625,-11.747121346124999,-2.391496899749999,0,-2.39149689975C11.747121346124999,-2.391496899750001,70.4162976075,-0.7528786536250043,70.4162976075,-4.311754673641615e-15" fill="#BBDD93" fill-opacity="0.1" stroke="#BBDD93" stroke-width="1"/><circle r="2" cx="1.464369511724828e-16" cy="-2.39149689975" style="fill-opacity: 0.8;"/><circle r="2" cx="70.4162976075" cy="0" style="fill-opacity: 0.8;"/><circle r="2" cx="1.301661788199847e-16" cy="2.125775022" style="fill-opacity: 0.8;"/><circle r="2" cx="-0.06643046924999998" cy="8.135386153286915e-18" style="fill-opacity: 0.8;"/></g><g data-name="NH3" fill="#BBDD93"><path d="M70.4162976075,-4.311754673641615e-15C70.4162976075,0.7528786536249956,11.747121346124999,2.125775021999999,2.603323576399694e-16,2.125775022C-11.747121346124999,2.125775022000001,-0.06643046924999994,0.752878653625,-0.06643046924999998,1.2203079229930373e-17C-0.06643046925000003,-0.752878653625,-11.747121346124999,-2.391496899749999,0,-2.39149689975C11.747121346124999,-2.391496899750001,70.4162976075,-0.7528786536250043,70.4162976075,-4.311754673641615e-15" fill="#BBDD93" fill-opacity="0.1" stroke="#BBDD93" stroke-width="1"/><circle r="2" cx="1.464369511724828e-16" cy="-2.39149689975" style="fill-opacity: 0.8;"/><circle r="2" cx="70.4162976075" cy="0" style="fill-opacity: 0.8;"/><circle r="2" cx="1.301661788199847e-16" cy="2.125775022" style="fill-opacity: 0.8;"/><circle r="2" cx="-0.06643046924999998" cy="8.135386153286915e-18" style="fill-opacity: 0.8;"/></g><g data-name="NH3" fill="#BBDD93"><path d="M70.4162976075,-4.311754673641615e-15C70.4162976075,0.7528786536249956,11.747121346124999,2.125775021999999,2.603323576399694e-16,2.125775022C-11.747121346124999,2.125775022000001,-0.06643046924999994,0.752878653625,-0.06643046924999998,1.2203079229930373e-17C-0.06643046925000003,-0.752878653625,-11.747121346124999,-2.391496899749999,0,-2.39149689975C11.747121346124999,-2.391496899750001,70.4162976075,-0.7528786536250043,70.4162976075,-4.311754673641615e-15" fill="#BBDD93" fill-opacity="0.1" stroke="#BBDD93" stroke-width="1"/><circle r="2" cx="1.464369511724828e-16" cy="-2.39149689975" style="fill-opacity: 0.8;"/><circle r="2" cx="70.4162976075" cy="0" style="fill-opacity: 0.8;"/><circle r="2" cx="1.301661788199847e-16" cy="2.125775022" style="fill-opacity: 0.8;"/><circle r="2" cx="-0.06643046924999998" cy="8.135386153286915e-18" style="fill-opacity: 0.8;"/></g><g data-name="NH3" fill="#BBDD93"><path d="M70.4162976075,-4.311754673641615e-15C70.4162976075,0.7528786536249956,11.747121346124999,2.125775021999999,2.603323576399694e-16,2.125775022C-11.747121346124999,2.125775022000001,-0.06643046924999994,0.752878653625,-0.06643046924999998,1.2203079229930373e-17C-0.06643046925000003,-0.752878653625,-11.747121346124999,-2.391496899749999,0,-2.39149689975C11.747121346124999,-2.391496899750001,70.4162976075,-0.7528786536250043,70.4162976075,-4.311754673641615e-15" fill="#BBDD93" fill-opacity="0.1" stroke="#BBDD93" stroke-width="1"/><circle r="2" cx="1.464369511724828e-16" cy="-2.39149689975" style="fill-opacity: 0.8;"/><circle r="2" cx="70.4162976075" cy="0" style="fill-opacity: 0.8;"/><circle r="2" cx="1.301661788199847e-16" cy="2.125775022" style="fill-opacity: 0.8;"/><circle r="2" cx="-0.06643046924999998" cy="8.135386153286915e-18" style="fill-opacity: 0.8;"/></g></g><text x="0" text-anchor="middle" y="-100" style="font: 12px sans-serif;">NH3 Emission Source Contributions</text><title> NH3 Sources: 
 Stationary Fuel Combustion: 3.188662533
 Industrial and Other Processes: 93.88839681
 Highway Vehicles: 2.834366696
 Non-Road Mobile: 0.088573959</title></g></svg>