<svg viewBox="0,0,300,225" width="300" height="225" xmlns="http://www.w3.org/2000/svg" xmlns:xlink="http://www.w3.org/1999/xlink"><g width="240" height="90" transform="translate(125, 125)"><g class="axisWrapper"><circle class="gridCircle" r="75" style="fill: rgb(205, 205, 205); stroke: rgb(205, 205, 205); fill-opacity: 0.1;"/><circle class="gridCircle" r="37.5" style="fill: rgb(205, 205, 205); stroke: rgb(205, 205, 205); fill-opacity: 0.1;"/><g class="axis"><line x1="0" y1="0" x2="5.051668046482832e-15" y2="-82.5" class="line" style="stroke: white; stroke-width: 2px;"/><text class="legend" text-anchor="middle" dy="0.35em" x="5.143516556418884e-15" y="-79.00000000000001" style="font: 8px sans-serif;">Stationary Fuel Combustion</text></g><g class="axis"><line x1="0" y1="0" x2="82.5" y2="0" class="line" style="stroke: white; stroke-width: 2px;"/><text class="legend" text-anchor="middle" dy="0.35em" x="84.00000000000001" y="5" style="font: 8px sans-serif;">Industrial and Other Processes</text></g><g class="axis"><line x1="0" y1="0" x2="5.051668046482832e-15" y2="82.5" class="line" style="stroke: white; stroke-width: 2px;"/><text class="legend" text-anchor="middle" dy="0.35em" x="5.143516556418884e-15" y="89.00000000000001" style="font: 8px sans-serif;">Highway Vehicles</text></g><g class="axis"><line x1="0" y1="0" x2="-82.5" y2="1.0103336092965664e-14" class="line" style="stroke: white; stroke-width: 2px;"/><text class="legend" text-anchor="middle" dy="0.35em" x="-84.00000000000001" y="5.000000000000011" style="font: 8px sans-serif;">Non-Road Mobile</text></g></g><g><g data-name="NOx" fill="#549D3F"><path d="M10.70483934,-6.554823616558833e-16C10.70483934,7.467182602499999,5.032817397500002,24.245689657499998,2.969240623217746e-15,24.245689657499998C-5.032817397499997,24.245689657499998,-19.492065045,7.467182602500004,-19.492065045,3.5806342599196884e-15C-19.492065045,-7.467182602499997,-5.0328173975,-20.557405957500002,0,-20.557405957500002C5.0328173975,-20.557405957500002,10.70483934,-7.467182602500001,10.70483934,-6.554823616558833e-16" fill="#549D3F" fill-opacity="0.1" stroke="#549D3F" stroke-width="1"/><circle r="2" cx="1.2587780702312554e-15" cy="-20.557405957500002" style="fill-opacity: 0.8;"/><circle r="2" cx="10.70483934" cy="0" style="fill-opacity: 0.8;"/><circle r="2" cx="1.484620311608873e-15" cy="24.245689657499998" style="fill-opacity: 0.8;"/><circle r="2" cx="-19.492065045" cy="2.387089506613126e-15" style="fill-opacity: 0.8;"/></g><g data-name="NOx" fill="#549D3F"><path d="M10.70483934,-6.554823616558833e-16C10.70483934,7.467182602499999,5.032817397500002,24.245689657499998,2.969240623217746e-15,24.245689657499998C-5.032817397499997,24.245689657499998,-19.492065045,7.467182602500004,-19.492065045,3.5806342599196884e-15C-19.492065045,-7.467182602499997,-5.0328173975,-20.557405957500002,0,-20.557405957500002C5.0328173975,-20.557405957500002,10.70483934,-7.467182602500001,10.70483934,-6.554823616558833e-16" fill="#549D3F" fill-opacity="0.1" stroke="#549D3F" stroke-width="1"/><circle r="2" cx="1.2587780702312554e-15" cy="-20.557405957500002" style="fill-opacity: 0.8;"/><circle r="2" cx="10.70483934" cy="0" style="fill-opacity: 0.8;"/><circle r="2" cx="1.484620311608873e-15" cy="24.245689657499998" style="fill-opacity: 0.8;"/><circle r="2" cx="-19.492065045" cy="2.387089506613126e-15" style="fill-opacity: 0.8;"/></g><g data-name="NOx" fill="#549D3F"><path d="M10.70483934,-6.554823616558833e-16C10.70483934,7.467182602499999,5.032817397500002,24.245689657499998,2.969240623217746e-15,24.245689657499998C-5.032817397499997,24.245689657499998,-19.492065045,7.467182602500004,-19.492065045,3.5806342599196884e-15C-19.492065045,-7.467182602499997,-5.0328173975,-20.557405957500002,0,-20.557405957500002C5.0328173975,-20.557405957500002,10.70483934,-7.467182602500001,10.70483934,-6.554823616558833e-16" fill="#549D3F" fill-opacity="0.1" stroke="#549D3F" stroke-width="1"/><circle r="2" cx="1.2587780702312554e-15" cy="-20.557405957500002" style="fill-opacity: 0.8;"/><circle r="2" cx="10.70483934" cy="0" style="fill-opacity: 0.8;"/><circle r="2" cx="1.484620311608873e-15" cy="24.245689657499998" style="fill-opacity: 0.8;"/><circle r="2" cx="-19.492065045" cy="2.387089506613126e-15" style="fill-opacity: 0.8;"/></g><g data-name="NOx" fill="#549D3F"><path d="M10.70483934,-6.554823616558833e-16C10.70483934,7.467182602499999,5.032817397500002,24.245689657499998,2.969240623217746e-15,24.245689657499998C-5.032817397499997,24.245689657499998,-19.492065045,7.467182602500004,-19.492065045,3.5806342599196884e-15C-19.492065045,-7.467182602499997,-5.0328173975,-20.557405957500002,0,-20.557405957500002C5.0328173975,-20.557405957500002,10.70483934,-7.467182602500001,10.70483934,-6.554823616558833e-16" fill="#549D3F" fill-opacity="0.1" stroke="#549D3F" stroke-width="1"/><circle r="2" cx="1.2587780702312554e-15" cy="-20.557405957500002" style="fill-opacity: 0.8;"/><circle r="2" cx="10.70483934" cy="0" style="fill-opacity: 0.8;"/><circle r="2" cx="1.484620311608873e-15" cy="24.245689657499998" style="fill-opacity: 0.8;"/><circle r="2" cx="-19.492065045" cy="2.387089506613126e-15" style="fill-opacity: 0.8;"/></g></g><text x="0" text-anchor="middle" y="-100" style="font: 12px sans-serif;">NOx Emission Source Contributions</text><title> NOx Sources: 
 Stationary Fuel Combustion: 27.40987461
 Industrial and Other Processes: 14.27311912
 Highway Vehicles: 32.32758621
 Non-Road Mobile: 25.98942006</title></g></svg>