<svg viewBox="0,0,300,225" width="300" height="225" xmlns="http://www.w3.org/2000/svg" xmlns:xlink="http://www.w3.org/1999/xlink"><g width="240" height="90" transform="translate(125, 125)"><g class="axisWrapper"><circle class="gridCircle" r="75" style="fill: rgb(205, 205, 205); stroke: rgb(205, 205, 205); fill-opacity: 0.1;"/><circle class="gridCircle" r="37.5" style="fill: rgb(205, 205, 205); stroke: rgb(205, 205, 205); fill-opacity: 0.1;"/><g class="axis"><line x1="0" y1="0" x2="5.051668046482832e-15" y2="-82.5" class="line" style="stroke: white; stroke-width: 2px;"/><text class="legend" text-anchor="middle" dy="0.35em" x="5.143516556418884e-15" y="-79.00000000000001" style="font: 8px sans-serif;">Stationary Fuel Combustion</text></g><g class="axis"><line x1="0" y1="0" x2="82.5" y2="0" class="line" style="stroke: white; stroke-width: 2px;"/><text class="legend" text-anchor="middle" dy="0.35em" x="84.00000000000001" y="5" style="font: 8px sans-serif;">Industrial and Other Processes</text></g><g class="axis"><line x1="0" y1="0" x2="5.051668046482832e-15" y2="82.5" class="line" style="stroke: white; stroke-width: 2px;"/><text class="legend" text-anchor="middle" dy="0.35em" x="5.143516556418884e-15" y="89.00000000000001" style="font: 8px sans-serif;">Highway Vehicles</text></g><g class="axis"><line x1="0" y1="0" x2="-82.5" y2="1.0103336092965664e-14" class="line" style="stroke: white; stroke-width: 2px;"/><text class="legend" text-anchor="middle" dy="0.35em" x="-84.00000000000001" y="5.000000000000011" style="font: 8px sans-serif;">Non-Road Mobile</text></g></g><g><g data-name="PM10" fill="#D0352B"><path d="M34.60580913,-2.1189946691479372e-15C34.60580913,5.778008298749998,6.7219917015,7.686721994999998,9.413519487112307e-16,7.686721994999999C-6.721991701499999,7.686721995,-5.726141079,5.7780082987500005,-5.726141079,1.051875051579528e-15C-5.726141079,-5.778008298749999,-6.7219917014999995,-26.9813277975,0,-26.9813277975C6.7219917014999995,-26.9813277975,34.60580913,-5.778008298750001,34.60580913,-2.1189946691479372e-15" fill="#D0352B" fill-opacity="0.1" stroke="#D0352B" stroke-width="1"/><circle r="2" cx="1.6521298361976941e-15" cy="-26.9813277975" style="fill-opacity: 0.8;"/><circle r="2" cx="34.60580913" cy="0" style="fill-opacity: 0.8;"/><circle r="2" cx="4.706759743556153e-16" cy="7.686721994999999" style="fill-opacity: 0.8;"/><circle r="2" cx="-5.726141079" cy="7.012500343863521e-16" style="fill-opacity: 0.8;"/></g><g data-name="PM10" fill="#D0352B"><path d="M34.60580913,-2.1189946691479372e-15C34.60580913,5.778008298749998,6.7219917015,7.686721994999998,9.413519487112307e-16,7.686721994999999C-6.721991701499999,7.686721995,-5.726141079,5.7780082987500005,-5.726141079,1.051875051579528e-15C-5.726141079,-5.778008298749999,-6.7219917014999995,-26.9813277975,0,-26.9813277975C6.7219917014999995,-26.9813277975,34.60580913,-5.778008298750001,34.60580913,-2.1189946691479372e-15" fill="#D0352B" fill-opacity="0.1" stroke="#D0352B" stroke-width="1"/><circle r="2" cx="1.6521298361976941e-15" cy="-26.9813277975" style="fill-opacity: 0.8;"/><circle r="2" cx="34.60580913" cy="0" style="fill-opacity: 0.8;"/><circle r="2" cx="4.706759743556153e-16" cy="7.686721994999999" style="fill-opacity: 0.8;"/><circle r="2" cx="-5.726141079" cy="7.012500343863521e-16" style="fill-opacity: 0.8;"/></g><g data-name="PM10" fill="#D0352B"><path d="M34.60580913,-2.1189946691479372e-15C34.60580913,5.778008298749998,6.7219917015,7.686721994999998,9.413519487112307e-16,7.686721994999999C-6.721991701499999,7.686721995,-5.726141079,5.7780082987500005,-5.726141079,1.051875051579528e-15C-5.726141079,-5.778008298749999,-6.7219917014999995,-26.9813277975,0,-26.9813277975C6.7219917014999995,-26.9813277975,34.60580913,-5.778008298750001,34.60580913,-2.1189946691479372e-15" fill="#D0352B" fill-opacity="0.1" stroke="#D0352B" stroke-width="1"/><circle r="2" cx="1.6521298361976941e-15" cy="-26.9813277975" style="fill-opacity: 0.8;"/><circle r="2" cx="34.60580913" cy="0" style="fill-opacity: 0.8;"/><circle r="2" cx="4.706759743556153e-16" cy="7.686721994999999" style="fill-opacity: 0.8;"/><circle r="2" cx="-5.726141079" cy="7.012500343863521e-16" style="fill-opacity: 0.8;"/></g><g data-name="PM10" fill="#D0352B"><path d="M34.60580913,-2.1189946691479372e-15C34.60580913,5.778008298749998,6.7219917015,7.686721994999998,9.413519487112307e-16,7.686721994999999C-6.721991701499999,7.686721995,-5.726141079,5.7780082987500005,-5.726141079,1.051875051579528e-15C-5.726141079,-5.778008298749999,-6.7219917014999995,-26.9813277975,0,-26.9813277975C6.7219917014999995,-26.9813277975,34.60580913,-5.778008298750001,34.60580913,-2.1189946691479372e-15" fill="#D0352B" fill-opacity="0.1" stroke="#D0352B" stroke-width="1"/><circle r="2" cx="1.6521298361976941e-15" cy="-26.9813277975" style="fill-opacity: 0.8;"/><circle r="2" cx="34.60580913" cy="0" style="fill-opacity: 0.8;"/><circle r="2" cx="4.706759743556153e-16" cy="7.686721994999999" style="fill-opacity: 0.8;"/><circle r="2" cx="-5.726141079" cy="7.012500343863521e-16" style="fill-opacity: 0.8;"/></g></g><text x="0" y="-100" text-anchor="middle" style="font: 12px sans-serif;">PM10 Emission Source Contributions</text><title> PM10 Sources: 
 Stationary Fuel Combustion: 35.97510373
 Industrial and Other Processes: 46.14107884
 Highway Vehicles: 10.24896266
 Non-Road Mobile: 7.634854772</title></g></svg>