<svg viewBox="0,0,300,225" width="300" height="225" xmlns="http://www.w3.org/2000/svg" xmlns:xlink="http://www.w3.org/1999/xlink"><g width="240" height="90" transform="translate(125, 125)"><g class="axisWrapper"><circle class="gridCircle" r="75" style="fill: rgb(205, 205, 205); stroke: rgb(205, 205, 205); fill-opacity: 0.1;"/><circle class="gridCircle" r="37.5" style="fill: rgb(205, 205, 205); stroke: rgb(205, 205, 205); fill-opacity: 0.1;"/><g class="axis"><line x1="0" y1="0" x2="5.051668046482832e-15" y2="-82.5" class="line" style="stroke: white; stroke-width: 2px;"/><text class="legend" text-anchor="middle" dy="0.35em" x="5.143516556418884e-15" y="-79.00000000000001" style="font: 8px sans-serif;">Stationary Fuel Combustion</text></g><g class="axis"><line x1="0" y1="0" x2="82.5" y2="0" class="line" style="stroke: white; stroke-width: 2px;"/><text class="legend" text-anchor="middle" dy="0.35em" x="84.00000000000001" y="5" style="font: 8px sans-serif;">Industrial and Other Processes</text></g><g class="axis"><line x1="0" y1="0" x2="5.051668046482832e-15" y2="82.5" class="line" style="stroke: white; stroke-width: 2px;"/><text class="legend" text-anchor="middle" dy="0.35em" x="5.143516556418884e-15" y="89.00000000000001" style="font: 8px sans-serif;">Highway Vehicles</text></g><g class="axis"><line x1="0" y1="0" x2="-82.5" y2="1.0103336092965664e-14" class="line" style="stroke: white; stroke-width: 2px;"/><text class="legend" text-anchor="middle" dy="0.35em" x="-84.00000000000001" y="5.000000000000011" style="font: 8px sans-serif;">Non-Road Mobile</text></g></g><g><g data-name="PM25" fill="#ED9F9B"><path d="M27.830769232499996,-1.704143122919488e-15C27.830769232499996,6.530769230499998,5.96923077,4.615384615499999,5.652215996206012e-16,4.6153846155C-5.9692307699999985,4.615384615500001,-7.9846153875,6.530769230500002,-7.9846153875,1.4667500515086866e-15C-7.9846153875,-6.530769230499998,-5.969230769999999,-34.5692307675,0,-34.5692307675C5.969230769999999,-34.5692307675,27.830769232499996,-6.530769230500002,27.830769232499996,-1.704143122919488e-15" fill="#ED9F9B" fill-opacity="0.1" stroke="#ED9F9B" stroke-width="1"/><circle r="2" cx="2.116754890420254e-15" cy="-34.5692307675" style="fill-opacity: 0.8;"/><circle r="2" cx="27.830769232499996" cy="0" style="fill-opacity: 0.8;"/><circle r="2" cx="2.826107998103006e-16" cy="4.6153846155" style="fill-opacity: 0.8;"/><circle r="2" cx="-7.9846153875" cy="9.778333676724578e-16" style="fill-opacity: 0.8;"/></g><g data-name="PM25" fill="#ED9F9B"><path d="M27.830769232499996,-1.704143122919488e-15C27.830769232499996,6.530769230499998,5.96923077,4.615384615499999,5.652215996206012e-16,4.6153846155C-5.9692307699999985,4.615384615500001,-7.9846153875,6.530769230500002,-7.9846153875,1.4667500515086866e-15C-7.9846153875,-6.530769230499998,-5.969230769999999,-34.5692307675,0,-34.5692307675C5.969230769999999,-34.5692307675,27.830769232499996,-6.530769230500002,27.830769232499996,-1.704143122919488e-15" fill="#ED9F9B" fill-opacity="0.1" stroke="#ED9F9B" stroke-width="1"/><circle r="2" cx="2.116754890420254e-15" cy="-34.5692307675" style="fill-opacity: 0.8;"/><circle r="2" cx="27.830769232499996" cy="0" style="fill-opacity: 0.8;"/><circle r="2" cx="2.826107998103006e-16" cy="4.6153846155" style="fill-opacity: 0.8;"/><circle r="2" cx="-7.9846153875" cy="9.778333676724578e-16" style="fill-opacity: 0.8;"/></g><g data-name="PM25" fill="#ED9F9B"><path d="M27.830769232499996,-1.704143122919488e-15C27.830769232499996,6.530769230499998,5.96923077,4.615384615499999,5.652215996206012e-16,4.6153846155C-5.9692307699999985,4.615384615500001,-7.9846153875,6.530769230500002,-7.9846153875,1.4667500515086866e-15C-7.9846153875,-6.530769230499998,-5.969230769999999,-34.5692307675,0,-34.5692307675C5.969230769999999,-34.5692307675,27.830769232499996,-6.530769230500002,27.830769232499996,-1.704143122919488e-15" fill="#ED9F9B" fill-opacity="0.1" stroke="#ED9F9B" stroke-width="1"/><circle r="2" cx="2.116754890420254e-15" cy="-34.5692307675" style="fill-opacity: 0.8;"/><circle r="2" cx="27.830769232499996" cy="0" style="fill-opacity: 0.8;"/><circle r="2" cx="2.826107998103006e-16" cy="4.6153846155" style="fill-opacity: 0.8;"/><circle r="2" cx="-7.9846153875" cy="9.778333676724578e-16" style="fill-opacity: 0.8;"/></g><g data-name="PM25" fill="#ED9F9B"><path d="M27.830769232499996,-1.704143122919488e-15C27.830769232499996,6.530769230499998,5.96923077,4.615384615499999,5.652215996206012e-16,4.6153846155C-5.9692307699999985,4.615384615500001,-7.9846153875,6.530769230500002,-7.9846153875,1.4667500515086866e-15C-7.9846153875,-6.530769230499998,-5.969230769999999,-34.5692307675,0,-34.5692307675C5.969230769999999,-34.5692307675,27.830769232499996,-6.530769230500002,27.830769232499996,-1.704143122919488e-15" fill="#ED9F9B" fill-opacity="0.1" stroke="#ED9F9B" stroke-width="1"/><circle r="2" cx="2.116754890420254e-15" cy="-34.5692307675" style="fill-opacity: 0.8;"/><circle r="2" cx="27.830769232499996" cy="0" style="fill-opacity: 0.8;"/><circle r="2" cx="2.826107998103006e-16" cy="4.6153846155" style="fill-opacity: 0.8;"/><circle r="2" cx="-7.9846153875" cy="9.778333676724578e-16" style="fill-opacity: 0.8;"/></g></g><text x="0" text-anchor="middle" y="-100" style="font: 12px sans-serif;">PM2.5 Emission Source Contributions</text><title> PM2.5 Sources: 
 Stationary Fuel Combustion: 46.09230769
 Industrial and Other Processes: 37.10769231
 Highway Vehicles: 6.153846154
 Non-Road Mobile: 10.64615385</title></g></svg>