<svg viewBox="0,0,300,225" width="300" height="225" xmlns="http://www.w3.org/2000/svg" xmlns:xlink="http://www.w3.org/1999/xlink"><g width="240" height="90" transform="translate(125, 125)"><g class="axisWrapper"><circle class="gridCircle" r="75" style="fill: rgb(205, 205, 205); stroke: rgb(205, 205, 205); fill-opacity: 0.1;"/><circle class="gridCircle" r="37.5" style="fill: rgb(205, 205, 205); stroke: rgb(205, 205, 205); fill-opacity: 0.1;"/><g class="axis"><line x1="0" y1="0" x2="5.051668046482832e-15" y2="-82.5" class="line" style="stroke: white; stroke-width: 2px;"/><text class="legend" text-anchor="middle" dy="0.35em" x="5.143516556418884e-15" y="-79.00000000000001" style="font: 8px sans-serif;">Stationary Fuel Combustion</text></g><g class="axis"><line x1="0" y1="0" x2="82.5" y2="0" class="line" style="stroke: white; stroke-width: 2px;"/><text class="legend" text-anchor="middle" dy="0.35em" x="84.00000000000001" y="5" style="font: 8px sans-serif;">Industrial and Other Processes</text></g><g class="axis"><line x1="0" y1="0" x2="5.051668046482832e-15" y2="82.5" class="line" style="stroke: white; stroke-width: 2px;"/><text class="legend" text-anchor="middle" dy="0.35em" x="5.143516556418884e-15" y="89.00000000000001" style="font: 8px sans-serif;">Highway Vehicles</text></g><g class="axis"><line x1="0" y1="0" x2="-82.5" y2="1.0103336092965664e-14" class="line" style="stroke: white; stroke-width: 2px;"/><text class="legend" text-anchor="middle" dy="0.35em" x="-84.00000000000001" y="5.000000000000011" style="font: 8px sans-serif;">Non-Road Mobile</text></g></g><g><g data-name="SO2" fill="#EF8532"><path d="M17.2297297275,-1.0550166680478437e-15C17.2297297275,9.30461711675,3.1953828824999997,0.7601351354999998,9.308970606095146e-17,0.7601351355C-3.1953828824999997,0.7601351355000002,-1.9425675675,9.304617116750002,-1.9425675675,3.5684387304995023e-16C-1.9425675675,-9.304617116750002,-3.1953828824999997,-55.06756756500001,0,-55.06756756500001C3.1953828824999997,-55.06756756500001,17.2297297275,-9.304617116750004,17.2297297275,-1.0550166680478437e-15" fill="#EF8532" fill-opacity="0.1" stroke="#EF8532" stroke-width="1"/><circle r="2" cx="3.3719160177653934e-15" cy="-55.06756756500001" style="fill-opacity: 0.8; fill: rgb(239, 133, 50);"/><circle r="2" cx="17.2297297275" cy="0" style="fill-opacity: 0.8; fill: rgb(239, 133, 50);"/><circle r="2" cx="4.654485303047573e-17" cy="0.7601351355" style="fill-opacity: 0.8; fill: rgb(239, 133, 50);"/><circle r="2" cx="-1.9425675675" cy="2.378959153666335e-16" style="fill-opacity: 0.8; fill: rgb(239, 133, 50);"/></g><g data-name="SO2" fill="#EF8532"><path d="M17.2297297275,-1.0550166680478437e-15C17.2297297275,9.30461711675,3.1953828824999997,0.7601351354999998,9.308970606095146e-17,0.7601351355C-3.1953828824999997,0.7601351355000002,-1.9425675675,9.304617116750002,-1.9425675675,3.5684387304995023e-16C-1.9425675675,-9.304617116750002,-3.1953828824999997,-55.06756756500001,0,-55.06756756500001C3.1953828824999997,-55.06756756500001,17.2297297275,-9.304617116750004,17.2297297275,-1.0550166680478437e-15" fill="#EF8532" fill-opacity="0.1" stroke="#EF8532" stroke-width="1"/><circle r="2" cx="3.3719160177653934e-15" cy="-55.06756756500001" style="fill-opacity: 0.8; fill: rgb(239, 133, 50);"/><circle r="2" cx="17.2297297275" cy="0" style="fill-opacity: 0.8; fill: rgb(239, 133, 50);"/><circle r="2" cx="4.654485303047573e-17" cy="0.7601351355" style="fill-opacity: 0.8; fill: rgb(239, 133, 50);"/><circle r="2" cx="-1.9425675675" cy="2.378959153666335e-16" style="fill-opacity: 0.8; fill: rgb(239, 133, 50);"/></g><g data-name="SO2" fill="#EF8532"><path d="M17.2297297275,-1.0550166680478437e-15C17.2297297275,9.30461711675,3.1953828824999997,0.7601351354999998,9.308970606095146e-17,0.7601351355C-3.1953828824999997,0.7601351355000002,-1.9425675675,9.304617116750002,-1.9425675675,3.5684387304995023e-16C-1.9425675675,-9.304617116750002,-3.1953828824999997,-55.06756756500001,0,-55.06756756500001C3.1953828824999997,-55.06756756500001,17.2297297275,-9.304617116750004,17.2297297275,-1.0550166680478437e-15" fill="#EF8532" fill-opacity="0.1" stroke="#EF8532" stroke-width="1"/><circle r="2" cx="3.3719160177653934e-15" cy="-55.06756756500001" style="fill-opacity: 0.8; fill: rgb(239, 133, 50);"/><circle r="2" cx="17.2297297275" cy="0" style="fill-opacity: 0.8; fill: rgb(239, 133, 50);"/><circle r="2" cx="4.654485303047573e-17" cy="0.7601351355" style="fill-opacity: 0.8; fill: rgb(239, 133, 50);"/><circle r="2" cx="-1.9425675675" cy="2.378959153666335e-16" style="fill-opacity: 0.8; fill: rgb(239, 133, 50);"/></g><g data-name="SO2" fill="#EF8532"><path d="M17.2297297275,-1.0550166680478437e-15C17.2297297275,9.30461711675,3.1953828824999997,0.7601351354999998,9.308970606095146e-17,0.7601351355C-3.1953828824999997,0.7601351355000002,-1.9425675675,9.304617116750002,-1.9425675675,3.5684387304995023e-16C-1.9425675675,-9.304617116750002,-3.1953828824999997,-55.06756756500001,0,-55.06756756500001C3.1953828824999997,-55.06756756500001,17.2297297275,-9.304617116750004,17.2297297275,-1.0550166680478437e-15" fill="#EF8532" fill-opacity="0.1" stroke="#EF8532" stroke-width="1"/><circle r="2" cx="3.3719160177653934e-15" cy="-55.06756756500001" style="fill-opacity: 0.8; fill: rgb(239, 133, 50);"/><circle r="2" cx="17.2297297275" cy="0" style="fill-opacity: 0.8; fill: rgb(239, 133, 50);"/><circle r="2" cx="4.654485303047573e-17" cy="0.7601351355" style="fill-opacity: 0.8; fill: rgb(239, 133, 50);"/><circle r="2" cx="-1.9425675675" cy="2.378959153666335e-16" style="fill-opacity: 0.8; fill: rgb(239, 133, 50);"/></g></g><text x="0" y="-100" text-anchor="middle" style="font: 12px sans-serif;">SO2 Emission Source Contributions</text><title> SO2 Sources: 
 Stationary Fuel Combustion: 73.42342342
 Industrial and Other Processes: 22.97297297
 Highway Vehicles: 1.013513514
 Non-Road Mobile: 2.59009009</title></g></svg>