<svg viewBox="0,0,300,225" width="300" height="225" xmlns="http://www.w3.org/2000/svg" xmlns:xlink="http://www.w3.org/1999/xlink"><g width="240" height="90" transform="translate(125, 125)"><g class="axisWrapper"><circle class="gridCircle" r="75" style="fill: rgb(205, 205, 205); stroke: rgb(205, 205, 205); fill-opacity: 0.1;"/><circle class="gridCircle" r="37.5" style="fill: rgb(205, 205, 205); stroke: rgb(205, 205, 205); fill-opacity: 0.1;"/><g class="axis"><line x1="0" y1="0" x2="5.051668046482832e-15" y2="-82.5" class="line" style="stroke: white; stroke-width: 2px;"/><text class="legend" text-anchor="middle" dy="0.35em" x="5.143516556418884e-15" y="-79.00000000000001" style="font: 8px sans-serif;">Stationary Fuel Combustion</text></g><g class="axis"><line x1="0" y1="0" x2="82.5" y2="0" class="line" style="stroke: white; stroke-width: 2px;"/><text class="legend" text-anchor="middle" dy="0.35em" x="84.00000000000001" y="5" style="font: 8px sans-serif;">Industrial and Other Processes</text></g><g class="axis"><line x1="0" y1="0" x2="5.051668046482832e-15" y2="82.5" class="line" style="stroke: white; stroke-width: 2px;"/><text class="legend" text-anchor="middle" dy="0.35em" x="5.143516556418884e-15" y="89.00000000000001" style="font: 8px sans-serif;">Highway Vehicles</text></g><g class="axis"><line x1="0" y1="0" x2="-82.5" y2="1.0103336092965664e-14" class="line" style="stroke: white; stroke-width: 2px;"/><text class="legend" text-anchor="middle" dy="0.35em" x="-84.00000000000001" y="5.000000000000011" style="font: 8px sans-serif;">Non-Road Mobile</text></g></g><g><g data-name="VOC" fill="steelblue"><path d="M54.180546299999996,-3.3176016301174983e-15C54.180546299999996,1.9690576648749967,10.53094233375,8.9329335975,1.0939688537174225e-15,8.9329335975C-10.530942333749996,8.9329335975,-9.0051077025,1.9690576648750016,-9.0051077025,1.65421144857657e-15C-9.0051077025,-1.9690576648749984,-10.530942333749998,-2.8814123917499987,0,-2.8814123917499996C10.530942333749998,-2.8814123917500005,54.180546299999996,-1.9690576648750033,54.180546299999996,-3.3176016301174983e-15" fill="#3B77AF" fill-opacity="0.1" stroke="#3B77AF" stroke-width="1"/><circle r="2" cx="1.7643562312900782e-16" cy="-2.8814123917499996" style="fill-opacity: 0.8;"/><circle r="2" cx="54.180546299999996" cy="0" style="fill-opacity: 0.8;"/><circle r="2" cx="5.469844268587113e-16" cy="8.9329335975" style="fill-opacity: 0.8;"/><circle r="2" cx="-9.0051077025" cy="1.1028076323843801e-15" style="fill-opacity: 0.8;"/></g><g data-name="VOC" fill="steelblue"><path d="M54.180546299999996,-3.3176016301174983e-15C54.180546299999996,1.9690576648749967,10.53094233375,8.9329335975,1.0939688537174225e-15,8.9329335975C-10.530942333749996,8.9329335975,-9.0051077025,1.9690576648750016,-9.0051077025,1.65421144857657e-15C-9.0051077025,-1.9690576648749984,-10.530942333749998,-2.8814123917499987,0,-2.8814123917499996C10.530942333749998,-2.8814123917500005,54.180546299999996,-1.9690576648750033,54.180546299999996,-3.3176016301174983e-15" fill="#3B77AF" fill-opacity="0.1" stroke="#3B77AF" stroke-width="1"/><circle r="2" cx="1.7643562312900782e-16" cy="-2.8814123917499996" style="fill-opacity: 0.8;"/><circle r="2" cx="54.180546299999996" cy="0" style="fill-opacity: 0.8;"/><circle r="2" cx="5.469844268587113e-16" cy="8.9329335975" style="fill-opacity: 0.8;"/><circle r="2" cx="-9.0051077025" cy="1.1028076323843801e-15" style="fill-opacity: 0.8;"/></g><g data-name="VOC" fill="steelblue"><path d="M54.180546299999996,-3.3176016301174983e-15C54.180546299999996,1.9690576648749967,10.53094233375,8.9329335975,1.0939688537174225e-15,8.9329335975C-10.530942333749996,8.9329335975,-9.0051077025,1.9690576648750016,-9.0051077025,1.65421144857657e-15C-9.0051077025,-1.9690576648749984,-10.530942333749998,-2.8814123917499987,0,-2.8814123917499996C10.530942333749998,-2.8814123917500005,54.180546299999996,-1.9690576648750033,54.180546299999996,-3.3176016301174983e-15" fill="#3B77AF" fill-opacity="0.1" stroke="#3B77AF" stroke-width="1"/><circle r="2" cx="1.7643562312900782e-16" cy="-2.8814123917499996" style="fill-opacity: 0.8;"/><circle r="2" cx="54.180546299999996" cy="0" style="fill-opacity: 0.8;"/><circle r="2" cx="5.469844268587113e-16" cy="8.9329335975" style="fill-opacity: 0.8;"/><circle r="2" cx="-9.0051077025" cy="1.1028076323843801e-15" style="fill-opacity: 0.8;"/></g><g data-name="VOC" fill="steelblue"><path d="M54.180546299999996,-3.3176016301174983e-15C54.180546299999996,1.9690576648749967,10.53094233375,8.9329335975,1.0939688537174225e-15,8.9329335975C-10.530942333749996,8.9329335975,-9.0051077025,1.9690576648750016,-9.0051077025,1.65421144857657e-15C-9.0051077025,-1.9690576648749984,-10.530942333749998,-2.8814123917499987,0,-2.8814123917499996C10.530942333749998,-2.8814123917500005,54.180546299999996,-1.9690576648750033,54.180546299999996,-3.3176016301174983e-15" fill="#3B77AF" fill-opacity="0.1" stroke="#3B77AF" stroke-width="1"/><circle r="2" cx="1.7643562312900782e-16" cy="-2.8814123917499996" style="fill-opacity: 0.8;"/><circle r="2" cx="54.180546299999996" cy="0" style="fill-opacity: 0.8;"/><circle r="2" cx="5.469844268587113e-16" cy="8.9329335975" style="fill-opacity: 0.8;"/><circle r="2" cx="-9.0051077025" cy="1.1028076323843801e-15" style="fill-opacity: 0.8;"/></g></g><text x="0" y="-100" text-anchor="middle" style="font: 12px sans-serif;">VOC Emission Source Contributions</text><title> VOC Sources: 
 Stationary Fuel Combustion: 3.841883189
 Industrial and Other Processes: 72.2407284
 Highway Vehicles: 35.75774104
 Non-Road Mobile: 12.00681027</title></g></svg>